<?xml version="1.0" encoding="utf-8"?>
<!-- Generator: Adobe Illustrator 27.0.0, SVG Export Plug-In . SVG Version: 6.00 Build 0)  -->
<svg version="1.1" id="图层_1" xmlns="http://www.w3.org/2000/svg" xmlns:xlink="http://www.w3.org/1999/xlink" x="0px" y="0px"
	 viewBox="0 0 428 51" style="enable-background:new 0 0 428 51;" xml:space="preserve">
<style type="text/css">
	.st0{fill:#FFFFFF;}
</style>
<g>
	<path class="st0" d="M283.8,29.5c1.4,4.4-4,6.4-5.6,2.7c-0.5-1.3,1.8-0.8,2.6-2.2c1-1.8-1.1-6.3-7-7.3
		C277.3,22.5,282.4,25.3,283.8,29.5z"/>
	<g>
		<path class="st0" d="M261.6,11c-0.3,1-1.2,1.7-2.6,1.7c0.7,1.2,0.5,2.4-0.3,3.1c-0.8,0.6-2,0.7-3.1-0.2c-0.1,1.4-1,2.2-2,2.3
			c-1,0-2-0.6-2.4-2c-1,1.1-2.1,1.2-3,0.7c-0.8-0.6-1.3-1.6-0.8-3c-1.4,0.3-2.4-0.3-2.9-1.2c-0.3-1-0.1-2.1,1.1-2.9
			c-1.3-0.6-1.8-1.7-1.6-2.7c0.3-1,1.2-1.7,2.6-1.7C246,4,246.2,2.9,247,2.2c0.8-0.6,2-0.7,3.1,0.2c0.1-1.4,1-2.2,2-2.3
			c1,0,2,0.6,2.4,2c1-1.1,2.1-1.2,3-0.7c0.8,0.6,1.3,1.7,0.8,3c1.4-0.3,2.4,0.3,2.9,1.2c0.3,1,0.1,2.1-1.1,2.9
			C261.3,8.9,261.8,10,261.6,11z M258.9,8.9L258.9,8.9c-0.6-0.1-1.2-0.2-1.9-0.3c0.7-0.1,1.3-0.3,1.9-0.6l0,0c1.3-0.6,1.2-1.5,1-2
			s-0.9-1.2-2.2-0.7l0,0c-0.6,0.2-1.1,0.5-1.7,0.9c0.5-0.5,0.9-1,1.1-1.6l0,0c0.7-1.2,0.1-2-0.4-2.2s-1.4-0.5-2.1,0.7l0,0
			c-0.3,0.5-0.6,1.1-0.9,1.7c0.1-0.7,0.1-1.3,0-1.9l0,0c-0.2-1.4-1-1.6-1.6-1.6c-0.6,0-1.4,0.4-1.3,1.9l0,0c0,0.6,0.2,1.3,0.3,1.9
			c-0.4-0.6-0.7-1.1-1.1-1.6l0,0c-0.9-1-1.8-0.7-2.2-0.4s-0.9,1.2,0,2.3l0,0c0.4,0.5,0.9,0.9,1.4,1.3c-0.6-0.3-1.2-0.5-1.9-0.6l0,0
			c-1.4-0.3-1.9,0.5-2,1c-0.1,0.5,0,1.5,1.4,1.8l0,0c0.6,0.1,1.2,0.2,1.9,0.3c-0.7,0.1-1.3,0.3-1.9,0.6l0,0c-1.3,0.6-1.2,1.5-1,2
			s0.9,1.2,2.2,0.7l0,0c0.6-0.2,1.1-0.5,1.7-0.9c-0.4,0.5-0.9,1-1.1,1.6l0,0c-0.7,1.2-0.1,1.9,0.4,2.2s1.4,0.5,2.1-0.7l0,0
			c0.3-0.5,0.6-1.1,0.9-1.8c-0.1,0.7-0.1,1.3,0,1.9l0,0c0.2,1.4,1,1.6,1.6,1.6c0.6,0,1.4-0.4,1.3-1.9l0,0c0-0.6-0.2-1.3-0.3-1.9
			c0.4,0.6,0.7,1.1,1.1,1.6l0,0c0.9,1,1.8,0.7,2.2,0.4s0.9-1.2,0-2.3l0,0c-0.4-0.5-0.9-0.9-1.4-1.4c0.6,0.3,1.2,0.5,1.9,0.6l0,0
			c1.4,0.3,1.9-0.5,2-1C260.4,10.1,260.3,9.2,258.9,8.9z"/>
		<path class="st0" d="M254,8.8c0.1,0.6-0.4,1.1-1,1.2c-0.6,0.1-1.1-0.4-1.2-1c-0.1-0.6,0.4-1.2,1-1.2C253.4,7.8,253.9,8.2,254,8.8z
			"/>
	</g>
	<g>
		<path class="st0" d="M222.8,44.1c-0.3,1-1.2,1.7-2.6,1.7c0.7,1.2,0.5,2.4-0.3,3.1c-0.8,0.6-2,0.7-3.1-0.2c-0.1,1.4-1,2.2-2,2.3
			c-1,0-2-0.6-2.4-2c-1,1.1-2.1,1.2-3,0.7c-0.8-0.6-1.3-1.7-0.8-3c-1.4,0.3-2.4-0.3-2.9-1.2c-0.3-1-0.1-2.1,1.1-2.9
			c-1.3-0.6-1.8-1.7-1.6-2.7c0.3-1,1.2-1.7,2.6-1.7c-0.7-1.2-0.5-2.4,0.3-3.1c0.8-0.6,2-0.7,3.1,0.2c0.1-1.4,1-2.2,2-2.3
			c1,0,2,0.6,2.4,2c1-1.1,2.1-1.2,3-0.7c0.8,0.6,1.3,1.7,0.8,3c1.4-0.3,2.4,0.3,2.9,1.2c0.3,1,0.1,2.1-1.1,2.9
			C222.5,42,222.9,43.1,222.8,44.1z M220.1,42L220.1,42c-0.6-0.2-1.2-0.2-1.9-0.3c0.7-0.2,1.3-0.3,1.9-0.6l0,0c1.3-0.6,1.2-1.5,1-2
			s-0.9-1.2-2.2-0.7l0,0c-0.6,0.2-1.1,0.5-1.7,0.9c0.4-0.5,0.9-1,1.1-1.6l0,0c0.7-1.2,0.1-2-0.4-2.2c-0.5-0.3-1.4-0.5-2.1,0.7l0,0
			c-0.3,0.5-0.6,1.1-0.9,1.7c0.1-0.7,0.1-1.3,0-1.9l0,0c-0.2-1.4-1-1.7-1.6-1.6c-0.6,0-1.4,0.4-1.3,1.8l0,0c0,0.6,0.2,1.3,0.3,1.9
			c-0.4-0.6-0.7-1.1-1.1-1.6l0,0c-0.9-1-1.8-0.7-2.2-0.4s-0.9,1.2,0,2.3l0,0c0.4,0.5,0.9,0.9,1.4,1.3c-0.6-0.3-1.2-0.5-1.9-0.6l0,0
			c-1.4-0.3-1.9,0.5-2,1c-0.1,0.5,0,1.5,1.4,1.8l0,0c0.6,0.2,1.2,0.2,1.9,0.3c-0.7,0.2-1.3,0.3-1.9,0.6l0,0c-1.3,0.6-1.2,1.5-1,2
			s0.9,1.2,2.2,0.7l0,0c0.6-0.2,1.1-0.5,1.7-0.9c-0.4,0.5-0.9,1-1.1,1.6l0,0c-0.7,1.2-0.1,2,0.4,2.2c0.5,0.3,1.4,0.5,2.1-0.7l0,0
			c0.3-0.5,0.6-1.1,0.9-1.8c-0.1,0.7-0.1,1.3,0,1.9l0,0c0.2,1.4,1,1.7,1.6,1.6c0.6,0,1.4-0.4,1.3-1.8l0,0c0-0.6-0.2-1.3-0.3-1.9
			c0.4,0.6,0.7,1.1,1.1,1.6l0,0c0.9,1,1.8,0.7,2.2,0.4s0.9-1.2,0-2.3l0,0c-0.4-0.5-0.9-0.9-1.4-1.3c0.6,0.3,1.2,0.5,1.9,0.6l0,0
			c1.4,0.3,1.9-0.5,2-1C221.6,43.2,221.5,42.3,220.1,42z"/>
		<path class="st0" d="M215.1,41.9c0.1,0.6-0.4,1.2-1,1.2c-0.6,0-1.1-0.4-1.2-1c-0.1-0.6,0.4-1.2,1-1.2
			C214.5,40.9,215.1,41.3,215.1,41.9z"/>
	</g>
	<g>
		<path class="st0" d="M302.5,14.8C302.5,14.7,302.6,14.7,302.5,14.8C302.5,14.7,302.5,14.7,302.5,14.8z"/>
		<path class="st0" d="M302.4,15.2c0,0.3-0.2,0.5-0.3,0.7c-0.1,0.2-0.3,0.5-0.5,0.7c0.1-0.2,0.3-0.4,0.4-0.7
			C302.2,15.6,302.4,15.4,302.4,15.2C302.4,15.1,302.4,15.1,302.4,15.2c0-0.1,0-0.1,0-0.2l0-0.1c0,0,0,0,0,0c0-0.1,0-0.1,0-0.1
			c0,0,0,0.1,0,0.1c0,0,0,0.1,0,0.1C302.5,15,302.5,15.1,302.4,15.2C302.5,15.1,302.5,15.1,302.4,15.2z"/>
		<path class="st0" d="M302.5,14.9l0,0.1c0,0.1,0,0.1,0,0.2C302.5,15,302.5,14.9,302.5,14.9z"/>
		<path class="st0" d="M302.5,15c0-0.1,0-0.1,0-0.1c0,0.1,0,0.2-0.1,0.3C302.5,15.1,302.5,15,302.5,15z"/>
		<path class="st0" d="M301.7,16.6c-0.4,0.5-1,0.9-1.5,1.3c-0.6,0.3-1.2,0.5-1.9,0.7c-0.7,0.1-1.3,0.1-2,0c-0.7-0.1-1.3-0.3-1.9-0.7
			c-1.1-0.7-2-1.9-2.3-3.2c-0.2-0.6-0.3-1.3-0.2-2c0-0.3,0-0.7,0.1-1c0.1-0.3,0.1-0.7,0.2-1c0.4-1.3,1.1-2.5,2.1-3.4
			c0.5-0.4,1.1-0.8,1.7-1.1c0.6-0.3,1.3-0.5,1.9-0.7c2.7-0.6,5.5,0,7.8,1.5c1.4,0.9,2.6,2.2,3.4,3.8c0.8,1.5,1.2,3.4,0.9,5.1
			c-0.1,0.9-0.4,1.7-0.8,2.5c-0.4,0.8-0.9,1.5-1.5,2.2c-1.2,1.3-2.6,2.4-4.2,3.2c-0.8,0.4-1.6,0.7-2.4,1c-0.9,0.3-1.7,0.4-2.6,0.6
			c-1.7,0.2-3.5,0.3-5.2,0.1l-0.6,0l-0.6-0.1l-1.3-0.2c-0.8-0.2-1.7-0.3-2.5-0.5c-1.7-0.4-3.3-0.9-4.9-1.5c-2.7-0.9-5.5-2-8.1-3
			c-0.7-0.2-1.3-0.5-2-0.7c-0.6-0.2-1.3-0.4-1.9-0.6c-1.3-0.4-2.5-0.7-3.7-1c-2.4-0.4-4.4-0.4-6,0c-1.6,0.3-2.7,1-3.4,1.5
			c0.5-0.7,1.6-1.6,3.2-2.1c1.6-0.6,3.8-0.8,6.2-0.5c1.2,0.1,2.5,0.4,3.8,0.8c1.3,0.4,2.6,0.8,3.9,1.2c2.6,0.9,5.3,1.9,7.9,2.8
			c3.2,1.1,6.4,2,9.6,2.4c0.8,0,1.6,0.2,2.5,0.1c0.4,0,0.8,0,1.2,0l1.2-0.1c0.4,0,0.8-0.1,1.2-0.2c0.4-0.1,0.8-0.1,1.2-0.2
			c0.8-0.2,1.5-0.5,2.3-0.8c1.5-0.6,2.8-1.5,3.9-2.6c1.1-1.1,2-2.5,2.4-3.9c0.1-0.4,0.2-0.7,0.2-1.1c0-0.4,0-0.8,0-1.1
			c-0.1-0.8-0.2-1.5-0.5-2.2c-0.6-1.4-1.5-2.7-2.7-3.7c-2-1.6-4.6-2.4-7.2-2.1c-1.3,0.2-2.5,0.6-3.6,1.4c-1,0.7-1.8,1.8-2.3,3
			c-0.2,0.6-0.4,1.2-0.4,1.9c0,0.6,0,1.3,0.1,1.9c0.1,0.6,0.4,1.3,0.7,1.8c0.4,0.5,0.8,1.1,1.3,1.5c0.5,0.4,1.2,0.6,1.8,0.8
			c0.6,0.1,1.3,0.2,2,0.1C299.5,18.2,300.8,17.6,301.7,16.6z"/>
		<path class="st0" d="M258.2,19.4c0.7-0.5,1.8-1.2,3.4-1.5c1.6-0.4,3.6-0.4,6,0c1.2,0.2,2.5,0.5,3.7,1c0.6,0.2,1.3,0.4,1.9,0.6
			c0.6,0.2,1.3,0.5,2,0.7c2.6,1,5.4,2,8.1,3c1.6,0.5,3.3,1.1,4.9,1.5c0.8,0.2,1.7,0.4,2.5,0.5l1.3,0.2l0.6,0.1l0.6,0
			c1.7,0.2,3.5,0.1,5.2-0.1c0.9-0.2,1.7-0.3,2.6-0.6c0.8-0.3,1.7-0.6,2.4-1c1.6-0.8,3-1.9,4.2-3.2c0.6-0.7,1.1-1.4,1.5-2.2
			c0.4-0.8,0.7-1.7,0.8-2.5c0.3-1.8-0.1-3.6-0.9-5.1c-0.8-1.5-2-2.8-3.4-3.8c-2.3-1.5-5.1-2.1-7.8-1.5c-0.7,0.1-1.3,0.4-1.9,0.7
			c-0.6,0.3-1.2,0.7-1.7,1.1c-1,0.9-1.8,2.1-2.1,3.4c-0.1,0.3-0.1,0.7-0.2,1c0,0.3-0.1,0.7-0.1,1c0,0.7,0.1,1.4,0.2,2
			c0.4,1.3,1.2,2.5,2.3,3.2c0.6,0.4,1.2,0.6,1.9,0.7c0.7,0.1,1.3,0.1,2,0c0.7-0.1,1.3-0.3,1.9-0.7c0.6-0.3,1.1-0.8,1.5-1.3
			c0.2-0.2,0.3-0.4,0.5-0.7c0.1-0.2,0.3-0.5,0.3-0.7c0,0,0,0,0-0.1c-0.2,0.7-0.5,1.3-1.1,1.8c-0.5,0.5-1.1,0.9-1.8,1.2
			c-0.7,0.3-1.4,0.4-2.1,0.5c-0.7,0-1.4,0-2.1-0.3c-0.7-0.2-1.3-0.6-1.9-1.1c-0.5-0.5-0.9-1.1-1.2-1.7c-0.6-1.3-0.7-2.8-0.5-4.2
			c0.3-1.8,1.4-3.6,3-4.7c1.6-1.1,3.5-1.6,5.4-1.5c1.9,0.1,3.8,0.6,5.4,1.7c1.6,1.1,2.9,2.6,3.7,4.3c0.5,1.1,0.8,2.5,0.8,3.8
			c-0.1,1.4-0.5,2.8-1.3,4.1c-1.6,2.5-4.2,4.4-7.2,5.5c-3,1-6.3,1.2-9.5,0.7c-3.2-0.4-6.3-1.3-9.2-2.3c-2.9-1-5.7-2.1-8.3-3
			c-1.3-0.5-2.6-0.9-3.8-1.3c-1.2-0.4-2.4-0.7-3.5-0.9c-2.3-0.4-4.4-0.4-6,0.1s-2.9,1.2-3.6,1.9C257.8,19.8,258.1,19.5,258.2,19.4
			L258.2,19.4z"/>
		<path class="st0" d="M257.6,19.9C257.6,19.9,257.6,19.9,257.6,19.9C257.6,19.9,257.6,19.9,257.6,19.9L257.6,19.9
			c0.1-0.1,0.4-0.5,0.5-0.5l0,0l0,0C258.1,19.5,257.8,19.8,257.6,19.9C257.7,19.9,257.6,19.9,257.6,19.9z"/>
		<path class="st0" d="M301.7,16.6c-0.9,1-2.2,1.7-3.5,1.8c-0.7,0.1-1.4,0-2-0.1c-0.7-0.1-1.3-0.4-1.8-0.8c-0.5-0.4-1-0.9-1.3-1.5
			c-0.3-0.6-0.6-1.2-0.7-1.8c-0.1-0.6-0.1-1.3-0.1-1.9c0.1-0.6,0.2-1.3,0.4-1.9c0.5-1.2,1.2-2.3,2.3-3c1-0.8,2.3-1.2,3.6-1.4
			c2.6-0.3,5.2,0.4,7.2,2.1c1.2,1,2.2,2.2,2.7,3.7c0.3,0.7,0.5,1.5,0.5,2.2c0,0.4,0,0.8,0,1.1c0,0.4-0.1,0.8-0.2,1.1
			c-0.4,1.5-1.2,2.8-2.4,3.9c-1.1,1.1-2.5,2-3.9,2.6c-0.7,0.3-1.5,0.6-2.3,0.8c-0.4,0.1-0.8,0.1-1.2,0.2s-0.8,0.1-1.2,0.2l-1.2,0.1
			c-0.4,0-0.8,0-1.2,0c-0.8,0-1.6-0.1-2.5-0.1c-3.3-0.4-6.5-1.3-9.6-2.4c-2.6-0.9-5.3-1.9-7.9-2.8c-1.3-0.5-2.6-0.9-3.9-1.2
			c-1.3-0.4-2.6-0.6-3.8-0.8c-2.5-0.3-4.6-0.1-6.2,0.5c-1.6,0.5-2.7,1.5-3.2,2.1l0,0c-0.1,0.1-0.4,0.4-0.5,0.5
			c0.1-0.2,0.3-0.4,0.5-0.6c0.2-0.2,0.4-0.4,0.7-0.7c0.5-0.4,1.2-0.9,2.1-1.2c1.7-0.7,4-1,6.7-0.7c1.4,0.2,2.8,0.5,4.2,0.9
			c1.4,0.4,2.8,0.9,4.3,1.4c2.9,1,5.8,2.1,8.6,3c1.6,0.5,3.2,1,4.8,1.3c0.8,0.1,1.6,0.4,2.4,0.4c0.4,0,0.8,0.1,1.2,0.2l1.2,0.1
			c0.4,0,0.8,0,1.2,0c0.4,0,0.8,0,1.2,0c0.8-0.1,1.6-0.1,2.4-0.3c0.8-0.1,1.6-0.3,2.3-0.5c0.8-0.2,1.5-0.6,2.2-0.9
			c0.7-0.4,1.3-0.8,2-1.3c0.6-0.5,1.2-1,1.6-1.6c0.5-0.6,0.9-1.2,1.2-1.9c0.2-0.3,0.3-0.7,0.4-1.1c0.1-0.4,0.2-0.7,0.2-1.1
			c0.2-1.5-0.2-3-0.9-4.4c-0.7-1.3-1.8-2.5-3.1-3.3c-2.2-1.4-5-2-7.5-1.3c-0.6,0.2-1.2,0.4-1.8,0.7c-0.6,0.3-1.1,0.7-1.5,1.2
			c-0.4,0.5-0.8,1-1.1,1.6c-0.3,0.6-0.5,1.2-0.6,1.9c-0.1,0.6-0.2,1.3-0.1,2s0.2,1.3,0.5,1.9c0.3,0.6,0.7,1.1,1.1,1.6
			c0.5,0.5,1.1,0.8,1.7,1c0.6,0.2,1.3,0.3,2,0.3c0.7,0,1.4-0.2,2-0.4c0.6-0.3,1.2-0.6,1.7-1.1c0.5-0.5,0.9-1.1,1.1-1.8c0,0,0,0,0,0
			c0,0.3-0.2,0.5-0.3,0.7C302,16.1,301.8,16.4,301.7,16.6z"/>
		<path class="st0" d="M257.6,19.9C257.7,19.9,257.7,19.9,257.6,19.9C257.6,19.9,257.6,20,257.6,19.9
			C257.6,19.9,257.6,19.9,257.6,19.9z"/>
	</g>
	<g>
		<path class="st0" d="M261.1,15.4c0,0,0.1-0.1,0.3-0.2s0.5-0.3,0.8-0.5c0.6-0.5,1.4-1.2,1.9-2.1c0.5-0.9,0.9-1.9,1-2.6
			c0.1-0.8,0.1-1.3,0.1-1.4c0-0.2,0.2-0.4,0.5-0.6c0.3-0.2,0.7-0.3,1.1-0.2s0.8,0.1,1.1,0.4c0.3,0.2,0.4,0.6,0.4,0.9
			c0,0.2-0.3,0.9-0.8,1.9c-0.5,0.9-1.3,1.9-2.3,2.7c-1,0.8-2,1.3-2.9,1.5c-0.4,0.1-0.8,0.2-1,0.2C261.2,15.4,261.1,15.4,261.1,15.4z
			"/>
	</g>
	<g>
		<path class="st0" d="M265.3,14.6c0,0,0.2,0,0.5,0c0.3,0,0.8-0.1,1.3-0.2c1.1-0.2,2.4-0.7,3.6-1.5c1.2-0.8,2.2-1.8,2.8-2.6
			c0.2-0.2,0.3-0.4,0.4-0.6c0.1-0.2,0.2-0.4,0.3-0.5c0.2-0.3,0.3-0.5,0.3-0.6c0.1-0.1,0.2-0.3,0.4-0.4c0.1-0.1,0.3-0.2,0.5-0.2
			c0.4-0.1,0.8-0.1,1.2,0.1c0.4,0.2,0.7,0.5,0.8,0.9c0.1,0.2,0.1,0.4,0.1,0.6s-0.1,0.4-0.2,0.6c-0.1,0.1-0.2,0.4-0.5,0.7
			c-0.1,0.2-0.3,0.4-0.5,0.6c-0.2,0.2-0.4,0.4-0.7,0.6c-1,0.9-2.5,1.7-4,2.2c-1.5,0.5-3.1,0.6-4.2,0.5c-0.6-0.1-1-0.1-1.3-0.2
			C265.5,14.6,265.3,14.6,265.3,14.6z"/>
	</g>
	<g>
		<path class="st0" d="M271.5,14.6c0,0,0.2,0,0.6,0.1c0.4,0,1,0.1,1.7,0c1.4-0.1,3.2-0.5,5-1.2c0.9-0.3,1.8-0.7,2.6-1
			c0.8-0.3,1.6-0.7,2.1-1c1.1-0.7,1.5-1.4,1.6-1.5c0.2-0.3,0.5-0.4,0.8-0.6c0.3-0.1,0.8-0.3,1.2-0.2s0.8,0.4,0.9,0.9
			c0.1,0.5,0,1.2-0.4,1.8c-0.1,0.1-0.4,0.5-0.9,0.9c-0.5,0.4-1.2,0.9-2,1.2c-0.8,0.3-1.8,0.5-2.7,0.7c-0.9,0.2-1.9,0.3-2.9,0.5
			c-2,0.3-3.9,0.4-5.4,0.1c-0.7-0.1-1.3-0.3-1.7-0.4C271.7,14.7,271.5,14.6,271.5,14.6z"/>
	</g>
	<g>
		<path class="st0" d="M307.4,21.2C307.4,21.2,307.4,21.2,307.4,21.2C307.4,21.2,307.4,21.2,307.4,21.2z"/>
		<path class="st0" d="M307.5,21.1c0.1,0,0.2-0.1,0.4-0.1C307.7,21.1,307.6,21.1,307.5,21.1L307.5,21.1L307.5,21.1L307.5,21.1
			L307.5,21.1c-0.1,0.1-0.1,0.1-0.1,0C307.3,21.2,307.4,21.2,307.5,21.1C307.4,21.2,307.4,21.2,307.5,21.1L307.5,21.1
			C307.4,21.2,307.5,21.2,307.5,21.1z"/>
		<path class="st0" d="M307.4,21.2L307.4,21.2L307.4,21.2C307.4,21.2,307.4,21.2,307.4,21.2z"/>
		<path class="st0" d="M307.4,21.2C307.4,21.2,307.4,21.2,307.4,21.2C307.4,21.2,307.4,21.2,307.4,21.2L307.4,21.2z"/>
		<path class="st0" d="M307.8,21c1.2-0.5,2.5-0.6,3.8-0.3c1.3,0.3,2.6,1.1,3.2,2.4c0.4,0.8,0.6,1.7,0.6,2.6c0,0.9-0.3,1.9-1,2.7
			c-1.3,1.6-3.8,2.1-5.6,1c-0.8-0.5-1.4-1.2-1.7-2.1c-0.1-0.4-0.2-0.9-0.1-1.4c0.1-0.5,0.3-0.9,0.5-1.2c0.5-0.6,1.2-0.9,1.7-0.9
			c0.5,0,0.9,0.2,1,0.4c-0.2,0.1-0.5,0.2-0.8,0.4s-0.5,0.5-0.6,0.9c-0.1,0.2-0.1,0.4-0.1,0.5c0,0.2,0,0.4,0.1,0.5
			c0.2,0.4,0.5,0.8,0.9,1c0.9,0.6,2.4,0.5,3.2-0.3c0.9-0.8,1.2-2.3,0.8-3.6c-0.3-1.1-1.2-2-2.3-2.5C310.4,20.8,309.1,20.7,307.8,21z
			"/>
		<path class="st0" d="M310.3,24.4c-0.1-0.2-0.5-0.4-1-0.4c-0.5,0-1.2,0.3-1.7,0.9c-0.3,0.3-0.5,0.7-0.5,1.2c-0.1,0.5,0,0.9,0.1,1.4
			c0.3,0.9,0.9,1.6,1.7,2.1c1.9,1.1,4.3,0.6,5.6-1c0.6-0.8,0.9-1.8,1-2.7c0-0.9-0.1-1.8-0.6-2.6c-0.7-1.3-2-2.1-3.2-2.4
			c-1.3-0.3-2.6-0.2-3.8,0.3c-0.1,0-0.2,0.1-0.4,0.1c0,0,0,0,0,0c1.2-0.6,2.7-0.8,4-0.5c0.9,0.2,1.8,0.6,2.5,1.3
			c0.7,0.7,1.2,1.6,1.4,2.6c0.1,0.6,0.1,1.4,0,2.2s-0.6,1.6-1.3,2.3c-1.4,1.3-3.7,1.6-5.4,0.5c-0.8-0.5-1.4-1.3-1.7-2.2
			c-0.1-0.5-0.1-0.9,0-1.4c0.1-0.5,0.3-0.9,0.6-1.1c0.5-0.6,1.2-0.9,1.7-0.9c0.6,0,1,0.2,1.1,0.5C310.4,24.4,310.3,24.4,310.3,24.4
			L310.3,24.4z"/>
		<path class="st0" d="M310.4,24.4C310.4,24.4,310.4,24.4,310.4,24.4L310.4,24.4L310.4,24.4c0,0-0.1,0-0.2,0l0,0h0
			C310.3,24.4,310.4,24.4,310.4,24.4L310.4,24.4z"/>
		<path class="st0" d="M307.8,21c1.3-0.4,2.6-0.2,3.7,0.3s2,1.4,2.3,2.5c0.4,1.3,0,2.8-0.8,3.6c-0.8,0.8-2.3,0.9-3.2,0.3
			c-0.4-0.2-0.7-0.6-0.9-1c-0.1-0.2-0.1-0.4-0.1-0.5c0-0.1,0-0.3,0.1-0.5c0.1-0.4,0.4-0.6,0.6-0.9c0.2-0.2,0.5-0.3,0.8-0.4l0,0
			c0,0,0.1,0.1,0.1,0.1c-0.5,0.1-1.1,0.5-1.5,1.2c-0.1,0.2-0.1,0.4-0.1,0.5c0,0.2,0.1,0.4,0.2,0.6c0.2,0.4,0.6,0.8,1,1
			c1,0.5,2.4,0.3,3.1-0.6c0.8-0.9,1.1-2.4,0.6-3.6c-0.4-1.1-1.3-1.9-2.5-2.4c-1.2-0.5-2.5-0.5-3.8,0h0
			C307.6,21.1,307.7,21.1,307.8,21z"/>
		<path class="st0" d="M310.4,24.4L310.4,24.4C310.4,24.4,310.4,24.4,310.4,24.4C310.4,24.4,310.4,24.4,310.4,24.4z"/>
	</g>
	<path class="st0" d="M237.5,15.3c2-3,6.1-2.2,6.9,0.3c0.8,2.2-0.6,4.2-2.4,4.2c-1.2,0-1.7-1.2-1-1.8c0.3-0.3,1.3,0,1.4-0.5
		c0.4-1.4-1.8-2.2-3.1-0.6c-2,2.4-1.4,9.8,6.1,8.8C238.4,27.4,234.3,20.2,237.5,15.3z"/>
	<path class="st0" d="M219.4,21.2c-4.1,2.3-4,7.5-0.9,10c2.6,2,5.7,1.7,7.8-0.6c1.7-1.9,1.8-4.4,0-6.1c-1.6-1.4-5-1.4-5.5,1.4
		c-0.4,2,2.1,3.4,2.8,2c0.8-1.3-2.1-0.9-1.3-2c1.2-1.7,4.9,0.6,3.4,3.8c-1.3,2.6-4.9,3.2-6.9,1.2c-2.4-2.4-2.2-6.5,1.5-8.7
		c8.8-5.2,19.6,14.3,33.9-0.2C240.5,40.9,230,15.3,219.4,21.2z"/>
	<path class="st0" d="M220.6,15.6c1.5,1.2,5.8-1.4,10.1,4.8C226.1,10.4,218.4,13.9,220.6,15.6z"/>
	<g>
		<path class="st0" d="M264.9,21.9C264.9,21.9,265,21.9,264.9,21.9C265,21.9,264.9,21.9,264.9,21.9z"/>
		<path class="st0" d="M264.8,21.9c-0.1,0-0.3-0.1-0.5-0.1C264.5,21.8,264.7,21.9,264.8,21.9L264.8,21.9L264.8,21.9L264.8,21.9
			L264.8,21.9c0.1,0.1,0.1,0.1,0.1,0S264.9,21.9,264.8,21.9C264.9,21.9,264.9,21.9,264.8,21.9L264.8,21.9
			C264.8,21.9,264.8,21.9,264.8,21.9z"/>
		<path class="st0" d="M264.9,21.9L264.9,21.9L264.9,21.9C264.9,21.9,264.9,21.9,264.9,21.9z"/>
		<path class="st0" d="M264.9,21.9C264.9,21.9,264.9,21.9,264.9,21.9C264.9,21.9,264.9,21.9,264.9,21.9L264.9,21.9z"/>
		<path class="st0" d="M264.4,21.8c-1.5-0.4-3.1-0.4-4.6,0.1c-1.5,0.5-2.9,1.7-3.5,3.3c-0.4,1-0.5,2.1-0.3,3.2
			c0.2,1.1,0.7,2.2,1.5,3.1c1.8,1.8,4.8,2,6.8,0.5c0.9-0.7,1.5-1.6,1.7-2.7c0.1-0.5,0.1-1.1,0-1.6c-0.1-0.6-0.5-1-0.8-1.4
			c-0.7-0.7-1.5-0.9-2.1-0.8c-0.6,0-1,0.4-1.1,0.6c0.3,0.1,0.6,0.2,1,0.4c0.3,0.2,0.6,0.5,0.9,0.9c0.1,0.2,0.2,0.4,0.2,0.6
			c0,0.2,0,0.5-0.1,0.7c-0.1,0.5-0.5,1-0.9,1.3c-1,0.8-2.8,0.9-3.9,0c-1.1-0.8-1.8-2.6-1.5-4.2c0.2-1.3,1.1-2.5,2.4-3.2
			C261.2,21.8,262.8,21.5,264.4,21.8z"/>
		<path class="st0" d="M261.9,26c0.1-0.3,0.5-0.6,1.1-0.6c0.6,0,1.4,0.1,2.1,0.8c0.4,0.3,0.7,0.8,0.8,1.4c0.1,0.5,0.1,1.1,0,1.6
			c-0.2,1.1-0.9,2-1.7,2.7c-2.1,1.5-5.1,1.3-6.8-0.5c-0.9-0.9-1.3-2-1.5-3.1c-0.2-1.1-0.1-2.2,0.3-3.2c0.6-1.6,2-2.8,3.5-3.3
			c1.5-0.5,3.1-0.6,4.6-0.1c0.1,0,0.3,0.1,0.5,0.1c0,0,0,0,0,0c-1.5-0.5-3.3-0.6-4.9-0.1c-1.1,0.3-2.1,1-2.8,1.9
			c-0.8,0.9-1.2,2.1-1.3,3.3c-0.1,0.8,0,1.7,0.3,2.6c0.3,0.9,0.9,1.8,1.8,2.5c1.8,1.4,4.6,1.4,6.5-0.1c0.9-0.7,1.5-1.8,1.7-2.9
			c0.1-0.6,0-1.1-0.1-1.6c-0.2-0.5-0.5-1-0.8-1.3c-0.7-0.6-1.5-0.9-2.2-0.8c-0.7,0.1-1.1,0.4-1.2,0.8C261.8,26.1,261.9,26,261.9,26
			L261.9,26z"/>
		<path class="st0" d="M261.7,26.1C261.7,26.1,261.7,26.1,261.7,26.1L261.7,26.1L261.7,26.1c0.1,0,0.2,0,0.2-0.1l0,0h0
			C261.9,26,261.8,26.1,261.7,26.1L261.7,26.1z"/>
		<path class="st0" d="M264.4,21.8c-1.6-0.2-3.1,0.1-4.4,0.8s-2.2,1.9-2.4,3.2c-0.3,1.6,0.3,3.4,1.5,4.2c1.1,0.9,2.9,0.8,3.9,0
			c0.4-0.3,0.8-0.8,0.9-1.3c0.1-0.2,0.1-0.5,0.1-0.7c0-0.2-0.1-0.4-0.2-0.6c-0.2-0.4-0.5-0.7-0.9-0.9c-0.3-0.2-0.6-0.3-1-0.4l0,0
			c0,0-0.1,0.1-0.2,0.1c0.6,0.1,1.4,0.4,1.9,1.3c0.1,0.2,0.2,0.4,0.2,0.6c0,0.2,0,0.5-0.1,0.7c-0.2,0.5-0.6,1-1.1,1.3
			c-1.1,0.7-2.8,0.7-3.8-0.3c-1.1-0.9-1.6-2.7-1.2-4.2c0.3-1.3,1.3-2.5,2.6-3.1c1.3-0.7,3-0.9,4.5-0.5h0
			C264.7,21.9,264.5,21.8,264.4,21.8z"/>
		<path class="st0" d="M261.7,26.1L261.7,26.1C261.7,26.1,261.7,26.1,261.7,26.1C261.7,26.1,261.7,26.1,261.7,26.1z"/>
	</g>
	<g>
		<path class="st0" d="M251.9,28.9C251.9,28.9,251.9,28.8,251.9,28.9C251.9,28.8,251.9,28.9,251.9,28.9z"/>
		<path class="st0" d="M251.8,28.8L251.8,28.8L251.8,28.8L251.8,28.8L251.8,28.8C251.9,28.9,251.9,28.9,251.8,28.8L251.8,28.8
			C251.9,28.8,251.9,28.8,251.8,28.8L251.8,28.8C251.9,28.8,251.8,28.8,251.8,28.8L251.8,28.8L251.8,28.8z"/>
		<path class="st0" d="M251.9,28.9C251.9,28.9,251.9,28.9,251.9,28.9L251.9,28.9C251.9,28.9,251.9,28.9,251.9,28.9z"/>
		<path class="st0" d="M251.8,28.8C251.8,28.8,251.9,28.8,251.8,28.8C251.8,28.8,251.8,28.8,251.8,28.8L251.8,28.8z"/>
		<path class="st0" d="M251.8,28.9c-0.6,0.4-1.2,0.9-1.5,1.5c-0.5,0.8-0.8,1.9-0.5,2.9c0.1,0.4,0.3,0.8,0.7,1.1
			c0.3,0.3,0.7,0.3,1,0.2c0.2-0.3,0.3-0.6,0.3-0.9c0-0.3,0-0.6-0.1-0.8c-0.1-0.6-0.3-1.3-0.3-2.1C251.3,30.2,251.4,29.5,251.8,28.9z
			"/>
		<path class="st0" d="M251.4,34.7c-0.3,0.1-0.7,0.1-1-0.2c-0.3-0.3-0.6-0.7-0.7-1.1c-0.3-1,0-2.1,0.5-2.9c0.4-0.7,1-1.2,1.5-1.5
			l0.1-0.1l0,0c-0.3,0.2-0.6,0.4-0.9,0.7c-0.4,0.4-0.7,0.8-0.9,1.3c-0.3,0.6-0.6,1.7-0.3,2.6C249.9,34.4,250.7,35,251.4,34.7
			C251.4,34.7,251.4,34.7,251.4,34.7L251.4,34.7z"/>
		<path class="st0" d="M251.4,34.7L251.4,34.7L251.4,34.7L251.4,34.7C251.4,34.7,251.4,34.7,251.4,34.7L251.4,34.7L251.4,34.7
			C251.4,34.7,251.4,34.7,251.4,34.7L251.4,34.7z"/>
		<path class="st0" d="M251.8,28.9c-0.4,0.6-0.5,1.3-0.5,1.9c0,0.8,0.2,1.5,0.3,2.1c0.1,0.3,0.1,0.5,0.1,0.8c0,0.3-0.1,0.6-0.3,0.9
			h0c0,0,0,0,0,0c0.2-0.3,0.3-0.6,0.3-0.9c0-0.3,0-0.6-0.1-0.9c-0.1-0.6-0.3-1.3-0.3-2.1C251.3,30.2,251.5,29.5,251.8,28.9
			L251.8,28.9L251.8,28.9z"/>
		<path class="st0" d="M251.4,34.7L251.4,34.7L251.4,34.7L251.4,34.7z"/>
	</g>
	<g>
		<path class="st0" d="M283.3,26.4C283.3,26.3,283.3,26.3,283.3,26.4C283.3,26.3,283.3,26.3,283.3,26.4z"/>
		<path class="st0" d="M283.4,26.3l0.2,0.1L283.4,26.3L283.4,26.3L283.4,26.3L283.4,26.3L283.4,26.3
			C283.3,26.3,283.3,26.3,283.4,26.3C283.3,26.3,283.3,26.3,283.4,26.3C283.3,26.3,283.3,26.3,283.4,26.3L283.4,26.3L283.4,26.3z"/>
		<path class="st0" d="M283.3,26.4L283.3,26.4L283.3,26.4C283.3,26.4,283.3,26.4,283.3,26.4z"/>
		<path class="st0" d="M283.3,26.3L283.3,26.3C283.3,26.3,283.3,26.3,283.3,26.3L283.3,26.3z"/>
		<path class="st0" d="M283.5,26.4c1.2,0.2,2.4,0.4,3.5,0.9c1.4,0.6,2.9,1.5,3.9,2.8c0.4,0.5,0.8,1.2,0.9,1.8c0.1,0.6,0,1.1-0.2,1.5
			c-0.4,0-0.9-0.2-1.3-0.5s-0.8-0.8-1.2-1.2c-0.9-1-1.7-2.2-2.7-3.1C285.5,27.7,284.6,27,283.5,26.4z"/>
		<path class="st0" d="M291.6,33.3c0.3-0.3,0.4-0.9,0.2-1.5c-0.1-0.6-0.5-1.3-0.9-1.8c-1-1.3-2.5-2.2-3.9-2.8
			c-1.1-0.5-2.4-0.7-3.5-0.9l-0.2-0.1h0c0.6,0.1,1.3,0.2,1.9,0.4c0.8,0.2,1.6,0.5,2.4,0.9c1,0.5,2.4,1.4,3.3,2.5
			C291.9,31.2,292.3,32.6,291.6,33.3C291.6,33.4,291.6,33.3,291.6,33.3L291.6,33.3z"/>
		<path class="st0" d="M291.6,33.4L291.6,33.4L291.6,33.4L291.6,33.4C291.6,33.4,291.6,33.4,291.6,33.4L291.6,33.4L291.6,33.4
			C291.6,33.3,291.6,33.4,291.6,33.4C291.6,33.4,291.6,33.4,291.6,33.4z"/>
		<path class="st0" d="M283.5,26.4c1.1,0.6,2,1.3,2.8,2.2c1,1,1.9,2.1,2.7,3.1c0.4,0.4,0.8,0.9,1.2,1.2c0.4,0.3,0.9,0.5,1.3,0.5l0,0
			c0,0,0,0.1,0,0.1c-0.5,0-0.9-0.2-1.4-0.5c-0.5-0.4-0.9-0.8-1.3-1.3c-0.9-1-1.7-2.1-2.7-3.1c-0.8-0.8-1.8-1.6-2.9-2.2l0,0
			L283.5,26.4z"/>
		<path class="st0" d="M291.6,33.4C291.6,33.4,291.6,33.4,291.6,33.4C291.6,33.4,291.6,33.4,291.6,33.4L291.6,33.4z"/>
	</g>
	<g>
		<path class="st0" d="M248.6,31.3C248.6,31.3,248.6,31.3,248.6,31.3C248.6,31.3,248.6,31.3,248.6,31.3z"/>
		<path class="st0" d="M248.6,31.4l-0.1,0L248.6,31.4L248.6,31.4L248.6,31.4L248.6,31.4L248.6,31.4
			C248.6,31.3,248.6,31.3,248.6,31.4C248.6,31.4,248.6,31.4,248.6,31.4L248.6,31.4L248.6,31.4L248.6,31.4z"/>
		<path class="st0" d="M248.6,31.3L248.6,31.3L248.6,31.3C248.6,31.3,248.6,31.3,248.6,31.3z"/>
		<path class="st0" d="M248.6,31.4L248.6,31.4C248.6,31.4,248.6,31.4,248.6,31.4L248.6,31.4z"/>
		<path class="st0" d="M248.4,31.4c-0.9,0.5-1.7,1.1-2.4,1.7c-0.9,0.8-1.7,1.7-2.4,2.6c-0.3,0.4-0.7,0.8-1.1,1
			c-0.4,0.3-0.8,0.4-1.1,0.4c-0.2-0.3-0.3-0.7-0.1-1.2c0.1-0.5,0.4-1,0.8-1.5c0.9-1.1,2.1-1.8,3.3-2.3
			C246.4,31.8,247.4,31.6,248.4,31.4z"/>
		<path class="st0" d="M241.4,37.2c0.4,0,0.7-0.1,1.1-0.4c0.4-0.3,0.7-0.7,1.1-1c0.8-0.9,1.6-1.8,2.4-2.6c0.7-0.7,1.5-1.2,2.4-1.7
			l0.1,0l0,0c-0.5,0.2-0.9,0.5-1.3,0.8c-0.6,0.4-1.1,0.8-1.5,1.3c-0.6,0.6-1.4,1.5-2.1,2.3C242.9,36.5,242.2,37.2,241.4,37.2
			C241.4,37.2,241.4,37.2,241.4,37.2L241.4,37.2z"/>
		<path class="st0" d="M241.4,37.2L241.4,37.2L241.4,37.2L241.4,37.2C241.3,37.2,241.4,37.2,241.4,37.2L241.4,37.2L241.4,37.2
			C241.4,37.2,241.4,37.2,241.4,37.2C241.4,37.2,241.4,37.2,241.4,37.2z"/>
		<path class="st0" d="M248.4,31.4c-1,0.2-2.1,0.4-3,0.8c-1.2,0.5-2.4,1.2-3.3,2.3c-0.4,0.4-0.7,1-0.8,1.5c-0.1,0.5-0.1,0.9,0.1,1.2
			h0c0,0,0,0,0,0c-0.2-0.3-0.3-0.8-0.1-1.3c0.2-0.5,0.5-1.1,0.9-1.6c0.9-1,2.1-1.8,3.3-2.2c1-0.4,2.1-0.6,3.1-0.8l0,0L248.4,31.4z"
			/>
		<path class="st0" d="M241.4,37.2L241.4,37.2L241.4,37.2L241.4,37.2z"/>
	</g>
	<g>
		<path class="st0" d="M244.4,31.5C244.4,31.5,244.4,31.5,244.4,31.5C244.4,31.5,244.4,31.5,244.4,31.5z"/>
		<path class="st0" d="M244.4,31.5l-0.2,0L244.4,31.5L244.4,31.5L244.4,31.5L244.4,31.5L244.4,31.5
			C244.4,31.5,244.4,31.5,244.4,31.5C244.4,31.5,244.4,31.5,244.4,31.5L244.4,31.5L244.4,31.5C244.4,31.5,244.4,31.5,244.4,31.5z"/>
		<path class="st0" d="M244.4,31.5L244.4,31.5L244.4,31.5C244.4,31.5,244.4,31.5,244.4,31.5z"/>
		<path class="st0" d="M244.4,31.5L244.4,31.5C244.4,31.5,244.4,31.5,244.4,31.5L244.4,31.5z"/>
		<path class="st0" d="M244.2,31.6c-1.3,0.5-2.7,0.9-4.2,1c-1.8,0.2-3.8,0-5.6-0.8c-0.8-0.3-1.5-0.8-2-1.3c-0.5-0.5-0.7-1-0.7-1.4
			c0.4-0.1,0.9,0,1.5,0.1c0.6,0.2,1.3,0.5,1.9,0.7c1.6,0.6,3.2,1.2,4.8,1.5C241.3,31.8,242.7,31.8,244.2,31.6z"/>
		<path class="st0" d="M231.7,29.2c0,0.4,0.2,0.9,0.7,1.4c0.5,0.5,1.2,1,2,1.3c1.8,0.8,3.8,0.9,5.6,0.8c1.5-0.1,2.8-0.5,4.2-1l0.2,0
			h0c-0.7,0.3-1.4,0.6-2.1,0.7c-1,0.2-2,0.4-3,0.5c-1.3,0.1-3.3-0.1-4.9-0.8C232.8,31.2,231.6,30.1,231.7,29.2
			C231.7,29.2,231.7,29.2,231.7,29.2L231.7,29.2z"/>
		<path class="st0" d="M231.6,29.1L231.6,29.1L231.6,29.1L231.6,29.1C231.7,29.1,231.7,29.2,231.6,29.1L231.6,29.1L231.6,29.1
			C231.7,29.2,231.6,29.2,231.6,29.1L231.6,29.1z"/>
		<path class="st0" d="M244.2,31.6c-1.4,0.2-2.9,0.2-4.2-0.1c-1.6-0.3-3.3-0.8-4.8-1.5c-0.6-0.3-1.3-0.5-1.9-0.7
			c-0.6-0.2-1.1-0.2-1.5-0.1v0c0,0-0.1-0.1-0.1-0.1c0.4-0.1,0.9,0,1.6,0.1c0.7,0.2,1.4,0.5,2.1,0.8c1.5,0.6,3.1,1.1,4.8,1.4
			c1.4,0.2,2.8,0.3,4.3,0l0,0L244.2,31.6z"/>
		<path class="st0" d="M231.6,29.1L231.6,29.1C231.6,29.2,231.6,29.1,231.6,29.1L231.6,29.1z"/>
	</g>
	<g>
		<path class="st0" d="M268.3,20.5C268.3,20.5,268.2,20.5,268.3,20.5C268.2,20.5,268.3,20.5,268.3,20.5z"/>
		<path class="st0" d="M268.3,20.6l0.4,0.3L268.3,20.6L268.3,20.6L268.3,20.6l0-0.1c0,0,0,0,0,0c0,0,0,0,0,0S268.3,20.6,268.3,20.6
			C268.3,20.6,268.3,20.6,268.3,20.6L268.3,20.6C268.3,20.6,268.3,20.6,268.3,20.6z"/>
		<path class="st0" d="M268.3,20.5L268.3,20.5L268.3,20.5C268.4,20.6,268.3,20.6,268.3,20.5z"/>
		<path class="st0" d="M268.3,20.6C268.3,20.6,268.3,20.6,268.3,20.6C268.3,20.6,268.3,20.6,268.3,20.6L268.3,20.6z"/>
		<path class="st0" d="M268.7,21c2.3,2.4,3.2,5.7,2.9,8.7c-0.2,1.9-0.9,3.7-2,5.2c-1.1,1.5-2.7,2.7-4.4,3.5
			c-1.4,0.7-3.1,1.1-4.5,1.2c-1.4,0.1-2.4,0-3,0c0.2,0.6,1.2,1.5,2.9,1.8c1.7,0.4,3.7,0,5.5-0.7c2.1-0.9,4-2.5,5.2-4.4
			c1.2-1.9,1.9-4.2,1.8-6.3C272.9,26.4,271.3,23.1,268.7,21z"/>
		<path class="st0" d="M257.6,39.5c0.7,0,1.7,0.1,3,0c1.4-0.1,3-0.5,4.5-1.2c1.7-0.8,3.2-2,4.4-3.5c1.1-1.5,1.9-3.3,2-5.2
			c0.3-3-0.6-6.3-2.9-8.7l-0.4-0.3c0,0,0,0,0,0c1.2,1.2,2.1,2.7,2.7,4.2c0.7,2,0.8,4.3,0.3,6.3c-0.3,1.3-1,2.8-2.1,4.1
			s-2.5,2.4-4.1,3.1c-1.5,0.7-3.1,1-4.4,1.1c-1.3,0.1-2.4-0.1-3.2,0C257.5,39.4,257.6,39.5,257.6,39.5L257.6,39.5z"/>
		<path class="st0" d="M257.5,39.4C257.4,39.4,257.4,39.4,257.5,39.4C257.4,39.4,257.4,39.4,257.5,39.4L257.5,39.4
			c0,0.1,0.1,0.1,0.2,0.1h0l0,0C257.6,39.4,257.5,39.4,257.5,39.4C257.5,39.4,257.5,39.4,257.5,39.4z"/>
		<path class="st0" d="M268.7,21c2.6,2.1,4.2,5.4,4.3,9c0,2.1-0.6,4.4-1.8,6.3c-1.2,1.9-3.1,3.5-5.2,4.4c-1.8,0.8-3.8,1.1-5.5,0.7
			c-1.7-0.3-2.6-1.2-2.9-1.8h0c0,0-0.2-0.1-0.2-0.1c0.2,0.7,1.2,1.6,3,2c1.9,0.4,4.1,0,6-0.9c2.1-1,3.8-2.6,5-4.6
			c1.2-1.9,1.7-4.2,1.6-6.3c-0.2-3.6-2-6.9-4.7-9l0,0L268.7,21z"/>
		<path class="st0" d="M257.5,39.4L257.5,39.4C257.5,39.3,257.4,39.3,257.5,39.4C257.4,39.4,257.4,39.4,257.5,39.4z"/>
	</g>
	<g>
		<path class="st0" d="M272.3,38C272.4,38,272.4,38,272.3,38C272.4,38,272.4,38,272.3,38z"/>
		<path class="st0" d="M272.2,38c-0.1,0-0.2,0-0.4,0C272,38,272.1,38,272.2,38L272.2,38L272.2,38L272.2,38L272.2,38
			c0.1,0.1,0.1,0,0.1,0C272.4,38,272.3,38,272.2,38L272.2,38L272.2,38C272.3,38,272.3,38,272.2,38z"/>
		<path class="st0" d="M272.3,38L272.3,38L272.3,38C272.3,38,272.3,38,272.3,38z"/>
		<path class="st0" d="M272.3,38L272.3,38C272.3,38,272.3,38,272.3,38L272.3,38z"/>
		<path class="st0" d="M271.9,38c-1.2,0-2.4,0.4-3.4,1.2c-1,0.8-1.7,2-1.9,3.3c-0.3,1.6,0,3.5,1.3,4.9c0.6,0.7,1.5,1.3,2.5,1.5
			c1,0.2,2.1,0,3-0.5c0.8-0.4,1.4-1.2,1.7-2.1c0.3-1,0-1.9-0.4-2.5c-0.4-0.6-1-1-1.4-1.1c-0.5-0.1-0.9,0-1.1,0.2
			c0.3,0.4,0.7,1,0.8,1.7c0.1,0.8-0.1,1.3-0.8,1.7c-0.8,0.5-1.9,0.5-2.8-0.3c-0.9-0.7-1.5-1.9-1.5-3.2c0-1,0.3-2.2,1-3
			C269.6,38.9,270.7,38.2,271.9,38z"/>
		<path class="st0" d="M272.2,42.9c0.2-0.2,0.6-0.3,1.1-0.2c0.5,0.1,1,0.5,1.4,1.1c0.4,0.6,0.7,1.5,0.4,2.5
			c-0.3,0.9-0.9,1.7-1.7,2.1c-0.9,0.5-2,0.7-3,0.5c-1-0.2-1.9-0.8-2.5-1.5c-1.2-1.4-1.6-3.3-1.3-4.9c0.2-1.3,0.9-2.5,1.9-3.3
			c1-0.8,2.2-1.2,3.4-1.2c0.1,0,0.2,0,0.4,0c0,0,0,0,0,0c-1.3-0.1-2.6,0.3-3.7,1.1c-1.4,1.1-2.3,2.9-2.2,4.8c0,1.2,0.5,2.8,1.8,4
			c0.6,0.6,1.5,1,2.5,1.2c1,0.1,2-0.1,2.8-0.6c0.8-0.5,1.5-1.3,1.7-2.3c0.2-1-0.1-1.8-0.5-2.4c-0.4-0.6-1-1-1.5-1.1
			c-0.5-0.1-1,0-1.2,0.2C272,42.8,272.1,42.8,272.2,42.9L272.2,42.9z"/>
		<path class="st0" d="M272,42.9L272,42.9L272,42.9L272,42.9c0,0,0.1,0,0.2,0l0,0l0,0C272.1,42.8,272.1,42.8,272,42.9L272,42.9z"/>
		<path class="st0" d="M271.9,38c-1.2,0.2-2.3,0.9-3,1.7c-0.7,0.9-1,2-1,3c0,1.3,0.6,2.5,1.5,3.2c0.9,0.7,1.9,0.8,2.8,0.3
			c0.6-0.4,0.9-0.9,0.8-1.7c-0.1-0.7-0.5-1.2-0.8-1.7l0,0c0,0-0.1,0-0.1,0c0.4,0.4,0.8,0.9,0.9,1.7c0.1,0.4,0,0.8-0.1,1
			c-0.1,0.3-0.4,0.5-0.8,0.7c-0.4,0.2-0.9,0.3-1.3,0.2c-0.5-0.1-0.9-0.3-1.4-0.7c-0.8-0.8-1.4-1.9-1.3-3.2c0-1.1,0.4-2.2,1.1-3
			c0.8-0.9,1.9-1.5,3.1-1.6h0C272.1,38,272,38,271.9,38z"/>
		<path class="st0" d="M272,42.9L272,42.9C272,42.8,272,42.9,272,42.9L272,42.9z"/>
	</g>
	<g>
		<path class="st0" d="M291.7,26.2C291.7,26.2,291.7,26.2,291.7,26.2C291.7,26.2,291.7,26.2,291.7,26.2z"/>
		<path class="st0" d="M291.7,26.2l0.2,0L291.7,26.2L291.7,26.2L291.7,26.2L291.7,26.2L291.7,26.2C291.7,26.2,291.7,26.2,291.7,26.2
			C291.7,26.2,291.7,26.2,291.7,26.2L291.7,26.2L291.7,26.2L291.7,26.2z"/>
		<path class="st0" d="M291.7,26.2L291.7,26.2L291.7,26.2C291.7,26.2,291.7,26.2,291.7,26.2z"/>
		<path class="st0" d="M291.7,26.2L291.7,26.2C291.7,26.2,291.7,26.2,291.7,26.2L291.7,26.2z"/>
		<path class="st0" d="M291.9,26.3c1.1,0.6,2,1.4,2.8,2.2c1,1,1.9,2.1,2.8,3.2c0.4,0.5,0.8,0.9,1.3,1.3c0.5,0.3,0.9,0.5,1.4,0.5
			c0.3-0.3,0.4-0.8,0.2-1.5c-0.1-0.6-0.5-1.2-0.9-1.8c-1-1.3-2.5-2.3-3.9-2.9C294.4,26.8,293.1,26.5,291.9,26.3z"/>
		<path class="st0" d="M300.1,33.5c-0.5,0-0.9-0.2-1.4-0.5c-0.5-0.4-0.9-0.8-1.3-1.3c-0.9-1.1-1.8-2.2-2.8-3.2
			c-0.8-0.8-1.7-1.6-2.8-2.2l-0.2,0h0c0.6,0.3,1.1,0.6,1.6,1c0.6,0.5,1.2,1,1.8,1.6c0.7,0.7,1.6,1.9,2.4,2.8
			C298.3,32.7,299.1,33.5,300.1,33.5C300.1,33.5,300.1,33.5,300.1,33.5L300.1,33.5z"/>
		<path class="st0" d="M300.2,33.5L300.2,33.5L300.2,33.5L300.2,33.5C300.2,33.5,300.2,33.5,300.2,33.5L300.2,33.5L300.2,33.5
			C300.1,33.5,300.1,33.5,300.2,33.5C300.2,33.5,300.2,33.5,300.2,33.5z"/>
		<path class="st0" d="M291.9,26.3c1.2,0.2,2.5,0.5,3.7,1c1.4,0.6,2.9,1.6,3.9,2.9c0.4,0.5,0.8,1.2,0.9,1.8c0.1,0.6,0,1.1-0.2,1.5h0
			c0,0,0,0,0,0.1c0.3-0.4,0.4-0.9,0.2-1.5c-0.2-0.7-0.5-1.4-1-2c-1-1.3-2.5-2.2-3.9-2.8c-1.2-0.5-2.5-0.8-3.7-1l0,0L291.9,26.3z"/>
		<path class="st0" d="M300.2,33.5L300.2,33.5C300.2,33.5,300.2,33.6,300.2,33.5L300.2,33.5z"/>
	</g>
	<g>
		<path class="st0" d="M263.9,43.2C263.9,43.1,263.9,43.1,263.9,43.2C263.9,43.1,263.9,43.1,263.9,43.2z"/>
		<path class="st0" d="M263.8,43.1l-0.1,0.1L263.8,43.1L263.8,43.1L263.8,43.1C263.9,43.2,263.9,43.2,263.8,43.1L263.8,43.1
			C263.9,43.2,263.9,43.1,263.8,43.1C263.9,43.1,263.9,43.1,263.8,43.1C263.8,43.1,263.8,43.1,263.8,43.1L263.8,43.1L263.8,43.1z"/>
		<path class="st0" d="M263.9,43.2L263.9,43.2L263.9,43.2C263.9,43.2,263.9,43.2,263.9,43.2z"/>
		<path class="st0" d="M263.8,43.1C263.8,43.1,263.9,43.1,263.8,43.1C263.8,43.1,263.8,43.1,263.8,43.1L263.8,43.1z"/>
		<path class="st0" d="M263.7,43.3c-0.9,0.6-2,1-3,1.1c-1.3,0.2-2.5,0.2-3.8,0.2c-0.5,0-1.1,0-1.6,0c-0.5,0.1-0.9,0.3-1.2,0.6
			c0,0.4,0.3,0.9,0.8,1.2c0.5,0.3,1.2,0.5,1.9,0.6c1.6,0.1,3.2-0.4,4.5-1.2C262.2,45.1,263,44.2,263.7,43.3z"/>
		<path class="st0" d="M254.1,45.2c0.3-0.3,0.8-0.5,1.2-0.6c0.5-0.1,1-0.1,1.6,0c1.2,0,2.5,0.1,3.8-0.2c1-0.2,2.1-0.5,3-1.1l0.1-0.1
			l0,0c-0.5,0.3-1,0.6-1.5,0.8c-0.7,0.2-1.4,0.4-2.1,0.5c-0.9,0.1-2.2,0.1-3.3,0.1C255.8,44.5,254.8,44.5,254.1,45.2
			C254.1,45.1,254.1,45.2,254.1,45.2L254.1,45.2z"/>
		<path class="st0" d="M254.1,45.2L254.1,45.2L254.1,45.2L254.1,45.2C254.1,45.2,254.1,45.2,254.1,45.2L254.1,45.2L254.1,45.2
			C254.1,45.2,254.1,45.1,254.1,45.2C254.1,45.2,254.1,45.2,254.1,45.2z"/>
		<path class="st0" d="M263.7,43.3c-0.7,0.9-1.5,1.8-2.5,2.5c-1.2,0.8-2.8,1.4-4.5,1.2c-0.7,0-1.4-0.2-1.9-0.6
			c-0.5-0.3-0.7-0.8-0.8-1.2l0,0c0,0-0.1,0-0.1,0c0,0.4,0.3,0.9,0.8,1.3c0.6,0.4,1.3,0.6,2,0.6c1.6,0.1,3.2-0.5,4.4-1.3
			c1.1-0.7,1.9-1.6,2.5-2.6l0,0L263.7,43.3z"/>
		<path class="st0" d="M254.1,45.2C254.1,45.2,254.1,45.2,254.1,45.2C254.1,45.2,254.1,45.2,254.1,45.2L254.1,45.2z"/>
	</g>
	<path class="st0" d="M144.2,29.5c-1.4,4.4,4,6.4,5.6,2.7c0.5-1.3-1.8-0.8-2.6-2.2c-1-1.8,1.1-6.3,7-7.3
		C150.7,22.5,145.6,25.3,144.2,29.5z"/>
	<g>
		<path class="st0" d="M168.1,8.3c-1.2-0.8-1.5-1.9-1.1-2.9c0.4-0.9,1.4-1.5,2.9-1.2c-0.5-1.4-0.1-2.4,0.8-3c0.9-0.5,2.1-0.4,3,0.7
			c0.4-1.4,1.4-2,2.4-2c1,0.1,1.9,0.9,2,2.3c1.1-0.9,2.3-0.8,3.1-0.2c0.7,0.7,1,1.8,0.3,3.1c1.4-0.1,2.3,0.7,2.6,1.7
			c0.2,1-0.3,2.1-1.6,2.6c1.2,0.8,1.5,1.9,1.1,2.9c-0.4,0.9-1.4,1.5-2.9,1.2c0.5,1.4,0.1,2.4-0.8,3c-0.9,0.5-2.1,0.4-3-0.7
			c-0.4,1.4-1.4,2-2.4,2c-1-0.1-1.9-0.9-2-2.4c-1.1,0.9-2.3,0.8-3.1,0.2c-0.7-0.7-1-1.8-0.3-3.1c-1.4,0.1-2.3-0.7-2.6-1.7
			C166.3,10,166.7,8.9,168.1,8.3z M167.8,10.7c0.1,0.6,0.6,1.3,2,1l0,0c0.6-0.1,1.2-0.4,1.9-0.6c-0.5,0.4-1,0.9-1.4,1.4l0,0
			c-0.9,1.1-0.5,1.9,0,2.3c0.4,0.4,1.3,0.7,2.2-0.4l0,0c0.4-0.4,0.8-1,1.1-1.6c-0.2,0.7-0.3,1.3-0.3,1.9l0,0
			c-0.1,1.4,0.8,1.8,1.3,1.8c0.6,0,1.4-0.2,1.6-1.6l0,0c0.1-0.6,0.1-1.3,0-1.9c0.2,0.6,0.5,1.2,0.9,1.8l0,0c0.8,1.2,1.7,1,2.1,0.7
			s1-1,0.4-2.2l0,0c-0.3-0.5-0.7-1.1-1.1-1.6c0.6,0.4,1.1,0.7,1.7,0.9l0,0c1.3,0.5,1.9-0.2,2.2-0.7c0.2-0.5,0.2-1.4-1-2l0,0
			c-0.6-0.2-1.2-0.4-1.9-0.6c0.7,0,1.3-0.1,1.9-0.3l0,0c1.4-0.4,1.5-1.3,1.4-1.8s-0.6-1.3-2-1l0,0c-0.6,0.1-1.2,0.3-1.9,0.6
			c0.5-0.4,1-0.9,1.4-1.3l0,0c0.9-1.1,0.4-1.9,0-2.3s-1.3-0.7-2.2,0.4l0,0c-0.4,0.5-0.8,1-1.1,1.6c0.2-0.7,0.3-1.3,0.3-1.9l0,0
			c0.1-1.4-0.8-1.8-1.3-1.9c-0.6,0-1.4,0.2-1.6,1.6l0,0c-0.1,0.6-0.1,1.3,0,1.9c-0.2-0.6-0.5-1.2-0.9-1.7l0,0
			c-0.8-1.2-1.7-1-2.1-0.7s-1,1-0.4,2.2l0,0c0.3,0.5,0.7,1,1.1,1.6c-0.6-0.4-1.1-0.7-1.7-0.9l0,0c-1.3-0.5-1.9,0.2-2.2,0.7
			s-0.2,1.4,1,2l0,0c0.6,0.2,1.2,0.4,1.9,0.6c-0.7,0-1.3,0.1-1.9,0.3l0,0C167.8,9.2,167.6,10.1,167.8,10.7z"/>
		<path class="st0" d="M174.1,8.8c-0.1,0.6,0.4,1.1,1,1.2c0.6,0.1,1.1-0.4,1.2-1c0.1-0.6-0.4-1.2-1-1.2
			C174.7,7.8,174.1,8.2,174.1,8.8z"/>
	</g>
	<g>
		<path class="st0" d="M125.5,14.8C125.5,14.7,125.5,14.7,125.5,14.8C125.5,14.7,125.5,14.7,125.5,14.8z"/>
		<path class="st0" d="M125.6,15.2c0.1,0.3,0.2,0.5,0.3,0.7c0.1,0.2,0.3,0.5,0.4,0.7c-0.2-0.2-0.3-0.4-0.4-0.7
			C125.8,15.6,125.7,15.4,125.6,15.2C125.6,15.1,125.6,15.1,125.6,15.2c0-0.1,0-0.1,0-0.2l0-0.1c0,0,0,0,0,0c0-0.1-0.1-0.1,0-0.1
			c0,0,0,0.1,0,0.1c0,0,0,0.1,0,0.1C125.6,15,125.6,15.1,125.6,15.2C125.6,15.1,125.6,15.1,125.6,15.2z"/>
		<path class="st0" d="M125.5,14.9l0,0.1c0,0.1,0,0.1,0.1,0.2C125.6,15,125.6,14.9,125.5,14.9z"/>
		<path class="st0" d="M125.6,15c0-0.1,0-0.1,0-0.1c0,0.1,0,0.2,0.1,0.3C125.6,15.1,125.6,15,125.6,15z"/>
		<path class="st0" d="M126.3,16.6c0.4,0.5,1,0.9,1.5,1.3c0.6,0.3,1.2,0.5,1.9,0.7c0.7,0.1,1.3,0.1,2,0c0.7-0.1,1.3-0.3,1.9-0.7
			c1.1-0.7,1.9-1.9,2.3-3.2c0.2-0.6,0.3-1.3,0.2-2c0-0.3-0.1-0.7-0.1-1c-0.1-0.3-0.1-0.7-0.2-1c-0.4-1.3-1.1-2.5-2.1-3.4
			c-0.5-0.4-1.1-0.8-1.7-1.1c-0.6-0.3-1.3-0.5-1.9-0.7c-2.7-0.6-5.5,0-7.8,1.5c-1.4,0.9-2.6,2.2-3.4,3.8c-0.8,1.5-1.2,3.4-0.9,5.1
			c0.1,0.9,0.4,1.7,0.8,2.5c0.4,0.8,0.9,1.5,1.5,2.2c1.2,1.3,2.6,2.4,4.2,3.2c0.8,0.4,1.6,0.7,2.4,1c0.8,0.3,1.7,0.4,2.6,0.6
			c1.7,0.2,3.5,0.3,5.2,0.1l0.6,0l0.6-0.1l1.3-0.2c0.8-0.2,1.7-0.3,2.5-0.5c1.7-0.4,3.3-0.9,4.9-1.5c2.7-0.9,5.4-2,8.1-3
			c0.7-0.2,1.3-0.5,2-0.7c0.6-0.2,1.3-0.4,1.9-0.6c1.3-0.4,2.5-0.7,3.7-1c2.4-0.4,4.4-0.4,6,0c1.6,0.3,2.7,1,3.4,1.5
			c-0.6-0.7-1.6-1.6-3.2-2.1c-1.6-0.6-3.8-0.8-6.2-0.5c-1.2,0.1-2.6,0.4-3.8,0.8c-1.3,0.4-2.6,0.8-3.9,1.2c-2.6,0.9-5.3,1.9-7.9,2.8
			c-3.2,1.1-6.4,2-9.6,2.4c-0.8,0-1.6,0.2-2.4,0.1c-0.4,0-0.8,0-1.2,0l-1.2-0.1c-0.4,0-0.8-0.1-1.2-0.2c-0.4-0.1-0.8-0.1-1.2-0.2
			c-0.8-0.2-1.5-0.5-2.3-0.8c-1.4-0.6-2.8-1.5-3.9-2.6c-1.1-1.1-2-2.5-2.4-3.9c-0.1-0.4-0.2-0.7-0.2-1.1c-0.1-0.4,0-0.8,0-1.1
			c0.1-0.8,0.2-1.5,0.5-2.2c0.6-1.4,1.5-2.7,2.7-3.7c2-1.6,4.7-2.4,7.2-2.1c1.3,0.2,2.5,0.6,3.6,1.4c1.1,0.7,1.8,1.8,2.3,3
			c0.2,0.6,0.4,1.2,0.4,1.9c0,0.6,0,1.3-0.1,1.9c-0.1,0.6-0.4,1.3-0.7,1.8c-0.4,0.5-0.8,1.1-1.3,1.5c-0.6,0.4-1.2,0.6-1.8,0.8
			c-0.6,0.1-1.3,0.2-2,0.1C128.6,18.2,127.2,17.6,126.3,16.6z"/>
		<path class="st0" d="M169.9,19.4c-0.7-0.5-1.8-1.2-3.4-1.5c-1.6-0.4-3.6-0.4-6,0c-1.2,0.2-2.5,0.5-3.7,1c-0.6,0.2-1.3,0.4-1.9,0.6
			c-0.6,0.2-1.3,0.5-2,0.7c-2.6,1-5.4,2-8.1,3c-1.6,0.5-3.3,1.1-4.9,1.5c-0.8,0.2-1.7,0.4-2.5,0.5l-1.3,0.2l-0.6,0.1l-0.6,0
			c-1.7,0.2-3.5,0.1-5.2-0.1c-0.9-0.2-1.7-0.3-2.6-0.6c-0.8-0.3-1.7-0.6-2.4-1c-1.6-0.8-3-1.9-4.2-3.2c-0.6-0.7-1.1-1.4-1.5-2.2
			c-0.4-0.8-0.7-1.7-0.8-2.5c-0.3-1.8,0.1-3.6,0.9-5.1c0.8-1.5,2-2.8,3.4-3.8c2.3-1.5,5.2-2.1,7.8-1.5c0.7,0.1,1.3,0.4,1.9,0.7
			c0.6,0.3,1.2,0.7,1.7,1.1c1,0.9,1.8,2.1,2.1,3.4c0.1,0.3,0.1,0.7,0.2,1c0,0.3,0.1,0.7,0.1,1c0,0.7-0.1,1.4-0.2,2
			c-0.4,1.3-1.2,2.5-2.3,3.2c-0.6,0.4-1.2,0.6-1.9,0.7c-0.7,0.1-1.3,0.1-2,0c-0.7-0.1-1.3-0.3-1.9-0.7c-0.6-0.3-1.1-0.8-1.5-1.3
			c-0.2-0.2-0.3-0.4-0.4-0.7c-0.1-0.2-0.3-0.5-0.3-0.7c0,0,0,0,0-0.1c0.2,0.7,0.6,1.3,1.1,1.8c0.5,0.5,1.1,0.9,1.8,1.2
			c0.7,0.3,1.4,0.4,2.1,0.5c0.7,0,1.4,0,2.1-0.3c0.7-0.2,1.3-0.6,1.9-1.1c0.5-0.5,0.9-1.1,1.2-1.7c0.6-1.3,0.7-2.8,0.5-4.2
			c-0.3-1.8-1.4-3.6-3-4.7c-1.6-1.1-3.5-1.6-5.4-1.5c-1.9,0.1-3.8,0.6-5.4,1.7c-1.6,1.1-2.9,2.6-3.7,4.3c-0.5,1.1-0.8,2.5-0.8,3.8
			c0.1,1.4,0.5,2.8,1.3,4.1c1.6,2.5,4.2,4.4,7.2,5.5c3,1,6.3,1.2,9.5,0.7c3.2-0.4,6.3-1.3,9.2-2.3c2.9-1,5.7-2.1,8.3-3
			c1.3-0.5,2.6-0.9,3.8-1.3c1.2-0.4,2.4-0.7,3.5-0.9c2.3-0.4,4.4-0.4,6,0.1c1.7,0.4,2.9,1.2,3.6,1.9
			C170.2,19.8,169.9,19.5,169.9,19.4L169.9,19.4z"/>
		<path class="st0" d="M170.4,19.9C170.4,19.9,170.4,19.9,170.4,19.9C170.4,19.9,170.4,19.9,170.4,19.9L170.4,19.9
			c-0.1-0.1-0.4-0.5-0.5-0.5l0,0l0,0C170,19.5,170.2,19.8,170.4,19.9C170.4,19.9,170.4,19.9,170.4,19.9z"/>
		<path class="st0" d="M126.3,16.6c0.9,1,2.2,1.7,3.5,1.8c0.7,0.1,1.4,0,2-0.1c0.7-0.1,1.3-0.4,1.8-0.8c0.5-0.4,1-0.9,1.3-1.5
			c0.3-0.6,0.6-1.2,0.7-1.8c0.1-0.6,0.1-1.3,0.1-1.9c-0.1-0.6-0.2-1.3-0.4-1.9c-0.5-1.2-1.2-2.3-2.3-3c-1-0.8-2.3-1.2-3.6-1.4
			c-2.6-0.3-5.2,0.4-7.2,2.1c-1.2,1-2.2,2.2-2.7,3.7c-0.3,0.7-0.5,1.5-0.5,2.2c0,0.4,0,0.8,0,1.1c0,0.4,0.1,0.8,0.2,1.1
			c0.4,1.5,1.2,2.8,2.4,3.9c1.1,1.1,2.5,2,3.9,2.6c0.7,0.3,1.5,0.6,2.3,0.8c0.4,0.1,0.8,0.1,1.2,0.2c0.4,0.1,0.8,0.1,1.2,0.2
			l1.2,0.1c0.4,0,0.8,0,1.2,0c0.8,0,1.6-0.1,2.4-0.1c3.3-0.4,6.5-1.3,9.6-2.4c2.6-0.9,5.3-1.9,7.9-2.8c1.3-0.5,2.6-0.9,3.9-1.2
			c1.3-0.4,2.6-0.6,3.8-0.8c2.5-0.3,4.6-0.1,6.2,0.5c1.6,0.5,2.7,1.5,3.2,2.1l0,0c0.1,0.1,0.4,0.4,0.5,0.5c-0.1-0.2-0.3-0.4-0.5-0.6
			c-0.2-0.2-0.4-0.4-0.7-0.7c-0.5-0.4-1.2-0.9-2.1-1.2c-1.7-0.7-4-1-6.7-0.7c-1.4,0.2-2.8,0.5-4.2,0.9c-1.4,0.4-2.8,0.9-4.3,1.4
			c-2.9,1-5.8,2.1-8.6,3c-1.6,0.5-3.2,1-4.8,1.3c-0.8,0.1-1.6,0.4-2.4,0.4c-0.4,0-0.8,0.1-1.2,0.2l-1.2,0.1c-0.4,0-0.8,0-1.2,0
			c-0.4,0-0.8,0-1.2,0c-0.8-0.1-1.6-0.1-2.4-0.3c-0.8-0.1-1.6-0.3-2.3-0.5c-0.8-0.2-1.5-0.6-2.2-0.9c-0.7-0.4-1.3-0.8-2-1.3
			c-0.6-0.5-1.2-1-1.7-1.6c-0.5-0.6-0.9-1.2-1.2-1.9c-0.2-0.3-0.3-0.7-0.4-1.1c-0.1-0.4-0.2-0.7-0.2-1.1c-0.2-1.5,0.2-3,0.9-4.4
			c0.7-1.3,1.8-2.5,3.1-3.3c2.2-1.4,5-2,7.5-1.3c0.6,0.2,1.2,0.4,1.8,0.7c0.6,0.3,1.1,0.7,1.5,1.2c0.4,0.5,0.8,1,1.1,1.6
			c0.3,0.6,0.5,1.2,0.6,1.9c0.1,0.6,0.2,1.3,0.1,2s-0.2,1.3-0.5,1.9c-0.3,0.6-0.7,1.1-1.1,1.6c-0.5,0.5-1.1,0.8-1.7,1
			c-0.6,0.2-1.3,0.3-2,0.3c-0.7,0-1.4-0.2-2-0.4c-0.6-0.3-1.2-0.6-1.7-1.1c-0.5-0.5-0.9-1.1-1.1-1.8c0,0,0,0,0,0
			c0,0.3,0.2,0.5,0.3,0.7C126.1,16.1,126.2,16.4,126.3,16.6z"/>
		<path class="st0" d="M170.4,19.9C170.4,19.9,170.4,19.9,170.4,19.9C170.4,19.9,170.4,20,170.4,19.9
			C170.4,19.9,170.4,19.9,170.4,19.9z"/>
	</g>
	<g>
		<path class="st0" d="M167,15.4c0,0-0.1-0.1-0.3-0.2s-0.5-0.3-0.8-0.5c-0.6-0.5-1.4-1.2-1.9-2.1c-0.6-0.9-0.9-1.9-1-2.6
			c-0.1-0.8-0.1-1.3-0.1-1.4c0-0.2-0.2-0.4-0.5-0.6c-0.3-0.2-0.7-0.3-1.1-0.2c-0.4,0-0.8,0.1-1.1,0.4c-0.3,0.2-0.4,0.6-0.4,0.9
			c0,0.2,0.3,0.9,0.8,1.9c0.5,0.9,1.3,1.9,2.3,2.7c1,0.8,2.1,1.3,2.9,1.5c0.4,0.1,0.8,0.2,1,0.2C166.8,15.4,167,15.4,167,15.4z"/>
	</g>
	<g>
		<path class="st0" d="M162.8,14.6c0,0-0.2,0-0.5,0c-0.3,0-0.8-0.1-1.3-0.2c-1.1-0.2-2.4-0.7-3.6-1.5c-1.2-0.8-2.2-1.8-2.8-2.6
			c-0.2-0.2-0.3-0.4-0.4-0.6c-0.1-0.2-0.2-0.4-0.3-0.5c-0.2-0.3-0.3-0.5-0.3-0.6c-0.1-0.1-0.2-0.3-0.4-0.4c-0.1-0.1-0.3-0.2-0.5-0.2
			c-0.4-0.1-0.8-0.1-1.2,0.1c-0.4,0.2-0.7,0.5-0.8,0.9c-0.1,0.2-0.1,0.4-0.1,0.6s0.1,0.4,0.2,0.6c0.1,0.1,0.2,0.4,0.6,0.7
			c0.1,0.2,0.3,0.4,0.5,0.6c0.2,0.2,0.4,0.4,0.7,0.6c1,0.9,2.5,1.7,4,2.2c1.5,0.5,3.1,0.6,4.2,0.5c0.6-0.1,1-0.1,1.3-0.2
			C162.6,14.6,162.8,14.6,162.8,14.6z"/>
	</g>
	<g>
		<path class="st0" d="M156.6,14.6c0,0-0.2,0-0.6,0.1c-0.4,0-1,0.1-1.7,0c-1.4-0.1-3.2-0.5-5-1.2c-0.9-0.3-1.8-0.7-2.6-1
			c-0.8-0.3-1.6-0.7-2.1-1c-1.1-0.7-1.5-1.4-1.6-1.5c-0.2-0.3-0.5-0.4-0.8-0.6c-0.3-0.1-0.8-0.3-1.2-0.2s-0.8,0.4-0.9,0.9
			c-0.1,0.5,0,1.2,0.4,1.8c0.1,0.1,0.4,0.5,0.9,0.9c0.5,0.4,1.2,0.9,2.1,1.2c0.8,0.3,1.8,0.5,2.7,0.7c0.9,0.2,1.9,0.3,2.9,0.5
			c1.9,0.3,3.9,0.4,5.4,0.1c0.7-0.1,1.3-0.3,1.7-0.4C156.3,14.7,156.6,14.6,156.6,14.6z"/>
	</g>
	<g>
		<path class="st0" d="M120.7,21.2C120.7,21.2,120.7,21.2,120.7,21.2C120.7,21.2,120.7,21.2,120.7,21.2z"/>
		<path class="st0" d="M120.6,21.1c-0.1,0-0.2-0.1-0.4-0.1C120.3,21.1,120.4,21.1,120.6,21.1L120.6,21.1L120.6,21.1L120.6,21.1
			L120.6,21.1C120.7,21.2,120.7,21.2,120.6,21.1C120.7,21.2,120.7,21.2,120.6,21.1C120.7,21.2,120.7,21.2,120.6,21.1L120.6,21.1
			C120.6,21.2,120.6,21.2,120.6,21.1z"/>
		<path class="st0" d="M120.6,21.2L120.6,21.2L120.6,21.2C120.6,21.2,120.6,21.2,120.6,21.2z"/>
		<path class="st0" d="M120.6,21.2C120.6,21.2,120.6,21.2,120.6,21.2C120.6,21.2,120.6,21.2,120.6,21.2L120.6,21.2z"/>
		<path class="st0" d="M120.2,21c-1.2-0.5-2.5-0.6-3.8-0.3c-1.3,0.3-2.6,1.1-3.2,2.4c-0.4,0.8-0.6,1.7-0.6,2.6
			c0.1,0.9,0.3,1.9,1,2.7c1.3,1.6,3.8,2.1,5.6,1c0.8-0.5,1.4-1.2,1.7-2.1c0.1-0.4,0.2-0.9,0.1-1.4c-0.1-0.5-0.3-0.9-0.5-1.2
			c-0.5-0.6-1.2-0.9-1.7-0.9c-0.5,0-0.9,0.2-1,0.4c0.2,0.1,0.5,0.2,0.8,0.4s0.5,0.5,0.6,0.9c0.1,0.2,0.1,0.4,0.1,0.5
			c0,0.2-0.1,0.4-0.1,0.5c-0.2,0.4-0.5,0.8-0.9,1c-0.9,0.6-2.4,0.5-3.2-0.3c-0.9-0.8-1.2-2.3-0.8-3.6c0.3-1.1,1.2-2,2.3-2.5
			C117.6,20.8,118.9,20.7,120.2,21z"/>
		<path class="st0" d="M117.8,24.4c0.1-0.2,0.5-0.4,1-0.4c0.5,0,1.2,0.3,1.7,0.9c0.3,0.3,0.5,0.7,0.5,1.2c0.1,0.5,0,0.9-0.1,1.4
			c-0.3,0.9-0.9,1.6-1.7,2.1c-1.9,1.1-4.3,0.6-5.6-1c-0.6-0.8-0.9-1.8-1-2.7c0-0.9,0.2-1.8,0.6-2.6c0.7-1.3,1.9-2.1,3.2-2.4
			c1.3-0.3,2.7-0.2,3.8,0.3c0.1,0,0.2,0.1,0.4,0.1c0,0,0,0,0,0c-1.2-0.6-2.7-0.8-4.1-0.5c-0.9,0.2-1.8,0.6-2.5,1.3
			c-0.7,0.7-1.2,1.6-1.4,2.6c-0.1,0.6-0.1,1.4,0.1,2.2s0.6,1.6,1.3,2.3c1.4,1.3,3.7,1.6,5.4,0.5c0.8-0.5,1.4-1.3,1.7-2.2
			c0.1-0.5,0.1-0.9,0-1.4c-0.1-0.5-0.3-0.9-0.6-1.1c-0.5-0.6-1.2-0.9-1.7-0.9c-0.6,0-1,0.2-1.1,0.5
			C117.7,24.4,117.7,24.4,117.8,24.4L117.8,24.4z"/>
		<path class="st0" d="M117.6,24.4C117.6,24.4,117.6,24.4,117.6,24.4L117.6,24.4L117.6,24.4c0,0,0.1,0,0.2,0l0,0h0
			C117.7,24.4,117.7,24.4,117.6,24.4L117.6,24.4z"/>
		<path class="st0" d="M120.2,21c-1.3-0.4-2.6-0.2-3.7,0.3s-2,1.4-2.3,2.5c-0.4,1.3-0.1,2.8,0.8,3.6c0.8,0.8,2.3,0.9,3.2,0.3
			c0.4-0.2,0.7-0.6,0.9-1c0.1-0.2,0.1-0.4,0.1-0.5c0-0.1,0-0.3-0.1-0.5c-0.1-0.4-0.4-0.6-0.6-0.9c-0.2-0.2-0.5-0.3-0.8-0.4l0,0
			c0,0-0.1,0.1-0.2,0.1c0.5,0.1,1.2,0.5,1.5,1.2c0.1,0.2,0.1,0.4,0.1,0.5c0,0.2-0.1,0.4-0.2,0.6c-0.2,0.4-0.6,0.8-1,1
			c-1,0.5-2.4,0.3-3.1-0.6c-0.8-0.9-1.1-2.4-0.6-3.6c0.4-1.1,1.3-1.9,2.5-2.4c1.2-0.5,2.5-0.5,3.8,0h0
			C120.4,21.1,120.3,21.1,120.2,21z"/>
		<path class="st0" d="M117.6,24.4L117.6,24.4C117.6,24.4,117.6,24.4,117.6,24.4C117.6,24.4,117.6,24.4,117.6,24.4z"/>
	</g>
	<path class="st0" d="M190.5,15.3c-2-3-6.1-2.2-6.9,0.3c-0.8,2.2,0.6,4.2,2.4,4.2c1.2,0,1.7-1.2,1-1.8c-0.3-0.3-1.3,0-1.4-0.5
		c-0.4-1.4,1.8-2.2,3.1-0.6c2,2.4,1.4,9.8-6.1,8.8C189.6,27.4,193.8,20.2,190.5,15.3z"/>
	<path class="st0" d="M208.6,21.2c4.1,2.3,4,7.5,0.9,10c-2.6,2-5.7,1.7-7.8-0.6c-1.7-1.9-1.8-4.4,0-6.1c1.6-1.4,5-1.4,5.5,1.4
		c0.4,2-2.1,3.4-2.8,2c-0.8-1.3,2.1-0.9,1.3-2c-1.2-1.7-4.9,0.6-3.4,3.8c1.3,2.6,4.9,3.2,6.9,1.2c2.4-2.4,2.2-6.5-1.5-8.7
		c-8.8-5.2-19.6,14.3-33.9-0.2C187.6,40.9,198.1,15.3,208.6,21.2z"/>
	<path class="st0" d="M207.4,15.6c-1.5,1.2-5.8-1.4-10.1,4.8C201.9,10.4,209.7,13.9,207.4,15.6z"/>
	<g>
		<path class="st0" d="M163.1,21.9C163.1,21.9,163.1,21.9,163.1,21.9C163.1,21.9,163.1,21.9,163.1,21.9z"/>
		<path class="st0" d="M163.2,21.9c0.1,0,0.3-0.1,0.4-0.1C163.5,21.8,163.4,21.9,163.2,21.9L163.2,21.9L163.2,21.9L163.2,21.9
			L163.2,21.9c-0.1,0.1-0.1,0.1-0.1,0S163.1,21.9,163.2,21.9C163.2,21.9,163.2,21.9,163.2,21.9L163.2,21.9
			C163.2,21.9,163.2,21.9,163.2,21.9z"/>
		<path class="st0" d="M163.1,21.9L163.1,21.9L163.1,21.9C163.2,21.9,163.2,21.9,163.1,21.9z"/>
		<path class="st0" d="M163.2,21.9C163.2,21.9,163.1,21.9,163.2,21.9C163.2,21.9,163.2,21.9,163.2,21.9L163.2,21.9z"/>
		<path class="st0" d="M163.7,21.8c1.5-0.4,3.1-0.4,4.6,0.1c1.5,0.5,2.9,1.7,3.5,3.3c0.4,1,0.5,2.1,0.3,3.2
			c-0.2,1.1-0.7,2.2-1.5,3.1c-1.8,1.8-4.8,2-6.8,0.5c-0.9-0.7-1.5-1.6-1.7-2.7c-0.1-0.5-0.1-1.1,0-1.6c0.1-0.6,0.4-1,0.8-1.4
			c0.7-0.7,1.5-0.9,2.1-0.8c0.6,0,1,0.4,1.1,0.6c-0.3,0.1-0.6,0.2-0.9,0.4c-0.3,0.2-0.6,0.5-0.9,0.9c-0.1,0.2-0.2,0.4-0.2,0.6
			c0,0.2,0,0.5,0.1,0.7c0.1,0.5,0.5,1,0.9,1.3c1,0.8,2.8,0.9,3.9,0c1.1-0.8,1.8-2.6,1.5-4.2c-0.2-1.3-1.1-2.5-2.4-3.2
			C166.8,21.8,165.2,21.5,163.7,21.8z"/>
		<path class="st0" d="M166.1,26c-0.1-0.3-0.5-0.6-1.1-0.6c-0.6,0-1.4,0.1-2.1,0.8c-0.4,0.3-0.7,0.8-0.8,1.4c-0.1,0.5-0.1,1.1,0,1.6
			c0.2,1.1,0.9,2,1.7,2.7c2.1,1.5,5.1,1.3,6.8-0.5c0.9-0.9,1.3-2,1.5-3.1c0.2-1.1,0.1-2.2-0.3-3.2c-0.6-1.6-2-2.8-3.5-3.3
			c-1.5-0.5-3.1-0.6-4.6-0.1c-0.1,0-0.3,0.1-0.4,0.1c0,0,0,0,0,0c1.5-0.5,3.3-0.6,4.9-0.1c1.1,0.3,2.1,1,2.8,1.9
			c0.8,0.9,1.2,2.1,1.3,3.3c0.1,0.8,0,1.7-0.3,2.6c-0.3,0.9-0.9,1.8-1.8,2.5c-1.8,1.4-4.6,1.4-6.4-0.1c-0.9-0.7-1.5-1.8-1.7-2.9
			c-0.1-0.6,0-1.1,0.1-1.6c0.2-0.5,0.5-1,0.8-1.3c0.7-0.6,1.5-0.9,2.2-0.8c0.7,0.1,1.1,0.4,1.2,0.8C166.3,26.1,166.1,26,166.1,26
			L166.1,26z"/>
		<path class="st0" d="M166.3,26.1C166.3,26.1,166.3,26.1,166.3,26.1L166.3,26.1L166.3,26.1c-0.1,0-0.2,0-0.2-0.1l0,0h0
			C166.2,26,166.3,26.1,166.3,26.1L166.3,26.1z"/>
		<path class="st0" d="M163.7,21.8c1.6-0.2,3.1,0.1,4.4,0.8s2.2,1.9,2.4,3.2c0.3,1.6-0.3,3.4-1.5,4.2c-1.1,0.9-2.9,0.8-3.9,0
			c-0.4-0.3-0.8-0.8-0.9-1.3c-0.1-0.2-0.1-0.5-0.1-0.7c0-0.2,0.1-0.4,0.2-0.6c0.2-0.4,0.5-0.7,0.9-0.9c0.3-0.2,0.6-0.3,0.9-0.4l0,0
			c0,0,0.1,0.1,0.2,0.1c-0.6,0.1-1.4,0.4-1.9,1.3c-0.1,0.2-0.2,0.4-0.2,0.6c0,0.2,0,0.5,0.1,0.7c0.2,0.5,0.6,1,1.1,1.3
			c1.1,0.7,2.8,0.7,3.8-0.3c1.1-0.9,1.6-2.7,1.2-4.2c-0.3-1.3-1.3-2.5-2.6-3.1c-1.3-0.7-2.9-0.9-4.5-0.5h0
			C163.4,21.9,163.5,21.8,163.7,21.8z"/>
		<path class="st0" d="M166.3,26.1L166.3,26.1C166.3,26.1,166.3,26.1,166.3,26.1C166.3,26.1,166.3,26.1,166.3,26.1z"/>
	</g>
	<g>
		<path class="st0" d="M176.2,28.9C176.2,28.9,176.2,28.8,176.2,28.9C176.2,28.8,176.2,28.9,176.2,28.9z"/>
		<path class="st0" d="M176.2,28.8L176.2,28.8L176.2,28.8L176.2,28.8L176.2,28.8C176.2,28.9,176.2,28.9,176.2,28.8L176.2,28.8
			C176.2,28.8,176.2,28.8,176.2,28.8L176.2,28.8C176.2,28.8,176.2,28.8,176.2,28.8L176.2,28.8L176.2,28.8z"/>
		<path class="st0" d="M176.2,28.9C176.2,28.9,176.2,28.9,176.2,28.9L176.2,28.9C176.2,28.9,176.2,28.9,176.2,28.9z"/>
		<path class="st0" d="M176.2,28.8C176.2,28.8,176.2,28.8,176.2,28.8C176.2,28.8,176.2,28.8,176.2,28.8L176.2,28.8z"/>
		<path class="st0" d="M176.3,28.9c0.6,0.4,1.2,0.9,1.5,1.5c0.5,0.8,0.8,1.9,0.5,2.9c-0.1,0.4-0.3,0.8-0.7,1.1
			c-0.3,0.3-0.7,0.3-1,0.2c-0.2-0.3-0.3-0.6-0.3-0.9c0-0.3,0-0.6,0.1-0.8c0.1-0.6,0.3-1.3,0.3-2.1C176.8,30.2,176.6,29.5,176.3,28.9
			z"/>
		<path class="st0" d="M176.6,34.7c0.3,0.1,0.7,0.1,1-0.2c0.3-0.3,0.6-0.7,0.7-1.1c0.3-1,0-2.1-0.5-2.9c-0.4-0.7-1-1.2-1.5-1.5
			l-0.1-0.1l0,0c0.3,0.2,0.6,0.4,0.9,0.7c0.4,0.4,0.7,0.8,0.9,1.3c0.3,0.6,0.6,1.7,0.3,2.6C178.1,34.4,177.4,35,176.6,34.7
			C176.6,34.7,176.7,34.7,176.6,34.7L176.6,34.7z"/>
		<path class="st0" d="M176.6,34.7L176.6,34.7L176.6,34.7L176.6,34.7C176.6,34.7,176.6,34.7,176.6,34.7L176.6,34.7L176.6,34.7
			C176.7,34.7,176.6,34.7,176.6,34.7L176.6,34.7z"/>
		<path class="st0" d="M176.3,28.9c0.4,0.6,0.5,1.3,0.5,1.9c0,0.8-0.2,1.5-0.3,2.1c-0.1,0.3-0.1,0.5-0.1,0.8c0,0.3,0.1,0.6,0.3,0.9
			h0c0,0,0,0,0,0c-0.2-0.3-0.3-0.6-0.3-0.9c0-0.3,0-0.6,0.1-0.9c0.1-0.6,0.3-1.3,0.3-2.1C176.7,30.2,176.6,29.5,176.3,28.9
			L176.3,28.9L176.3,28.9z"/>
		<path class="st0" d="M176.6,34.7L176.6,34.7L176.6,34.7L176.6,34.7z"/>
	</g>
	<g>
		<path class="st0" d="M144.7,26.4C144.7,26.3,144.7,26.3,144.7,26.4C144.7,26.3,144.7,26.3,144.7,26.4z"/>
		<path class="st0" d="M144.7,26.3l-0.2,0.1L144.7,26.3L144.7,26.3L144.7,26.3L144.7,26.3L144.7,26.3
			C144.7,26.3,144.7,26.3,144.7,26.3C144.7,26.3,144.7,26.3,144.7,26.3C144.7,26.3,144.7,26.3,144.7,26.3L144.7,26.3L144.7,26.3z"/>
		<path class="st0" d="M144.7,26.4L144.7,26.4L144.7,26.4C144.7,26.4,144.7,26.4,144.7,26.4z"/>
		<path class="st0" d="M144.7,26.3L144.7,26.3C144.7,26.3,144.7,26.3,144.7,26.3L144.7,26.3z"/>
		<path class="st0" d="M144.5,26.4c-1.2,0.2-2.4,0.4-3.5,0.9c-1.4,0.6-2.9,1.5-3.9,2.8c-0.4,0.5-0.8,1.2-0.9,1.8
			c-0.1,0.6,0,1.1,0.2,1.5c0.4,0,0.9-0.2,1.3-0.5s0.8-0.8,1.2-1.2c0.9-1,1.7-2.2,2.7-3.1C142.5,27.7,143.4,27,144.5,26.4z"/>
		<path class="st0" d="M136.4,33.3c-0.3-0.3-0.4-0.9-0.2-1.5c0.1-0.6,0.5-1.3,0.9-1.8c1-1.3,2.4-2.2,3.9-2.8
			c1.1-0.5,2.4-0.7,3.5-0.9l0.2-0.1h0c-0.6,0.1-1.3,0.2-1.9,0.4c-0.8,0.2-1.6,0.5-2.4,0.9c-1,0.5-2.4,1.4-3.3,2.5
			C136.1,31.2,135.8,32.6,136.4,33.3C136.4,33.4,136.4,33.3,136.4,33.3L136.4,33.3z"/>
		<path class="st0" d="M136.4,33.4L136.4,33.4L136.4,33.4L136.4,33.4C136.4,33.4,136.5,33.4,136.4,33.4L136.4,33.4L136.4,33.4
			C136.4,33.3,136.4,33.4,136.4,33.4C136.4,33.4,136.4,33.4,136.4,33.4z"/>
		<path class="st0" d="M144.5,26.4c-1.1,0.6-2,1.3-2.8,2.2c-1,1-1.9,2.1-2.7,3.1c-0.4,0.4-0.8,0.9-1.2,1.2c-0.4,0.3-0.9,0.5-1.3,0.5
			l0,0c0,0,0,0.1,0,0.1c0.5,0,0.9-0.2,1.4-0.5c0.5-0.4,0.9-0.8,1.3-1.3c0.9-1,1.7-2.1,2.7-3.1c0.8-0.8,1.8-1.6,2.9-2.2l0,0
			L144.5,26.4z"/>
		<path class="st0" d="M136.4,33.4C136.4,33.4,136.4,33.4,136.4,33.4C136.4,33.4,136.4,33.4,136.4,33.4L136.4,33.4z"/>
	</g>
	<g>
		<path class="st0" d="M179.4,31.3C179.4,31.3,179.4,31.3,179.4,31.3C179.4,31.3,179.4,31.3,179.4,31.3z"/>
		<path class="st0" d="M179.5,31.4l0.1,0L179.5,31.4L179.5,31.4L179.5,31.4L179.5,31.4L179.5,31.4C179.4,31.3,179.4,31.3,179.5,31.4
			C179.4,31.4,179.4,31.4,179.5,31.4L179.5,31.4L179.5,31.4L179.5,31.4z"/>
		<path class="st0" d="M179.4,31.3L179.4,31.3L179.4,31.3C179.5,31.3,179.5,31.3,179.4,31.3z"/>
		<path class="st0" d="M179.4,31.4L179.4,31.4C179.4,31.4,179.4,31.4,179.4,31.4L179.4,31.4z"/>
		<path class="st0" d="M179.6,31.4c0.9,0.5,1.7,1.1,2.4,1.7c0.9,0.8,1.7,1.7,2.4,2.6c0.3,0.4,0.7,0.8,1.1,1c0.4,0.3,0.8,0.4,1.1,0.4
			c0.2-0.3,0.3-0.7,0.1-1.2c-0.1-0.5-0.4-1-0.8-1.5c-0.9-1.1-2.1-1.8-3.3-2.3C181.7,31.8,180.6,31.6,179.6,31.4z"/>
		<path class="st0" d="M186.6,37.2c-0.4,0-0.7-0.1-1.1-0.4c-0.4-0.3-0.7-0.7-1.1-1c-0.8-0.9-1.6-1.8-2.4-2.6
			c-0.7-0.7-1.5-1.2-2.4-1.7l-0.1,0l0,0c0.5,0.2,0.9,0.5,1.3,0.8c0.6,0.4,1.1,0.8,1.5,1.3c0.6,0.6,1.4,1.5,2.1,2.3
			C185.2,36.5,185.8,37.2,186.6,37.2C186.6,37.2,186.6,37.2,186.6,37.2L186.6,37.2z"/>
		<path class="st0" d="M186.7,37.2L186.7,37.2L186.7,37.2L186.7,37.2C186.7,37.2,186.7,37.2,186.7,37.2L186.7,37.2L186.7,37.2
			C186.6,37.2,186.6,37.2,186.7,37.2C186.7,37.2,186.7,37.2,186.7,37.2z"/>
		<path class="st0" d="M179.6,31.4c1,0.2,2.1,0.4,3,0.8c1.2,0.5,2.4,1.2,3.3,2.3c0.4,0.4,0.7,1,0.8,1.5c0.1,0.5,0.1,0.9-0.1,1.2h0
			c0,0,0,0,0,0c0.2-0.3,0.3-0.8,0.1-1.3c-0.2-0.5-0.5-1.1-0.9-1.6c-0.9-1-2.1-1.8-3.3-2.2c-1-0.4-2.1-0.6-3.1-0.8l0,0L179.6,31.4z"
			/>
		<path class="st0" d="M186.7,37.2L186.7,37.2L186.7,37.2L186.7,37.2z"/>
	</g>
	<g>
		<path class="st0" d="M183.6,31.5C183.6,31.5,183.6,31.5,183.6,31.5C183.6,31.5,183.6,31.5,183.6,31.5z"/>
		<path class="st0" d="M183.6,31.5l0.2,0L183.6,31.5L183.6,31.5L183.6,31.5L183.6,31.5L183.6,31.5C183.6,31.5,183.6,31.5,183.6,31.5
			C183.6,31.5,183.6,31.5,183.6,31.5L183.6,31.5L183.6,31.5C183.6,31.5,183.6,31.5,183.6,31.5z"/>
		<path class="st0" d="M183.6,31.5L183.6,31.5L183.6,31.5C183.6,31.5,183.6,31.5,183.6,31.5z"/>
		<path class="st0" d="M183.6,31.5L183.6,31.5C183.6,31.5,183.6,31.5,183.6,31.5L183.6,31.5z"/>
		<path class="st0" d="M183.9,31.6c1.3,0.5,2.7,0.9,4.2,1c1.8,0.2,3.8,0,5.6-0.8c0.8-0.3,1.5-0.8,2-1.3c0.5-0.5,0.7-1,0.7-1.4
			c-0.4-0.1-0.9,0-1.5,0.1c-0.6,0.2-1.3,0.5-1.9,0.7c-1.6,0.6-3.2,1.2-4.8,1.5C186.7,31.8,185.3,31.8,183.9,31.6z"/>
		<path class="st0" d="M196.3,29.2c0,0.4-0.2,0.9-0.7,1.4c-0.5,0.5-1.2,1-2,1.3c-1.8,0.8-3.8,0.9-5.6,0.8c-1.5-0.1-2.8-0.5-4.2-1
			l-0.2,0h0c0.7,0.3,1.4,0.6,2.1,0.7c1,0.2,2,0.4,3,0.5c1.3,0.1,3.3-0.1,4.9-0.8C195.3,31.2,196.4,30.1,196.3,29.2
			C196.4,29.2,196.3,29.2,196.3,29.2L196.3,29.2z"/>
		<path class="st0" d="M196.4,29.1L196.4,29.1L196.4,29.1L196.4,29.1C196.4,29.1,196.3,29.2,196.4,29.1L196.4,29.1L196.4,29.1
			C196.3,29.2,196.4,29.2,196.4,29.1L196.4,29.1z"/>
		<path class="st0" d="M183.9,31.6c1.4,0.2,2.9,0.2,4.2-0.1c1.6-0.3,3.3-0.8,4.8-1.5c0.6-0.3,1.3-0.5,1.9-0.7
			c0.6-0.2,1.1-0.2,1.5-0.1v0c0,0,0.1-0.1,0.1-0.1c-0.4-0.1-0.9,0-1.6,0.1c-0.7,0.2-1.4,0.5-2.1,0.8c-1.5,0.6-3.1,1.1-4.8,1.4
			c-1.4,0.2-2.8,0.3-4.3,0l0,0L183.9,31.6z"/>
		<path class="st0" d="M196.4,29.1L196.4,29.1C196.4,29.2,196.4,29.1,196.4,29.1L196.4,29.1z"/>
	</g>
	<g>
		<path class="st0" d="M159.8,20.5C159.8,20.5,159.8,20.5,159.8,20.5C159.8,20.5,159.8,20.5,159.8,20.5z"/>
		<path class="st0" d="M159.7,20.6l-0.4,0.3L159.7,20.6L159.7,20.6L159.7,20.6l0-0.1c0,0,0,0,0,0c0,0,0,0,0,0S159.8,20.6,159.7,20.6
			C159.8,20.6,159.7,20.6,159.7,20.6L159.7,20.6C159.7,20.6,159.7,20.6,159.7,20.6z"/>
		<path class="st0" d="M159.7,20.5L159.7,20.5L159.7,20.5C159.7,20.6,159.7,20.6,159.7,20.5z"/>
		<path class="st0" d="M159.7,20.6C159.8,20.6,159.8,20.6,159.7,20.6C159.8,20.6,159.7,20.6,159.7,20.6L159.7,20.6z"/>
		<path class="st0" d="M159.3,21c-2.3,2.4-3.2,5.7-2.9,8.7c0.2,1.9,0.9,3.7,2.1,5.2c1.1,1.5,2.7,2.7,4.4,3.5
			c1.4,0.7,3.1,1.1,4.5,1.2c1.4,0.1,2.4,0,3,0c-0.2,0.6-1.2,1.5-2.9,1.8c-1.7,0.4-3.7,0-5.5-0.7c-2.1-0.9-4-2.5-5.2-4.4
			c-1.2-1.9-1.9-4.2-1.8-6.3C155.1,26.4,156.7,23.1,159.3,21z"/>
		<path class="st0" d="M170.4,39.5c-0.7,0-1.7,0.1-3,0c-1.4-0.1-3-0.5-4.5-1.2c-1.7-0.8-3.2-2-4.4-3.5c-1.1-1.5-1.9-3.3-2.1-5.2
			c-0.3-3,0.6-6.3,2.9-8.7l0.4-0.3c0,0,0,0,0,0c-1.2,1.2-2.1,2.7-2.7,4.2c-0.7,2-0.8,4.3-0.3,6.3c0.3,1.3,1,2.8,2.1,4.1
			s2.6,2.4,4.1,3.1c1.5,0.7,3.1,1,4.4,1.1c1.3,0.1,2.4-0.1,3.2,0C170.5,39.4,170.4,39.5,170.4,39.5L170.4,39.5z"/>
		<path class="st0" d="M170.6,39.4C170.6,39.4,170.6,39.4,170.6,39.4C170.6,39.4,170.6,39.4,170.6,39.4L170.6,39.4
			c0,0.1-0.1,0.1-0.2,0.1h0l0,0C170.4,39.4,170.5,39.4,170.6,39.4L170.6,39.4z"/>
		<path class="st0" d="M159.3,21c-2.6,2.1-4.2,5.4-4.3,9c-0.1,2.1,0.6,4.4,1.8,6.3c1.2,1.9,3.1,3.5,5.2,4.4c1.8,0.8,3.8,1.1,5.5,0.7
			c1.7-0.3,2.6-1.2,2.9-1.8h0c0,0,0.2-0.1,0.2-0.1c-0.2,0.7-1.2,1.6-3,2c-1.9,0.4-4.1,0-6-0.9c-2.1-1-3.8-2.6-5-4.6
			c-1.2-1.9-1.7-4.2-1.6-6.3c0.2-3.6,2-6.9,4.7-9l0,0L159.3,21z"/>
		<path class="st0" d="M170.6,39.4L170.6,39.4C170.6,39.3,170.6,39.3,170.6,39.4C170.6,39.4,170.6,39.4,170.6,39.4z"/>
	</g>
	<g>
		<path class="st0" d="M155.7,38C155.7,38,155.7,38,155.7,38C155.7,38,155.7,38,155.7,38z"/>
		<path class="st0" d="M155.8,38c0.1,0,0.2,0,0.4,0C156,38,155.9,38,155.8,38L155.8,38L155.8,38L155.8,38L155.8,38
			c-0.1,0.1-0.1,0-0.1,0C155.7,38,155.7,38,155.8,38L155.8,38L155.8,38C155.8,38,155.8,38,155.8,38z"/>
		<path class="st0" d="M155.7,38L155.7,38L155.7,38C155.8,38,155.7,38,155.7,38z"/>
		<path class="st0" d="M155.8,38L155.8,38C155.7,38,155.8,38,155.8,38L155.8,38z"/>
		<path class="st0" d="M156.1,38c1.2,0,2.4,0.4,3.4,1.2s1.7,2,1.9,3.3c0.3,1.6-0.1,3.5-1.3,4.9c-0.6,0.7-1.5,1.3-2.5,1.5
			c-1,0.2-2.1,0-3-0.5c-0.8-0.4-1.4-1.2-1.7-2.1c-0.3-1,0-1.9,0.4-2.5c0.4-0.6,1-1,1.4-1.1c0.5-0.1,0.9,0,1.1,0.2
			c-0.3,0.4-0.7,1-0.8,1.7c-0.1,0.8,0.1,1.3,0.8,1.7c0.8,0.5,1.9,0.5,2.8-0.3c0.9-0.7,1.5-1.9,1.5-3.2c0-1-0.3-2.2-1-3
			C158.4,38.9,157.4,38.2,156.1,38z"/>
		<path class="st0" d="M155.9,42.9c-0.2-0.2-0.6-0.3-1.1-0.2c-0.5,0.1-1,0.5-1.4,1.1c-0.4,0.6-0.7,1.5-0.4,2.5
			c0.3,0.9,0.9,1.7,1.7,2.1c0.9,0.5,2,0.7,3,0.5c1-0.2,1.9-0.8,2.5-1.5c1.2-1.4,1.6-3.3,1.3-4.9c-0.2-1.3-0.9-2.5-1.9-3.3
			c-1-0.8-2.2-1.2-3.4-1.2c-0.1,0-0.2,0-0.4,0c0,0,0,0,0,0c1.3-0.1,2.6,0.3,3.7,1.1c1.4,1.1,2.3,2.9,2.2,4.8c0,1.2-0.5,2.8-1.8,4
			c-0.6,0.6-1.5,1-2.5,1.2c-1,0.1-1.9-0.1-2.8-0.6c-0.8-0.5-1.5-1.3-1.7-2.3c-0.2-1,0.1-1.8,0.5-2.4c0.4-0.6,1-1,1.5-1.1
			c0.5-0.1,1,0,1.2,0.2C156,42.8,155.9,42.8,155.9,42.9L155.9,42.9z"/>
		<path class="st0" d="M156,42.9L156,42.9L156,42.9L156,42.9c0,0-0.1,0-0.2,0l0,0l0,0C155.9,42.8,156,42.8,156,42.9L156,42.9z"/>
		<path class="st0" d="M156.1,38c1.2,0.2,2.3,0.9,3,1.7c0.7,0.9,1,2,1,3c0,1.3-0.6,2.5-1.5,3.2c-0.9,0.7-1.9,0.8-2.8,0.3
			c-0.6-0.4-0.9-0.9-0.8-1.7c0.1-0.7,0.5-1.2,0.8-1.7l0,0c0,0,0.1,0,0.1,0c-0.4,0.4-0.8,0.9-0.9,1.7c-0.1,0.4,0,0.8,0.1,1
			c0.1,0.3,0.4,0.5,0.8,0.7c0.4,0.2,0.9,0.3,1.3,0.2c0.5-0.1,0.9-0.3,1.4-0.7c0.8-0.8,1.4-1.9,1.3-3.2c0-1.1-0.4-2.2-1.1-3
			c-0.8-0.9-1.9-1.5-3.1-1.6h0C155.9,38,156,38,156.1,38z"/>
		<path class="st0" d="M156,42.9L156,42.9C156,42.8,156,42.9,156,42.9L156,42.9z"/>
	</g>
	<g>
		<path class="st0" d="M136.3,26.2C136.3,26.2,136.3,26.2,136.3,26.2C136.3,26.2,136.3,26.2,136.3,26.2z"/>
		<path class="st0" d="M136.3,26.2l-0.2,0L136.3,26.2L136.3,26.2L136.3,26.2L136.3,26.2L136.3,26.2
			C136.3,26.2,136.3,26.2,136.3,26.2C136.3,26.2,136.3,26.2,136.3,26.2L136.3,26.2L136.3,26.2L136.3,26.2z"/>
		<path class="st0" d="M136.3,26.2L136.3,26.2L136.3,26.2C136.3,26.2,136.3,26.2,136.3,26.2z"/>
		<path class="st0" d="M136.3,26.2L136.3,26.2C136.3,26.2,136.3,26.2,136.3,26.2L136.3,26.2z"/>
		<path class="st0" d="M136.1,26.3c-1.1,0.6-2,1.4-2.8,2.2c-1,1-1.9,2.1-2.8,3.2c-0.4,0.5-0.8,0.9-1.3,1.3c-0.4,0.3-0.9,0.5-1.4,0.5
			c-0.3-0.3-0.4-0.8-0.2-1.5c0.1-0.6,0.5-1.2,0.9-1.8c1-1.3,2.5-2.3,3.9-2.9C133.7,26.8,134.9,26.5,136.1,26.3z"/>
		<path class="st0" d="M127.9,33.5c0.5,0,0.9-0.2,1.4-0.5c0.5-0.4,0.9-0.8,1.3-1.3c0.9-1.1,1.8-2.2,2.8-3.2c0.8-0.8,1.7-1.6,2.8-2.2
			l0.2,0h0c-0.6,0.3-1.1,0.6-1.6,1c-0.6,0.5-1.2,1-1.8,1.6c-0.7,0.7-1.6,1.9-2.4,2.8C129.7,32.7,128.9,33.5,127.9,33.5
			C127.9,33.5,127.9,33.5,127.9,33.5L127.9,33.5z"/>
		<path class="st0" d="M127.9,33.5L127.9,33.5L127.9,33.5L127.9,33.5C127.8,33.5,127.9,33.5,127.9,33.5L127.9,33.5L127.9,33.5
			C127.9,33.5,127.9,33.5,127.9,33.5C127.9,33.5,127.9,33.5,127.9,33.5z"/>
		<path class="st0" d="M136.1,26.3c-1.2,0.2-2.5,0.5-3.7,1c-1.4,0.6-2.9,1.6-3.9,2.9c-0.4,0.5-0.8,1.2-0.9,1.8
			c-0.1,0.6,0,1.1,0.2,1.5h0c0,0-0.1,0,0,0.1c-0.3-0.4-0.4-0.9-0.2-1.5c0.2-0.7,0.6-1.4,1-2c1.1-1.3,2.5-2.2,3.9-2.8
			c1.2-0.5,2.5-0.8,3.7-1l0,0L136.1,26.3z"/>
		<path class="st0" d="M127.9,33.5L127.9,33.5C127.9,33.5,127.9,33.6,127.9,33.5L127.9,33.5z"/>
	</g>
	<g>
		<path class="st0" d="M164.2,43.2C164.2,43.1,164.2,43.1,164.2,43.2C164.2,43.1,164.2,43.1,164.2,43.2z"/>
		<path class="st0" d="M164.2,43.1l0.1,0.1L164.2,43.1L164.2,43.1L164.2,43.1C164.2,43.2,164.2,43.2,164.2,43.1L164.2,43.1
			C164.2,43.2,164.2,43.1,164.2,43.1C164.2,43.1,164.2,43.1,164.2,43.1C164.2,43.1,164.2,43.1,164.2,43.1L164.2,43.1L164.2,43.1z"/>
		<path class="st0" d="M164.2,43.2L164.2,43.2L164.2,43.2C164.2,43.2,164.2,43.2,164.2,43.2z"/>
		<path class="st0" d="M164.2,43.1C164.2,43.1,164.2,43.1,164.2,43.1C164.2,43.1,164.2,43.1,164.2,43.1L164.2,43.1z"/>
		<path class="st0" d="M164.3,43.3c0.9,0.6,2,1,3,1.1c1.3,0.2,2.5,0.2,3.8,0.2c0.5,0,1.1,0,1.6,0c0.5,0.1,0.9,0.3,1.2,0.6
			c0,0.4-0.3,0.9-0.8,1.2c-0.5,0.3-1.2,0.5-1.9,0.6c-1.6,0.1-3.2-0.4-4.4-1.2C165.8,45.1,165,44.2,164.3,43.3z"/>
		<path class="st0" d="M173.9,45.2c-0.3-0.3-0.8-0.5-1.2-0.6c-0.5-0.1-1.1-0.1-1.6,0c-1.2,0-2.5,0.1-3.8-0.2c-1-0.2-2.1-0.5-3-1.1
			l-0.1-0.1l0,0c0.5,0.3,1,0.6,1.5,0.8c0.7,0.2,1.4,0.4,2.1,0.5c0.9,0.1,2.2,0.1,3.3,0.1C172.2,44.5,173.2,44.5,173.9,45.2
			C173.9,45.1,173.9,45.2,173.9,45.2L173.9,45.2z"/>
		<path class="st0" d="M174,45.2L174,45.2L174,45.2L174,45.2C174,45.2,173.9,45.2,174,45.2L174,45.2L174,45.2
			C173.9,45.2,173.9,45.1,174,45.2C174,45.2,174,45.2,174,45.2z"/>
		<path class="st0" d="M164.3,43.3c0.7,0.9,1.5,1.8,2.5,2.5c1.2,0.8,2.8,1.4,4.4,1.2c0.7,0,1.4-0.2,1.9-0.6c0.5-0.3,0.7-0.8,0.8-1.2
			l0,0c0,0,0.1,0,0.1,0c0,0.4-0.3,0.9-0.8,1.3c-0.6,0.4-1.3,0.6-2.1,0.6c-1.6,0.1-3.2-0.5-4.4-1.3c-1.1-0.7-1.9-1.6-2.6-2.6l0,0
			L164.3,43.3z"/>
		<path class="st0" d="M174,45.2C174,45.2,174,45.2,174,45.2C174,45.2,174,45.2,174,45.2L174,45.2z"/>
	</g>
	<g id="XMLID_7_">
		<path id="XMLID_9_" class="st0" d="M307.8,18c0,0,0.1,0.1,0.3,0.2c0.2,0.1,0.5,0.3,0.9,0.5c0.8,0.4,2,1,3.6,1.3
			c1.6,0.4,3.7,0.5,6.1,0.3c2.4-0.2,4.9-0.9,7.7-1.7c2.7-0.8,5.6-1.9,8.8-2.6c3.1-0.7,6.5-1.2,10-1.3c3.5-0.2,7.2-0.1,10.9,0.1
			c3.7,0.1,7.5,0.2,11.4,0.2c3.8,0,7.6-0.1,11.3-0.1c3.7,0,7.4-0.1,11-0.1c7.1-0.1,13.8-0.2,19.5-0.3c5.7-0.1,10.4-0.2,13.8-0.3
			c3.3-0.1,5.2-0.2,5.2-0.2s-1.9-0.1-5.2-0.2c-3.3-0.1-8.1-0.2-13.8-0.3c-5.7-0.1-12.3-0.2-19.5-0.3c-3.6,0-7.2-0.1-11-0.1
			c-3.7,0-7.5-0.1-11.3-0.1c-7.5,0-15.1-0.6-22.3-0.2c-3.6,0.2-7.1,0.7-10.3,1.6c-3.2,0.8-6.1,2-8.8,3c-2.6,1-5.1,1.7-7.4,2.1
			s-4.2,0.4-5.9,0.1c-1.6-0.2-2.9-0.7-3.7-1c-0.4-0.2-0.7-0.3-0.9-0.4C307.9,18.1,307.8,18,307.8,18z"/>
		<path id="XMLID_8_" class="st0" d="M318.8,15.4c3.3-0.9,3.4-2.8,3.4-2.8s-1-1.6-4.3-0.7s-5.5,3.3-5.5,3.3S315.5,16.3,318.8,15.4z"
			/>
	</g>
	<g id="XMLID_4_">
		<path id="XMLID_6_" class="st0" d="M120.3,18c0,0-0.1,0.1-0.3,0.2c-0.2,0.1-0.5,0.3-0.9,0.5c-0.8,0.4-2,1-3.7,1.3
			c-1.6,0.4-3.7,0.5-6.1,0.3c-2.4-0.2-4.9-0.9-7.7-1.7c-2.7-0.8-5.6-1.9-8.8-2.6c-3.1-0.7-6.5-1.2-10-1.3c-3.5-0.2-7.2-0.1-10.9,0.1
			c-3.7,0.1-7.5,0.2-11.3,0.2c-3.8,0-7.6-0.1-11.3-0.1c-3.7,0-7.4-0.1-11-0.1c-7.1-0.1-13.8-0.2-19.5-0.3
			c-5.7-0.1-10.4-0.2-13.8-0.3C1.9,14.1,0,14.1,0,14.1s1.9-0.1,5.2-0.2c3.3-0.1,8.1-0.2,13.8-0.3c5.7-0.1,12.3-0.2,19.5-0.3
			c3.6,0,7.2-0.1,11-0.1c3.7,0,7.5-0.1,11.3-0.1c7.6,0,15.1-0.6,22.3-0.2c3.6,0.2,7.1,0.7,10.3,1.6c3.2,0.8,6.1,2,8.8,3
			c2.7,1,5.1,1.7,7.4,2.1c2.2,0.4,4.2,0.4,5.9,0.1c1.6-0.2,2.9-0.7,3.7-1c0.4-0.2,0.7-0.3,0.9-0.4C120.2,18.1,120.3,18,120.3,18z"/>
		<path id="XMLID_5_" class="st0" d="M109.3,15.4c-3.3-0.9-3.4-2.8-3.4-2.8s1-1.6,4.3-0.7s5.5,3.3,5.5,3.3S112.5,16.3,109.3,15.4z"
			/>
	</g>
</g>
</svg>
