<?xml version="1.0" encoding="utf-8"?>
<!-- Generator: Adobe Illustrator 27.0.0, SVG Export Plug-In . SVG Version: 6.00 Build 0)  -->
<svg version="1.1" id="图层_1" xmlns="http://www.w3.org/2000/svg" xmlns:xlink="http://www.w3.org/1999/xlink" x="0px" y="0px"
	 viewBox="0 0 428.04 50.98" style="enable-background:new 0 0 428.04 50.98;" xml:space="preserve">
<style type="text/css">
	.st0{fill:#946134;}
</style>
<g>
	<path class="st0" d="M283.81,29.49c1.42,4.39-4.04,6.44-5.64,2.73c-0.54-1.27,1.83-0.75,2.63-2.18c1-1.8-1.08-6.29-7.03-7.29
		C277.3,22.54,282.44,25.26,283.81,29.49z"/>
	<g>
		<path class="st0" d="M261.6,10.99c-0.29,0.97-1.17,1.72-2.62,1.66c0.72,1.25,0.47,2.38-0.26,3.09c-0.81,0.62-1.96,0.71-3.09-0.19
			c-0.15,1.44-1.02,2.2-2.03,2.35c-1.02,0.02-2-0.58-2.39-1.97c-0.97,1.08-2.12,1.18-3.02,0.71c-0.84-0.58-1.28-1.65-0.77-3
			c-1.41,0.3-2.41-0.29-2.86-1.2c-0.34-0.96-0.07-2.08,1.14-2.88c-1.32-0.59-1.78-1.65-1.6-2.65c0.29-0.97,1.17-1.72,2.62-1.66
			C246,4,246.25,2.87,246.98,2.16c0.81-0.62,1.96-0.71,3.09,0.19c0.15-1.44,1.02-2.2,2.03-2.35c1.02-0.03,2,0.58,2.39,1.97
			c0.97-1.07,2.12-1.18,3.02-0.71c0.84,0.58,1.28,1.65,0.77,3c1.41-0.3,2.41,0.29,2.86,1.2c0.34,0.96,0.07,2.08-1.14,2.88
			C261.31,8.92,261.77,9.99,261.6,10.99z M258.93,8.86L258.93,8.86c-0.59-0.15-1.25-0.23-1.92-0.27c0.66-0.15,1.3-0.34,1.85-0.59
			l0,0c1.28-0.58,1.25-1.5,1.03-2.02s-0.85-1.19-2.17-0.67l0,0c-0.57,0.22-1.14,0.54-1.72,0.91c0.45-0.51,0.85-1.04,1.15-1.57l0,0
			c0.69-1.22,0.13-1.95-0.35-2.24c-0.48-0.29-1.38-0.46-2.15,0.73l0,0c-0.33,0.51-0.61,1.11-0.86,1.74
			c0.06-0.68,0.08-1.34,0.01-1.94l0,0c-0.16-1.4-1.04-1.65-1.6-1.61c-0.56,0.05-1.39,0.44-1.31,1.85l0,0
			c0.04,0.61,0.16,1.26,0.33,1.92c-0.35-0.58-0.73-1.13-1.14-1.58l0,0c-0.95-1.04-1.82-0.73-2.24-0.36
			c-0.42,0.37-0.87,1.17,0.03,2.27l0,0c0.39,0.47,0.87,0.92,1.4,1.35c-0.63-0.27-1.25-0.49-1.85-0.61l0,0
			c-1.38-0.28-1.9,0.48-2.02,1.03c-0.13,0.54-0.01,1.46,1.36,1.82l0,0c0.59,0.15,1.25,0.23,1.92,0.27c-0.66,0.15-1.3,0.34-1.85,0.59
			l0,0c-1.28,0.58-1.25,1.5-1.03,2.02s0.85,1.19,2.17,0.67l0,0c0.57-0.22,1.15-0.54,1.72-0.91c-0.45,0.51-0.85,1.04-1.15,1.57l0,0
			c-0.69,1.22-0.13,1.95,0.35,2.24s1.38,0.46,2.15-0.73l0,0c0.33-0.51,0.61-1.11,0.86-1.75c-0.06,0.68-0.08,1.34-0.01,1.94l0,0
			c0.16,1.4,1.04,1.65,1.6,1.6c0.56-0.05,1.39-0.44,1.31-1.85l0,0c-0.04-0.61-0.16-1.26-0.33-1.91c0.35,0.58,0.73,1.13,1.14,1.58
			l0,0c0.95,1.04,1.82,0.73,2.24,0.36c0.42-0.37,0.87-1.17-0.03-2.27l0,0c-0.39-0.47-0.87-0.92-1.4-1.35
			c0.63,0.26,1.25,0.49,1.85,0.61l0,0c1.38,0.28,1.89-0.48,2.02-1.03C260.41,10.13,260.29,9.22,258.93,8.86z"/>
		<path class="st0" d="M253.96,8.84c0.05,0.61-0.4,1.15-1.02,1.21c-0.61,0.05-1.15-0.4-1.2-1.02c-0.05-0.61,0.4-1.15,1.02-1.2
			C253.37,7.77,253.91,8.23,253.96,8.84z"/>
	</g>
	<g>
		<path class="st0" d="M222.77,44.07c-0.29,0.97-1.17,1.72-2.62,1.66c0.72,1.25,0.47,2.38-0.26,3.09c-0.81,0.62-1.96,0.71-3.09-0.19
			c-0.15,1.44-1.02,2.2-2.03,2.35c-1.02,0.02-2-0.58-2.39-1.97c-0.97,1.08-2.12,1.18-3.02,0.71c-0.84-0.58-1.28-1.65-0.77-3
			c-1.41,0.3-2.41-0.29-2.86-1.2c-0.34-0.96-0.07-2.08,1.14-2.88c-1.32-0.59-1.78-1.65-1.6-2.65c0.29-0.97,1.17-1.72,2.62-1.66
			c-0.72-1.25-0.47-2.38,0.26-3.09c0.81-0.62,1.96-0.71,3.09,0.19c0.15-1.44,1.02-2.2,2.03-2.35c1.02-0.03,2,0.58,2.39,1.97
			c0.97-1.07,2.12-1.18,3.02-0.71c0.84,0.58,1.28,1.65,0.77,3c1.41-0.3,2.41,0.29,2.86,1.2c0.34,0.96,0.07,2.08-1.14,2.88
			C222.49,42.01,222.94,43.07,222.77,44.07z M220.1,41.95L220.1,41.95c-0.59-0.15-1.25-0.23-1.92-0.27c0.66-0.15,1.3-0.34,1.85-0.59
			l0,0c1.28-0.58,1.25-1.5,1.03-2.02c-0.22-0.52-0.85-1.19-2.17-0.67l0,0c-0.57,0.22-1.14,0.54-1.72,0.91
			c0.45-0.51,0.85-1.04,1.15-1.57l0,0c0.69-1.22,0.13-1.95-0.35-2.24c-0.48-0.29-1.38-0.46-2.15,0.73l0,0
			c-0.33,0.51-0.61,1.11-0.86,1.74c0.06-0.68,0.08-1.34,0.01-1.94l0,0c-0.16-1.4-1.04-1.65-1.6-1.61c-0.56,0.05-1.39,0.44-1.31,1.85
			l0,0c0.04,0.61,0.16,1.26,0.33,1.92c-0.35-0.58-0.73-1.13-1.14-1.58l0,0c-0.95-1.04-1.82-0.73-2.24-0.36
			c-0.42,0.37-0.87,1.17,0.03,2.27l0,0c0.39,0.47,0.87,0.92,1.4,1.35c-0.63-0.27-1.25-0.49-1.85-0.61l0,0
			c-1.38-0.28-1.9,0.48-2.02,1.03c-0.13,0.54-0.01,1.46,1.36,1.82l0,0c0.59,0.15,1.25,0.23,1.92,0.27c-0.66,0.15-1.3,0.34-1.85,0.59
			l0,0c-1.28,0.58-1.25,1.5-1.03,2.02c0.22,0.52,0.85,1.19,2.17,0.67l0,0c0.57-0.22,1.15-0.54,1.72-0.91
			c-0.45,0.51-0.85,1.04-1.15,1.57l0,0c-0.69,1.22-0.13,1.95,0.35,2.24c0.48,0.29,1.38,0.46,2.15-0.73l0,0
			c0.33-0.51,0.61-1.11,0.86-1.75c-0.06,0.68-0.08,1.34-0.01,1.94l0,0c0.16,1.4,1.04,1.65,1.6,1.6c0.56-0.05,1.39-0.44,1.31-1.85
			l0,0c-0.04-0.61-0.16-1.26-0.33-1.91c0.35,0.58,0.73,1.13,1.14,1.58l0,0c0.95,1.04,1.82,0.73,2.24,0.36s0.87-1.17-0.03-2.27l0,0
			c-0.39-0.47-0.87-0.92-1.4-1.35c0.63,0.26,1.25,0.49,1.85,0.61l0,0c1.38,0.28,1.89-0.48,2.02-1.03
			C221.58,43.22,221.46,42.31,220.1,41.95z"/>
		<path class="st0" d="M215.13,41.93c0.05,0.61-0.4,1.15-1.02,1.21c-0.61,0.05-1.15-0.4-1.2-1.02c-0.05-0.61,0.4-1.15,1.02-1.2
			C214.54,40.86,215.08,41.32,215.13,41.93z"/>
	</g>
	<g>
		<path class="st0" d="M302.51,14.82c0.03-0.11,0.05-0.14,0.04-0.09C302.55,14.7,302.54,14.73,302.51,14.82z"/>
		<path class="st0" d="M302.44,15.17c-0.05,0.26-0.21,0.49-0.31,0.74c-0.13,0.23-0.29,0.45-0.45,0.66c0.15-0.21,0.3-0.43,0.43-0.67
			c0.1-0.25,0.25-0.48,0.29-0.74c0-0.01,0-0.01,0.01-0.03c0.02-0.06,0.03-0.11,0.05-0.17l0.03-0.11c0-0.01,0.01-0.02,0.01-0.04
			c0.03-0.09,0.05-0.12,0.04-0.09c0,0.02-0.01,0.08-0.03,0.13c-0.01,0.04-0.02,0.07-0.03,0.13c-0.01,0.05-0.02,0.09-0.03,0.14
			C302.46,15.13,302.45,15.15,302.44,15.17z"/>
		<path class="st0" d="M302.5,14.85l-0.03,0.11c-0.02,0.06-0.03,0.11-0.05,0.17C302.45,15.03,302.48,14.93,302.5,14.85z"/>
		<path class="st0" d="M302.49,14.98c0.01-0.05,0.02-0.09,0.03-0.13c-0.02,0.07-0.04,0.16-0.07,0.26
			C302.47,15.07,302.48,15.03,302.49,14.98z"/>
		<path class="st0" d="M301.69,16.57c-0.42,0.53-0.96,0.94-1.54,1.27c-0.59,0.32-1.23,0.52-1.89,0.66c-0.66,0.1-1.34,0.12-2,0.02
			c-0.66-0.13-1.31-0.33-1.89-0.69c-1.15-0.73-1.95-1.92-2.31-3.22c-0.18-0.65-0.27-1.32-0.25-2c-0.01-0.34,0.05-0.67,0.08-1.01
			c0.07-0.33,0.11-0.67,0.22-0.98c0.36-1.3,1.1-2.5,2.13-3.41c0.52-0.44,1.09-0.81,1.7-1.12c0.62-0.28,1.26-0.51,1.93-0.66
			c2.66-0.56,5.53,0,7.81,1.53c1.41,0.95,2.6,2.24,3.4,3.77c0.81,1.53,1.19,3.35,0.92,5.11c-0.13,0.88-0.41,1.74-0.78,2.54
			c-0.41,0.79-0.89,1.53-1.47,2.2c-1.17,1.32-2.59,2.4-4.16,3.18c-0.78,0.41-1.6,0.72-2.44,0.98c-0.85,0.27-1.71,0.38-2.56,0.56
			c-1.73,0.21-3.48,0.33-5.21,0.15l-0.65-0.04l-0.64-0.09l-1.29-0.18c-0.84-0.18-1.7-0.3-2.53-0.53c-1.68-0.39-3.31-0.92-4.94-1.45
			c-2.74-0.93-5.45-2-8.09-2.96c-0.66-0.24-1.32-0.48-1.97-0.7c-0.65-0.23-1.3-0.44-1.94-0.64c-1.28-0.43-2.52-0.74-3.74-0.96
			c-2.37-0.42-4.42-0.41-6.01-0.04c-1.6,0.33-2.69,1.01-3.41,1.49c0.55-0.68,1.57-1.59,3.21-2.14c1.62-0.59,3.78-0.78,6.25-0.5
			c1.25,0.15,2.55,0.42,3.84,0.79c1.29,0.35,2.6,0.77,3.92,1.21c2.63,0.89,5.29,1.91,7.9,2.8c3.16,1.09,6.38,2,9.64,2.39
			c0.82,0.05,1.63,0.16,2.45,0.13c0.41-0.01,0.82,0.01,1.22-0.01l1.21-0.1c0.41-0.02,0.8-0.1,1.2-0.17c0.4-0.08,0.8-0.13,1.19-0.22
			c0.77-0.18,1.53-0.45,2.27-0.75c1.45-0.65,2.83-1.5,3.94-2.62c1.12-1.09,1.97-2.45,2.36-3.93c0.08-0.37,0.17-0.74,0.18-1.13
			c0.05-0.38,0.04-0.76,0.01-1.14c-0.06-0.76-0.24-1.51-0.53-2.22c-0.57-1.43-1.54-2.69-2.73-3.67c-1.97-1.64-4.65-2.4-7.2-2.08
			c-1.27,0.16-2.52,0.61-3.56,1.36c-1.05,0.74-1.83,1.83-2.29,3.04c-0.22,0.61-0.36,1.25-0.43,1.9c-0.04,0.65-0.02,1.31,0.1,1.95
			c0.14,0.64,0.37,1.26,0.7,1.83c0.35,0.55,0.79,1.07,1.32,1.45c0.55,0.37,1.16,0.65,1.82,0.79c0.65,0.12,1.33,0.17,2,0.07
			C299.49,18.23,300.8,17.62,301.69,16.57z"/>
		<path class="st0" d="M258.17,19.38c0.72-0.48,1.81-1.16,3.41-1.49c1.58-0.37,3.64-0.38,6.01,0.04c1.22,0.22,2.46,0.54,3.74,0.96
			c0.64,0.2,1.29,0.41,1.94,0.64c0.65,0.22,1.31,0.46,1.97,0.7c2.64,0.96,5.35,2.02,8.09,2.96c1.63,0.53,3.26,1.06,4.94,1.45
			c0.83,0.23,1.69,0.35,2.53,0.53l1.29,0.18l0.64,0.09l0.65,0.04c1.73,0.18,3.49,0.06,5.21-0.15c0.86-0.18,1.71-0.29,2.56-0.56
			c0.84-0.26,1.67-0.57,2.44-0.98c1.57-0.78,3-1.85,4.16-3.18c0.58-0.67,1.07-1.41,1.47-2.2c0.37-0.81,0.66-1.66,0.78-2.54
			c0.26-1.77-0.12-3.59-0.92-5.11c-0.8-1.54-2-2.83-3.4-3.77c-2.28-1.53-5.15-2.09-7.81-1.53c-0.66,0.14-1.31,0.37-1.93,0.66
			c-0.61,0.31-1.18,0.67-1.7,1.12c-1.03,0.91-1.76,2.11-2.13,3.41c-0.11,0.32-0.15,0.66-0.22,0.98c-0.03,0.34-0.09,0.67-0.08,1.01
			c-0.02,0.67,0.07,1.35,0.25,2c0.35,1.3,1.16,2.49,2.31,3.22c0.57,0.36,1.23,0.57,1.89,0.69c0.67,0.1,1.34,0.08,2-0.02
			c0.66-0.13,1.3-0.33,1.89-0.66c0.58-0.33,1.12-0.75,1.54-1.27c0.16-0.21,0.32-0.43,0.45-0.66c0.1-0.25,0.26-0.47,0.31-0.74
			c0.01-0.03,0.01-0.04,0.01-0.05c-0.2,0.68-0.55,1.33-1.07,1.83c-0.51,0.5-1.11,0.9-1.76,1.18c-0.66,0.27-1.36,0.43-2.07,0.48
			c-0.71,0.04-1.43-0.05-2.11-0.26c-0.69-0.21-1.31-0.6-1.85-1.08c-0.53-0.49-0.93-1.1-1.24-1.74c-0.6-1.31-0.72-2.8-0.46-4.19
			c0.33-1.84,1.38-3.61,2.97-4.67c1.57-1.09,3.51-1.55,5.4-1.49c1.89,0.07,3.78,0.64,5.38,1.71c1.59,1.06,2.92,2.55,3.71,4.33
			c0.5,1.13,0.83,2.46,0.75,3.85c-0.06,1.39-0.51,2.82-1.27,4.09c-1.57,2.53-4.21,4.44-7.22,5.46c-3.04,0.95-6.33,1.18-9.51,0.74
			c-3.19-0.4-6.27-1.28-9.16-2.28c-2.9-1-5.66-2.09-8.27-3.03c-1.31-0.47-2.58-0.9-3.8-1.28c-1.22-0.39-2.4-0.67-3.54-0.86
			c-2.27-0.38-4.35-0.35-6.01,0.08s-2.87,1.22-3.64,1.89c0.11-0.1,0.4-0.4,0.46-0.49L258.17,19.38z"/>
		<path class="st0" d="M257.64,19.93c-0.01,0.01-0.01,0.01-0.01,0.01S257.63,19.93,257.64,19.93l0.02-0.03
			c0.08-0.1,0.4-0.43,0.48-0.49l0.03-0.02l-0.02,0.03c-0.07,0.09-0.35,0.38-0.46,0.49C257.67,19.9,257.65,19.92,257.64,19.93z"/>
		<path class="st0" d="M301.69,16.57c-0.89,1.05-2.2,1.66-3.53,1.84c-0.67,0.1-1.35,0.05-2-0.07c-0.66-0.14-1.27-0.42-1.82-0.79
			c-0.54-0.39-0.97-0.9-1.32-1.45c-0.34-0.57-0.56-1.19-0.7-1.83c-0.13-0.64-0.15-1.3-0.1-1.95c0.07-0.65,0.21-1.29,0.43-1.9
			c0.46-1.21,1.24-2.3,2.29-3.04c1.04-0.75,2.29-1.21,3.56-1.36c2.56-0.32,5.23,0.45,7.2,2.08c1.19,0.98,2.16,2.24,2.73,3.67
			c0.29,0.71,0.47,1.46,0.53,2.22c0.03,0.38,0.03,0.76-0.01,1.14c-0.02,0.38-0.1,0.75-0.18,1.13c-0.38,1.48-1.23,2.83-2.36,3.93
			c-1.11,1.12-2.48,1.97-3.94,2.62c-0.74,0.31-1.49,0.57-2.27,0.75c-0.39,0.09-0.79,0.15-1.19,0.22s-0.79,0.15-1.2,0.17l-1.21,0.1
			c-0.41,0.02-0.81,0-1.22,0.01c-0.81,0.03-1.63-0.09-2.45-0.13c-3.26-0.39-6.48-1.29-9.64-2.39c-2.61-0.89-5.27-1.91-7.9-2.8
			c-1.31-0.45-2.63-0.86-3.92-1.21c-1.28-0.37-2.59-0.64-3.84-0.79c-2.47-0.29-4.63-0.1-6.25,0.5c-1.64,0.55-2.66,1.46-3.21,2.14
			l-0.03,0.02c-0.08,0.06-0.4,0.4-0.48,0.49c0.13-0.19,0.29-0.39,0.47-0.62c0.2-0.21,0.42-0.43,0.68-0.67
			c0.54-0.43,1.21-0.9,2.07-1.24c1.7-0.7,4.02-0.99,6.66-0.68c1.39,0.16,2.83,0.47,4.23,0.88c1.42,0.39,2.84,0.86,4.28,1.35
			c2.87,0.99,5.76,2.11,8.64,3.04c1.57,0.52,3.16,0.96,4.75,1.33c0.8,0.15,1.6,0.35,2.4,0.44c0.4,0.05,0.8,0.13,1.2,0.16l1.21,0.09
			c0.4,0.04,0.8,0.03,1.21,0.03c0.4-0.01,0.8,0.02,1.2-0.02c0.8-0.08,1.6-0.1,2.38-0.28c0.79-0.13,1.56-0.28,2.3-0.55
			c0.75-0.24,1.47-0.56,2.16-0.93c0.7-0.36,1.34-0.81,1.96-1.28c0.59-0.5,1.18-1.02,1.65-1.62c0.48-0.6,0.91-1.24,1.2-1.94
			c0.18-0.34,0.26-0.71,0.39-1.06c0.07-0.37,0.18-0.73,0.2-1.11c0.18-1.49-0.19-3.02-0.91-4.36c-0.73-1.34-1.8-2.49-3.07-3.34
			c-2.16-1.43-4.95-1.96-7.48-1.3c-0.63,0.17-1.24,0.41-1.81,0.72c-0.57,0.32-1.09,0.72-1.54,1.18c-0.44,0.48-0.81,1.02-1.12,1.6
			c-0.28,0.59-0.5,1.22-0.62,1.87c-0.11,0.65-0.16,1.32-0.09,1.98s0.23,1.31,0.5,1.92c0.28,0.6,0.67,1.15,1.14,1.63
			c0.49,0.45,1.08,0.79,1.72,1.02c0.64,0.2,1.32,0.29,2,0.27c0.68-0.04,1.35-0.18,2-0.43c0.64-0.26,1.23-0.63,1.73-1.11
			c0.51-0.47,0.87-1.09,1.08-1.75c0,0.01,0,0.01-0.01,0.03c-0.04,0.26-0.19,0.49-0.29,0.74C301.99,16.13,301.84,16.36,301.69,16.57z
			"/>
		<path class="st0" d="M257.64,19.93c0.01-0.01,0.03-0.02,0.04-0.03c-0.04,0.03-0.07,0.06-0.05,0.04
			C257.63,19.93,257.63,19.94,257.64,19.93z"/>
	</g>
	<g>
		<path class="st0" d="M261.06,15.43c0,0,0.12-0.07,0.33-0.18s0.5-0.3,0.82-0.53c0.65-0.48,1.39-1.25,1.93-2.13
			c0.55-0.88,0.87-1.85,1.01-2.6c0.13-0.75,0.13-1.28,0.13-1.4c0.04-0.23,0.24-0.42,0.53-0.58c0.29-0.15,0.7-0.26,1.13-0.25
			s0.82,0.14,1.09,0.39c0.28,0.24,0.42,0.59,0.36,0.95c-0.02,0.18-0.26,0.95-0.77,1.86c-0.52,0.91-1.34,1.94-2.32,2.69
			c-0.97,0.77-2.05,1.27-2.87,1.5c-0.42,0.11-0.75,0.19-1,0.22C261.2,15.41,261.06,15.43,261.06,15.43z"/>
	</g>
	<g>
		<path class="st0" d="M265.27,14.56c0,0,0.18-0.01,0.5-0.03c0.32-0.01,0.77-0.08,1.3-0.17c1.06-0.21,2.41-0.72,3.59-1.48
			c1.19-0.75,2.17-1.77,2.8-2.62c0.17-0.2,0.29-0.42,0.41-0.61c0.13-0.18,0.22-0.36,0.3-0.51c0.17-0.29,0.27-0.5,0.31-0.57
			c0.09-0.15,0.21-0.26,0.36-0.35c0.14-0.09,0.3-0.16,0.48-0.2c0.36-0.08,0.79-0.06,1.19,0.11s0.68,0.49,0.81,0.88
			c0.06,0.19,0.09,0.41,0.06,0.62c-0.03,0.21-0.11,0.42-0.23,0.62c-0.06,0.1-0.24,0.35-0.55,0.68c-0.15,0.17-0.32,0.36-0.54,0.56
			c-0.21,0.2-0.43,0.42-0.7,0.63c-1.04,0.86-2.5,1.72-4.04,2.2c-1.54,0.49-3.09,0.62-4.22,0.54c-0.56-0.05-1.02-0.1-1.34-0.18
			C265.45,14.6,265.27,14.56,265.27,14.56z"/>
	</g>
	<g>
		<path class="st0" d="M271.49,14.64c0,0,0.23,0.03,0.64,0.09c0.41,0.03,0.99,0.08,1.68,0.03c1.39-0.07,3.19-0.51,4.96-1.17
			c0.89-0.32,1.79-0.68,2.64-1.02c0.84-0.34,1.58-0.68,2.13-1.03c1.12-0.7,1.46-1.41,1.56-1.54c0.2-0.28,0.46-0.44,0.81-0.58
			c0.34-0.13,0.75-0.26,1.18-0.21c0.43,0.05,0.8,0.35,0.94,0.86c0.15,0.51,0.03,1.21-0.39,1.77c-0.1,0.14-0.4,0.5-0.9,0.91
			c-0.49,0.41-1.22,0.86-2.05,1.17c-0.83,0.33-1.76,0.54-2.69,0.71c-0.92,0.17-1.88,0.34-2.86,0.48c-1.95,0.3-3.93,0.36-5.36,0.14
			c-0.72-0.1-1.29-0.27-1.69-0.39C271.71,14.72,271.49,14.64,271.49,14.64z"/>
	</g>
	<g>
		<path class="st0" d="M307.39,21.22c-0.03,0.01-0.04,0-0.03-0.01C307.35,21.22,307.37,21.22,307.39,21.22z"/>
		<path class="st0" d="M307.45,21.15c0.12-0.04,0.24-0.09,0.37-0.12c-0.12,0.05-0.23,0.11-0.35,0.16h-0.01l-0.04,0.01l-0.03,0.01
			h-0.01c-0.02,0-0.04,0-0.03-0.01c0-0.01,0.01-0.01,0.02-0.02c0.01,0,0.02-0.01,0.03-0.01l0.03-0.01
			C307.44,21.16,307.45,21.16,307.45,21.15z"/>
		<path class="st0" d="M307.4,21.22l0.03-0.01l0.04-0.01C307.44,21.21,307.42,21.22,307.4,21.22z"/>
		<path class="st0" d="M307.41,21.17c-0.01,0.01-0.02,0.01-0.03,0.01c0.02-0.01,0.03-0.02,0.06-0.03L307.41,21.17z"/>
		<path class="st0" d="M307.82,21.04c1.19-0.49,2.54-0.62,3.84-0.31c1.29,0.3,2.56,1.12,3.24,2.43c0.42,0.79,0.61,1.71,0.57,2.64
			c-0.05,0.93-0.34,1.89-0.98,2.7c-1.3,1.65-3.76,2.11-5.63,1.03c-0.77-0.47-1.41-1.19-1.7-2.08c-0.14-0.44-0.19-0.92-0.12-1.38
			c0.07-0.48,0.28-0.91,0.54-1.23c0.51-0.63,1.17-0.86,1.67-0.88c0.52-0.01,0.87,0.21,1.01,0.42c-0.24,0.1-0.51,0.23-0.75,0.44
			s-0.49,0.5-0.62,0.85c-0.07,0.18-0.1,0.36-0.09,0.51c0.01,0.18,0.05,0.37,0.13,0.55c0.16,0.37,0.48,0.75,0.87,0.99
			c0.9,0.59,2.41,0.5,3.24-0.31c0.88-0.8,1.21-2.34,0.83-3.62c-0.3-1.07-1.19-1.98-2.31-2.48C310.44,20.8,309.09,20.69,307.82,21.04
			z"/>
		<path class="st0" d="M310.26,24.37c-0.14-0.21-0.49-0.43-1.01-0.42c-0.5,0.02-1.16,0.26-1.67,0.88c-0.26,0.32-0.47,0.74-0.54,1.23
			c-0.07,0.45-0.02,0.93,0.12,1.38c0.29,0.89,0.92,1.61,1.7,2.08c1.87,1.09,4.33,0.62,5.63-1.03c0.64-0.81,0.93-1.77,0.98-2.7
			c0.04-0.93-0.15-1.84-0.57-2.64c-0.68-1.31-1.95-2.13-3.24-2.43c-1.3-0.31-2.65-0.18-3.84,0.31c-0.12,0.03-0.24,0.08-0.37,0.12
			c-0.01,0-0.01,0-0.01,0c1.23-0.6,2.66-0.82,4.05-0.52c0.91,0.18,1.81,0.61,2.53,1.29c0.74,0.68,1.22,1.64,1.41,2.64
			c0.12,0.64,0.14,1.39-0.05,2.17s-0.6,1.6-1.29,2.26c-1.4,1.3-3.68,1.58-5.37,0.51c-0.82-0.52-1.43-1.31-1.67-2.23
			c-0.12-0.46-0.13-0.93-0.04-1.38c0.1-0.47,0.32-0.86,0.57-1.15c0.51-0.6,1.18-0.86,1.73-0.86c0.56-0.01,0.97,0.25,1.11,0.53
			C310.39,24.39,310.3,24.35,310.26,24.37L310.26,24.37z"/>
		<path class="st0" d="M310.43,24.42C310.43,24.42,310.43,24.43,310.43,24.42L310.43,24.42l-0.01,0.01c-0.03,0-0.13-0.03-0.15-0.06
			l-0.01-0.01h0.01c0.03-0.01,0.12,0.02,0.15,0.04L310.43,24.42z"/>
		<path class="st0" d="M307.82,21.04c1.27-0.35,2.62-0.24,3.74,0.26s2.01,1.4,2.31,2.48c0.39,1.28,0.05,2.82-0.83,3.62
			c-0.83,0.81-2.34,0.91-3.24,0.31c-0.39-0.24-0.71-0.62-0.87-0.99c-0.08-0.19-0.13-0.37-0.13-0.55c-0.01-0.15,0.02-0.33,0.09-0.51
			c0.13-0.36,0.38-0.65,0.62-0.85c0.24-0.21,0.51-0.34,0.75-0.44l0.01,0.01c0.02,0.03,0.12,0.06,0.15,0.06
			c-0.52,0.13-1.15,0.5-1.47,1.24c-0.08,0.19-0.11,0.37-0.09,0.53c0.02,0.19,0.07,0.39,0.17,0.59c0.19,0.39,0.58,0.78,1.01,0.99
			c0.96,0.49,2.39,0.29,3.13-0.57c0.8-0.86,1.06-2.38,0.6-3.61c-0.36-1.06-1.32-1.93-2.48-2.36c-1.17-0.45-2.54-0.48-3.81-0.04h0.01
			C307.59,21.15,307.7,21.08,307.82,21.04z"/>
		<path class="st0" d="M310.43,24.42l-0.01-0.01C310.43,24.42,310.44,24.42,310.43,24.42C310.43,24.43,310.43,24.42,310.43,24.42z"
			/>
	</g>
	<path class="st0" d="M237.51,15.33c2.01-3.01,6.09-2.22,6.95,0.31c0.76,2.21-0.64,4.22-2.39,4.16c-1.22-0.04-1.73-1.21-1-1.79
		c0.34-0.27,1.26,0,1.41-0.54c0.36-1.37-1.79-2.17-3.08-0.61c-1.99,2.43-1.45,9.8,6.11,8.78C238.42,27.37,234.26,20.2,237.51,15.33z
		"/>
	<path class="st0" d="M219.42,21.22c-4.06,2.26-4.01,7.54-0.87,10.01c2.56,2.01,5.73,1.7,7.83-0.61c1.73-1.9,1.79-4.44,0.02-6.07
		c-1.55-1.43-4.99-1.41-5.54,1.35c-0.4,2.02,2.06,3.36,2.84,2.05c0.78-1.32-2.1-0.9-1.31-2.03c1.17-1.68,4.89,0.65,3.36,3.76
		c-1.29,2.62-4.88,3.21-6.95,1.21c-2.45-2.37-2.18-6.49,1.54-8.71c8.75-5.22,19.61,14.34,33.92-0.18
		C240.47,40.93,229.96,15.34,219.42,21.22z"/>
	<path class="st0" d="M220.59,15.63c1.52,1.17,5.8-1.35,10.09,4.77C226.1,10.4,218.38,13.92,220.59,15.63z"/>
	<g>
		<path class="st0" d="M264.91,21.93c0.03,0,0.05-0.01,0.03-0.02C264.95,21.92,264.94,21.93,264.91,21.93z"/>
		<path class="st0" d="M264.82,21.86c-0.15-0.03-0.3-0.07-0.45-0.09c0.15,0.04,0.29,0.1,0.43,0.14h0.01l0.05,0.01l0.03,0.01h0.01
			c0.03,0,0.04-0.01,0.03-0.02c-0.01-0.01-0.02-0.02-0.03-0.02s-0.02-0.01-0.03-0.01L264.82,21.86
			C264.84,21.86,264.83,21.86,264.82,21.86z"/>
		<path class="st0" d="M264.9,21.93l-0.03-0.01l-0.05-0.01C264.85,21.93,264.88,21.93,264.9,21.93z"/>
		<path class="st0" d="M264.88,21.88c0.01,0.01,0.02,0.01,0.03,0.01c-0.02-0.01-0.04-0.02-0.07-0.03L264.88,21.88z"/>
		<path class="st0" d="M264.37,21.77c-1.48-0.42-3.1-0.4-4.61,0.13c-1.49,0.53-2.9,1.67-3.53,3.32c-0.4,1-0.5,2.11-0.33,3.21
			c0.18,1.09,0.66,2.2,1.52,3.08c1.77,1.79,4.75,2.02,6.83,0.48c0.86-0.66,1.52-1.6,1.74-2.69c0.11-0.54,0.1-1.12-0.04-1.65
			c-0.14-0.57-0.45-1.04-0.8-1.39c-0.69-0.68-1.5-0.87-2.11-0.83c-0.62,0.05-1.01,0.36-1.15,0.63c0.3,0.09,0.63,0.21,0.95,0.43
			c0.31,0.22,0.64,0.53,0.85,0.93c0.1,0.2,0.16,0.41,0.17,0.59c0.02,0.21-0.01,0.45-0.09,0.68c-0.14,0.46-0.47,0.95-0.9,1.29
			c-1,0.82-2.8,0.91-3.89,0.05c-1.15-0.84-1.75-2.62-1.46-4.2c0.22-1.32,1.15-2.51,2.42-3.25
			C261.23,21.83,262.81,21.53,264.37,21.77z"/>
		<path class="st0" d="M261.91,26.05c0.14-0.27,0.53-0.58,1.15-0.63c0.6-0.04,1.41,0.15,2.11,0.83c0.35,0.34,0.66,0.82,0.8,1.39
			c0.14,0.53,0.15,1.11,0.04,1.65c-0.22,1.1-0.89,2.04-1.74,2.69c-2.09,1.54-5.07,1.31-6.83-0.48c-0.86-0.87-1.34-1.98-1.52-3.08
			c-0.17-1.1-0.07-2.21,0.33-3.21c0.63-1.65,2.04-2.79,3.53-3.32c1.5-0.53,3.12-0.56,4.61-0.13c0.15,0.02,0.3,0.06,0.45,0.09
			c0.01,0,0.02,0,0.02,0c-1.54-0.55-3.28-0.62-4.88-0.09c-1.06,0.34-2.07,0.96-2.84,1.87c-0.79,0.91-1.24,2.11-1.33,3.33
			c-0.06,0.78,0.02,1.66,0.34,2.57c0.33,0.9,0.92,1.83,1.83,2.51c1.84,1.37,4.59,1.39,6.45-0.1c0.91-0.73,1.52-1.75,1.7-2.87
			c0.08-0.56,0.04-1.12-0.13-1.65c-0.18-0.54-0.49-0.98-0.83-1.29c-0.69-0.64-1.52-0.86-2.17-0.8c-0.67,0.07-1.12,0.43-1.24,0.78
			c0.03-0.03,0.14-0.08,0.17-0.07L261.91,26.05z"/>
		<path class="st0" d="M261.72,26.14C261.71,26.14,261.72,26.14,261.72,26.14l0.01,0.01h0.01c0.04,0,0.15-0.05,0.17-0.09l0.01-0.01
			h-0.01c-0.04-0.01-0.14,0.04-0.17,0.07L261.72,26.14z"/>
		<path class="st0" d="M264.37,21.77c-1.56-0.24-3.14,0.06-4.41,0.8c-1.27,0.74-2.2,1.93-2.42,3.25c-0.29,1.58,0.31,3.36,1.46,4.2
			c1.1,0.85,2.9,0.77,3.89-0.05c0.43-0.34,0.76-0.83,0.9-1.29c0.07-0.23,0.1-0.46,0.09-0.68c-0.01-0.18-0.06-0.39-0.17-0.59
			c-0.21-0.41-0.54-0.72-0.85-0.93c-0.32-0.22-0.65-0.33-0.95-0.43l-0.01,0.01c-0.02,0.04-0.13,0.09-0.17,0.09
			c0.63,0.09,1.44,0.44,1.92,1.29c0.11,0.22,0.18,0.43,0.17,0.62c0,0.23-0.03,0.47-0.12,0.72c-0.18,0.49-0.59,1-1.07,1.31
			c-1.08,0.7-2.81,0.66-3.8-0.27c-1.06-0.92-1.57-2.69-1.19-4.22c0.29-1.3,1.32-2.47,2.64-3.14c1.33-0.68,2.95-0.9,4.52-0.54h-0.01
			C264.67,21.87,264.52,21.81,264.37,21.77z"/>
		<path class="st0" d="M261.72,26.14l0.01-0.02C261.71,26.13,261.71,26.14,261.72,26.14C261.72,26.14,261.71,26.14,261.72,26.14z"/>
	</g>
	<g>
		<path class="st0" d="M251.87,28.86c0-0.01,0-0.02-0.01-0.02C251.86,28.84,251.87,28.85,251.87,28.86z"/>
		<path class="st0" d="M251.83,28.84l-0.06,0.09l0.08-0.06l0,0l0.01-0.01c0,0,0,0,0-0.01l0,0c0-0.01,0-0.02-0.01-0.02L251.83,28.84
			C251.85,28.83,251.84,28.83,251.83,28.84L251.83,28.84L251.83,28.84z"/>
		<path class="st0" d="M251.87,28.86C251.87,28.86,251.87,28.87,251.87,28.86l-0.01,0.02C251.86,28.87,251.87,28.86,251.87,28.86z"
			/>
		<path class="st0" d="M251.84,28.84C251.84,28.83,251.85,28.83,251.84,28.84C251.84,28.83,251.83,28.84,251.84,28.84L251.84,28.84z
			"/>
		<path class="st0" d="M251.77,28.93c-0.58,0.37-1.16,0.87-1.54,1.53c-0.49,0.8-0.76,1.88-0.49,2.9c0.11,0.43,0.33,0.85,0.66,1.1
			c0.31,0.26,0.69,0.29,0.99,0.19c0.19-0.28,0.28-0.56,0.31-0.86c0.02-0.29-0.03-0.57-0.09-0.84c-0.14-0.64-0.34-1.34-0.33-2.1
			C251.27,30.23,251.39,29.54,251.77,28.93z"/>
		<path class="st0" d="M251.39,34.66c-0.31,0.1-0.68,0.07-0.99-0.19c-0.33-0.26-0.55-0.68-0.66-1.1c-0.27-1.02,0-2.09,0.49-2.9
			c0.39-0.66,0.96-1.16,1.54-1.53l0.06-0.09l0,0c-0.31,0.2-0.63,0.41-0.91,0.69c-0.37,0.35-0.69,0.79-0.93,1.28
			c-0.31,0.61-0.57,1.67-0.3,2.6c0.23,0.93,0.98,1.56,1.71,1.3C251.39,34.7,251.37,34.68,251.39,34.66L251.39,34.66z"/>
		<path class="st0" d="M251.41,34.7L251.41,34.7L251.41,34.7l0.01-0.01c0.01-0.02-0.01-0.04-0.03-0.03h-0.01v0.01
			C251.37,34.68,251.39,34.7,251.41,34.7L251.41,34.7z"/>
		<path class="st0" d="M251.77,28.93c-0.39,0.61-0.5,1.3-0.49,1.93c-0.01,0.76,0.19,1.46,0.33,2.1c0.06,0.27,0.11,0.54,0.09,0.84
			c-0.03,0.29-0.12,0.58-0.31,0.86h0.01c0.02-0.01,0.03,0.02,0.03,0.03c0.19-0.29,0.29-0.6,0.32-0.9c0.02-0.32-0.04-0.61-0.1-0.9
			c-0.15-0.63-0.32-1.32-0.32-2.07c0-0.63,0.13-1.33,0.54-1.94l0,0L251.77,28.93z"/>
		<path class="st0" d="M251.41,34.7L251.41,34.7L251.41,34.7L251.41,34.7z"/>
	</g>
	<g>
		<path class="st0" d="M283.31,26.35c-0.01-0.01-0.01-0.02,0-0.03C283.3,26.33,283.3,26.34,283.31,26.35z"/>
		<path class="st0" d="M283.36,26.32l0.16,0.08l-0.17-0.03l0,0l-0.02-0.01l-0.01-0.01l0,0c-0.01-0.01-0.01-0.02,0-0.03
			c0,0,0.01-0.01,0.02-0.01c0.01,0,0.01,0,0.01,0L283.36,26.32L283.36,26.32z"/>
		<path class="st0" d="M283.31,26.36l0.01,0.01l0.02,0.01C283.33,26.37,283.32,26.36,283.31,26.36z"/>
		<path class="st0" d="M283.34,26.31h-0.01c0.01,0,0.02,0,0.03,0H283.34z"/>
		<path class="st0" d="M283.52,26.4c1.18,0.19,2.38,0.43,3.53,0.91c1.42,0.58,2.85,1.48,3.87,2.77c0.44,0.54,0.79,1.17,0.93,1.8
			c0.14,0.61,0.01,1.12-0.25,1.47c-0.44,0.01-0.88-0.15-1.32-0.47s-0.83-0.76-1.19-1.19c-0.88-1.04-1.73-2.16-2.73-3.13
			C285.53,27.74,284.61,26.97,283.52,26.4z"/>
		<path class="st0" d="M291.59,33.35c0.26-0.35,0.39-0.86,0.25-1.47c-0.14-0.63-0.49-1.26-0.93-1.8c-1.02-1.29-2.45-2.19-3.87-2.77
			c-1.15-0.48-2.35-0.72-3.53-0.91l-0.16-0.08h-0.01c0.62,0.11,1.26,0.19,1.88,0.35c0.82,0.2,1.64,0.48,2.43,0.86
			c1,0.47,2.42,1.37,3.33,2.55c0.93,1.16,1.28,2.52,0.65,3.33C291.65,33.39,291.63,33.35,291.59,33.35L291.59,33.35z"/>
		<path class="st0" d="M291.64,33.43L291.64,33.43l-0.01,0.01h-0.01c-0.02,0-0.05-0.05-0.03-0.07l0.01-0.01h0.01
			C291.63,33.35,291.65,33.39,291.64,33.43C291.64,33.42,291.64,33.43,291.64,33.43z"/>
		<path class="st0" d="M283.52,26.4c1.1,0.57,2.01,1.34,2.83,2.16c1,0.97,1.85,2.1,2.73,3.13c0.37,0.43,0.76,0.87,1.19,1.19
			c0.44,0.31,0.87,0.48,1.32,0.47l-0.01,0.01c-0.02,0.02,0.01,0.07,0.03,0.07c-0.46,0.01-0.93-0.17-1.38-0.51
			c-0.47-0.36-0.89-0.84-1.29-1.31c-0.86-1.04-1.71-2.12-2.7-3.08c-0.84-0.82-1.78-1.6-2.9-2.16l0,0L283.52,26.4z"/>
		<path class="st0" d="M291.64,33.43C291.64,33.43,291.64,33.42,291.64,33.43C291.64,33.42,291.64,33.43,291.64,33.43L291.64,33.43z
			"/>
	</g>
	<g>
		<path class="st0" d="M248.59,31.33c0.01,0,0.02,0.01,0.01,0.02C248.61,31.34,248.6,31.34,248.59,31.33z"/>
		<path class="st0" d="M248.57,31.38l-0.15,0.02l0.13-0.07l0,0h0.02h0.01l0,0c0.01,0,0.02,0.01,0.01,0.02c0,0,0,0.01-0.01,0.01
			l-0.01,0.01V31.38L248.57,31.38z"/>
		<path class="st0" d="M248.59,31.33h-0.01h-0.02C248.57,31.33,248.58,31.33,248.59,31.33z"/>
		<path class="st0" d="M248.59,31.37l0.01-0.01C248.59,31.37,248.59,31.37,248.59,31.37L248.59,31.37z"/>
		<path class="st0" d="M248.42,31.4c-0.9,0.45-1.68,1.05-2.39,1.7c-0.88,0.8-1.66,1.71-2.45,2.6c-0.34,0.37-0.69,0.75-1.07,1.04
			c-0.38,0.28-0.75,0.42-1.11,0.42c-0.19-0.29-0.26-0.7-0.12-1.2c0.13-0.5,0.45-1.02,0.81-1.45c0.88-1.07,2.1-1.83,3.29-2.31
			C246.37,31.78,247.41,31.57,248.42,31.4z"/>
		<path class="st0" d="M241.4,37.15c0.36,0.01,0.74-0.14,1.11-0.42c0.38-0.29,0.74-0.67,1.07-1.04c0.78-0.88,1.56-1.8,2.45-2.6
			c0.71-0.65,1.48-1.25,2.39-1.7l0.15-0.02l0,0c-0.48,0.23-0.93,0.5-1.34,0.81c-0.55,0.4-1.06,0.83-1.54,1.29
			c-0.62,0.59-1.39,1.49-2.09,2.28c-0.72,0.78-1.39,1.47-2.23,1.46C241.4,37.21,241.42,37.18,241.4,37.15L241.4,37.15z"/>
		<path class="st0" d="M241.37,37.22L241.37,37.22L241.37,37.22L241.37,37.22c-0.02-0.03,0-0.07,0.03-0.06h0.01v0.01
			c0.01,0.02-0.01,0.05-0.03,0.06C241.38,37.22,241.37,37.22,241.37,37.22z"/>
		<path class="st0" d="M248.42,31.4c-1.02,0.16-2.05,0.38-3.04,0.79c-1.19,0.48-2.41,1.24-3.29,2.31c-0.36,0.44-0.68,0.95-0.81,1.45
			c-0.14,0.49-0.06,0.91,0.12,1.2h-0.01c-0.02,0-0.04,0.04-0.04,0.05c-0.2-0.3-0.27-0.75-0.12-1.27c0.16-0.55,0.5-1.11,0.92-1.58
			c0.9-1.04,2.1-1.77,3.29-2.24c1.02-0.41,2.07-0.61,3.11-0.78l0,0L248.42,31.4z"/>
		<path class="st0" d="M241.37,37.22L241.37,37.22C241.37,37.22,241.37,37.22,241.37,37.22L241.37,37.22z"/>
	</g>
	<g>
		<path class="st0" d="M244.43,31.51c0.02,0,0.02,0.01,0.02,0.02C244.45,31.52,244.44,31.51,244.43,31.51z"/>
		<path class="st0" d="M244.39,31.55l-0.21,0.03l0.2-0.07l0,0h0.02h0.02h0.01c0.01,0,0.02,0.01,0.02,0.02
			c0,0.01-0.01,0.01-0.01,0.01l-0.02,0.01L244.39,31.55C244.4,31.55,244.39,31.55,244.39,31.55z"/>
		<path class="st0" d="M244.42,31.51h-0.02h-0.02C244.4,31.51,244.41,31.51,244.42,31.51z"/>
		<path class="st0" d="M244.42,31.55l0.02-0.01C244.43,31.55,244.42,31.55,244.42,31.55L244.42,31.55z"/>
		<path class="st0" d="M244.18,31.59c-1.33,0.52-2.71,0.92-4.17,1.05c-1.8,0.17-3.77-0.01-5.55-0.78c-0.75-0.31-1.48-0.75-2-1.27
			c-0.51-0.5-0.72-1-0.72-1.38c0.38-0.11,0.86-0.05,1.47,0.12c0.61,0.19,1.27,0.47,1.92,0.73c1.55,0.62,3.18,1.19,4.83,1.46
			C241.31,31.75,242.73,31.82,244.18,31.59z"/>
		<path class="st0" d="M231.73,29.21c0,0.38,0.21,0.89,0.72,1.38c0.52,0.52,1.25,0.96,2,1.27c1.78,0.76,3.76,0.95,5.55,0.78
			c1.46-0.13,2.84-0.53,4.17-1.05l0.21-0.03h0.01c-0.7,0.27-1.41,0.55-2.15,0.73c-0.97,0.25-1.97,0.41-3,0.45
			c-1.3,0.06-3.26-0.13-4.86-0.84c-1.61-0.68-2.77-1.83-2.74-2.73C231.66,29.19,231.7,29.22,231.73,29.21L231.73,29.21z"/>
		<path class="st0" d="M231.65,29.15L231.65,29.15L231.65,29.15L231.65,29.15c0.03-0.01,0.08,0.02,0.08,0.05v0.01h-0.01
			c-0.02,0.01-0.07-0.03-0.08-0.05L231.65,29.15z"/>
		<path class="st0" d="M244.18,31.59c-1.45,0.24-2.87,0.16-4.24-0.07c-1.65-0.27-3.28-0.83-4.83-1.46
			c-0.64-0.26-1.31-0.54-1.92-0.73c-0.61-0.18-1.09-0.24-1.47-0.12V29.2c0-0.02-0.05-0.06-0.07-0.06c0.4-0.12,0.91-0.05,1.55,0.14
			c0.67,0.21,1.38,0.53,2.09,0.8c1.53,0.63,3.14,1.14,4.77,1.41c1.39,0.23,2.83,0.28,4.31,0.02l0,0L244.18,31.59z"/>
		<path class="st0" d="M231.65,29.15L231.65,29.15C231.64,29.16,231.64,29.15,231.65,29.15L231.65,29.15z"/>
	</g>
	<g>
		<path class="st0" d="M268.29,20.54c-0.03-0.02-0.04-0.01-0.04,0C268.25,20.53,268.26,20.53,268.29,20.54z"/>
		<path class="st0" d="M268.34,20.65l0.38,0.3l-0.34-0.34l-0.01-0.01l-0.04-0.03l-0.03-0.02c0,0-0.01,0-0.01-0.01
			c-0.03-0.01-0.04-0.01-0.04,0s0.01,0.02,0.02,0.04c0.01,0.01,0.02,0.02,0.03,0.03l0.03,0.03
			C268.33,20.64,268.33,20.64,268.34,20.65z"/>
		<path class="st0" d="M268.3,20.54l0.03,0.02l0.04,0.03C268.35,20.57,268.32,20.56,268.3,20.54z"/>
		<path class="st0" d="M268.3,20.61c-0.01-0.01-0.02-0.02-0.03-0.03c0.01,0.02,0.03,0.04,0.06,0.06L268.3,20.61z"/>
		<path class="st0" d="M268.72,20.95c2.27,2.38,3.19,5.66,2.88,8.67c-0.18,1.88-0.9,3.67-2.05,5.16c-1.15,1.5-2.68,2.71-4.38,3.5
			c-1.44,0.68-3.06,1.07-4.48,1.17c-1.38,0.11-2.37-0.02-3.04,0.03c0.24,0.61,1.18,1.48,2.86,1.82c1.68,0.36,3.74,0.05,5.5-0.72
			c2.14-0.92,3.96-2.5,5.19-4.41c1.25-1.9,1.87-4.16,1.82-6.29C272.94,26.35,271.3,23.08,268.72,20.95z"/>
		<path class="st0" d="M257.65,39.49c0.67-0.05,1.67,0.07,3.04-0.03c1.42-0.1,3.04-0.48,4.48-1.17c1.7-0.8,3.23-2.01,4.38-3.5
			c1.15-1.5,1.87-3.29,2.05-5.16c0.31-3.01-0.62-6.3-2.88-8.67l-0.38-0.3c-0.01,0-0.01-0.01-0.01-0.01
			c1.25,1.19,2.14,2.67,2.67,4.23c0.7,2.05,0.8,4.27,0.28,6.28c-0.31,1.29-1.03,2.76-2.13,4.05s-2.55,2.39-4.09,3.08
			c-1.53,0.7-3.11,1.04-4.42,1.12c-1.32,0.1-2.37-0.06-3.16-0.04C257.53,39.38,257.64,39.45,257.65,39.49L257.65,39.49z"/>
		<path class="st0" d="M257.45,39.36C257.44,39.36,257.44,39.36,257.45,39.36C257.44,39.36,257.44,39.36,257.45,39.36v0.02
			c0.02,0.04,0.14,0.12,0.18,0.11h0.02l-0.01-0.01c-0.02-0.04-0.12-0.11-0.17-0.12H257.45z"/>
		<path class="st0" d="M268.72,20.95c2.57,2.13,4.22,5.4,4.3,8.95c0.05,2.12-0.57,4.38-1.82,6.29c-1.24,1.91-3.06,3.49-5.19,4.41
			c-1.76,0.77-3.82,1.07-5.5,0.72c-1.68-0.33-2.62-1.2-2.86-1.82h-0.02c-0.04,0-0.16-0.08-0.18-0.11c0.21,0.65,1.22,1.64,3.02,1.98
			c1.87,0.37,4.14,0.01,6.02-0.94c2.08-1.02,3.82-2.64,4.98-4.57c1.18-1.92,1.71-4.19,1.6-6.29c-0.18-3.6-1.96-6.9-4.69-8.97
			l0.01,0.01L268.72,20.95z"/>
		<path class="st0" d="M257.45,39.36h0.02C257.45,39.35,257.44,39.35,257.45,39.36C257.44,39.36,257.44,39.36,257.45,39.36z"/>
	</g>
	<g>
		<path class="st0" d="M272.33,38.02c0.03-0.01,0.03-0.02,0.02-0.03C272.36,38,272.35,38.02,272.33,38.02z"/>
		<path class="st0" d="M272.25,37.98c-0.12,0.01-0.24,0.02-0.36,0.04c0.12,0,0.24,0.01,0.36,0.02h0.01h0.04h0.03h0.01
			c0.02-0.01,0.03-0.02,0.02-0.03C272.35,38,272.34,38,272.33,38h-0.03h-0.03C272.26,37.97,272.26,37.98,272.25,37.98z"/>
		<path class="st0" d="M272.32,38.03h-0.03h-0.04C272.28,38.03,272.3,38.03,272.32,38.03z"/>
		<path class="st0" d="M272.29,37.98h0.03c-0.02-0.01-0.04-0.01-0.06-0.01L272.29,37.98z"/>
		<path class="st0" d="M271.89,38.01c-1.21-0.01-2.43,0.41-3.42,1.2c-0.99,0.79-1.69,1.99-1.93,3.3c-0.32,1.6,0.05,3.51,1.31,4.9
			c0.62,0.69,1.47,1.27,2.5,1.48c1.04,0.21,2.09,0.02,3-0.5c0.77-0.44,1.44-1.2,1.69-2.11c0.28-0.96,0.02-1.87-0.38-2.5
			c-0.41-0.62-0.96-0.98-1.44-1.09c-0.48-0.12-0.86,0-1.07,0.18c0.34,0.42,0.68,0.95,0.81,1.67c0.12,0.77-0.11,1.27-0.76,1.7
			c-0.82,0.49-1.86,0.46-2.75-0.27c-0.9-0.71-1.48-1.91-1.51-3.18c-0.04-1.05,0.26-2.16,0.96-3.04
			C269.6,38.87,270.66,38.19,271.89,38.01z"/>
		<path class="st0" d="M272.17,42.88c0.2-0.18,0.58-0.3,1.07-0.18c0.48,0.11,1.03,0.46,1.44,1.09c0.4,0.64,0.66,1.54,0.38,2.5
			c-0.26,0.92-0.93,1.68-1.69,2.11c-0.91,0.52-1.96,0.71-3,0.5c-1.03-0.22-1.88-0.79-2.5-1.48c-1.25-1.4-1.62-3.3-1.31-4.9
			c0.24-1.31,0.94-2.5,1.93-3.3c0.98-0.79,2.21-1.22,3.42-1.2c0.12-0.02,0.24-0.03,0.36-0.04c0.01,0,0.01,0,0.01,0
			c-1.28-0.11-2.62,0.27-3.69,1.08c-1.44,1.07-2.28,2.94-2.18,4.85c0.04,1.21,0.53,2.79,1.84,3.96c0.65,0.58,1.5,1.04,2.5,1.15
			c0.98,0.1,1.95-0.12,2.76-0.63c0.81-0.5,1.47-1.32,1.67-2.28c0.2-0.97-0.07-1.83-0.47-2.42c-0.41-0.6-0.97-0.98-1.49-1.09
			c-0.52-0.12-0.96,0.02-1.18,0.24C272.05,42.84,272.14,42.84,272.17,42.88L272.17,42.88z"/>
		<path class="st0" d="M272,42.86L272,42.86v0.01l0.01,0.01c0.03,0.02,0.12,0.03,0.15,0.01l0.01-0.01l-0.01-0.01
			c-0.02-0.03-0.11-0.03-0.15-0.02L272,42.86z"/>
		<path class="st0" d="M271.89,38.01c-1.23,0.18-2.3,0.86-2.99,1.74c-0.7,0.89-0.99,1.99-0.96,3.04c0.03,1.27,0.62,2.47,1.51,3.18
			c0.89,0.73,1.93,0.76,2.75,0.27c0.65-0.43,0.88-0.93,0.76-1.7c-0.13-0.72-0.47-1.25-0.81-1.67l-0.01,0.01
			c-0.03,0.02-0.12,0.01-0.15-0.01c0.39,0.43,0.77,0.94,0.91,1.68c0.07,0.39,0.02,0.77-0.11,1c-0.15,0.28-0.42,0.55-0.79,0.73
			c-0.4,0.2-0.9,0.28-1.32,0.21c-0.46-0.08-0.94-0.32-1.35-0.69c-0.84-0.75-1.35-1.94-1.34-3.2c0-1.06,0.35-2.16,1.11-3.02
			c0.75-0.86,1.88-1.48,3.14-1.56h-0.01C272.13,38.02,272.01,38.01,271.89,38.01z"/>
		<path class="st0" d="M272,42.86l0.01-0.01C272,42.85,272,42.86,272,42.86L272,42.86z"/>
	</g>
	<g>
		<path class="st0" d="M291.72,26.19c-0.01,0-0.02,0.01-0.02,0.02C291.7,26.2,291.71,26.19,291.72,26.19z"/>
		<path class="st0" d="M291.74,26.24l0.18,0.03l-0.16-0.09l0,0h-0.02h-0.01l0,0c-0.01,0-0.02,0.01-0.02,0.02
			c0,0.01,0,0.01,0.01,0.02l0.01,0.01L291.74,26.24L291.74,26.24z"/>
		<path class="st0" d="M291.72,26.19h0.01h0.02C291.74,26.18,291.73,26.18,291.72,26.19z"/>
		<path class="st0" d="M291.72,26.24l-0.01-0.01c0.01,0.01,0.01,0.01,0.03,0.02L291.72,26.24z"/>
		<path class="st0" d="M291.92,26.28c1.07,0.58,1.97,1.35,2.79,2.16c1.02,1.01,1.91,2.14,2.81,3.23c0.39,0.46,0.8,0.92,1.26,1.28
			c0.45,0.35,0.91,0.52,1.36,0.52c0.26-0.35,0.37-0.85,0.24-1.46c-0.13-0.62-0.49-1.25-0.91-1.8c-1.02-1.33-2.47-2.29-3.9-2.9
			C294.38,26.78,293.14,26.5,291.92,26.28z"/>
		<path class="st0" d="M300.14,33.47c-0.45,0-0.91-0.18-1.36-0.52c-0.46-0.36-0.87-0.82-1.26-1.28c-0.9-1.09-1.79-2.22-2.81-3.23
			c-0.82-0.81-1.72-1.58-2.79-2.16l-0.18-0.03h-0.01c0.57,0.3,1.09,0.65,1.58,1.04c0.64,0.5,1.23,1.05,1.78,1.63
			c0.71,0.73,1.59,1.86,2.4,2.83c0.83,0.96,1.61,1.8,2.67,1.81C300.14,33.54,300.11,33.5,300.14,33.47L300.14,33.47z"/>
		<path class="st0" d="M300.17,33.55L300.17,33.55l0.01-0.01v-0.01c0.01-0.02-0.01-0.07-0.04-0.07h-0.01v0.02
			c-0.02,0.02,0.01,0.06,0.03,0.07C300.16,33.55,300.17,33.55,300.17,33.55z"/>
		<path class="st0" d="M291.92,26.28c1.22,0.22,2.46,0.5,3.66,1.03c1.43,0.62,2.88,1.57,3.9,2.9c0.42,0.54,0.78,1.18,0.91,1.8
			c0.13,0.61,0.02,1.11-0.24,1.46h0.01c0.03,0,0.05,0.05,0.04,0.07c0.27-0.36,0.4-0.9,0.24-1.55c-0.16-0.68-0.55-1.37-1.03-1.96
			c-1.05-1.3-2.48-2.22-3.9-2.82c-1.22-0.53-2.49-0.79-3.74-1.02l0,0L291.92,26.28z"/>
		<path class="st0" d="M300.17,33.55h-0.01C300.17,33.55,300.17,33.56,300.17,33.55L300.17,33.55z"/>
	</g>
	<g>
		<path class="st0" d="M263.88,43.15c0-0.01,0-0.02-0.01-0.03C263.88,43.13,263.88,43.14,263.88,43.15z"/>
		<path class="st0" d="M263.82,43.14l-0.1,0.13l0.14-0.09l0,0l0.01-0.01c0,0,0-0.01,0.01-0.01l0,0c0-0.01,0-0.02-0.01-0.03
			c-0.01,0-0.01,0-0.02,0c-0.01,0-0.01,0-0.01,0.01L263.82,43.14L263.82,43.14z"/>
		<path class="st0" d="M263.88,43.16l-0.01,0.01l-0.01,0.01C263.87,43.17,263.88,43.17,263.88,43.16z"/>
		<path class="st0" d="M263.84,43.13c0,0,0.01,0,0.01-0.01C263.84,43.12,263.83,43.13,263.84,43.13L263.84,43.13z"/>
		<path class="st0" d="M263.72,43.28c-0.93,0.63-1.97,0.95-2.99,1.13c-1.27,0.22-2.54,0.2-3.77,0.15c-0.53-0.01-1.06-0.03-1.58,0.05
			c-0.5,0.09-0.93,0.27-1.25,0.58c0.03,0.42,0.26,0.87,0.76,1.21c0.5,0.35,1.19,0.53,1.85,0.58c1.62,0.13,3.22-0.42,4.45-1.23
			C262.23,45.09,263.05,44.2,263.72,43.28z"/>
		<path class="st0" d="M254.13,45.19c0.32-0.31,0.75-0.5,1.25-0.58c0.52-0.08,1.05-0.07,1.58-0.05c1.23,0.05,2.5,0.07,3.77-0.15
			c1.02-0.17,2.06-0.5,2.99-1.13l0.1-0.13l0,0c-0.49,0.34-1,0.6-1.53,0.79c-0.7,0.25-1.4,0.41-2.1,0.51
			c-0.9,0.13-2.16,0.11-3.26,0.06c-1.1-0.01-2.09-0.05-2.86,0.66C254.09,45.14,254.13,45.16,254.13,45.19L254.13,45.19z"/>
		<path class="st0" d="M254.06,45.16L254.06,45.16v0.01v0.01c0.01,0.02,0.05,0.04,0.07,0.02l0.01-0.01v-0.01
			C254.13,45.16,254.09,45.14,254.06,45.16C254.06,45.15,254.06,45.16,254.06,45.16z"/>
		<path class="st0" d="M263.72,43.28c-0.68,0.92-1.49,1.81-2.53,2.48c-1.23,0.81-2.83,1.37-4.45,1.23
			c-0.66-0.05-1.35-0.23-1.85-0.58c-0.5-0.34-0.73-0.79-0.76-1.21l-0.01,0.01c-0.02,0.02-0.06,0-0.07-0.02
			c0.02,0.43,0.27,0.93,0.81,1.28c0.56,0.37,1.32,0.57,2.05,0.59c1.61,0.08,3.18-0.49,4.4-1.31c1.06-0.69,1.87-1.62,2.55-2.56l0,0
			L263.72,43.28z"/>
		<path class="st0" d="M254.06,45.16C254.06,45.16,254.06,45.15,254.06,45.16C254.06,45.15,254.05,45.16,254.06,45.16L254.06,45.16z
			"/>
	</g>
	<path class="st0" d="M144.23,29.49c-1.42,4.39,4.04,6.44,5.64,2.73c0.54-1.27-1.83-0.75-2.63-2.18c-1-1.8,1.08-6.29,7.03-7.29
		C150.74,22.54,145.6,25.26,144.23,29.49z"/>
	<g>
		<path class="st0" d="M168.05,8.34c-1.21-0.8-1.48-1.92-1.14-2.88c0.45-0.91,1.44-1.5,2.86-1.2c-0.5-1.36-0.06-2.42,0.77-3
			c0.9-0.47,2.05-0.37,3.02,0.71c0.39-1.39,1.37-2,2.39-1.97c1.01,0.14,1.88,0.91,2.03,2.35c1.13-0.9,2.29-0.81,3.09-0.19
			c0.73,0.71,0.98,1.84,0.26,3.09c1.44-0.06,2.33,0.69,2.62,1.66c0.17,1-0.28,2.06-1.6,2.65c1.2,0.8,1.48,1.92,1.14,2.88
			c-0.45,0.91-1.44,1.5-2.86,1.2c0.5,1.35,0.06,2.42-0.77,3c-0.9,0.48-2.05,0.37-3.02-0.71c-0.39,1.39-1.37,2-2.39,1.97
			c-1.01-0.15-1.88-0.91-2.03-2.35c-1.13,0.9-2.29,0.81-3.09,0.19c-0.73-0.71-0.98-1.84-0.26-3.09c-1.44,0.06-2.33-0.69-2.62-1.66
			C166.27,9.99,166.73,8.92,168.05,8.34z M167.76,10.68c0.13,0.55,0.64,1.31,2.02,1.03l0,0c0.6-0.12,1.22-0.35,1.85-0.61
			c-0.52,0.43-1.01,0.88-1.4,1.35l0,0c-0.9,1.09-0.46,1.9-0.03,2.27c0.42,0.37,1.29,0.68,2.24-0.36l0,0c0.41-0.45,0.78-1,1.14-1.58
			c-0.17,0.66-0.3,1.31-0.33,1.91l0,0c-0.08,1.41,0.75,1.81,1.31,1.85c0.56,0.05,1.44-0.21,1.6-1.6l0,0
			c0.07-0.6,0.05-1.27-0.01-1.94c0.25,0.63,0.53,1.23,0.86,1.75l0,0c0.76,1.19,1.67,1.02,2.15,0.73s1.04-1.02,0.35-2.24l0,0
			c-0.3-0.53-0.71-1.06-1.15-1.57c0.57,0.37,1.15,0.69,1.72,0.91l0,0c1.32,0.51,1.95-0.16,2.17-0.67c0.22-0.52,0.25-1.44-1.03-2.02
			l0,0c-0.56-0.25-1.19-0.44-1.85-0.59c0.68-0.04,1.34-0.12,1.92-0.27l0,0c1.37-0.36,1.49-1.27,1.36-1.82s-0.64-1.31-2.02-1.03l0,0
			c-0.6,0.12-1.22,0.34-1.85,0.61c0.53-0.43,1.01-0.88,1.4-1.35l0,0c0.9-1.09,0.45-1.9,0.03-2.27s-1.29-0.68-2.24,0.36l0,0
			c-0.41,0.45-0.78,1-1.14,1.58c0.17-0.66,0.3-1.31,0.33-1.92l0,0c0.08-1.41-0.75-1.81-1.31-1.85c-0.56-0.05-1.44,0.21-1.6,1.61l0,0
			c-0.07,0.61-0.05,1.27,0.01,1.94c-0.25-0.63-0.53-1.23-0.86-1.74l0,0c-0.76-1.19-1.67-1.02-2.15-0.73s-1.04,1.02-0.35,2.24l0,0
			c0.3,0.53,0.71,1.05,1.15,1.57c-0.57-0.37-1.15-0.69-1.72-0.91l0,0c-1.32-0.51-1.95,0.15-2.17,0.67s-0.25,1.44,1.03,2.02l0,0
			c0.55,0.25,1.19,0.44,1.85,0.59c-0.68,0.04-1.34,0.12-1.92,0.27l0,0C167.75,9.22,167.63,10.13,167.76,10.68z"/>
		<path class="st0" d="M174.08,8.84c-0.05,0.61,0.4,1.15,1.02,1.21c0.61,0.05,1.15-0.4,1.2-1.02c0.05-0.61-0.4-1.15-1.02-1.2
			C174.67,7.77,174.13,8.23,174.08,8.84z"/>
	</g>
	<g>
		<path class="st0" d="M125.53,14.82c-0.03-0.11-0.05-0.14-0.04-0.09C125.49,14.7,125.5,14.73,125.53,14.82z"/>
		<path class="st0" d="M125.6,15.17c0.05,0.26,0.21,0.49,0.31,0.74c0.13,0.23,0.29,0.45,0.45,0.66c-0.15-0.21-0.3-0.43-0.43-0.67
			c-0.1-0.25-0.25-0.48-0.29-0.74c0-0.01,0-0.01-0.01-0.03c-0.02-0.06-0.03-0.11-0.05-0.17l-0.03-0.11c0-0.01-0.01-0.02-0.01-0.04
			c-0.03-0.09-0.05-0.12-0.04-0.09c0,0.02,0.01,0.08,0.03,0.13c0.01,0.04,0.02,0.07,0.03,0.13c0.01,0.05,0.02,0.09,0.03,0.14
			C125.58,15.13,125.59,15.15,125.6,15.17z"/>
		<path class="st0" d="M125.54,14.85l0.03,0.11c0.02,0.06,0.03,0.11,0.05,0.17C125.59,15.03,125.56,14.93,125.54,14.85z"/>
		<path class="st0" d="M125.55,14.98c-0.01-0.05-0.02-0.09-0.03-0.13c0.02,0.07,0.04,0.16,0.07,0.26
			C125.57,15.07,125.56,15.03,125.55,14.98z"/>
		<path class="st0" d="M126.35,16.57c0.42,0.53,0.96,0.94,1.54,1.27c0.59,0.32,1.23,0.52,1.89,0.66c0.66,0.1,1.34,0.12,2,0.02
			c0.66-0.13,1.31-0.33,1.89-0.69c1.15-0.73,1.95-1.92,2.31-3.22c0.18-0.65,0.27-1.32,0.25-2c0.01-0.34-0.05-0.67-0.08-1.01
			c-0.07-0.33-0.11-0.67-0.22-0.98c-0.36-1.3-1.1-2.5-2.13-3.41c-0.52-0.44-1.09-0.81-1.7-1.12c-0.62-0.28-1.26-0.51-1.92-0.66
			c-2.66-0.56-5.53,0-7.81,1.53c-1.41,0.95-2.6,2.24-3.4,3.77c-0.81,1.53-1.19,3.35-0.92,5.11c0.13,0.88,0.41,1.74,0.78,2.54
			c0.41,0.79,0.89,1.53,1.47,2.2c1.17,1.32,2.59,2.4,4.16,3.18c0.78,0.41,1.6,0.72,2.44,0.98c0.85,0.27,1.71,0.38,2.56,0.56
			c1.73,0.21,3.48,0.33,5.21,0.15l0.65-0.04l0.64-0.09l1.29-0.18c0.84-0.18,1.7-0.3,2.53-0.53c1.68-0.39,3.31-0.92,4.94-1.45
			c2.74-0.93,5.45-2,8.09-2.96c0.66-0.24,1.32-0.48,1.97-0.7c0.65-0.23,1.3-0.44,1.94-0.64c1.28-0.43,2.52-0.74,3.74-0.96
			c2.37-0.42,4.42-0.41,6.01-0.04c1.6,0.33,2.69,1.01,3.41,1.49c-0.55-0.68-1.57-1.59-3.21-2.14c-1.62-0.59-3.78-0.78-6.25-0.5
			c-1.25,0.15-2.55,0.42-3.84,0.79c-1.29,0.35-2.6,0.77-3.92,1.21c-2.63,0.89-5.29,1.91-7.9,2.8c-3.16,1.09-6.38,2-9.64,2.39
			c-0.82,0.05-1.63,0.16-2.45,0.13c-0.41-0.01-0.82,0.01-1.22-0.01l-1.21-0.1c-0.41-0.02-0.8-0.1-1.2-0.17
			c-0.4-0.08-0.8-0.13-1.19-0.22c-0.77-0.18-1.53-0.45-2.27-0.75c-1.45-0.65-2.83-1.5-3.94-2.62c-1.12-1.09-1.97-2.45-2.36-3.93
			c-0.08-0.37-0.17-0.74-0.18-1.13c-0.05-0.38-0.04-0.76-0.01-1.14c0.06-0.76,0.24-1.51,0.53-2.22c0.57-1.43,1.54-2.69,2.73-3.67
			c1.97-1.64,4.65-2.4,7.2-2.08c1.28,0.16,2.52,0.61,3.56,1.36c1.05,0.74,1.83,1.83,2.29,3.04c0.22,0.61,0.36,1.25,0.43,1.9
			c0.04,0.65,0.02,1.31-0.1,1.95c-0.14,0.64-0.37,1.26-0.7,1.83c-0.35,0.55-0.79,1.07-1.32,1.45c-0.55,0.37-1.16,0.65-1.82,0.79
			c-0.65,0.12-1.33,0.17-2,0.07C128.55,18.23,127.24,17.62,126.35,16.57z"/>
		<path class="st0" d="M169.87,19.38c-0.72-0.48-1.81-1.16-3.41-1.49c-1.58-0.37-3.64-0.38-6.01,0.04
			c-1.22,0.22-2.46,0.54-3.74,0.96c-0.64,0.2-1.29,0.41-1.94,0.64c-0.65,0.22-1.31,0.46-1.97,0.7c-2.64,0.96-5.35,2.02-8.09,2.96
			c-1.63,0.53-3.26,1.06-4.94,1.45c-0.83,0.23-1.69,0.35-2.53,0.53l-1.29,0.18l-0.64,0.09l-0.65,0.04
			c-1.73,0.18-3.49,0.06-5.21-0.15c-0.86-0.18-1.71-0.29-2.56-0.56c-0.84-0.26-1.67-0.57-2.44-0.98c-1.57-0.78-3-1.85-4.16-3.18
			c-0.58-0.67-1.07-1.41-1.47-2.2c-0.37-0.81-0.66-1.66-0.78-2.54c-0.26-1.77,0.12-3.59,0.92-5.11c0.8-1.54,2-2.83,3.4-3.77
			c2.28-1.53,5.15-2.09,7.81-1.53c0.66,0.14,1.31,0.37,1.92,0.66c0.61,0.31,1.18,0.67,1.7,1.12c1.03,0.91,1.76,2.11,2.13,3.41
			c0.11,0.32,0.15,0.66,0.22,0.98c0.03,0.34,0.09,0.67,0.08,1.01c0.02,0.67-0.07,1.35-0.25,2c-0.35,1.3-1.16,2.49-2.31,3.22
			c-0.57,0.36-1.23,0.57-1.89,0.69c-0.67,0.1-1.34,0.08-2-0.02c-0.66-0.13-1.3-0.33-1.89-0.66c-0.58-0.33-1.12-0.75-1.54-1.27
			c-0.16-0.21-0.32-0.43-0.45-0.66c-0.1-0.25-0.26-0.47-0.31-0.74c-0.01-0.03-0.01-0.04-0.01-0.05c0.2,0.68,0.55,1.33,1.07,1.83
			c0.51,0.5,1.11,0.9,1.76,1.18c0.66,0.27,1.36,0.43,2.07,0.48c0.71,0.04,1.43-0.05,2.11-0.26c0.69-0.21,1.31-0.6,1.85-1.08
			c0.53-0.49,0.93-1.1,1.24-1.74c0.6-1.31,0.72-2.8,0.46-4.19c-0.33-1.84-1.38-3.61-2.97-4.67c-1.57-1.09-3.51-1.55-5.4-1.49
			c-1.89,0.07-3.78,0.64-5.38,1.71c-1.59,1.06-2.92,2.55-3.71,4.33c-0.5,1.13-0.83,2.46-0.75,3.85c0.06,1.39,0.51,2.82,1.27,4.09
			c1.57,2.53,4.21,4.44,7.22,5.46c3.04,0.95,6.33,1.18,9.51,0.74c3.19-0.4,6.27-1.28,9.16-2.28c2.9-1,5.66-2.09,8.27-3.03
			c1.31-0.47,2.58-0.9,3.8-1.28c1.22-0.39,2.4-0.67,3.54-0.86c2.27-0.38,4.35-0.35,6.01,0.08c1.66,0.43,2.87,1.22,3.64,1.89
			c-0.11-0.1-0.4-0.4-0.46-0.49L169.87,19.38z"/>
		<path class="st0" d="M170.4,19.93C170.41,19.94,170.41,19.94,170.4,19.93C170.41,19.94,170.41,19.93,170.4,19.93l-0.02-0.03
			c-0.08-0.1-0.4-0.43-0.48-0.49l-0.03-0.02l0.02,0.03c0.07,0.09,0.35,0.38,0.46,0.49C170.37,19.9,170.39,19.92,170.4,19.93z"/>
		<path class="st0" d="M126.35,16.57c0.89,1.05,2.2,1.66,3.53,1.84c0.67,0.1,1.35,0.05,2-0.07c0.66-0.14,1.27-0.42,1.82-0.79
			c0.54-0.39,0.97-0.9,1.32-1.45c0.34-0.57,0.56-1.19,0.7-1.83c0.13-0.64,0.15-1.3,0.1-1.95c-0.07-0.65-0.21-1.29-0.43-1.9
			c-0.46-1.21-1.24-2.3-2.29-3.04c-1.04-0.75-2.29-1.21-3.56-1.36c-2.56-0.32-5.23,0.45-7.2,2.08c-1.19,0.98-2.16,2.24-2.73,3.67
			c-0.29,0.71-0.47,1.46-0.53,2.22c-0.03,0.38-0.03,0.76,0.01,1.14c0.02,0.38,0.1,0.75,0.18,1.13c0.38,1.48,1.23,2.83,2.36,3.93
			c1.11,1.12,2.48,1.97,3.94,2.62c0.74,0.31,1.49,0.57,2.27,0.75c0.39,0.09,0.79,0.15,1.19,0.22c0.4,0.07,0.79,0.15,1.2,0.17
			l1.21,0.1c0.41,0.02,0.81,0,1.22,0.01c0.81,0.03,1.63-0.09,2.45-0.13c3.26-0.39,6.48-1.29,9.64-2.39c2.61-0.89,5.27-1.91,7.9-2.8
			c1.31-0.45,2.63-0.86,3.92-1.21c1.28-0.37,2.59-0.64,3.84-0.79c2.47-0.29,4.63-0.1,6.25,0.5c1.64,0.55,2.66,1.46,3.21,2.14
			l0.03,0.02c0.08,0.06,0.4,0.4,0.48,0.49c-0.13-0.19-0.29-0.39-0.47-0.62c-0.2-0.21-0.42-0.43-0.68-0.67
			c-0.54-0.43-1.21-0.9-2.07-1.24c-1.7-0.7-4.02-0.99-6.66-0.68c-1.39,0.16-2.83,0.47-4.23,0.88c-1.42,0.39-2.84,0.86-4.28,1.35
			c-2.87,0.99-5.76,2.11-8.64,3.04c-1.57,0.52-3.16,0.96-4.75,1.33c-0.8,0.15-1.6,0.35-2.4,0.44c-0.4,0.05-0.8,0.13-1.2,0.16
			l-1.21,0.09c-0.4,0.04-0.8,0.03-1.21,0.03c-0.4-0.01-0.8,0.02-1.2-0.02c-0.8-0.08-1.6-0.1-2.38-0.28
			c-0.79-0.13-1.56-0.28-2.3-0.55c-0.75-0.24-1.47-0.56-2.16-0.93c-0.7-0.36-1.34-0.81-1.96-1.28c-0.59-0.5-1.18-1.02-1.65-1.62
			c-0.48-0.6-0.91-1.24-1.2-1.94c-0.18-0.34-0.26-0.71-0.39-1.06c-0.07-0.37-0.18-0.73-0.2-1.11c-0.18-1.49,0.19-3.02,0.91-4.36
			c0.73-1.34,1.8-2.49,3.07-3.34c2.16-1.43,4.95-1.96,7.48-1.3c0.63,0.17,1.23,0.41,1.81,0.72c0.57,0.32,1.09,0.72,1.54,1.18
			c0.44,0.48,0.81,1.02,1.12,1.6c0.28,0.59,0.5,1.22,0.62,1.87c0.11,0.65,0.16,1.32,0.09,1.98s-0.23,1.31-0.5,1.92
			c-0.28,0.6-0.67,1.15-1.14,1.63c-0.49,0.45-1.08,0.79-1.72,1.02c-0.64,0.2-1.32,0.29-2,0.27c-0.68-0.04-1.35-0.18-2-0.43
			c-0.64-0.26-1.23-0.63-1.73-1.11c-0.51-0.47-0.87-1.09-1.08-1.75c0,0.01,0,0.01,0.01,0.03c0.04,0.26,0.19,0.49,0.29,0.74
			C126.05,16.13,126.2,16.36,126.35,16.57z"/>
		<path class="st0" d="M170.4,19.93c-0.01-0.01-0.03-0.02-0.04-0.03c0.04,0.03,0.07,0.06,0.05,0.04
			C170.41,19.93,170.41,19.94,170.4,19.93z"/>
	</g>
	<g>
		<path class="st0" d="M166.98,15.43c0,0-0.12-0.07-0.33-0.18s-0.5-0.3-0.82-0.53c-0.65-0.48-1.39-1.25-1.93-2.13
			c-0.55-0.88-0.87-1.85-1.01-2.6c-0.13-0.75-0.13-1.28-0.13-1.4c-0.04-0.23-0.24-0.42-0.53-0.58c-0.29-0.15-0.7-0.26-1.13-0.25
			c-0.43,0.01-0.82,0.14-1.09,0.39c-0.28,0.24-0.42,0.59-0.36,0.95c0.02,0.18,0.26,0.95,0.77,1.86c0.52,0.91,1.34,1.94,2.32,2.69
			c0.97,0.77,2.05,1.27,2.87,1.5c0.42,0.11,0.75,0.19,1,0.22C166.84,15.41,166.98,15.43,166.98,15.43z"/>
	</g>
	<g>
		<path class="st0" d="M162.77,14.56c0,0-0.18-0.01-0.5-0.03c-0.32-0.01-0.77-0.08-1.3-0.17c-1.06-0.21-2.41-0.72-3.59-1.48
			c-1.19-0.75-2.17-1.77-2.8-2.62c-0.17-0.2-0.29-0.42-0.41-0.61c-0.13-0.18-0.22-0.36-0.3-0.51c-0.17-0.29-0.27-0.5-0.31-0.57
			c-0.09-0.15-0.21-0.26-0.36-0.35c-0.14-0.09-0.3-0.16-0.48-0.2c-0.36-0.08-0.79-0.06-1.19,0.11c-0.4,0.17-0.68,0.49-0.81,0.88
			c-0.06,0.19-0.09,0.41-0.06,0.62c0.03,0.21,0.11,0.42,0.23,0.62c0.06,0.1,0.24,0.35,0.55,0.68c0.15,0.17,0.32,0.36,0.54,0.56
			c0.21,0.2,0.43,0.42,0.7,0.63c1.04,0.86,2.5,1.72,4.04,2.2c1.54,0.49,3.09,0.62,4.22,0.54c0.56-0.05,1.02-0.1,1.34-0.18
			C162.59,14.6,162.77,14.56,162.77,14.56z"/>
	</g>
	<g>
		<path class="st0" d="M156.55,14.64c0,0-0.23,0.03-0.64,0.09c-0.41,0.03-0.99,0.08-1.68,0.03c-1.39-0.07-3.19-0.51-4.96-1.17
			c-0.89-0.32-1.79-0.68-2.64-1.02c-0.84-0.34-1.58-0.68-2.13-1.03c-1.12-0.7-1.46-1.41-1.56-1.54c-0.2-0.28-0.46-0.44-0.81-0.58
			c-0.34-0.13-0.75-0.26-1.18-0.21c-0.43,0.05-0.8,0.35-0.94,0.86c-0.15,0.51-0.03,1.21,0.39,1.77c0.1,0.14,0.4,0.5,0.9,0.91
			c0.49,0.41,1.22,0.86,2.05,1.17c0.83,0.33,1.76,0.54,2.69,0.71c0.92,0.17,1.88,0.34,2.86,0.48c1.95,0.3,3.93,0.36,5.36,0.14
			c0.72-0.1,1.29-0.27,1.69-0.39C156.33,14.72,156.55,14.64,156.55,14.64z"/>
	</g>
	<g>
		<path class="st0" d="M120.65,21.22c0.03,0.01,0.04,0,0.03-0.01C120.69,21.22,120.67,21.22,120.65,21.22z"/>
		<path class="st0" d="M120.59,21.15c-0.12-0.04-0.24-0.09-0.37-0.12c0.12,0.05,0.23,0.11,0.35,0.16h0.01l0.04,0.01l0.03,0.01h0.01
			c0.02,0,0.04,0,0.03-0.01c0-0.01-0.01-0.01-0.02-0.02c-0.01,0-0.02-0.01-0.03-0.01l-0.03-0.01
			C120.6,21.16,120.59,21.16,120.59,21.15z"/>
		<path class="st0" d="M120.64,21.22l-0.03-0.01l-0.04-0.01C120.6,21.21,120.62,21.22,120.64,21.22z"/>
		<path class="st0" d="M120.63,21.17c0.01,0.01,0.02,0.01,0.03,0.01c-0.02-0.01-0.03-0.02-0.06-0.03L120.63,21.17z"/>
		<path class="st0" d="M120.22,21.04c-1.19-0.49-2.54-0.62-3.84-0.31c-1.29,0.3-2.56,1.12-3.24,2.43c-0.42,0.79-0.61,1.71-0.57,2.64
			c0.05,0.93,0.34,1.89,0.98,2.7c1.3,1.65,3.76,2.11,5.63,1.03c0.77-0.47,1.41-1.19,1.7-2.08c0.14-0.44,0.19-0.92,0.12-1.38
			c-0.07-0.48-0.28-0.91-0.54-1.23c-0.51-0.63-1.17-0.86-1.67-0.88c-0.52-0.01-0.87,0.21-1.01,0.42c0.24,0.1,0.51,0.23,0.75,0.44
			s0.49,0.5,0.62,0.85c0.07,0.18,0.1,0.36,0.09,0.51c-0.01,0.18-0.05,0.37-0.13,0.55c-0.16,0.37-0.48,0.75-0.87,0.99
			c-0.9,0.59-2.41,0.5-3.24-0.31c-0.88-0.8-1.21-2.34-0.83-3.62c0.3-1.07,1.19-1.98,2.31-2.48C117.6,20.8,118.95,20.69,120.22,21.04
			z"/>
		<path class="st0" d="M117.78,24.37c0.14-0.21,0.49-0.43,1.01-0.42c0.5,0.02,1.16,0.26,1.67,0.88c0.26,0.32,0.47,0.74,0.54,1.23
			c0.07,0.45,0.02,0.93-0.12,1.38c-0.29,0.89-0.92,1.61-1.7,2.08c-1.87,1.09-4.33,0.62-5.63-1.03c-0.64-0.81-0.93-1.77-0.98-2.7
			c-0.04-0.93,0.15-1.84,0.57-2.64c0.68-1.31,1.95-2.13,3.24-2.43c1.3-0.31,2.65-0.18,3.84,0.31c0.12,0.03,0.24,0.08,0.37,0.12
			c0.01,0,0.01,0,0.01,0c-1.23-0.6-2.66-0.82-4.05-0.52c-0.91,0.18-1.81,0.61-2.53,1.29c-0.74,0.68-1.22,1.64-1.41,2.64
			c-0.12,0.64-0.14,1.39,0.05,2.17s0.6,1.6,1.29,2.26c1.4,1.3,3.68,1.58,5.37,0.51c0.82-0.52,1.43-1.31,1.67-2.23
			c0.12-0.46,0.13-0.93,0.04-1.38c-0.1-0.47-0.32-0.86-0.57-1.15c-0.51-0.6-1.18-0.86-1.73-0.86c-0.56-0.01-0.97,0.25-1.11,0.53
			C117.65,24.38,117.74,24.35,117.78,24.37L117.78,24.37z"/>
		<path class="st0" d="M117.61,24.42C117.61,24.42,117.61,24.43,117.61,24.42L117.61,24.42L117.61,24.42
			c0.04,0.01,0.14-0.02,0.16-0.05l0.01-0.01h-0.01c-0.03-0.01-0.12,0.02-0.15,0.04L117.61,24.42z"/>
		<path class="st0" d="M120.22,21.04c-1.27-0.35-2.62-0.24-3.74,0.26s-2.01,1.4-2.31,2.48c-0.39,1.28-0.05,2.82,0.83,3.62
			c0.83,0.81,2.34,0.91,3.24,0.31c0.39-0.24,0.71-0.62,0.87-0.99c0.08-0.19,0.13-0.37,0.13-0.55c0.01-0.15-0.02-0.33-0.09-0.51
			c-0.13-0.36-0.38-0.65-0.62-0.85c-0.24-0.21-0.51-0.34-0.75-0.44l-0.01,0.01c-0.02,0.03-0.12,0.06-0.15,0.06
			c0.52,0.13,1.15,0.5,1.47,1.24c0.08,0.19,0.11,0.37,0.09,0.53c-0.02,0.19-0.07,0.39-0.17,0.59c-0.19,0.39-0.58,0.78-1.01,0.99
			c-0.96,0.49-2.39,0.29-3.13-0.57c-0.8-0.86-1.06-2.38-0.6-3.61c0.36-1.06,1.32-1.93,2.48-2.36c1.16-0.45,2.54-0.48,3.81-0.04
			h-0.01C120.45,21.15,120.34,21.08,120.22,21.04z"/>
		<path class="st0" d="M117.61,24.42L117.61,24.42C117.61,24.42,117.6,24.42,117.61,24.42C117.61,24.43,117.61,24.42,117.61,24.42z"
			/>
	</g>
	<path class="st0" d="M190.53,15.33c-2.01-3.01-6.09-2.22-6.95,0.31c-0.76,2.21,0.64,4.22,2.39,4.16c1.22-0.04,1.73-1.21,1-1.79
		c-0.34-0.27-1.26,0-1.41-0.54c-0.36-1.37,1.79-2.17,3.08-0.61c1.99,2.43,1.45,9.8-6.11,8.78C189.62,27.37,193.78,20.2,190.53,15.33
		z"/>
	<path class="st0" d="M208.62,21.22c4.06,2.26,4.01,7.54,0.87,10.01c-2.56,2.01-5.73,1.7-7.83-0.61c-1.73-1.9-1.79-4.44-0.02-6.07
		c1.55-1.43,4.99-1.41,5.54,1.35c0.4,2.02-2.06,3.36-2.84,2.05c-0.78-1.32,2.1-0.9,1.31-2.03c-1.17-1.68-4.89,0.65-3.36,3.76
		c1.29,2.62,4.88,3.21,6.95,1.21c2.45-2.37,2.18-6.49-1.54-8.71c-8.75-5.22-19.61,14.34-33.92-0.18
		C187.57,40.93,198.08,15.34,208.62,21.22z"/>
	<path class="st0" d="M207.45,15.63c-1.52,1.17-5.8-1.35-10.09,4.77C201.94,10.4,209.66,13.92,207.45,15.63z"/>
	<g>
		<path class="st0" d="M163.13,21.93c-0.03,0-0.05-0.01-0.03-0.02C163.09,21.92,163.1,21.93,163.13,21.93z"/>
		<path class="st0" d="M163.22,21.86c0.15-0.03,0.3-0.07,0.45-0.09c-0.15,0.04-0.29,0.1-0.43,0.14h-0.01l-0.05,0.01l-0.03,0.01
			h-0.01c-0.03,0-0.04-0.01-0.03-0.02c0.01-0.01,0.02-0.02,0.03-0.02s0.02-0.01,0.03-0.01L163.22,21.86
			C163.2,21.86,163.21,21.86,163.22,21.86z"/>
		<path class="st0" d="M163.14,21.93l0.03-0.01l0.05-0.01C163.19,21.93,163.16,21.93,163.14,21.93z"/>
		<path class="st0" d="M163.16,21.88c-0.01,0.01-0.02,0.01-0.03,0.01c0.02-0.01,0.04-0.02,0.07-0.03L163.16,21.88z"/>
		<path class="st0" d="M163.67,21.77c1.48-0.42,3.1-0.4,4.61,0.13c1.49,0.53,2.9,1.67,3.53,3.32c0.4,1,0.5,2.11,0.33,3.21
			c-0.18,1.09-0.66,2.2-1.52,3.08c-1.77,1.79-4.75,2.02-6.83,0.48c-0.86-0.66-1.52-1.6-1.74-2.69c-0.11-0.54-0.1-1.12,0.04-1.65
			c0.14-0.57,0.45-1.04,0.8-1.39c0.69-0.68,1.5-0.87,2.11-0.83c0.62,0.05,1.01,0.36,1.15,0.63c-0.3,0.09-0.63,0.21-0.95,0.43
			c-0.31,0.22-0.64,0.53-0.85,0.93c-0.1,0.2-0.16,0.41-0.17,0.59c-0.02,0.21,0.01,0.45,0.09,0.68c0.14,0.46,0.47,0.95,0.9,1.29
			c1,0.82,2.8,0.91,3.89,0.05c1.15-0.84,1.75-2.62,1.46-4.2c-0.22-1.32-1.15-2.51-2.42-3.25C166.81,21.83,165.23,21.53,163.67,21.77
			z"/>
		<path class="st0" d="M166.13,26.05c-0.14-0.27-0.53-0.58-1.15-0.63c-0.6-0.04-1.41,0.15-2.11,0.83c-0.35,0.34-0.66,0.82-0.8,1.39
			c-0.14,0.53-0.15,1.11-0.04,1.65c0.22,1.1,0.89,2.04,1.74,2.69c2.09,1.54,5.07,1.31,6.83-0.48c0.86-0.87,1.34-1.98,1.52-3.08
			c0.17-1.1,0.07-2.21-0.33-3.21c-0.63-1.65-2.04-2.79-3.53-3.32c-1.5-0.53-3.12-0.56-4.61-0.13c-0.15,0.02-0.3,0.06-0.45,0.09
			c-0.01,0-0.01,0-0.01,0c1.54-0.55,3.28-0.62,4.88-0.09c1.06,0.34,2.07,0.96,2.84,1.87c0.79,0.91,1.24,2.11,1.33,3.33
			c0.06,0.78-0.02,1.66-0.34,2.57c-0.33,0.9-0.92,1.83-1.83,2.51c-1.84,1.37-4.59,1.39-6.45-0.1c-0.91-0.73-1.52-1.75-1.7-2.87
			c-0.08-0.56-0.04-1.12,0.13-1.65c0.18-0.54,0.49-0.98,0.83-1.29c0.69-0.64,1.52-0.86,2.17-0.8c0.67,0.07,1.12,0.43,1.24,0.78
			C166.26,26.08,166.15,26.03,166.13,26.05L166.13,26.05z"/>
		<path class="st0" d="M166.32,26.14C166.33,26.14,166.32,26.14,166.32,26.14L166.32,26.14l-0.02,0.01c-0.04,0-0.15-0.05-0.17-0.09
			l-0.01-0.01h0.01c0.04-0.01,0.14,0.04,0.17,0.07L166.32,26.14z"/>
		<path class="st0" d="M163.67,21.77c1.56-0.24,3.14,0.06,4.41,0.8c1.27,0.74,2.2,1.93,2.42,3.25c0.29,1.58-0.31,3.36-1.46,4.2
			c-1.1,0.85-2.9,0.77-3.89-0.05c-0.43-0.34-0.76-0.83-0.9-1.29c-0.07-0.23-0.1-0.46-0.09-0.68c0.01-0.18,0.06-0.39,0.17-0.59
			c0.21-0.41,0.54-0.72,0.85-0.93c0.32-0.22,0.65-0.33,0.95-0.43l0.01,0.01c0.02,0.04,0.13,0.09,0.17,0.09
			c-0.63,0.09-1.44,0.44-1.92,1.29c-0.11,0.22-0.18,0.43-0.17,0.62c0,0.23,0.03,0.47,0.12,0.72c0.18,0.49,0.59,1,1.07,1.31
			c1.08,0.7,2.81,0.66,3.8-0.27c1.06-0.92,1.57-2.69,1.19-4.22c-0.29-1.3-1.32-2.47-2.64-3.14c-1.33-0.68-2.95-0.9-4.52-0.54h0.01
			C163.37,21.87,163.52,21.81,163.67,21.77z"/>
		<path class="st0" d="M166.32,26.14l-0.01-0.02C166.33,26.13,166.33,26.14,166.32,26.14C166.32,26.14,166.33,26.14,166.32,26.14z"
			/>
	</g>
	<g>
		<path class="st0" d="M176.17,28.86c0-0.01,0-0.02,0.01-0.02C176.18,28.84,176.17,28.85,176.17,28.86z"/>
		<path class="st0" d="M176.21,28.84l0.06,0.09l-0.08-0.06l0,0l-0.01-0.01c0,0,0,0,0-0.01l0,0c0-0.01,0-0.02,0.01-0.02h0.01
			C176.19,28.83,176.2,28.83,176.21,28.84L176.21,28.84L176.21,28.84z"/>
		<path class="st0" d="M176.17,28.86C176.17,28.86,176.17,28.87,176.17,28.86l0.01,0.02C176.18,28.87,176.17,28.86,176.17,28.86z"/>
		<path class="st0" d="M176.2,28.84C176.2,28.83,176.19,28.83,176.2,28.84C176.2,28.83,176.21,28.84,176.2,28.84L176.2,28.84z"/>
		<path class="st0" d="M176.27,28.93c0.58,0.37,1.16,0.87,1.54,1.53c0.49,0.8,0.76,1.88,0.49,2.9c-0.11,0.43-0.33,0.85-0.66,1.1
			c-0.31,0.26-0.69,0.29-0.99,0.19c-0.19-0.28-0.28-0.56-0.31-0.86c-0.02-0.29,0.03-0.57,0.09-0.84c0.14-0.64,0.34-1.34,0.33-2.1
			C176.77,30.23,176.65,29.54,176.27,28.93z"/>
		<path class="st0" d="M176.65,34.66c0.31,0.1,0.68,0.07,0.99-0.19c0.33-0.26,0.55-0.68,0.66-1.1c0.27-1.02-0.01-2.09-0.49-2.9
			c-0.39-0.66-0.96-1.16-1.54-1.53l-0.06-0.09l0,0c0.31,0.2,0.63,0.41,0.91,0.69c0.37,0.35,0.69,0.79,0.93,1.28
			c0.31,0.61,0.57,1.67,0.3,2.6c-0.23,0.93-0.98,1.56-1.71,1.3C176.65,34.7,176.67,34.68,176.65,34.66L176.65,34.66z"/>
		<path class="st0" d="M176.63,34.7L176.63,34.7L176.63,34.7l-0.01-0.01c-0.01-0.02,0.01-0.04,0.03-0.03h0.01v0.01
			C176.67,34.68,176.65,34.7,176.63,34.7L176.63,34.7z"/>
		<path class="st0" d="M176.27,28.93c0.39,0.61,0.5,1.3,0.49,1.93c0.01,0.76-0.19,1.46-0.33,2.1c-0.06,0.27-0.11,0.54-0.09,0.84
			c0.03,0.29,0.12,0.58,0.31,0.86h-0.01c-0.02-0.01-0.03,0.02-0.03,0.03c-0.19-0.29-0.29-0.6-0.32-0.9c-0.02-0.32,0.04-0.61,0.1-0.9
			c0.15-0.63,0.32-1.32,0.32-2.07c0-0.63-0.13-1.33-0.54-1.94l0,0L176.27,28.93z"/>
		<path class="st0" d="M176.63,34.7L176.63,34.7L176.63,34.7L176.63,34.7z"/>
	</g>
	<g>
		<path class="st0" d="M144.73,26.35c0.01-0.01,0.01-0.02,0-0.03C144.74,26.33,144.74,26.34,144.73,26.35z"/>
		<path class="st0" d="M144.68,26.32l-0.16,0.08l0.17-0.03l0,0l0.02-0.01l0.01-0.01l0,0c0.01-0.01,0.01-0.02,0-0.03
			c0,0-0.01-0.01-0.02-0.01C144.69,26.31,144.69,26.31,144.68,26.32L144.68,26.32L144.68,26.32z"/>
		<path class="st0" d="M144.73,26.36L144.73,26.36l-0.03,0.02C144.71,26.37,144.72,26.36,144.73,26.36z"/>
		<path class="st0" d="M144.7,26.31L144.7,26.31c0,0-0.01,0-0.02,0H144.7z"/>
		<path class="st0" d="M144.52,26.4c-1.18,0.19-2.38,0.43-3.53,0.91c-1.42,0.58-2.85,1.48-3.87,2.77c-0.44,0.54-0.79,1.17-0.93,1.8
			c-0.14,0.61-0.01,1.12,0.25,1.47c0.44,0.01,0.88-0.15,1.32-0.47s0.83-0.76,1.19-1.19c0.88-1.04,1.73-2.16,2.73-3.13
			C142.51,27.74,143.43,26.97,144.52,26.4z"/>
		<path class="st0" d="M136.45,33.35c-0.26-0.35-0.39-0.86-0.25-1.47c0.14-0.63,0.49-1.26,0.93-1.8c1.02-1.29,2.45-2.19,3.87-2.77
			c1.15-0.48,2.35-0.72,3.53-0.91l0.16-0.08h0.01c-0.62,0.11-1.26,0.19-1.88,0.35c-0.82,0.2-1.64,0.48-2.43,0.86
			c-1,0.47-2.42,1.37-3.33,2.55c-0.93,1.16-1.28,2.52-0.65,3.33C136.39,33.39,136.41,33.35,136.45,33.35L136.45,33.35z"/>
		<path class="st0" d="M136.4,33.43L136.4,33.43l0.01,0.01h0.01c0.02,0,0.05-0.05,0.03-0.07l-0.01-0.01h-0.01
			C136.41,33.35,136.39,33.39,136.4,33.43C136.4,33.42,136.4,33.43,136.4,33.43z"/>
		<path class="st0" d="M144.52,26.4c-1.1,0.57-2.01,1.34-2.83,2.16c-1,0.97-1.85,2.1-2.73,3.13c-0.37,0.43-0.76,0.87-1.19,1.19
			c-0.44,0.31-0.87,0.48-1.32,0.47l0.01,0.01c0.02,0.02-0.01,0.07-0.03,0.07c0.46,0.01,0.93-0.17,1.38-0.51
			c0.47-0.36,0.89-0.84,1.29-1.31c0.86-1.04,1.71-2.12,2.7-3.08c0.84-0.82,1.78-1.6,2.9-2.16l0,0L144.52,26.4z"/>
		<path class="st0" d="M136.4,33.43C136.4,33.43,136.4,33.42,136.4,33.43C136.4,33.42,136.4,33.43,136.4,33.43L136.4,33.43z"/>
	</g>
	<g>
		<path class="st0" d="M179.45,31.33c-0.01,0-0.02,0.01-0.01,0.02C179.43,31.34,179.44,31.34,179.45,31.33z"/>
		<path class="st0" d="M179.47,31.38l0.15,0.02l-0.13-0.07l0,0h-0.02h-0.01l0,0c-0.01,0-0.02,0.01-0.01,0.02c0,0,0,0.01,0.01,0.01
			l0.01,0.01L179.47,31.38L179.47,31.38z"/>
		<path class="st0" d="M179.45,31.33L179.45,31.33h0.03C179.47,31.33,179.46,31.33,179.45,31.33z"/>
		<path class="st0" d="M179.45,31.37L179.45,31.37c0,0,0,0,0.01,0H179.45z"/>
		<path class="st0" d="M179.62,31.4c0.9,0.45,1.68,1.05,2.39,1.7c0.88,0.8,1.66,1.71,2.45,2.6c0.34,0.37,0.69,0.75,1.07,1.04
			c0.38,0.28,0.75,0.42,1.11,0.42c0.19-0.29,0.26-0.7,0.12-1.2c-0.13-0.5-0.45-1.02-0.81-1.45c-0.88-1.07-2.1-1.83-3.29-2.31
			C181.67,31.78,180.64,31.57,179.62,31.4z"/>
		<path class="st0" d="M186.64,37.15c-0.36,0.01-0.74-0.14-1.11-0.42c-0.38-0.29-0.74-0.67-1.07-1.04c-0.78-0.88-1.56-1.8-2.45-2.6
			c-0.71-0.65-1.48-1.25-2.39-1.7l-0.15-0.02l0,0c0.48,0.23,0.93,0.5,1.34,0.81c0.55,0.4,1.06,0.83,1.54,1.29
			c0.62,0.59,1.39,1.49,2.09,2.28c0.72,0.78,1.39,1.47,2.23,1.46C186.64,37.21,186.62,37.18,186.64,37.15L186.64,37.15z"/>
		<path class="st0" d="M186.67,37.22L186.67,37.22L186.67,37.22L186.67,37.22c0.02-0.03,0-0.07-0.03-0.06h-0.01v0.01
			c-0.01,0.02,0.01,0.05,0.03,0.06C186.66,37.22,186.67,37.22,186.67,37.22z"/>
		<path class="st0" d="M179.62,31.4c1.02,0.16,2.05,0.38,3.04,0.79c1.19,0.48,2.41,1.24,3.29,2.31c0.36,0.44,0.68,0.95,0.81,1.45
			c0.14,0.49,0.06,0.91-0.12,1.2h0.01c0.02,0,0.04,0.04,0.04,0.05c0.2-0.3,0.27-0.75,0.12-1.27c-0.16-0.55-0.5-1.11-0.92-1.58
			c-0.9-1.04-2.1-1.77-3.29-2.24c-1.02-0.41-2.07-0.61-3.11-0.78l0,0L179.62,31.4z"/>
		<path class="st0" d="M186.67,37.22L186.67,37.22C186.67,37.22,186.67,37.22,186.67,37.22L186.67,37.22z"/>
	</g>
	<g>
		<path class="st0" d="M183.61,31.51c-0.02,0-0.02,0.01-0.02,0.02C183.59,31.52,183.6,31.51,183.61,31.51z"/>
		<path class="st0" d="M183.65,31.55l0.21,0.03l-0.2-0.07l0,0h-0.02h-0.02h-0.01c-0.01,0-0.02,0.01-0.02,0.02
			c0,0.01,0.01,0.01,0.01,0.01l0.02,0.01L183.65,31.55C183.64,31.55,183.65,31.55,183.65,31.55z"/>
		<path class="st0" d="M183.62,31.51h0.02h0.02C183.64,31.51,183.63,31.51,183.62,31.51z"/>
		<path class="st0" d="M183.62,31.55l-0.02-0.01C183.61,31.55,183.62,31.55,183.62,31.55L183.62,31.55z"/>
		<path class="st0" d="M183.86,31.59c1.33,0.52,2.71,0.92,4.17,1.05c1.8,0.17,3.77-0.01,5.55-0.78c0.75-0.31,1.48-0.75,2-1.27
			c0.51-0.5,0.72-1,0.72-1.38c-0.38-0.11-0.86-0.05-1.47,0.12c-0.61,0.19-1.27,0.47-1.92,0.73c-1.55,0.62-3.18,1.19-4.83,1.46
			C186.73,31.75,185.31,31.82,183.86,31.59z"/>
		<path class="st0" d="M196.31,29.21c0,0.38-0.21,0.89-0.72,1.38c-0.52,0.52-1.25,0.96-2,1.27c-1.78,0.76-3.76,0.95-5.55,0.78
			c-1.46-0.13-2.84-0.53-4.17-1.05l-0.21-0.03h-0.01c0.7,0.27,1.41,0.55,2.15,0.73c0.97,0.25,1.97,0.41,3,0.45
			c1.3,0.06,3.26-0.13,4.86-0.84c1.61-0.68,2.77-1.83,2.74-2.73C196.38,29.19,196.34,29.22,196.31,29.21L196.31,29.21z"/>
		<path class="st0" d="M196.39,29.15L196.39,29.15L196.39,29.15L196.39,29.15c-0.03-0.01-0.08,0.02-0.08,0.05v0.01h0.01
			c0.02,0.01,0.07-0.03,0.08-0.05L196.39,29.15z"/>
		<path class="st0" d="M183.86,31.59c1.45,0.24,2.87,0.16,4.24-0.07c1.65-0.27,3.28-0.83,4.83-1.46c0.64-0.26,1.31-0.54,1.92-0.73
			c0.61-0.18,1.09-0.24,1.47-0.12V29.2c0-0.02,0.05-0.06,0.07-0.06c-0.4-0.12-0.91-0.05-1.55,0.14c-0.67,0.21-1.38,0.53-2.09,0.8
			c-1.53,0.63-3.14,1.14-4.77,1.41c-1.39,0.23-2.83,0.28-4.31,0.02l0,0L183.86,31.59z"/>
		<path class="st0" d="M196.39,29.15L196.39,29.15C196.4,29.16,196.4,29.15,196.39,29.15L196.39,29.15z"/>
	</g>
	<g>
		<path class="st0" d="M159.75,20.54c0.03-0.02,0.04-0.01,0.04,0C159.79,20.53,159.78,20.53,159.75,20.54z"/>
		<path class="st0" d="M159.7,20.65l-0.38,0.3l0.34-0.34l0.01-0.01l0.04-0.03l0.03-0.02c0,0,0.01,0,0.01-0.01
			c0.03-0.01,0.04-0.01,0.04,0s-0.01,0.02-0.02,0.04c-0.01,0.01-0.02,0.02-0.03,0.03L159.7,20.65
			C159.71,20.64,159.71,20.64,159.7,20.65z"/>
		<path class="st0" d="M159.74,20.54l-0.03,0.02l-0.04,0.03C159.69,20.57,159.72,20.56,159.74,20.54z"/>
		<path class="st0" d="M159.74,20.61c0.01-0.01,0.02-0.02,0.03-0.03c-0.01,0.02-0.03,0.04-0.06,0.06L159.74,20.61z"/>
		<path class="st0" d="M159.32,20.95c-2.27,2.38-3.19,5.66-2.88,8.67c0.18,1.88,0.9,3.67,2.05,5.16c1.15,1.5,2.68,2.71,4.38,3.5
			c1.44,0.68,3.06,1.07,4.48,1.17c1.38,0.11,2.37-0.02,3.04,0.03c-0.24,0.61-1.18,1.48-2.86,1.82c-1.68,0.36-3.74,0.05-5.5-0.72
			c-2.14-0.92-3.96-2.5-5.19-4.41c-1.25-1.9-1.87-4.16-1.82-6.29C155.1,26.35,156.74,23.08,159.32,20.95z"/>
		<path class="st0" d="M170.39,39.49c-0.67-0.05-1.67,0.07-3.04-0.03c-1.42-0.1-3.04-0.48-4.48-1.17c-1.7-0.8-3.23-2.01-4.38-3.5
			c-1.15-1.5-1.87-3.29-2.05-5.16c-0.31-3.01,0.62-6.3,2.88-8.67l0.38-0.3c0.01,0,0.01-0.01,0.01-0.01
			c-1.25,1.19-2.14,2.67-2.67,4.23c-0.7,2.05-0.8,4.27-0.28,6.28c0.31,1.29,1.03,2.76,2.13,4.05s2.55,2.39,4.09,3.08
			c1.53,0.7,3.11,1.04,4.42,1.12c1.32,0.1,2.37-0.06,3.16-0.04C170.51,39.38,170.4,39.45,170.39,39.49L170.39,39.49z"/>
		<path class="st0" d="M170.59,39.36C170.6,39.36,170.6,39.36,170.59,39.36C170.6,39.36,170.6,39.36,170.59,39.36v0.02
			c-0.02,0.04-0.14,0.12-0.18,0.11h-0.02l0.01-0.01c0.02-0.04,0.12-0.11,0.17-0.12L170.59,39.36z"/>
		<path class="st0" d="M159.32,20.95c-2.57,2.13-4.22,5.4-4.3,8.95c-0.05,2.12,0.57,4.38,1.82,6.29c1.24,1.91,3.06,3.49,5.19,4.41
			c1.76,0.77,3.82,1.07,5.5,0.72c1.68-0.33,2.62-1.2,2.86-1.82h0.02c0.04,0,0.16-0.08,0.18-0.11c-0.21,0.65-1.22,1.64-3.02,1.98
			c-1.87,0.37-4.14,0.01-6.02-0.94c-2.08-1.02-3.82-2.64-4.98-4.57c-1.18-1.92-1.71-4.19-1.6-6.29c0.18-3.6,1.96-6.9,4.69-8.97
			l-0.01,0.01L159.32,20.95z"/>
		<path class="st0" d="M170.59,39.36h-0.02C170.59,39.35,170.6,39.35,170.59,39.36C170.6,39.36,170.6,39.36,170.59,39.36z"/>
	</g>
	<g>
		<path class="st0" d="M155.71,38.02c-0.03-0.01-0.03-0.02-0.02-0.03C155.68,38,155.69,38.02,155.71,38.02z"/>
		<path class="st0" d="M155.79,37.98c0.12,0.01,0.24,0.02,0.36,0.04c-0.12,0-0.24,0.01-0.36,0.02h-0.01h-0.04h-0.03h-0.01
			c-0.02-0.01-0.03-0.02-0.02-0.03C155.69,38,155.7,38,155.71,38h0.03h0.03C155.78,37.97,155.78,37.98,155.79,37.98z"/>
		<path class="st0" d="M155.72,38.03h0.03h0.04C155.76,38.03,155.74,38.03,155.72,38.03z"/>
		<path class="st0" d="M155.75,37.98h-0.03c0.02-0.01,0.04-0.01,0.06-0.01L155.75,37.98z"/>
		<path class="st0" d="M156.15,38.01c1.21-0.01,2.43,0.41,3.42,1.2s1.69,1.99,1.93,3.3c0.32,1.6-0.05,3.51-1.31,4.9
			c-0.62,0.69-1.47,1.27-2.5,1.48c-1.04,0.21-2.09,0.02-3-0.5c-0.77-0.44-1.44-1.2-1.69-2.11c-0.28-0.96-0.02-1.87,0.38-2.5
			c0.41-0.62,0.96-0.98,1.44-1.09c0.48-0.12,0.86,0,1.07,0.18c-0.34,0.42-0.68,0.95-0.81,1.67c-0.12,0.77,0.11,1.27,0.76,1.7
			c0.82,0.49,1.86,0.46,2.75-0.27c0.9-0.71,1.48-1.91,1.51-3.18c0.04-1.05-0.26-2.16-0.96-3.04
			C158.44,38.87,157.38,38.19,156.15,38.01z"/>
		<path class="st0" d="M155.87,42.88c-0.2-0.18-0.58-0.3-1.07-0.18c-0.48,0.11-1.03,0.46-1.44,1.09c-0.4,0.64-0.66,1.54-0.38,2.5
			c0.26,0.92,0.93,1.68,1.69,2.11c0.91,0.52,1.96,0.71,3,0.5c1.03-0.22,1.88-0.79,2.5-1.48c1.25-1.4,1.62-3.3,1.31-4.9
			c-0.24-1.31-0.94-2.5-1.93-3.3c-0.98-0.79-2.21-1.22-3.42-1.2c-0.12-0.02-0.24-0.03-0.36-0.04c-0.01,0-0.01,0-0.01,0
			c1.28-0.11,2.62,0.27,3.69,1.08c1.44,1.07,2.28,2.94,2.18,4.85c-0.04,1.21-0.53,2.79-1.84,3.96c-0.65,0.58-1.5,1.04-2.5,1.15
			c-0.98,0.1-1.95-0.12-2.76-0.63c-0.81-0.5-1.47-1.32-1.67-2.28c-0.2-0.97,0.07-1.83,0.47-2.42c0.41-0.6,0.97-0.98,1.49-1.09
			c0.52-0.12,0.96,0.02,1.18,0.24C155.99,42.84,155.9,42.84,155.87,42.88L155.87,42.88z"/>
		<path class="st0" d="M156.04,42.86L156.04,42.86v0.01l-0.01,0.01c-0.03,0.02-0.12,0.03-0.15,0.01l-0.01-0.01l0.01-0.01
			c0.02-0.03,0.11-0.03,0.15-0.02L156.04,42.86z"/>
		<path class="st0" d="M156.15,38.01c1.23,0.18,2.3,0.86,2.99,1.74c0.7,0.89,0.99,1.99,0.96,3.04c-0.03,1.27-0.62,2.47-1.51,3.18
			c-0.89,0.73-1.93,0.76-2.75,0.27c-0.65-0.43-0.88-0.93-0.76-1.7c0.13-0.72,0.47-1.25,0.81-1.67l0.01,0.01
			c0.03,0.02,0.12,0.01,0.15-0.01c-0.39,0.43-0.77,0.94-0.91,1.68c-0.07,0.39-0.02,0.77,0.11,1c0.15,0.28,0.42,0.55,0.79,0.73
			c0.4,0.2,0.9,0.28,1.32,0.21c0.46-0.08,0.94-0.32,1.35-0.69c0.84-0.75,1.35-1.94,1.34-3.2c0-1.06-0.35-2.16-1.11-3.02
			c-0.75-0.86-1.88-1.48-3.14-1.56h0.01C155.91,38.02,156.03,38.01,156.15,38.01z"/>
		<path class="st0" d="M156.04,42.86l-0.02-0.01C156.04,42.85,156.04,42.86,156.04,42.86L156.04,42.86z"/>
	</g>
	<g>
		<path class="st0" d="M136.32,26.19c0.01,0,0.02,0.01,0.02,0.02C136.34,26.2,136.33,26.19,136.32,26.19z"/>
		<path class="st0" d="M136.3,26.24l-0.18,0.03l0.16-0.09l0,0h0.02h0.01l0,0c0.01,0,0.02,0.01,0.02,0.02c0,0.01,0,0.01-0.01,0.02
			l-0.01,0.01L136.3,26.24L136.3,26.24z"/>
		<path class="st0" d="M136.32,26.19L136.32,26.19h-0.03C136.3,26.18,136.31,26.18,136.32,26.19z"/>
		<path class="st0" d="M136.32,26.24L136.32,26.24c0,0,0,0-0.02,0.01L136.32,26.24z"/>
		<path class="st0" d="M136.12,26.28c-1.07,0.58-1.97,1.35-2.79,2.16c-1.02,1.01-1.91,2.14-2.81,3.23c-0.39,0.46-0.8,0.92-1.26,1.28
			c-0.45,0.35-0.91,0.52-1.36,0.52c-0.26-0.35-0.37-0.85-0.24-1.46c0.13-0.62,0.49-1.25,0.91-1.8c1.02-1.33,2.47-2.29,3.9-2.9
			C133.66,26.78,134.9,26.5,136.12,26.28z"/>
		<path class="st0" d="M127.9,33.47c0.45,0,0.91-0.18,1.36-0.52c0.46-0.36,0.87-0.82,1.26-1.28c0.9-1.09,1.79-2.22,2.81-3.23
			c0.82-0.81,1.72-1.58,2.79-2.16l0.18-0.03h0.01c-0.57,0.3-1.09,0.65-1.58,1.04c-0.64,0.5-1.23,1.05-1.78,1.63
			c-0.71,0.73-1.59,1.86-2.4,2.83c-0.83,0.96-1.61,1.8-2.67,1.81C127.9,33.54,127.93,33.5,127.9,33.47L127.9,33.47z"/>
		<path class="st0" d="M127.87,33.55L127.87,33.55l-0.01-0.01v-0.01c-0.01-0.02,0.01-0.07,0.04-0.07h0.01l0.01,0.01
			c0.02,0.02-0.01,0.06-0.03,0.07C127.88,33.55,127.87,33.55,127.87,33.55z"/>
		<path class="st0" d="M136.12,26.28c-1.22,0.22-2.46,0.5-3.66,1.03c-1.43,0.62-2.88,1.57-3.9,2.9c-0.42,0.54-0.78,1.18-0.91,1.8
			c-0.13,0.61-0.02,1.11,0.24,1.46h-0.01c-0.03,0-0.05,0.05-0.04,0.07c-0.27-0.36-0.4-0.9-0.24-1.55c0.16-0.68,0.55-1.37,1.03-1.96
			c1.05-1.3,2.48-2.22,3.9-2.82c1.22-0.53,2.49-0.79,3.74-1.02l0,0L136.12,26.28z"/>
		<path class="st0" d="M127.87,33.55L127.87,33.55C127.87,33.55,127.87,33.56,127.87,33.55L127.87,33.55z"/>
	</g>
	<g>
		<path class="st0" d="M164.16,43.15c0-0.01,0-0.02,0.01-0.03C164.16,43.13,164.16,43.14,164.16,43.15z"/>
		<path class="st0" d="M164.22,43.14l0.1,0.13l-0.14-0.09l0,0l-0.01-0.01c0,0,0-0.01-0.01-0.01l0,0c0-0.01,0-0.02,0.01-0.03
			c0.01,0,0.01,0,0.02,0c0.01,0,0.01,0,0.01,0.01L164.22,43.14L164.22,43.14z"/>
		<path class="st0" d="M164.16,43.16L164.16,43.16l0.02,0.02C164.17,43.17,164.16,43.17,164.16,43.16z"/>
		<path class="st0" d="M164.2,43.13c0,0-0.01,0-0.01-0.01c0.01,0,0.02,0.01,0.02,0.01H164.2z"/>
		<path class="st0" d="M164.32,43.28c0.93,0.63,1.97,0.95,2.99,1.13c1.27,0.22,2.54,0.2,3.77,0.15c0.53-0.01,1.06-0.03,1.58,0.05
			c0.5,0.09,0.93,0.27,1.25,0.58c-0.03,0.42-0.26,0.87-0.76,1.21c-0.5,0.35-1.19,0.53-1.85,0.58c-1.62,0.13-3.22-0.42-4.45-1.23
			C165.81,45.09,164.99,44.2,164.32,43.28z"/>
		<path class="st0" d="M173.91,45.19c-0.32-0.31-0.75-0.5-1.25-0.58c-0.52-0.08-1.05-0.07-1.58-0.05c-1.23,0.05-2.5,0.07-3.77-0.15
			c-1.02-0.17-2.06-0.5-2.99-1.13l-0.1-0.13l0,0c0.49,0.34,1,0.6,1.53,0.79c0.7,0.25,1.4,0.41,2.1,0.51
			c0.9,0.13,2.16,0.11,3.26,0.06c1.1-0.01,2.09-0.05,2.86,0.66C173.95,45.14,173.91,45.16,173.91,45.19L173.91,45.19z"/>
		<path class="st0" d="M173.98,45.16L173.98,45.16v0.01v0.01c-0.01,0.02-0.05,0.04-0.07,0.02l-0.01-0.01v-0.01
			C173.91,45.16,173.95,45.14,173.98,45.16C173.98,45.15,173.98,45.16,173.98,45.16z"/>
		<path class="st0" d="M164.32,43.28c0.68,0.92,1.49,1.81,2.53,2.48c1.23,0.81,2.83,1.37,4.45,1.23c0.66-0.05,1.35-0.23,1.85-0.58
			c0.5-0.34,0.73-0.79,0.76-1.21l0.01,0.01c0.02,0.02,0.06,0,0.07-0.02c-0.02,0.43-0.27,0.93-0.81,1.28
			c-0.56,0.37-1.32,0.57-2.05,0.59c-1.61,0.08-3.18-0.49-4.4-1.31c-1.06-0.69-1.87-1.62-2.55-2.56l0,0L164.32,43.28z"/>
		<path class="st0" d="M173.98,45.16C173.98,45.16,173.98,45.15,173.98,45.16C173.98,45.15,173.99,45.16,173.98,45.16L173.98,45.16z
			"/>
	</g>
	<g id="XMLID_7_">
		<path id="XMLID_9_" class="st0" d="M307.78,18.03c0,0,0.1,0.07,0.29,0.19c0.19,0.13,0.47,0.32,0.87,0.53
			c0.78,0.43,1.99,1,3.65,1.34c1.64,0.36,3.71,0.51,6.06,0.3c2.36-0.2,4.94-0.86,7.68-1.69c2.74-0.84,5.62-1.89,8.76-2.59
			c3.1-0.74,6.47-1.17,9.98-1.3c3.51-0.17,7.16-0.07,10.89,0.05c3.73,0.09,7.54,0.19,11.35,0.16c3.8-0.03,7.59-0.05,11.33-0.07
			c3.73-0.04,7.41-0.07,10.97-0.1c7.11-0.08,13.76-0.19,19.45-0.3c5.69-0.14,10.43-0.25,13.76-0.33c3.32-0.1,5.22-0.16,5.22-0.16
			s-1.89-0.06-5.22-0.17c-3.32-0.08-8.06-0.19-13.76-0.32c-5.69-0.11-12.33-0.22-19.45-0.3c-3.56-0.04-7.24-0.07-10.97-0.11
			c-3.74-0.02-7.53-0.05-11.33-0.07c-7.55,0.03-15.12-0.58-22.34-0.19c-3.6,0.21-7.08,0.73-10.3,1.58c-3.2,0.84-6.1,2.02-8.76,2.96
			c-2.65,0.97-5.13,1.7-7.37,2.07s-4.25,0.37-5.87,0.13c-1.62-0.23-2.86-0.66-3.67-1.01c-0.41-0.17-0.71-0.33-0.91-0.44
			C307.88,18.09,307.78,18.03,307.78,18.03z"/>
		<path id="XMLID_8_" class="st0" d="M318.78,15.44c3.29-0.88,3.36-2.75,3.36-2.75s-0.99-1.59-4.28-0.71s-5.49,3.32-5.49,3.32
			S315.5,16.32,318.78,15.44z"/>
	</g>
	<g id="XMLID_4_">
		<path id="XMLID_6_" class="st0" d="M120.26,18.03c0,0-0.1,0.07-0.29,0.19c-0.19,0.13-0.47,0.32-0.87,0.53
			c-0.78,0.43-1.99,1-3.65,1.34c-1.64,0.36-3.71,0.51-6.06,0.3c-2.36-0.2-4.94-0.86-7.68-1.69c-2.74-0.84-5.62-1.89-8.76-2.59
			c-3.1-0.74-6.47-1.17-9.98-1.3c-3.51-0.17-7.16-0.07-10.89,0.05c-3.73,0.09-7.54,0.19-11.35,0.16c-3.8-0.03-7.59-0.05-11.33-0.07
			c-3.73-0.04-7.41-0.07-10.97-0.1c-7.11-0.08-13.76-0.19-19.45-0.3c-5.69-0.14-10.43-0.25-13.76-0.33C1.9,14.12,0,14.06,0,14.06
			S1.89,14,5.22,13.89c3.32-0.08,8.06-0.19,13.76-0.32c5.69-0.11,12.33-0.22,19.45-0.3c3.56-0.04,7.24-0.07,10.97-0.11
			c3.74-0.02,7.53-0.05,11.33-0.07c7.55,0.03,15.12-0.58,22.34-0.19c3.6,0.21,7.08,0.73,10.3,1.58c3.2,0.84,6.1,2.02,8.76,2.96
			c2.65,0.97,5.13,1.7,7.37,2.07c2.24,0.37,4.25,0.37,5.87,0.13c1.62-0.23,2.86-0.66,3.67-1.01c0.41-0.17,0.71-0.33,0.91-0.44
			C120.16,18.09,120.26,18.03,120.26,18.03z"/>
		<path id="XMLID_5_" class="st0" d="M109.26,15.44c-3.29-0.88-3.36-2.75-3.36-2.75s0.99-1.59,4.28-0.71s5.49,3.32,5.49,3.32
			S112.54,16.32,109.26,15.44z"/>
	</g>
</g>
</svg>
