<?xml version="1.0" encoding="utf-8"?>
<!-- Generator: Adobe Illustrator 27.0.0, SVG Export Plug-In . SVG Version: 6.00 Build 0)  -->
<svg version="1.1" id="图层_1" xmlns="http://www.w3.org/2000/svg" xmlns:xlink="http://www.w3.org/1999/xlink" x="0px" y="0px"
	 viewBox="0 0 427.2 64.4" style="enable-background:new 0 0 427.2 64.4;" xml:space="preserve">
<style type="text/css">
	.st0{fill:#FFFFFF;}
</style>
<g>
	<path class="st0" d="M283.2,12c1.4-4.4-4-6.4-5.6-2.7c-0.5,1.3,1.8,0.7,2.6,2.2c1,1.8-1.1,6.3-7,7.3
		C276.7,18.9,281.9,16.2,283.2,12z"/>
	<g>
		<path class="st0" d="M259.5,33.1c1.2,0.8,1.5,1.9,1.1,2.9c-0.5,0.9-1.4,1.5-2.9,1.2c0.5,1.3,0.1,2.4-0.8,3c-0.9,0.5-2.1,0.4-3-0.7
			c-0.4,1.4-1.4,2-2.4,2c-1-0.1-1.9-0.9-2-2.3c-1.1,0.9-2.3,0.8-3.1,0.2c-0.7-0.7-1-1.8-0.3-3.1c-1.4,0.1-2.3-0.7-2.6-1.7
			c-0.2-1,0.3-2.1,1.6-2.6c-1.2-0.8-1.5-1.9-1.1-2.9c0.4-0.9,1.4-1.5,2.9-1.2c-0.5-1.4-0.1-2.4,0.8-3c0.9-0.5,2.1-0.4,3,0.7
			c0.4-1.4,1.4-2,2.4-2c1,0.1,1.9,0.9,2,2.3c1.1-0.9,2.3-0.8,3.1-0.2c0.7,0.7,1,1.8,0.3,3.1c1.4-0.1,2.3,0.7,2.6,1.7
			C261.2,31.5,260.8,32.5,259.5,33.1z M259.8,30.8c-0.1-0.5-0.6-1.3-2-1l0,0c-0.6,0.1-1.2,0.4-1.8,0.6c0.5-0.4,1-0.9,1.4-1.4l0,0
			c0.9-1.1,0.5-1.9,0-2.3c-0.4-0.4-1.3-0.7-2.2,0.4l0,0c-0.4,0.5-0.8,1-1.1,1.6c0.2-0.7,0.3-1.3,0.3-1.9l0,0
			c0.1-1.4-0.8-1.8-1.3-1.9s-1.4,0.2-1.6,1.6l0,0c-0.1,0.6-0.1,1.3,0,1.9c-0.2-0.6-0.5-1.2-0.9-1.7l0,0c-0.8-1.2-1.7-1-2.1-0.7
			c-0.5,0.3-1,1-0.4,2.2l0,0c0.3,0.5,0.7,1,1.1,1.6c-0.6-0.4-1.1-0.7-1.7-0.9l0,0c-1.3-0.5-1.9,0.2-2.2,0.7c-0.2,0.5-0.2,1.4,1,2
			l0,0c0.6,0.2,1.2,0.4,1.9,0.6c-0.7,0-1.3,0.1-1.9,0.3l0,0c-1.4,0.4-1.5,1.3-1.4,1.8c0.1,0.5,0.6,1.3,2,1l0,0
			c0.6-0.1,1.2-0.3,1.8-0.6c-0.5,0.4-1,0.9-1.4,1.3l0,0c-0.9,1.1-0.4,1.9,0,2.3c0.4,0.4,1.3,0.7,2.2-0.4l0,0c0.4-0.5,0.8-1,1.1-1.6
			c-0.2,0.7-0.3,1.3-0.3,1.9l0,0c-0.1,1.4,0.8,1.8,1.3,1.8s1.4-0.2,1.6-1.6l0,0c0.1-0.6,0.1-1.3,0-1.9c0.2,0.6,0.5,1.2,0.9,1.7l0,0
			c0.8,1.2,1.7,1,2.1,0.7c0.5-0.3,1-1,0.4-2.2l0,0c-0.3-0.5-0.7-1-1.1-1.6c0.6,0.4,1.1,0.7,1.7,0.9l0,0c1.3,0.5,2-0.2,2.2-0.7
			c0.2-0.5,0.2-1.4-1-2l0,0c-0.5-0.2-1.2-0.4-1.9-0.6c0.7,0,1.3-0.1,1.9-0.3l0,0C259.8,32.2,259.9,31.3,259.8,30.8z"/>
		<path class="st0" d="M253.4,32.6c0.1-0.6-0.4-1.1-1-1.2c-0.6,0-1.1,0.4-1.2,1c-0.1,0.6,0.4,1.2,1,1.2
			C252.9,33.7,253.4,33.2,253.4,32.6z"/>
	</g>
	<g>
		<path class="st0" d="M220.7,56.1c1.2,0.8,1.5,1.9,1.1,2.9c-0.4,0.9-1.4,1.5-2.9,1.2c0.5,1.3,0.1,2.4-0.8,3c-0.9,0.5-2.1,0.4-3-0.7
			c-0.4,1.4-1.4,2-2.4,2c-1-0.1-1.9-0.9-2-2.3c-1.1,0.9-2.3,0.8-3.1,0.2c-0.7-0.7-1-1.8-0.3-3.1c-1.4,0.1-2.3-0.7-2.6-1.7
			c-0.2-1,0.3-2.1,1.6-2.7c-1.2-0.8-1.5-1.9-1.1-2.9c0.4-0.9,1.4-1.5,2.9-1.2c-0.5-1.3-0.1-2.4,0.8-3c0.9-0.5,2.1-0.4,3,0.7
			c0.4-1.4,1.4-2,2.4-2c1,0.2,1.9,0.9,2,2.3c1.1-0.9,2.3-0.8,3.1-0.2c0.7,0.7,1,1.8,0.3,3.1c1.4-0.1,2.3,0.7,2.6,1.7
			C222.5,54.4,222,55.5,220.7,56.1z M221,53.7c-0.1-0.5-0.6-1.3-2-1l0,0c-0.6,0.1-1.2,0.3-1.8,0.6c0.5-0.4,1-0.9,1.4-1.3l0,0
			c0.9-1.1,0.4-1.9,0-2.3c-0.4-0.4-1.3-0.7-2.2,0.4l0,0c-0.4,0.5-0.8,1-1.1,1.6c0.2-0.7,0.3-1.3,0.3-1.9l0,0
			c0.1-1.4-0.8-1.8-1.3-1.8s-1.4,0.2-1.6,1.6l0,0c-0.1,0.6-0.1,1.3,0,1.9c-0.2-0.6-0.5-1.2-0.9-1.7l0,0c-0.8-1.2-1.7-1-2.1-0.7
			c-0.5,0.3-1,1-0.4,2.2l0,0c0.3,0.5,0.7,1,1.1,1.6c-0.6-0.4-1.1-0.7-1.7-0.9l0,0c-1.3-0.5-1.9,0.2-2.2,0.7c-0.2,0.5-0.2,1.4,1,2
			l0,0c0.6,0.2,1.2,0.4,1.9,0.6c-0.7,0-1.3,0.1-1.9,0.3l0,0c-1.4,0.4-1.5,1.3-1.4,1.8c0.1,0.5,0.6,1.3,2,1l0,0
			c0.6-0.1,1.2-0.3,1.8-0.6c-0.5,0.4-1,0.9-1.4,1.3l0,0c-0.9,1.1-0.4,1.9,0,2.3c0.4,0.4,1.3,0.7,2.2-0.4l0,0c0.4-0.5,0.8-1,1.1-1.6
			c-0.2,0.7-0.3,1.3-0.3,1.9l0,0c-0.1,1.4,0.8,1.8,1.3,1.8s1.4-0.2,1.6-1.6l0,0c0.1-0.6,0.1-1.3,0-1.9c0.2,0.6,0.5,1.2,0.9,1.7l0,0
			c0.8,1.2,1.7,1,2.1,0.7s1-1,0.4-2.2l0,0c-0.3-0.5-0.7-1-1.1-1.6c0.6,0.4,1.1,0.7,1.7,0.9l0,0c1.3,0.5,1.9-0.2,2.2-0.7
			c0.2-0.5,0.2-1.4-1-2l0,0c-0.6-0.2-1.2-0.4-1.9-0.6c0.7,0,1.3-0.1,1.9-0.3l0,0C221,55.2,221.1,54.3,221,53.7z"/>
		<path class="st0" d="M214.7,55.6c0.1-0.6-0.4-1.2-1-1.2c-0.6,0-1.1,0.4-1.2,1c-0.1,0.6,0.4,1.2,1,1.2
			C214.1,56.6,214.6,56.2,214.7,55.6z"/>
	</g>
	<g>
		<path class="st0" d="M301.9,26.6C301.9,26.7,301.9,26.8,301.9,26.6C301.9,26.8,301.9,26.7,301.9,26.6z"/>
		<path class="st0" d="M301.8,26.3c0-0.3-0.2-0.5-0.3-0.7c-0.1-0.2-0.3-0.5-0.5-0.7c0.1,0.2,0.3,0.4,0.4,0.7
			C301.6,25.8,301.7,26,301.8,26.3C301.8,26.3,301.8,26.3,301.8,26.3c0,0.1,0,0.2,0,0.2l0,0.1c0,0,0,0,0,0c0,0.1,0,0.1,0,0.1
			c0,0,0-0.1,0-0.1c0,0,0-0.1,0-0.1C301.9,26.4,301.8,26.4,301.8,26.3C301.8,26.3,301.8,26.3,301.8,26.3z"/>
		<path class="st0" d="M301.9,26.6l0-0.1c0-0.1,0-0.1,0-0.2C301.8,26.4,301.9,26.5,301.9,26.6z"/>
		<path class="st0" d="M301.9,26.5c0,0,0,0.1,0,0.1c0-0.1,0-0.2-0.1-0.3C301.9,26.4,301.9,26.4,301.9,26.5z"/>
		<path class="st0" d="M301.1,24.9c-0.4-0.5-1-0.9-1.5-1.3c-0.6-0.3-1.2-0.5-1.9-0.6c-0.7-0.1-1.3-0.1-2,0c-0.7,0.1-1.3,0.3-1.9,0.7
			c-1.1,0.7-2,1.9-2.3,3.2c-0.2,0.6-0.3,1.3-0.2,2c0,0.3,0,0.7,0.1,1c0.1,0.3,0.1,0.7,0.2,1c0.4,1.3,1.1,2.5,2.1,3.4
			c0.5,0.4,1.1,0.8,1.7,1.1c0.6,0.3,1.3,0.5,1.9,0.7c2.6,0.6,5.5,0,7.8-1.5c1.4-0.9,2.6-2.2,3.4-3.8c0.8-1.5,1.2-3.3,0.9-5.1
			c-0.1-0.9-0.4-1.7-0.8-2.5c-0.4-0.8-0.9-1.5-1.5-2.2c-1.2-1.3-2.6-2.4-4.1-3.2c-0.8-0.4-1.6-0.7-2.4-1c-0.9-0.3-1.7-0.4-2.6-0.6
			c-1.7-0.2-3.5-0.3-5.2-0.1l-0.6,0l-0.6,0.1l-1.3,0.2c-0.8,0.2-1.7,0.3-2.5,0.5c-1.7,0.4-3.3,0.9-4.9,1.4c-2.7,0.9-5.4,2-8.1,3
			c-0.7,0.2-1.3,0.5-2,0.7c-0.6,0.2-1.3,0.4-1.9,0.6c-1.3,0.4-2.5,0.7-3.7,1c-2.4,0.4-4.4,0.4-6,0c-1.6-0.3-2.7-1-3.4-1.5
			c0.5,0.7,1.6,1.6,3.2,2.1c1.6,0.6,3.8,0.8,6.2,0.5c1.2-0.1,2.5-0.4,3.8-0.8c1.3-0.4,2.6-0.8,3.9-1.2c2.6-0.9,5.3-1.9,7.9-2.8
			c3.2-1.1,6.4-2,9.6-2.4c0.8,0,1.6-0.2,2.4-0.1c0.4,0,0.8,0,1.2,0l1.2,0.1c0.4,0,0.8,0.1,1.2,0.2c0.4,0.1,0.8,0.1,1.2,0.2
			c0.8,0.2,1.5,0.4,2.3,0.8c1.5,0.6,2.8,1.5,3.9,2.6c1.1,1.1,2,2.5,2.4,3.9c0.1,0.4,0.2,0.7,0.2,1.1c0,0.4,0,0.8,0,1.1
			c-0.1,0.8-0.2,1.5-0.5,2.2c-0.6,1.4-1.5,2.7-2.7,3.7c-2,1.6-4.6,2.4-7.2,2.1c-1.3-0.2-2.5-0.6-3.5-1.4c-1-0.7-1.8-1.8-2.3-3
			c-0.2-0.6-0.4-1.2-0.4-1.9c0-0.6,0-1.3,0.1-2c0.1-0.6,0.4-1.3,0.7-1.8c0.4-0.5,0.8-1.1,1.3-1.5c0.5-0.4,1.2-0.6,1.8-0.8
			c0.6-0.1,1.3-0.2,2-0.1C298.9,23.2,300.2,23.8,301.1,24.9z"/>
		<path class="st0" d="M257.6,22.1c0.7,0.5,1.8,1.2,3.4,1.5c1.6,0.4,3.6,0.4,6,0c1.2-0.2,2.5-0.5,3.7-1c0.6-0.2,1.3-0.4,1.9-0.6
			c0.6-0.2,1.3-0.5,2-0.7c2.6-1,5.3-2,8.1-3c1.6-0.5,3.2-1.1,4.9-1.4c0.8-0.2,1.7-0.4,2.5-0.5l1.3-0.2l0.6-0.1l0.6,0
			c1.7-0.2,3.5-0.1,5.2,0.2c0.9,0.2,1.7,0.3,2.6,0.6c0.8,0.3,1.7,0.6,2.4,1c1.6,0.8,3,1.9,4.1,3.2c0.6,0.7,1.1,1.4,1.5,2.2
			c0.4,0.8,0.7,1.7,0.8,2.5c0.3,1.8-0.1,3.6-0.9,5.1c-0.8,1.5-2,2.8-3.4,3.8c-2.3,1.5-5.1,2.1-7.8,1.5c-0.7-0.1-1.3-0.4-1.9-0.7
			c-0.6-0.3-1.2-0.7-1.7-1.1c-1-0.9-1.8-2.1-2.1-3.4c-0.1-0.3-0.1-0.6-0.2-1c0-0.3-0.1-0.7-0.1-1c0-0.7,0.1-1.4,0.2-2
			c0.4-1.3,1.1-2.5,2.3-3.2c0.6-0.4,1.2-0.6,1.9-0.7c0.7-0.1,1.3-0.1,2,0c0.6,0.1,1.3,0.3,1.9,0.6c0.6,0.3,1.1,0.7,1.5,1.3
			c0.2,0.2,0.3,0.4,0.5,0.7c0.1,0.2,0.3,0.5,0.3,0.7c0,0,0,0,0,0c-0.2-0.7-0.5-1.3-1.1-1.8c-0.5-0.5-1.1-0.9-1.8-1.2
			c-0.7-0.3-1.4-0.4-2.1-0.5c-0.7,0-1.4,0-2.1,0.3c-0.7,0.2-1.3,0.6-1.8,1.1s-0.9,1.1-1.2,1.7c-0.6,1.3-0.7,2.8-0.5,4.2
			c0.3,1.8,1.4,3.6,3,4.7c1.6,1.1,3.5,1.5,5.4,1.5s3.8-0.6,5.4-1.7c1.6-1.1,2.9-2.5,3.7-4.3c0.5-1.1,0.8-2.5,0.8-3.9
			c-0.1-1.4-0.5-2.8-1.3-4.1c-1.6-2.5-4.2-4.4-7.2-5.5c-3-0.9-6.3-1.2-9.5-0.7c-3.2,0.4-6.2,1.3-9.1,2.3c-2.9,1-5.6,2.1-8.2,3
			c-1.3,0.5-2.6,0.9-3.8,1.3c-1.2,0.4-2.4,0.7-3.5,0.9c-2.3,0.4-4.3,0.4-6-0.1s-2.9-1.2-3.6-1.9C257.3,21.7,257.6,22,257.6,22.1
			L257.6,22.1z"/>
		<path class="st0" d="M257.1,21.5C257.1,21.5,257.1,21.5,257.1,21.5C257.1,21.5,257.1,21.5,257.1,21.5L257.1,21.5
			c0.1,0.1,0.4,0.5,0.5,0.5l0,0l0,0C257.5,22,257.3,21.7,257.1,21.5C257.1,21.6,257.1,21.5,257.1,21.5z"/>
		<path class="st0" d="M301.1,24.9c-0.9-1-2.2-1.7-3.5-1.8c-0.7-0.1-1.3,0-2,0.1c-0.6,0.1-1.3,0.4-1.8,0.8c-0.5,0.4-1,0.9-1.3,1.5
			c-0.3,0.6-0.6,1.2-0.7,1.8c-0.1,0.6-0.1,1.3-0.1,2c0.1,0.6,0.2,1.3,0.4,1.9c0.5,1.2,1.2,2.3,2.3,3c1,0.8,2.3,1.2,3.5,1.4
			c2.5,0.3,5.2-0.5,7.2-2.1c1.2-1,2.1-2.2,2.7-3.7c0.3-0.7,0.5-1.5,0.5-2.2c0-0.4,0-0.8,0-1.1c0-0.4-0.1-0.8-0.2-1.1
			c-0.4-1.5-1.2-2.8-2.4-3.9c-1.1-1.1-2.5-2-3.9-2.6c-0.7-0.3-1.5-0.6-2.3-0.8c-0.4-0.1-0.8-0.1-1.2-0.2s-0.8-0.1-1.2-0.2l-1.2-0.1
			c-0.4,0-0.8,0-1.2,0c-0.8,0-1.6,0.1-2.4,0.1c-3.2,0.4-6.5,1.3-9.6,2.4c-2.6,0.9-5.3,1.9-7.9,2.8c-1.3,0.5-2.6,0.9-3.9,1.2
			c-1.3,0.4-2.6,0.6-3.8,0.8c-2.5,0.3-4.6,0.1-6.2-0.5c-1.6-0.5-2.6-1.5-3.2-2.1l0,0c-0.1-0.1-0.4-0.4-0.5-0.5
			c0.1,0.2,0.3,0.4,0.5,0.6c0.2,0.2,0.4,0.4,0.7,0.7c0.5,0.4,1.2,0.9,2.1,1.2c1.7,0.7,4,1,6.6,0.7c1.4-0.2,2.8-0.5,4.2-0.9
			c1.4-0.4,2.8-0.9,4.3-1.4c2.9-1,5.8-2.1,8.6-3c1.6-0.5,3.1-1,4.7-1.3c0.8-0.1,1.6-0.4,2.4-0.4c0.4,0,0.8-0.1,1.2-0.2l1.2-0.1
			c0.4,0,0.8,0,1.2,0c0.4,0,0.8,0,1.2,0c0.8,0.1,1.6,0.1,2.4,0.3c0.8,0.1,1.6,0.3,2.3,0.5c0.8,0.2,1.5,0.6,2.2,0.9
			c0.7,0.4,1.3,0.8,2,1.3c0.6,0.5,1.2,1,1.6,1.6c0.5,0.6,0.9,1.2,1.2,1.9c0.2,0.3,0.3,0.7,0.4,1.1c0.1,0.4,0.2,0.7,0.2,1.1
			c0.2,1.5-0.2,3-0.9,4.4c-0.7,1.3-1.8,2.5-3.1,3.3c-2.1,1.4-4.9,2-7.5,1.3c-0.6-0.2-1.2-0.4-1.8-0.7c-0.6-0.3-1.1-0.7-1.5-1.2
			c-0.4-0.5-0.8-1-1.1-1.6c-0.3-0.6-0.5-1.2-0.6-1.9c-0.1-0.6-0.2-1.3-0.1-2s0.2-1.3,0.5-1.9c0.3-0.6,0.7-1.1,1.1-1.6
			c0.5-0.5,1.1-0.8,1.7-1c0.6-0.2,1.3-0.3,2-0.3c0.7,0,1.4,0.2,2,0.4c0.6,0.3,1.2,0.6,1.7,1.1c0.5,0.5,0.9,1.1,1.1,1.8c0,0,0,0,0,0
			c0-0.3-0.2-0.5-0.3-0.7C301.4,25.3,301.2,25.1,301.1,24.9z"/>
		<path class="st0" d="M257.1,21.5C257.1,21.5,257.1,21.6,257.1,21.5C257.1,21.5,257.1,21.5,257.1,21.5
			C257.1,21.5,257.1,21.5,257.1,21.5z"/>
	</g>
	<g>
		<path class="st0" d="M260.5,26c0,0,0.1,0.1,0.3,0.2s0.5,0.3,0.8,0.5c0.6,0.5,1.4,1.2,1.9,2.1c0.5,0.9,0.9,1.9,1,2.6
			c0.1,0.8,0.1,1.3,0.1,1.4c0,0.2,0.2,0.4,0.5,0.6c0.3,0.2,0.7,0.3,1.1,0.2c0.4,0,0.8-0.1,1.1-0.4c0.3-0.2,0.4-0.6,0.4-1
			c0-0.2-0.3-1-0.8-1.9c-0.5-0.9-1.3-1.9-2.3-2.7c-1-0.8-2-1.3-2.9-1.5c-0.4-0.1-0.8-0.2-1-0.2C260.7,26,260.5,26,260.5,26z"/>
	</g>
	<g>
		<path class="st0" d="M264.7,26.9c0,0,0.2,0,0.5,0c0.3,0,0.8,0.1,1.3,0.2c1.1,0.2,2.4,0.7,3.6,1.5c1.2,0.8,2.2,1.8,2.8,2.6
			c0.2,0.2,0.3,0.4,0.4,0.6c0.1,0.2,0.2,0.4,0.3,0.5c0.2,0.3,0.3,0.5,0.3,0.6c0.1,0.2,0.2,0.3,0.4,0.3c0.1,0.1,0.3,0.2,0.5,0.2
			c0.4,0.1,0.8,0.1,1.2-0.1c0.4-0.2,0.7-0.5,0.8-0.9c0.1-0.2,0.1-0.4,0.1-0.6s-0.1-0.4-0.2-0.6c-0.1-0.1-0.2-0.4-0.5-0.7
			c-0.1-0.2-0.3-0.4-0.5-0.6s-0.4-0.4-0.7-0.6c-1-0.9-2.5-1.7-4-2.2c-1.5-0.5-3.1-0.6-4.2-0.5c-0.6,0-1,0.1-1.3,0.2
			C264.9,26.9,264.7,26.9,264.7,26.9z"/>
	</g>
	<g>
		<path class="st0" d="M270.9,26.8c0,0,0.2,0,0.6-0.1c0.4,0,1-0.1,1.7,0c1.4,0.1,3.2,0.5,5,1.2c0.9,0.3,1.8,0.7,2.6,1
			c0.8,0.3,1.6,0.7,2.1,1c1.1,0.7,1.5,1.4,1.6,1.5c0.2,0.3,0.5,0.4,0.8,0.6c0.3,0.1,0.8,0.3,1.2,0.2c0.4,0,0.8-0.3,0.9-0.9
			c0.1-0.5,0-1.2-0.4-1.8c-0.1-0.1-0.4-0.5-0.9-0.9c-0.5-0.4-1.2-0.9-2-1.2c-0.8-0.3-1.8-0.5-2.7-0.7c-0.9-0.2-1.9-0.3-2.9-0.5
			c-1.9-0.3-3.9-0.4-5.4-0.1c-0.7,0.1-1.3,0.3-1.7,0.4C271.2,26.7,270.9,26.8,270.9,26.8z"/>
	</g>
	<g>
		<path class="st0" d="M306.8,20.2C306.7,20.2,306.7,20.2,306.8,20.2C306.7,20.2,306.7,20.2,306.8,20.2z"/>
		<path class="st0" d="M306.8,20.3c0.1,0,0.2,0.1,0.4,0.1C307.1,20.4,307,20.3,306.8,20.3L306.8,20.3L306.8,20.3L306.8,20.3
			L306.8,20.3c-0.1-0.1-0.1-0.1-0.1,0C306.7,20.3,306.7,20.3,306.8,20.3C306.7,20.3,306.8,20.3,306.8,20.3L306.8,20.3
			C306.8,20.3,306.8,20.3,306.8,20.3z"/>
		<path class="st0" d="M306.8,20.2L306.8,20.2L306.8,20.2C306.8,20.2,306.8,20.2,306.8,20.2z"/>
		<path class="st0" d="M306.8,20.3C306.8,20.3,306.8,20.3,306.8,20.3C306.8,20.3,306.8,20.3,306.8,20.3L306.8,20.3z"/>
		<path class="st0" d="M307.2,20.4c1.2,0.5,2.5,0.6,3.8,0.3c1.3-0.3,2.5-1.1,3.2-2.4c0.4-0.8,0.6-1.7,0.6-2.6c0-0.9-0.3-1.9-1-2.7
			c-1.3-1.6-3.8-2.1-5.6-1c-0.8,0.5-1.4,1.2-1.7,2.1c-0.1,0.4-0.2,0.9-0.1,1.4c0.1,0.5,0.3,0.9,0.5,1.2c0.5,0.6,1.2,0.9,1.7,0.9
			c0.5,0,0.9-0.2,1-0.4c-0.2-0.1-0.5-0.2-0.8-0.4c-0.2-0.2-0.5-0.5-0.6-0.9c-0.1-0.2-0.1-0.4-0.1-0.5c0-0.2,0-0.4,0.1-0.6
			c0.2-0.4,0.5-0.8,0.9-1c0.9-0.6,2.4-0.5,3.2,0.3c0.9,0.8,1.2,2.3,0.8,3.6c-0.3,1.1-1.2,2-2.3,2.5
			C309.8,20.7,308.5,20.8,307.2,20.4z"/>
		<path class="st0" d="M309.6,17.1c-0.1,0.2-0.5,0.4-1,0.4c-0.5,0-1.2-0.2-1.7-0.9c-0.3-0.3-0.5-0.7-0.5-1.2c-0.1-0.4,0-0.9,0.1-1.4
			c0.3-0.9,0.9-1.6,1.7-2.1c1.9-1.1,4.3-0.6,5.6,1c0.6,0.8,0.9,1.8,1,2.7c0,0.9-0.1,1.8-0.6,2.6c-0.7,1.3-2,2.1-3.2,2.4
			c-1.3,0.3-2.6,0.2-3.8-0.3c-0.1,0-0.2-0.1-0.4-0.1c0,0,0,0,0,0c1.2,0.6,2.7,0.8,4,0.5c0.9-0.2,1.8-0.6,2.5-1.3
			c0.7-0.7,1.2-1.6,1.4-2.6c0.1-0.6,0.1-1.4,0-2.2c-0.2-0.8-0.6-1.6-1.3-2.2c-1.4-1.3-3.7-1.6-5.4-0.5c-0.8,0.5-1.4,1.3-1.7,2.2
			c-0.1,0.5-0.1,0.9,0,1.4c0.1,0.5,0.3,0.9,0.6,1.1c0.5,0.6,1.2,0.9,1.7,0.9c0.6,0,1-0.2,1.1-0.5C309.7,17.1,309.6,17.1,309.6,17.1
			L309.6,17.1z"/>
		<path class="st0" d="M309.8,17C309.8,17,309.8,17,309.8,17L309.8,17L309.8,17c0,0-0.1,0-0.2,0l0,0h0
			C309.7,17.1,309.8,17.1,309.8,17L309.8,17z"/>
		<path class="st0" d="M307.2,20.4c1.3,0.3,2.6,0.2,3.7-0.3c1.1-0.5,2-1.4,2.3-2.5c0.4-1.3,0-2.8-0.8-3.6c-0.8-0.8-2.3-0.9-3.2-0.3
			c-0.4,0.2-0.7,0.6-0.9,1c-0.1,0.2-0.1,0.4-0.1,0.6c0,0.1,0,0.3,0.1,0.5c0.1,0.4,0.4,0.6,0.6,0.8s0.5,0.3,0.8,0.4l0,0
			c0,0,0.1-0.1,0.1-0.1c-0.5-0.1-1.1-0.5-1.5-1.2c-0.1-0.2-0.1-0.4-0.1-0.5c0-0.2,0.1-0.4,0.2-0.6c0.2-0.4,0.6-0.8,1-1
			c1-0.5,2.4-0.3,3.1,0.6c0.8,0.9,1,2.4,0.6,3.6c-0.4,1-1.3,1.9-2.5,2.4c-1.2,0.4-2.5,0.5-3.8,0h0C307,20.3,307.1,20.4,307.2,20.4z"
			/>
		<path class="st0" d="M309.8,17L309.8,17C309.8,17,309.8,17,309.8,17C309.8,17,309.8,17,309.8,17z"/>
	</g>
	<path class="st0" d="M237,26.1c2,3,6.1,2.2,6.9-0.3c0.8-2.2-0.6-4.2-2.4-4.1c-1.2,0-1.7,1.2-1,1.8c0.3,0.3,1.3,0,1.4,0.5
		c0.4,1.4-1.8,2.2-3.1,0.6c-2-2.4-1.4-9.8,6.1-8.8C237.9,14.1,233.8,21.3,237,26.1z"/>
	<path class="st0" d="M219,20.2c-4.1-2.3-4-7.5-0.9-10c2.6-2,5.7-1.7,7.8,0.6c1.7,1.9,1.8,4.4,0,6.1c-1.6,1.4-5,1.4-5.5-1.3
		c-0.4-2,2.1-3.4,2.8-2c0.8,1.3-2.1,0.9-1.3,2c1.2,1.7,4.9-0.6,3.4-3.8c-1.3-2.6-4.9-3.2-6.9-1.2c-2.4,2.4-2.2,6.5,1.5,8.7
		c8.7,5.2,19.6-14.3,33.8,0.2C240,0.6,229.5,26.1,219,20.2z"/>
	<path class="st0" d="M220.1,25.8c1.5-1.2,5.8,1.4,10.1-4.8C225.6,31,217.9,27.5,220.1,25.8z"/>
	<g>
		<path class="st0" d="M264.4,19.5C264.4,19.5,264.4,19.5,264.4,19.5C264.4,19.5,264.4,19.5,264.4,19.5z"/>
		<path class="st0" d="M264.3,19.6c-0.1,0-0.3,0.1-0.5,0.1C264,19.6,264.1,19.6,264.3,19.6L264.3,19.6L264.3,19.6L264.3,19.6
			L264.3,19.6c0.1-0.1,0.1-0.1,0.1,0S264.4,19.6,264.3,19.6C264.3,19.6,264.3,19.6,264.3,19.6L264.3,19.6
			C264.3,19.6,264.3,19.6,264.3,19.6z"/>
		<path class="st0" d="M264.4,19.5L264.4,19.5L264.4,19.5C264.3,19.5,264.3,19.5,264.4,19.5z"/>
		<path class="st0" d="M264.3,19.6C264.3,19.6,264.3,19.6,264.3,19.6C264.3,19.6,264.3,19.6,264.3,19.6L264.3,19.6z"/>
		<path class="st0" d="M263.8,19.7c-1.5,0.4-3.1,0.4-4.6-0.1c-1.5-0.5-2.9-1.7-3.5-3.3c-0.4-1-0.5-2.1-0.3-3.2
			c0.2-1.1,0.7-2.2,1.5-3.1c1.8-1.8,4.7-2,6.8-0.5c0.9,0.7,1.5,1.6,1.7,2.7c0.1,0.5,0.1,1.1,0,1.6c-0.1,0.6-0.5,1-0.8,1.4
			c-0.7,0.7-1.5,0.9-2.1,0.8c-0.6,0-1-0.4-1.1-0.6c0.3-0.1,0.6-0.2,1-0.4c0.3-0.2,0.6-0.5,0.9-0.9c0.1-0.2,0.2-0.4,0.2-0.6
			c0-0.2,0-0.4-0.1-0.7c-0.1-0.5-0.5-0.9-0.9-1.3c-1-0.8-2.8-0.9-3.9-0.1c-1.1,0.8-1.8,2.6-1.5,4.2c0.2,1.3,1.1,2.5,2.4,3.2
			C260.7,19.6,262.3,19.9,263.8,19.7z"/>
		<path class="st0" d="M261.4,15.4c0.1,0.3,0.5,0.6,1.1,0.6c0.6,0,1.4-0.1,2.1-0.8c0.4-0.3,0.7-0.8,0.8-1.4c0.1-0.5,0.1-1.1,0-1.6
			c-0.2-1.1-0.9-2-1.7-2.7c-2.1-1.5-5.1-1.3-6.8,0.5c-0.9,0.9-1.3,2-1.5,3.1c-0.2,1.1-0.1,2.2,0.3,3.2c0.6,1.6,2,2.8,3.5,3.3
			c1.5,0.5,3.1,0.6,4.6,0.1c0.1,0,0.3-0.1,0.5-0.1c0,0,0,0,0,0c-1.5,0.5-3.3,0.6-4.9,0.1c-1.1-0.3-2.1-1-2.8-1.9
			c-0.8-0.9-1.2-2.1-1.3-3.3c-0.1-0.8,0-1.7,0.3-2.6c0.3-0.9,0.9-1.8,1.8-2.5c1.8-1.4,4.6-1.4,6.4,0.1c0.9,0.7,1.5,1.8,1.7,2.9
			c0.1,0.6,0,1.1-0.1,1.6c-0.2,0.5-0.5,1-0.8,1.3c-0.7,0.6-1.5,0.9-2.2,0.8c-0.7-0.1-1.1-0.4-1.2-0.8
			C261.2,15.4,261.3,15.4,261.4,15.4L261.4,15.4z"/>
		<path class="st0" d="M261.2,15.3C261.2,15.3,261.2,15.3,261.2,15.3L261.2,15.3L261.2,15.3c0.1,0,0.2,0,0.2,0.1l0,0h0
			C261.3,15.4,261.2,15.4,261.2,15.3L261.2,15.3z"/>
		<path class="st0" d="M263.8,19.7c-1.6,0.2-3.1-0.1-4.4-0.8c-1.3-0.7-2.2-1.9-2.4-3.2c-0.3-1.6,0.3-3.4,1.5-4.2
			c1.1-0.9,2.9-0.8,3.9,0.1c0.4,0.3,0.8,0.8,0.9,1.3c0.1,0.2,0.1,0.5,0.1,0.7c0,0.2-0.1,0.4-0.2,0.6c-0.2,0.4-0.5,0.7-0.9,0.9
			c-0.3,0.2-0.6,0.3-1,0.4l0,0c0,0-0.1-0.1-0.2-0.1c0.6-0.1,1.4-0.4,1.9-1.3c0.1-0.2,0.2-0.4,0.2-0.6c0-0.2,0-0.5-0.1-0.7
			c-0.2-0.5-0.6-1-1.1-1.3c-1.1-0.7-2.8-0.7-3.8,0.3c-1.1,0.9-1.6,2.7-1.2,4.2c0.3,1.3,1.3,2.5,2.6,3.1c1.3,0.7,3,0.9,4.5,0.5h0
			C264.1,19.6,264,19.6,263.8,19.7z"/>
		<path class="st0" d="M261.2,15.3L261.2,15.3C261.2,15.3,261.2,15.3,261.2,15.3C261.2,15.3,261.2,15.3,261.2,15.3z"/>
	</g>
	<g>
		<path class="st0" d="M251.4,12.6C251.4,12.6,251.4,12.6,251.4,12.6C251.4,12.6,251.4,12.6,251.4,12.6z"/>
		<path class="st0" d="M251.3,12.6L251.3,12.6L251.3,12.6L251.3,12.6L251.3,12.6C251.3,12.6,251.3,12.6,251.3,12.6L251.3,12.6
			C251.3,12.6,251.3,12.7,251.3,12.6L251.3,12.6C251.3,12.6,251.3,12.6,251.3,12.6L251.3,12.6L251.3,12.6z"/>
		<path class="st0" d="M251.4,12.6C251.4,12.6,251.4,12.6,251.4,12.6L251.4,12.6C251.4,12.6,251.4,12.6,251.4,12.6z"/>
		<path class="st0" d="M251.3,12.6C251.3,12.6,251.3,12.6,251.3,12.6C251.3,12.6,251.3,12.6,251.3,12.6L251.3,12.6z"/>
		<path class="st0" d="M251.3,12.6c-0.6-0.4-1.1-0.9-1.5-1.5c-0.5-0.8-0.8-1.9-0.5-2.9c0.1-0.4,0.3-0.8,0.7-1.1
			c0.3-0.3,0.7-0.3,1-0.2c0.2,0.3,0.3,0.6,0.3,0.8c0,0.3,0,0.6-0.1,0.8c-0.1,0.6-0.3,1.3-0.3,2.1C250.8,11.2,250.9,11.9,251.3,12.6z
			"/>
		<path class="st0" d="M250.9,6.8c-0.3-0.1-0.7-0.1-1,0.2c-0.3,0.3-0.6,0.7-0.7,1.1c-0.3,1,0,2.1,0.5,2.9c0.4,0.7,1,1.2,1.5,1.5
			l0.1,0.1l0,0c-0.3-0.2-0.6-0.4-0.9-0.7c-0.4-0.4-0.7-0.8-0.9-1.3c-0.3-0.6-0.6-1.7-0.3-2.6C249.4,7.1,250.1,6.5,250.9,6.8
			C250.9,6.8,250.9,6.8,250.9,6.8L250.9,6.8z"/>
		<path class="st0" d="M250.9,6.8L250.9,6.8L250.9,6.8L250.9,6.8C250.9,6.8,250.9,6.8,250.9,6.8L250.9,6.8L250.9,6.8
			C250.9,6.8,250.9,6.8,250.9,6.8L250.9,6.8z"/>
		<path class="st0" d="M251.3,12.6c-0.4-0.6-0.5-1.3-0.5-1.9c0-0.8,0.2-1.5,0.3-2.1c0.1-0.3,0.1-0.5,0.1-0.8c0-0.3-0.1-0.6-0.3-0.8
			h0c0,0,0,0,0,0c0.2,0.3,0.3,0.6,0.3,0.9c0,0.3,0,0.6-0.1,0.9c-0.1,0.6-0.3,1.3-0.3,2.1C250.8,11.3,250.9,12,251.3,12.6L251.3,12.6
			L251.3,12.6z"/>
		<path class="st0" d="M250.9,6.8L250.9,6.8C250.9,6.8,250.9,6.8,250.9,6.8L250.9,6.8z"/>
	</g>
	<g>
		<path class="st0" d="M282.7,15.1C282.7,15.1,282.7,15.1,282.7,15.1C282.7,15.1,282.7,15.1,282.7,15.1z"/>
		<path class="st0" d="M282.8,15.2l0.2-0.1L282.8,15.2L282.8,15.2L282.8,15.2L282.8,15.2L282.8,15.2
			C282.7,15.1,282.7,15.2,282.8,15.2C282.7,15.2,282.8,15.2,282.8,15.2C282.8,15.2,282.8,15.2,282.8,15.2L282.8,15.2L282.8,15.2z"/>
		<path class="st0" d="M282.7,15.1L282.7,15.1L282.7,15.1C282.7,15.1,282.7,15.1,282.7,15.1z"/>
		<path class="st0" d="M282.8,15.2L282.8,15.2C282.8,15.2,282.8,15.2,282.8,15.2L282.8,15.2z"/>
		<path class="st0" d="M282.9,15.1c1.2-0.2,2.4-0.4,3.5-0.9c1.4-0.6,2.9-1.5,3.9-2.8c0.4-0.5,0.8-1.2,0.9-1.8c0.1-0.6,0-1.1-0.2-1.5
			c-0.4,0-0.9,0.1-1.3,0.5c-0.4,0.3-0.8,0.8-1.2,1.2c-0.9,1-1.7,2.1-2.7,3.1C284.9,13.7,284,14.5,282.9,15.1z"/>
		<path class="st0" d="M291,8.1c0.3,0.4,0.4,0.9,0.2,1.5c-0.1,0.6-0.5,1.2-0.9,1.8c-1,1.3-2.5,2.2-3.9,2.8c-1.1,0.5-2.3,0.7-3.5,0.9
			l-0.2,0.1h0c0.6-0.1,1.3-0.2,1.9-0.4c0.8-0.2,1.6-0.5,2.4-0.9c1-0.5,2.4-1.4,3.3-2.6C291.3,10.2,291.7,8.9,291,8.1
			C291,8.1,291,8.1,291,8.1L291,8.1z"/>
		<path class="st0" d="M291,8.1L291,8.1L291,8.1L291,8.1C291,8.1,291,8.1,291,8.1L291,8.1L291,8.1C291,8.1,291,8.1,291,8.1
			C291,8.1,291,8.1,291,8.1z"/>
		<path class="st0" d="M282.9,15.1c1.1-0.6,2-1.3,2.8-2.1c1-1,1.9-2.1,2.7-3.1c0.4-0.4,0.8-0.9,1.2-1.2c0.4-0.3,0.9-0.5,1.3-0.5l0,0
			c0,0,0-0.1,0-0.1c-0.5,0-0.9,0.2-1.4,0.5c-0.5,0.4-0.9,0.8-1.3,1.3c-0.9,1-1.7,2.1-2.7,3.1c-0.8,0.8-1.8,1.6-2.9,2.2l0,0
			L282.9,15.1z"/>
		<path class="st0" d="M291,8.1C291,8.1,291,8.1,291,8.1C291,8.1,291,8.1,291,8.1L291,8.1z"/>
	</g>
	<g>
		<path class="st0" d="M248.1,10.1C248.1,10.1,248.1,10.1,248.1,10.1C248.1,10.1,248.1,10.1,248.1,10.1z"/>
		<path class="st0" d="M248.1,10.1l-0.1,0L248.1,10.1L248.1,10.1L248.1,10.1L248.1,10.1L248.1,10.1
			C248.1,10.2,248.1,10.1,248.1,10.1C248.1,10.1,248.1,10.1,248.1,10.1L248.1,10.1L248.1,10.1L248.1,10.1z"/>
		<path class="st0" d="M248.1,10.1L248.1,10.1L248.1,10.1C248.1,10.1,248.1,10.1,248.1,10.1z"/>
		<path class="st0" d="M248.1,10.1L248.1,10.1C248.1,10.1,248.1,10.1,248.1,10.1L248.1,10.1z"/>
		<path class="st0" d="M247.9,10.1c-0.9-0.4-1.7-1.1-2.4-1.7c-0.9-0.8-1.7-1.7-2.4-2.6c-0.3-0.4-0.7-0.8-1.1-1
			c-0.4-0.3-0.8-0.4-1.1-0.4c-0.2,0.3-0.3,0.7-0.1,1.2c0.1,0.5,0.4,1,0.8,1.4c0.9,1.1,2.1,1.8,3.3,2.3
			C245.9,9.7,246.9,9.9,247.9,10.1z"/>
		<path class="st0" d="M240.9,4.3c0.4,0,0.7,0.1,1.1,0.4c0.4,0.3,0.7,0.7,1.1,1c0.8,0.9,1.6,1.8,2.4,2.6c0.7,0.6,1.5,1.2,2.4,1.7
			l0.1,0l0,0c-0.5-0.2-0.9-0.5-1.3-0.8c-0.6-0.4-1.1-0.8-1.5-1.3c-0.6-0.6-1.4-1.5-2.1-2.3C242.4,4.9,241.7,4.3,240.9,4.3
			C240.9,4.3,240.9,4.3,240.9,4.3L240.9,4.3z"/>
		<path class="st0" d="M240.9,4.3L240.9,4.3L240.9,4.3L240.9,4.3C240.9,4.3,240.9,4.4,240.9,4.3L240.9,4.3L240.9,4.3
			C240.9,4.3,240.9,4.3,240.9,4.3C240.9,4.3,240.9,4.3,240.9,4.3z"/>
		<path class="st0" d="M247.9,10.1c-1-0.2-2.1-0.4-3-0.8c-1.2-0.5-2.4-1.2-3.3-2.3c-0.4-0.4-0.7-0.9-0.8-1.4
			c-0.1-0.5-0.1-0.9,0.1-1.2h0c0,0,0,0,0-0.1c-0.2,0.3-0.3,0.7-0.1,1.3c0.2,0.6,0.5,1.1,0.9,1.6c0.9,1,2.1,1.8,3.3,2.2
			c1,0.4,2.1,0.6,3.1,0.8l0,0L247.9,10.1z"/>
		<path class="st0" d="M240.9,4.3L240.9,4.3C240.9,4.3,240.9,4.3,240.9,4.3L240.9,4.3z"/>
	</g>
	<g>
		<path class="st0" d="M243.9,10C243.9,10,243.9,10,243.9,10C243.9,10,243.9,10,243.9,10z"/>
		<path class="st0" d="M243.9,9.9l-0.2,0L243.9,9.9L243.9,9.9L243.9,9.9L243.9,9.9L243.9,9.9C243.9,10,243.9,10,243.9,9.9
			C243.9,9.9,243.9,9.9,243.9,9.9L243.9,9.9L243.9,9.9C243.9,9.9,243.9,9.9,243.9,9.9z"/>
		<path class="st0" d="M243.9,10L243.9,10L243.9,10C243.9,10,243.9,10,243.9,10z"/>
		<path class="st0" d="M243.9,9.9L243.9,9.9C243.9,9.9,243.9,9.9,243.9,9.9L243.9,9.9z"/>
		<path class="st0" d="M243.7,9.9c-1.3-0.5-2.7-0.9-4.2-1.1c-1.8-0.2-3.8,0-5.5,0.8c-0.8,0.3-1.5,0.8-2,1.3c-0.5,0.5-0.7,1-0.7,1.4
			c0.4,0.1,0.9,0.1,1.5-0.1c0.6-0.2,1.3-0.5,1.9-0.7c1.6-0.6,3.2-1.2,4.8-1.4C240.8,9.7,242.2,9.7,243.7,9.9z"/>
		<path class="st0" d="M231.3,12.3c0-0.4,0.2-0.9,0.7-1.4c0.5-0.5,1.2-0.9,2-1.3c1.8-0.8,3.8-0.9,5.5-0.8c1.5,0.1,2.8,0.5,4.2,1.1
			l0.2,0h0c-0.7-0.3-1.4-0.6-2.1-0.7c-1-0.2-2-0.4-3-0.4c-1.3-0.1-3.2,0.1-4.9,0.8C232.3,10.3,231.2,11.4,231.3,12.3
			C231.2,12.3,231.2,12.3,231.3,12.3L231.3,12.3z"/>
		<path class="st0" d="M231.2,12.3L231.2,12.3L231.2,12.3L231.2,12.3C231.2,12.3,231.2,12.3,231.2,12.3L231.2,12.3L231.2,12.3
			C231.2,12.3,231.2,12.3,231.2,12.3L231.2,12.3z"/>
		<path class="st0" d="M243.7,9.9c-1.4-0.2-2.9-0.2-4.2,0.1c-1.6,0.3-3.3,0.8-4.8,1.4c-0.6,0.3-1.3,0.5-1.9,0.7
			c-0.6,0.2-1.1,0.2-1.5,0.1v0c0,0-0.1,0.1-0.1,0.1c0.4,0.1,0.9,0.1,1.6-0.1c0.7-0.2,1.4-0.5,2.1-0.8c1.5-0.6,3.1-1.1,4.8-1.4
			c1.4-0.2,2.8-0.3,4.3,0l0,0L243.7,9.9z"/>
		<path class="st0" d="M231.2,12.3L231.2,12.3L231.2,12.3L231.2,12.3z"/>
	</g>
	<g>
		<path class="st0" d="M267.7,20.9C267.7,21,267.7,20.9,267.7,20.9C267.7,20.9,267.7,20.9,267.7,20.9z"/>
		<path class="st0" d="M267.8,20.8l0.4-0.3L267.8,20.8L267.8,20.8L267.8,20.8l0,0.1c0,0,0,0,0,0c0,0,0,0,0,0S267.7,20.9,267.8,20.8
			C267.7,20.9,267.7,20.9,267.8,20.8L267.8,20.8C267.8,20.8,267.8,20.8,267.8,20.8z"/>
		<path class="st0" d="M267.8,20.9L267.8,20.9L267.8,20.9C267.8,20.9,267.8,20.9,267.8,20.9z"/>
		<path class="st0" d="M267.8,20.9C267.7,20.9,267.7,20.9,267.8,20.9C267.7,20.9,267.8,20.9,267.8,20.9L267.8,20.9z"/>
		<path class="st0" d="M268.2,20.5c2.3-2.4,3.2-5.6,2.9-8.7c-0.2-1.9-0.9-3.7-2-5.2s-2.7-2.7-4.4-3.5c-1.4-0.7-3-1.1-4.5-1.2
			c-1.4-0.1-2.4,0-3,0c0.2-0.6,1.2-1.5,2.9-1.8c1.7-0.3,3.7,0,5.5,0.7c2.1,0.9,4,2.5,5.2,4.4c1.2,1.9,1.9,4.2,1.8,6.3
			C272.4,15.1,270.7,18.4,268.2,20.5z"/>
		<path class="st0" d="M257.1,2c0.7,0,1.7-0.1,3,0c1.4,0.1,3,0.5,4.5,1.2c1.7,0.8,3.2,2,4.4,3.5c1.1,1.5,1.9,3.3,2,5.2
			c0.3,3-0.6,6.3-2.9,8.7l-0.4,0.3c0,0,0,0,0,0c1.2-1.2,2.1-2.7,2.7-4.2c0.7-2.1,0.8-4.3,0.3-6.3c-0.3-1.3-1-2.8-2.1-4
			s-2.5-2.4-4.1-3.1c-1.5-0.7-3.1-1-4.4-1.1c-1.3-0.1-2.4,0.1-3.1,0C257,2.1,257.1,2.1,257.1,2L257.1,2z"/>
		<path class="st0" d="M256.9,2.2C256.9,2.2,256.9,2.1,256.9,2.2C256.9,2.1,256.9,2.1,256.9,2.2L256.9,2.2c0-0.1,0.1-0.1,0.2-0.1h0
			l0,0C257.1,2.1,257,2.1,256.9,2.2L256.9,2.2z"/>
		<path class="st0" d="M268.2,20.5c2.6-2.1,4.2-5.4,4.3-8.9c0-2.1-0.6-4.4-1.8-6.3c-1.2-1.9-3-3.5-5.2-4.4c-1.8-0.8-3.8-1.1-5.5-0.7
			c-1.7,0.3-2.6,1.2-2.9,1.8h0c0,0-0.2,0.1-0.2,0.1c0.2-0.6,1.2-1.6,3-2c1.9-0.4,4.1,0,6,0.9c2.1,1,3.8,2.6,5,4.6
			c1.2,1.9,1.7,4.2,1.6,6.3c-0.2,3.6-2,6.9-4.7,8.9l0,0L268.2,20.5z"/>
		<path class="st0" d="M256.9,2.2L256.9,2.2C256.9,2.2,256.9,2.2,256.9,2.2C256.9,2.1,256.9,2.2,256.9,2.2z"/>
	</g>
	<g>
		<path class="st0" d="M271.8,59.5C271.8,59.5,271.8,59.5,271.8,59.5C271.8,59.5,271.8,59.5,271.8,59.5z"/>
		<path class="st0" d="M271.7,59.5c-0.1,0-0.2,0-0.4,0C271.5,59.5,271.6,59.5,271.7,59.5L271.7,59.5L271.7,59.5L271.7,59.5
			L271.7,59.5c0.1-0.1,0.1,0,0.1,0S271.8,59.5,271.7,59.5L271.7,59.5L271.7,59.5C271.7,59.5,271.7,59.5,271.7,59.5z"/>
		<path class="st0" d="M271.8,59.5L271.8,59.5L271.8,59.5C271.7,59.5,271.7,59.5,271.8,59.5z"/>
		<path class="st0" d="M271.7,59.5L271.7,59.5C271.8,59.5,271.7,59.5,271.7,59.5L271.7,59.5z"/>
		<path class="st0" d="M271.3,59.5c-1.2,0-2.4-0.4-3.4-1.2c-1-0.8-1.7-2-1.9-3.3c-0.3-1.6,0-3.5,1.3-4.9c0.6-0.7,1.5-1.3,2.5-1.5
			c1-0.2,2.1,0,3,0.5c0.8,0.4,1.4,1.2,1.7,2.1c0.3,1,0,1.9-0.4,2.5c-0.4,0.6-1,1-1.4,1.1c-0.5,0.1-0.9,0-1.1-0.2
			c0.3-0.4,0.7-1,0.8-1.7c0.1-0.8-0.1-1.3-0.8-1.7c-0.8-0.5-1.9-0.5-2.8,0.3c-0.9,0.7-1.5,1.9-1.5,3.2c0,1,0.3,2.2,1,3
			C269,58.6,270.1,59.3,271.3,59.5z"/>
		<path class="st0" d="M271.6,54.6c0.2,0.2,0.6,0.3,1.1,0.2c0.5-0.1,1-0.5,1.4-1.1c0.4-0.6,0.6-1.5,0.4-2.5
			c-0.3-0.9-0.9-1.7-1.7-2.1c-0.9-0.5-2-0.7-3-0.5c-1,0.2-1.9,0.8-2.5,1.5c-1.2,1.4-1.6,3.3-1.3,4.9c0.2,1.3,0.9,2.5,1.9,3.3
			c1,0.8,2.2,1.2,3.4,1.2c0.1,0,0.2,0,0.4,0c0,0,0,0,0,0c-1.3,0.1-2.6-0.3-3.7-1.1c-1.4-1.1-2.3-2.9-2.2-4.8c0-1.2,0.5-2.8,1.8-4
			c0.6-0.6,1.5-1,2.5-1.2c1-0.1,1.9,0.1,2.8,0.6c0.8,0.5,1.5,1.3,1.7,2.3c0.2,1-0.1,1.8-0.5,2.4c-0.4,0.6-1,1-1.5,1.1s-1,0-1.2-0.2
			C271.5,54.7,271.6,54.7,271.6,54.6L271.6,54.6z"/>
		<path class="st0" d="M271.5,54.7L271.5,54.7L271.5,54.7L271.5,54.7c0,0,0.1,0,0.2,0l0,0l0,0C271.6,54.7,271.5,54.7,271.5,54.7
			L271.5,54.7z"/>
		<path class="st0" d="M271.3,59.5c-1.2-0.2-2.3-0.9-3-1.7c-0.7-0.9-1-2-1-3c0-1.3,0.6-2.5,1.5-3.2c0.9-0.7,1.9-0.8,2.8-0.3
			c0.6,0.4,0.9,0.9,0.8,1.7c-0.1,0.7-0.5,1.2-0.8,1.7l0,0c0,0-0.1,0-0.1,0c0.4-0.4,0.8-0.9,0.9-1.7c0.1-0.4,0-0.8-0.1-1
			c-0.1-0.3-0.4-0.5-0.8-0.7c-0.4-0.2-0.9-0.3-1.3-0.2c-0.5,0.1-0.9,0.3-1.4,0.7c-0.8,0.7-1.4,1.9-1.3,3.2c0,1.1,0.4,2.2,1.1,3
			c0.8,0.9,1.9,1.5,3.1,1.6h0C271.6,59.5,271.5,59.5,271.3,59.5z"/>
		<path class="st0" d="M271.5,54.7L271.5,54.7C271.5,54.7,271.4,54.7,271.5,54.7L271.5,54.7z"/>
	</g>
	<g>
		<path class="st0" d="M291.1,15.3C291.1,15.3,291.1,15.3,291.1,15.3C291.1,15.3,291.1,15.3,291.1,15.3z"/>
		<path class="st0" d="M291.1,15.2l0.2,0L291.1,15.2L291.1,15.2L291.1,15.2L291.1,15.2L291.1,15.2C291.1,15.3,291.1,15.3,291.1,15.2
			C291.1,15.3,291.1,15.3,291.1,15.2L291.1,15.2L291.1,15.2L291.1,15.2z"/>
		<path class="st0" d="M291.1,15.3L291.1,15.3L291.1,15.3C291.1,15.3,291.1,15.3,291.1,15.3z"/>
		<path class="st0" d="M291.1,15.2L291.1,15.2C291.1,15.2,291.1,15.2,291.1,15.2L291.1,15.2z"/>
		<path class="st0" d="M291.3,15.2c1.1-0.6,2-1.4,2.8-2.2c1-1,1.9-2.1,2.8-3.2c0.4-0.5,0.8-0.9,1.2-1.3c0.5-0.3,0.9-0.5,1.4-0.5
			c0.2,0.4,0.4,0.9,0.2,1.5c-0.1,0.6-0.5,1.2-0.9,1.8c-1,1.3-2.5,2.3-3.9,2.9C293.8,14.7,292.5,15,291.3,15.2z"/>
		<path class="st0" d="M299.5,8c-0.5,0-0.9,0.2-1.4,0.5c-0.5,0.4-0.9,0.8-1.2,1.3c-0.9,1.1-1.8,2.2-2.8,3.2
			c-0.8,0.8-1.7,1.6-2.8,2.2l-0.2,0h0c0.6-0.3,1.1-0.6,1.6-1c0.6-0.5,1.2-1.1,1.8-1.6c0.7-0.7,1.6-1.9,2.4-2.8
			C297.7,8.8,298.5,7.9,299.5,8C299.5,7.9,299.5,8,299.5,8L299.5,8z"/>
		<path class="st0" d="M299.6,7.9L299.6,7.9L299.6,7.9L299.6,7.9C299.6,8,299.6,8,299.6,7.9L299.6,7.9L299.6,7.9
			C299.5,8,299.5,8,299.6,7.9C299.5,7.9,299.6,7.9,299.6,7.9z"/>
		<path class="st0" d="M291.3,15.2c1.2-0.2,2.5-0.5,3.6-1c1.4-0.6,2.9-1.6,3.9-2.9c0.4-0.5,0.8-1.2,0.9-1.8c0.1-0.6,0-1.1-0.2-1.5h0
			c0,0,0-0.1,0-0.1c0.3,0.4,0.4,0.9,0.2,1.5c-0.2,0.7-0.5,1.4-1,1.9c-1,1.3-2.5,2.2-3.9,2.8c-1.2,0.5-2.5,0.8-3.7,1l0,0L291.3,15.2z
			"/>
		<path class="st0" d="M299.6,7.9L299.6,7.9C299.5,7.9,299.6,7.9,299.6,7.9L299.6,7.9z"/>
	</g>
	<g>
		<path class="st0" d="M263.3,54.4C263.3,54.4,263.3,54.4,263.3,54.4C263.3,54.4,263.3,54.4,263.3,54.4z"/>
		<path class="st0" d="M263.3,54.4l-0.1-0.1L263.3,54.4L263.3,54.4L263.3,54.4C263.3,54.3,263.3,54.3,263.3,54.4L263.3,54.4
			C263.3,54.4,263.3,54.4,263.3,54.4C263.3,54.4,263.3,54.4,263.3,54.4C263.3,54.4,263.3,54.4,263.3,54.4L263.3,54.4L263.3,54.4z"/>
		<path class="st0" d="M263.3,54.3L263.3,54.3L263.3,54.3C263.3,54.3,263.3,54.3,263.3,54.3z"/>
		<path class="st0" d="M263.3,54.4C263.3,54.4,263.3,54.4,263.3,54.4C263.3,54.4,263.3,54.4,263.3,54.4L263.3,54.4z"/>
		<path class="st0" d="M263.2,54.2c-0.9-0.6-2-1-3-1.1c-1.3-0.2-2.5-0.2-3.8-0.2c-0.5,0-1.1,0-1.6,0c-0.5-0.1-0.9-0.3-1.2-0.6
			c0-0.4,0.3-0.9,0.8-1.2c0.5-0.3,1.2-0.5,1.8-0.6c1.6-0.1,3.2,0.4,4.4,1.2C261.7,52.4,262.5,53.3,263.2,54.2z"/>
		<path class="st0" d="M253.6,52.3c0.3,0.3,0.8,0.5,1.2,0.6c0.5,0.1,1.1,0.1,1.6,0c1.2,0,2.5-0.1,3.8,0.2c1,0.2,2.1,0.5,3,1.1
			l0.1,0.1l0,0c-0.5-0.3-1-0.6-1.5-0.8c-0.7-0.2-1.4-0.4-2.1-0.5c-0.9-0.1-2.2-0.1-3.2-0.1C255.3,53,254.3,53.1,253.6,52.3
			C253.6,52.4,253.6,52.4,253.6,52.3L253.6,52.3z"/>
		<path class="st0" d="M253.5,52.3L253.5,52.3L253.5,52.3L253.5,52.3C253.5,52.3,253.6,52.3,253.5,52.3L253.5,52.3L253.5,52.3
			C253.6,52.4,253.6,52.4,253.5,52.3C253.5,52.4,253.5,52.3,253.5,52.3z"/>
		<path class="st0" d="M263.2,54.2c-0.7-0.9-1.5-1.8-2.5-2.5c-1.2-0.8-2.8-1.4-4.4-1.2c-0.7,0-1.4,0.2-1.9,0.6
			c-0.5,0.3-0.7,0.8-0.8,1.2l0,0c0,0-0.1,0-0.1,0c0-0.4,0.3-0.9,0.8-1.3c0.6-0.4,1.3-0.6,2-0.6c1.6-0.1,3.2,0.5,4.4,1.3
			c1,0.7,1.9,1.6,2.5,2.6l0,0L263.2,54.2z"/>
		<path class="st0" d="M253.5,52.3C253.5,52.3,253.5,52.4,253.5,52.3C253.5,52.4,253.5,52.4,253.5,52.3L253.5,52.3z"/>
	</g>
	<path class="st0" d="M143.9,12c-1.4-4.4,4-6.4,5.6-2.7c0.5,1.3-1.8,0.7-2.6,2.2c-1,1.8,1.1,6.3,7,7.3
		C150.4,18.9,145.3,16.2,143.9,12z"/>
	<g>
		<path class="st0" d="M166.1,30.5c0.3-1,1.2-1.7,2.6-1.7c-0.7-1.2-0.5-2.4,0.3-3.1c0.8-0.6,2-0.7,3.1,0.2c0.1-1.4,1-2.2,2-2.3
			c1,0,2,0.6,2.4,2c1-1.1,2.1-1.2,3-0.7c0.8,0.6,1.3,1.6,0.8,3c1.4-0.3,2.4,0.3,2.9,1.2c0.3,1,0.1,2.1-1.1,2.9
			c1.3,0.6,1.8,1.7,1.6,2.7c-0.3,1-1.2,1.7-2.6,1.7c0.7,1.2,0.5,2.4-0.3,3.1c-0.8,0.6-2,0.7-3.1-0.2c-0.1,1.4-1,2.2-2,2.3
			c-1,0-2-0.6-2.4-2c-1,1.1-2.1,1.2-3,0.7c-0.8-0.6-1.3-1.6-0.8-3c-1.4,0.3-2.4-0.3-2.9-1.2c-0.3-1-0.1-2.1,1.1-2.9
			C166.4,32.5,165.9,31.5,166.1,30.5z M168.8,32.6L168.8,32.6c0.6,0.2,1.2,0.2,1.9,0.3c-0.7,0.2-1.3,0.3-1.9,0.6l0,0
			c-1.3,0.6-1.2,1.5-1,2c0.2,0.5,0.9,1.2,2.2,0.7l0,0c0.6-0.2,1.1-0.5,1.7-0.9c-0.4,0.5-0.9,1-1.1,1.6l0,0c-0.7,1.2-0.1,2,0.4,2.2
			c0.5,0.3,1.4,0.5,2.1-0.7l0,0c0.3-0.5,0.6-1.1,0.9-1.7c-0.1,0.7-0.1,1.3,0,1.9l0,0c0.2,1.4,1,1.7,1.6,1.6c0.6,0,1.4-0.4,1.3-1.8
			l0,0c0-0.6-0.2-1.2-0.3-1.9c0.4,0.6,0.7,1.1,1.1,1.6l0,0c0.9,1,1.8,0.7,2.2,0.4c0.4-0.4,0.9-1.2,0-2.3l0,0
			c-0.4-0.5-0.9-0.9-1.4-1.3c0.6,0.3,1.2,0.5,1.8,0.6l0,0c1.4,0.3,1.9-0.5,2-1s0-1.5-1.4-1.8l0,0c-0.6-0.2-1.2-0.2-1.9-0.3
			c0.7-0.2,1.3-0.3,1.9-0.6l0,0c1.3-0.6,1.2-1.5,1-2s-0.9-1.2-2.2-0.7l0,0c-0.6,0.2-1.1,0.5-1.7,0.9c0.4-0.5,0.9-1,1.1-1.6l0,0
			c0.7-1.2,0.1-2-0.4-2.2c-0.5-0.3-1.4-0.5-2.1,0.7l0,0c-0.3,0.5-0.6,1.1-0.9,1.7c0.1-0.7,0.1-1.3,0-1.9l0,0c-0.2-1.4-1-1.6-1.6-1.6
			c-0.6,0-1.4,0.4-1.3,1.9l0,0c0,0.6,0.2,1.2,0.3,1.9c-0.4-0.6-0.7-1.1-1.1-1.6l0,0c-0.9-1-1.8-0.7-2.2-0.4s-0.9,1.2,0,2.3l0,0
			c0.4,0.5,0.9,0.9,1.4,1.4c-0.6-0.3-1.2-0.5-1.8-0.6l0,0c-1.4-0.3-1.9,0.5-2,1C167.3,31.3,167.4,32.2,168.8,32.6z"/>
		<path class="st0" d="M173.7,32.6c-0.1-0.6,0.4-1.1,1-1.2c0.6,0,1.1,0.4,1.2,1c0.1,0.6-0.4,1.2-1,1.2
			C174.3,33.7,173.8,33.2,173.7,32.6z"/>
	</g>
	<g>
		<path class="st0" d="M125.3,26.6C125.2,26.7,125.2,26.8,125.3,26.6C125.2,26.8,125.2,26.7,125.3,26.6z"/>
		<path class="st0" d="M125.3,26.3c0.1-0.3,0.2-0.5,0.3-0.7c0.1-0.2,0.3-0.5,0.4-0.7c-0.2,0.2-0.3,0.4-0.4,0.7
			C125.6,25.8,125.4,26,125.3,26.3C125.4,26.3,125.4,26.3,125.3,26.3c0,0.1,0,0.2,0,0.2l0,0.1c0,0,0,0,0,0c0,0.1-0.1,0.1,0,0.1
			c0,0,0-0.1,0-0.1c0,0,0-0.1,0-0.1C125.3,26.4,125.3,26.4,125.3,26.3C125.3,26.3,125.3,26.3,125.3,26.3z"/>
		<path class="st0" d="M125.3,26.6l0-0.1c0-0.1,0-0.1,0.1-0.2C125.3,26.4,125.3,26.5,125.3,26.6z"/>
		<path class="st0" d="M125.3,26.5c0,0,0,0.1,0,0.1c0-0.1,0-0.2,0.1-0.3C125.3,26.4,125.3,26.4,125.3,26.5z"/>
		<path class="st0" d="M126.1,24.9c0.4-0.5,1-0.9,1.5-1.3c0.6-0.3,1.2-0.5,1.9-0.6c0.7-0.1,1.3-0.1,2,0c0.7,0.1,1.3,0.3,1.9,0.7
			c1.1,0.7,1.9,1.9,2.3,3.2c0.2,0.6,0.3,1.3,0.2,2c0,0.3-0.1,0.7-0.1,1c-0.1,0.3-0.1,0.7-0.2,1c-0.4,1.3-1.1,2.5-2.1,3.4
			c-0.5,0.4-1.1,0.8-1.7,1.1c-0.6,0.3-1.3,0.5-1.9,0.7c-2.7,0.6-5.5,0-7.8-1.5c-1.4-0.9-2.6-2.2-3.4-3.8c-0.8-1.5-1.2-3.3-0.9-5.1
			c0.1-0.9,0.4-1.7,0.8-2.5c0.4-0.8,0.9-1.5,1.5-2.2c1.2-1.3,2.6-2.4,4.2-3.2c0.8-0.4,1.6-0.7,2.4-1c0.8-0.3,1.7-0.4,2.6-0.6
			c1.7-0.2,3.5-0.3,5.2-0.1l0.6,0l0.6,0.1l1.3,0.2c0.8,0.2,1.7,0.3,2.5,0.5c1.7,0.4,3.3,0.9,4.9,1.4c2.7,0.9,5.4,2,8.1,3
			c0.7,0.2,1.3,0.5,2,0.7c0.6,0.2,1.3,0.4,1.9,0.6c1.3,0.4,2.5,0.7,3.7,1c2.4,0.4,4.4,0.4,6,0c1.6-0.3,2.7-1,3.4-1.5
			c-0.6,0.7-1.6,1.6-3.2,2.1c-1.6,0.6-3.8,0.8-6.2,0.5c-1.2-0.1-2.6-0.4-3.8-0.8c-1.3-0.4-2.6-0.8-3.9-1.2c-2.6-0.9-5.3-1.9-7.9-2.8
			c-3.2-1.1-6.4-2-9.6-2.4c-0.8,0-1.6-0.2-2.4-0.1c-0.4,0-0.8,0-1.2,0l-1.2,0.1c-0.4,0-0.8,0.1-1.2,0.2c-0.4,0.1-0.8,0.1-1.2,0.2
			c-0.8,0.2-1.5,0.4-2.3,0.8c-1.4,0.6-2.8,1.5-3.9,2.6c-1.1,1.1-2,2.5-2.3,3.9c-0.1,0.4-0.2,0.7-0.2,1.1c-0.1,0.4,0,0.8,0,1.1
			c0.1,0.8,0.2,1.5,0.5,2.2c0.6,1.4,1.5,2.7,2.7,3.7c2,1.6,4.6,2.4,7.2,2.1c1.3-0.2,2.5-0.6,3.6-1.4c1.1-0.7,1.8-1.8,2.3-3
			c0.2-0.6,0.4-1.2,0.4-1.9c0-0.6,0-1.3-0.1-2c-0.1-0.6-0.4-1.3-0.7-1.8c-0.4-0.5-0.8-1.1-1.3-1.5c-0.5-0.4-1.2-0.6-1.8-0.8
			c-0.6-0.1-1.3-0.2-2-0.1C128.3,23.2,127,23.8,126.1,24.9z"/>
		<path class="st0" d="M169.5,22.1c-0.7,0.5-1.8,1.2-3.4,1.5c-1.6,0.4-3.6,0.4-6,0c-1.2-0.2-2.5-0.5-3.7-1c-0.6-0.2-1.3-0.4-1.9-0.6
			c-0.6-0.2-1.3-0.5-2-0.7c-2.6-1-5.3-2-8.1-3c-1.6-0.5-3.2-1.1-4.9-1.4c-0.8-0.2-1.7-0.4-2.5-0.5l-1.3-0.2l-0.6-0.1l-0.7,0
			c-1.7-0.2-3.5-0.1-5.2,0.1c-0.9,0.2-1.7,0.3-2.6,0.6c-0.8,0.3-1.7,0.6-2.4,1c-1.6,0.8-3,1.9-4.2,3.2c-0.6,0.7-1.1,1.4-1.5,2.2
			c-0.4,0.8-0.7,1.7-0.8,2.5c-0.3,1.8,0.1,3.6,0.9,5.1c0.8,1.5,2,2.8,3.4,3.8c2.3,1.5,5.1,2.1,7.8,1.5c0.7-0.1,1.3-0.4,1.9-0.7
			c0.6-0.3,1.2-0.7,1.7-1.1c1-0.9,1.8-2.1,2.1-3.4c0.1-0.3,0.1-0.6,0.2-1c0-0.3,0.1-0.7,0.1-1c0-0.7-0.1-1.4-0.2-2
			c-0.4-1.3-1.1-2.5-2.3-3.2c-0.6-0.4-1.2-0.6-1.9-0.7c-0.7-0.1-1.3-0.1-2,0c-0.6,0.1-1.3,0.3-1.9,0.6c-0.6,0.3-1.1,0.7-1.5,1.3
			c-0.2,0.2-0.3,0.4-0.4,0.7c-0.1,0.2-0.3,0.5-0.3,0.7c0,0,0,0,0,0c0.2-0.7,0.6-1.3,1.1-1.8c0.5-0.5,1.1-0.9,1.8-1.2
			c0.7-0.3,1.4-0.4,2.1-0.5c0.7,0,1.4,0,2.1,0.3c0.7,0.2,1.3,0.6,1.8,1.1s0.9,1.1,1.2,1.7c0.6,1.3,0.7,2.8,0.5,4.2
			c-0.3,1.8-1.4,3.6-3,4.7c-1.6,1.1-3.5,1.5-5.4,1.5s-3.8-0.6-5.4-1.7c-1.6-1.1-2.9-2.5-3.7-4.3c-0.5-1.1-0.8-2.5-0.8-3.9
			c0.1-1.4,0.5-2.8,1.3-4.1c1.6-2.5,4.2-4.4,7.2-5.5c3-0.9,6.3-1.2,9.5-0.7c3.2,0.4,6.2,1.3,9.1,2.3c2.9,1,5.6,2.1,8.2,3
			c1.3,0.5,2.6,0.9,3.8,1.3c1.2,0.4,2.4,0.7,3.5,0.9c2.3,0.4,4.3,0.4,6-0.1s2.9-1.2,3.6-1.9C169.9,21.7,169.6,22,169.5,22.1
			L169.5,22.1z"/>
		<path class="st0" d="M170.1,21.5C170.1,21.5,170.1,21.5,170.1,21.5C170.1,21.5,170.1,21.5,170.1,21.5L170.1,21.5
			c-0.1,0.1-0.4,0.5-0.5,0.5l0,0l0,0C169.6,22,169.9,21.7,170.1,21.5C170,21.6,170,21.5,170.1,21.5z"/>
		<path class="st0" d="M126.1,24.9c0.9-1,2.2-1.7,3.5-1.8c0.7-0.1,1.3,0,2,0.1c0.6,0.1,1.3,0.4,1.8,0.8c0.5,0.4,1,0.9,1.3,1.5
			c0.3,0.6,0.6,1.2,0.7,1.8c0.1,0.6,0.1,1.3,0.1,2c-0.1,0.6-0.2,1.3-0.4,1.9c-0.5,1.2-1.2,2.3-2.3,3c-1,0.8-2.3,1.2-3.6,1.4
			c-2.6,0.3-5.2-0.5-7.2-2.1c-1.2-1-2.2-2.2-2.7-3.7c-0.3-0.7-0.5-1.5-0.5-2.2c0-0.4,0-0.8,0-1.1c0-0.4,0.1-0.8,0.2-1.1
			c0.4-1.5,1.2-2.8,2.3-3.9c1.1-1.1,2.5-2,3.9-2.6c0.7-0.3,1.5-0.6,2.3-0.8c0.4-0.1,0.8-0.1,1.2-0.2s0.8-0.1,1.2-0.2l1.2-0.1
			c0.4,0,0.8,0,1.2,0c0.8,0,1.6,0.1,2.4,0.1c3.2,0.4,6.5,1.3,9.6,2.4c2.6,0.9,5.3,1.9,7.9,2.8c1.3,0.5,2.6,0.9,3.9,1.2
			c1.3,0.4,2.6,0.6,3.8,0.8c2.5,0.3,4.6,0.1,6.2-0.5c1.6-0.5,2.6-1.5,3.2-2.1l0,0c0.1-0.1,0.4-0.4,0.5-0.5c-0.1,0.2-0.3,0.4-0.5,0.6
			c-0.2,0.2-0.4,0.4-0.7,0.7c-0.5,0.4-1.2,0.9-2.1,1.2c-1.7,0.7-4,1-6.6,0.7c-1.4-0.2-2.8-0.5-4.2-0.9c-1.4-0.4-2.8-0.9-4.3-1.4
			c-2.9-1-5.8-2.1-8.6-3c-1.6-0.5-3.1-1-4.7-1.3c-0.8-0.1-1.6-0.4-2.4-0.4c-0.4,0-0.8-0.1-1.2-0.2l-1.2-0.1c-0.4,0-0.8,0-1.2,0
			c-0.4,0-0.8,0-1.2,0c-0.8,0.1-1.6,0.1-2.4,0.3c-0.8,0.1-1.6,0.3-2.3,0.5c-0.8,0.2-1.5,0.6-2.2,0.9c-0.7,0.4-1.3,0.8-2,1.3
			c-0.6,0.5-1.2,1-1.7,1.6s-0.9,1.2-1.2,1.9c-0.2,0.3-0.3,0.7-0.4,1.1c-0.1,0.4-0.2,0.7-0.2,1.1c-0.2,1.5,0.2,3,0.9,4.4
			c0.7,1.3,1.8,2.5,3.1,3.3c2.2,1.4,4.9,2,7.5,1.3c0.6-0.2,1.2-0.4,1.8-0.7c0.6-0.3,1.1-0.7,1.5-1.2c0.4-0.5,0.8-1,1.1-1.6
			c0.3-0.6,0.5-1.2,0.6-1.9c0.1-0.6,0.2-1.3,0.1-2s-0.2-1.3-0.5-1.9c-0.3-0.6-0.7-1.1-1.1-1.6c-0.5-0.5-1.1-0.8-1.7-1
			c-0.6-0.2-1.3-0.3-2-0.3c-0.7,0-1.4,0.2-2,0.4c-0.6,0.3-1.2,0.6-1.7,1.1c-0.5,0.5-0.9,1.1-1.1,1.8c0,0,0,0,0,0
			c0-0.3,0.2-0.5,0.3-0.7C125.8,25.3,125.9,25.1,126.1,24.9z"/>
		<path class="st0" d="M170.1,21.5C170,21.5,170,21.6,170.1,21.5C170.1,21.5,170.1,21.5,170.1,21.5
			C170.1,21.5,170.1,21.5,170.1,21.5z"/>
	</g>
	<g>
		<path class="st0" d="M166.6,26c0,0-0.1,0.1-0.3,0.2s-0.5,0.3-0.8,0.5c-0.6,0.5-1.4,1.2-1.9,2.1c-0.6,0.9-0.9,1.9-1,2.6
			c-0.1,0.8-0.1,1.3-0.1,1.4c0,0.2-0.2,0.4-0.5,0.6c-0.3,0.2-0.7,0.3-1.1,0.2c-0.4,0-0.8-0.1-1.1-0.4c-0.3-0.2-0.4-0.6-0.4-1
			c0-0.2,0.3-1,0.8-1.9c0.5-0.9,1.3-1.9,2.3-2.7c1-0.8,2.1-1.3,2.9-1.5c0.4-0.1,0.8-0.2,1-0.2C166.5,26,166.6,26,166.6,26z"/>
	</g>
	<g>
		<path class="st0" d="M162.4,26.9c0,0-0.2,0-0.5,0c-0.3,0-0.8,0.1-1.3,0.2c-1.1,0.2-2.4,0.7-3.6,1.5c-1.2,0.8-2.2,1.8-2.8,2.6
			c-0.2,0.2-0.3,0.4-0.4,0.6c-0.1,0.2-0.2,0.4-0.3,0.5c-0.2,0.3-0.3,0.5-0.3,0.6c-0.1,0.2-0.2,0.3-0.4,0.3c-0.1,0.1-0.3,0.2-0.5,0.2
			c-0.4,0.1-0.8,0.1-1.2-0.1c-0.4-0.2-0.7-0.5-0.8-0.9c-0.1-0.2-0.1-0.4-0.1-0.6s0.1-0.4,0.2-0.6c0.1-0.1,0.2-0.4,0.6-0.7
			c0.1-0.2,0.3-0.4,0.5-0.6c0.2-0.2,0.4-0.4,0.7-0.6c1-0.9,2.5-1.7,4-2.2c1.5-0.5,3.1-0.6,4.2-0.5c0.6,0,1,0.1,1.3,0.2
			C162.2,26.9,162.4,26.9,162.4,26.9z"/>
	</g>
	<g>
		<path class="st0" d="M156.2,26.8c0,0-0.2,0-0.6-0.1c-0.4,0-1-0.1-1.7,0c-1.4,0.1-3.2,0.5-4.9,1.2c-0.9,0.3-1.8,0.7-2.6,1
			c-0.8,0.3-1.6,0.7-2.1,1c-1.1,0.7-1.5,1.4-1.6,1.5c-0.2,0.3-0.5,0.4-0.8,0.6c-0.3,0.1-0.8,0.3-1.2,0.2c-0.4,0-0.8-0.3-0.9-0.9
			c-0.1-0.5,0-1.2,0.4-1.8c0.1-0.1,0.4-0.5,0.9-0.9c0.5-0.4,1.2-0.9,2.1-1.2c0.8-0.3,1.8-0.5,2.7-0.7s1.9-0.3,2.9-0.5
			c1.9-0.3,3.9-0.4,5.4-0.1c0.7,0.1,1.3,0.3,1.7,0.4C156,26.7,156.2,26.8,156.2,26.8z"/>
	</g>
	<g>
		<path class="st0" d="M120.4,20.2C120.4,20.2,120.4,20.2,120.4,20.2C120.4,20.2,120.4,20.2,120.4,20.2z"/>
		<path class="st0" d="M120.3,20.3c-0.1,0-0.2,0.1-0.4,0.1C120.1,20.4,120.2,20.3,120.3,20.3L120.3,20.3L120.3,20.3L120.3,20.3
			L120.3,20.3C120.4,20.2,120.4,20.2,120.3,20.3C120.4,20.3,120.4,20.3,120.3,20.3C120.4,20.3,120.4,20.3,120.3,20.3L120.3,20.3
			C120.3,20.3,120.3,20.3,120.3,20.3z"/>
		<path class="st0" d="M120.4,20.2L120.4,20.2L120.4,20.2C120.3,20.2,120.4,20.2,120.4,20.2z"/>
		<path class="st0" d="M120.4,20.3C120.4,20.3,120.4,20.3,120.4,20.3C120.4,20.3,120.4,20.3,120.4,20.3L120.4,20.3z"/>
		<path class="st0" d="M120,20.4c-1.2,0.5-2.5,0.6-3.8,0.3c-1.3-0.3-2.6-1.1-3.2-2.4c-0.4-0.8-0.6-1.7-0.6-2.6
			c0.1-0.9,0.3-1.9,1-2.7c1.3-1.6,3.8-2.1,5.6-1c0.8,0.5,1.4,1.2,1.7,2.1c0.1,0.4,0.2,0.9,0.1,1.4c-0.1,0.5-0.3,0.9-0.5,1.2
			c-0.5,0.6-1.2,0.9-1.7,0.9c-0.5,0-0.9-0.2-1-0.4c0.2-0.1,0.5-0.2,0.8-0.4c0.2-0.2,0.5-0.5,0.6-0.9c0.1-0.2,0.1-0.4,0.1-0.5
			c0-0.2-0.1-0.4-0.1-0.6c-0.2-0.4-0.5-0.8-0.9-1c-0.9-0.6-2.4-0.5-3.2,0.3c-0.9,0.8-1.2,2.3-0.8,3.6c0.3,1.1,1.2,2,2.3,2.5
			C117.4,20.7,118.7,20.8,120,20.4z"/>
		<path class="st0" d="M117.5,17.1c0.1,0.2,0.5,0.4,1,0.4c0.5,0,1.2-0.2,1.7-0.9c0.3-0.3,0.5-0.7,0.5-1.2c0.1-0.4,0-0.9-0.1-1.4
			c-0.3-0.9-0.9-1.6-1.7-2.1c-1.9-1.1-4.3-0.6-5.6,1c-0.6,0.8-0.9,1.8-1,2.7c0,0.9,0.2,1.8,0.6,2.6c0.7,1.3,1.9,2.1,3.2,2.4
			c1.3,0.3,2.6,0.2,3.8-0.3c0.1,0,0.2-0.1,0.4-0.1c0,0,0,0,0,0c-1.2,0.6-2.7,0.8-4,0.5c-0.9-0.2-1.8-0.6-2.5-1.3
			c-0.7-0.7-1.2-1.6-1.4-2.6c-0.1-0.6-0.1-1.4,0.1-2.2c0.2-0.8,0.6-1.6,1.3-2.2c1.4-1.3,3.7-1.6,5.4-0.5c0.8,0.5,1.4,1.3,1.7,2.2
			c0.1,0.5,0.1,0.9,0,1.4c-0.1,0.5-0.3,0.9-0.6,1.1c-0.5,0.6-1.2,0.9-1.7,0.9c-0.6,0-1-0.2-1.1-0.5
			C117.4,17.1,117.5,17.1,117.5,17.1L117.5,17.1z"/>
		<path class="st0" d="M117.4,17C117.4,17,117.4,17,117.4,17L117.4,17L117.4,17c0,0,0.1,0,0.2,0l0,0h0
			C117.5,17.1,117.4,17.1,117.4,17L117.4,17z"/>
		<path class="st0" d="M120,20.4c-1.3,0.3-2.6,0.2-3.7-0.3c-1.1-0.5-2-1.4-2.3-2.5c-0.4-1.3-0.1-2.8,0.8-3.6
			c0.8-0.8,2.3-0.9,3.2-0.3c0.4,0.2,0.7,0.6,0.9,1c0.1,0.2,0.1,0.4,0.1,0.6c0,0.1,0,0.3-0.1,0.5c-0.1,0.4-0.4,0.6-0.6,0.8
			c-0.2,0.2-0.5,0.3-0.8,0.4l0,0c0,0-0.1-0.1-0.2-0.1c0.5-0.1,1.2-0.5,1.5-1.2c0.1-0.2,0.1-0.4,0.1-0.5c0-0.2-0.1-0.4-0.2-0.6
			c-0.2-0.4-0.6-0.8-1-1c-1-0.5-2.4-0.3-3.1,0.6c-0.8,0.9-1.1,2.4-0.6,3.6c0.4,1,1.3,1.9,2.5,2.4c1.2,0.4,2.5,0.5,3.8,0h0
			C120.2,20.3,120.1,20.4,120,20.4z"/>
		<path class="st0" d="M117.4,17L117.4,17C117.4,17,117.4,17,117.4,17C117.4,17,117.4,17,117.4,17z"/>
	</g>
	<path class="st0" d="M190.1,26.1c-2,3-6.1,2.2-6.9-0.3c-0.8-2.2,0.6-4.2,2.4-4.1c1.2,0,1.7,1.2,1,1.8c-0.3,0.3-1.3,0-1.4,0.5
		c-0.4,1.4,1.8,2.2,3.1,0.6c2-2.4,1.4-9.8-6.1-8.8C189.2,14.1,193.4,21.3,190.1,26.1z"/>
	<path class="st0" d="M208.2,20.2c4.1-2.3,4-7.5,0.9-10c-2.6-2-5.7-1.7-7.8,0.6c-1.7,1.9-1.8,4.4,0,6.1c1.6,1.4,5,1.4,5.5-1.3
		c0.4-2-2.1-3.4-2.8-2c-0.8,1.3,2.1,0.9,1.3,2c-1.2,1.7-4.9-0.6-3.4-3.8c1.3-2.6,4.9-3.2,6.9-1.2c2.4,2.4,2.2,6.5-1.5,8.7
		c-8.7,5.2-19.6-14.3-33.8,0.2C187.2,0.6,197.7,26.1,208.2,20.2z"/>
	<path class="st0" d="M207,25.8c-1.5-1.2-5.8,1.4-10.1-4.8C201.5,31,209.2,27.5,207,25.8z"/>
	<g>
		<path class="st0" d="M162.8,19.5C162.8,19.5,162.8,19.5,162.8,19.5C162.8,19.5,162.8,19.5,162.8,19.5z"/>
		<path class="st0" d="M162.9,19.6c0.1,0,0.3,0.1,0.4,0.1C163.2,19.6,163,19.6,162.9,19.6L162.9,19.6L162.9,19.6L162.9,19.6
			L162.9,19.6c-0.1-0.1-0.1-0.1-0.1,0S162.8,19.6,162.9,19.6C162.8,19.6,162.8,19.6,162.9,19.6L162.9,19.6
			C162.9,19.6,162.9,19.6,162.9,19.6z"/>
		<path class="st0" d="M162.8,19.5L162.8,19.5L162.8,19.5C162.9,19.5,162.8,19.5,162.8,19.5z"/>
		<path class="st0" d="M162.8,19.6C162.8,19.6,162.8,19.6,162.8,19.6C162.8,19.6,162.8,19.6,162.8,19.6L162.8,19.6z"/>
		<path class="st0" d="M163.3,19.7c1.5,0.4,3.1,0.4,4.6-0.1c1.5-0.5,2.9-1.7,3.5-3.3c0.4-1,0.5-2.1,0.3-3.2
			c-0.2-1.1-0.7-2.2-1.5-3.1c-1.8-1.8-4.7-2-6.8-0.5c-0.9,0.7-1.5,1.6-1.7,2.7c-0.1,0.5-0.1,1.1,0,1.6c0.1,0.6,0.4,1,0.8,1.4
			c0.7,0.7,1.5,0.9,2.1,0.8c0.6,0,1-0.4,1.1-0.6c-0.3-0.1-0.6-0.2-0.9-0.4c-0.3-0.2-0.6-0.5-0.9-0.9c-0.1-0.2-0.2-0.4-0.2-0.6
			c0-0.2,0-0.4,0.1-0.7c0.1-0.5,0.5-0.9,0.9-1.3c1-0.8,2.8-0.9,3.9-0.1c1.1,0.8,1.8,2.6,1.4,4.2c-0.2,1.3-1.1,2.5-2.4,3.2
			C166.5,19.6,164.9,19.9,163.3,19.7z"/>
		<path class="st0" d="M165.8,15.4c-0.1,0.3-0.5,0.6-1.1,0.6c-0.6,0-1.4-0.1-2.1-0.8c-0.4-0.3-0.7-0.8-0.8-1.4
			c-0.1-0.5-0.1-1.1,0-1.6c0.2-1.1,0.9-2,1.7-2.7c2.1-1.5,5.1-1.3,6.8,0.5c0.9,0.9,1.3,2,1.5,3.1c0.2,1.1,0.1,2.2-0.3,3.2
			c-0.6,1.6-2,2.8-3.5,3.3c-1.5,0.5-3.1,0.6-4.6,0.1c-0.1,0-0.3-0.1-0.4-0.1c0,0,0,0,0,0c1.5,0.5,3.3,0.6,4.9,0.1
			c1.1-0.3,2.1-1,2.8-1.9c0.8-0.9,1.2-2.1,1.3-3.3c0.1-0.8,0-1.7-0.3-2.6c-0.3-0.9-0.9-1.8-1.8-2.5c-1.8-1.4-4.6-1.4-6.4,0.1
			c-0.9,0.7-1.5,1.8-1.7,2.9c-0.1,0.6,0,1.1,0.1,1.6c0.2,0.5,0.5,1,0.8,1.3c0.7,0.6,1.5,0.9,2.2,0.8c0.7-0.1,1.1-0.4,1.2-0.8
			C165.9,15.4,165.8,15.4,165.8,15.4L165.8,15.4z"/>
		<path class="st0" d="M166,15.3C166,15.3,166,15.3,166,15.3L166,15.3L166,15.3c-0.1,0-0.2,0-0.2,0.1l0,0h0
			C165.8,15.4,165.9,15.4,166,15.3L166,15.3z"/>
		<path class="st0" d="M163.3,19.7c1.6,0.2,3.1-0.1,4.4-0.8s2.2-1.9,2.4-3.2c0.3-1.6-0.3-3.4-1.4-4.2c-1.1-0.9-2.9-0.8-3.9,0.1
			c-0.4,0.3-0.8,0.8-0.9,1.3c-0.1,0.2-0.1,0.5-0.1,0.7c0,0.2,0.1,0.4,0.2,0.6c0.2,0.4,0.5,0.7,0.9,0.9c0.3,0.2,0.6,0.3,0.9,0.4l0,0
			c0,0,0.1-0.1,0.2-0.1c-0.6-0.1-1.4-0.4-1.9-1.3c-0.1-0.2-0.2-0.4-0.2-0.6c0-0.2,0-0.5,0.1-0.7c0.2-0.5,0.6-1,1.1-1.3
			c1.1-0.7,2.8-0.7,3.8,0.3c1.1,0.9,1.6,2.7,1.2,4.2c-0.3,1.3-1.3,2.5-2.6,3.1c-1.3,0.7-2.9,0.9-4.5,0.5h0
			C163,19.6,163.2,19.6,163.3,19.7z"/>
		<path class="st0" d="M166,15.3L166,15.3C166,15.3,166,15.3,166,15.3C166,15.3,166,15.3,166,15.3z"/>
	</g>
	<g>
		<path class="st0" d="M175.8,12.6C175.8,12.6,175.8,12.6,175.8,12.6C175.8,12.6,175.8,12.6,175.8,12.6z"/>
		<path class="st0" d="M175.9,12.6L175.9,12.6L175.9,12.6L175.9,12.6L175.9,12.6C175.8,12.6,175.8,12.6,175.9,12.6L175.9,12.6
			C175.8,12.6,175.8,12.7,175.9,12.6L175.9,12.6C175.8,12.6,175.8,12.6,175.9,12.6L175.9,12.6L175.9,12.6z"/>
		<path class="st0" d="M175.8,12.6C175.8,12.6,175.8,12.6,175.8,12.6L175.8,12.6C175.8,12.6,175.8,12.6,175.8,12.6z"/>
		<path class="st0" d="M175.8,12.6C175.8,12.6,175.8,12.6,175.8,12.6C175.8,12.6,175.8,12.6,175.8,12.6L175.8,12.6z"/>
		<path class="st0" d="M175.9,12.6c0.6-0.4,1.1-0.9,1.5-1.5c0.5-0.8,0.8-1.9,0.5-2.9c-0.1-0.4-0.3-0.8-0.7-1.1
			c-0.3-0.3-0.7-0.3-1-0.2c-0.2,0.3-0.3,0.6-0.3,0.8c0,0.3,0,0.6,0.1,0.8c0.1,0.6,0.3,1.3,0.3,2.1C176.4,11.2,176.3,11.9,175.9,12.6
			z"/>
		<path class="st0" d="M176.3,6.8c0.3-0.1,0.7-0.1,1,0.2c0.3,0.3,0.6,0.7,0.7,1.1c0.3,1,0,2.1-0.5,2.9c-0.4,0.7-1,1.2-1.5,1.5
			l-0.1,0.1l0,0c0.3-0.2,0.6-0.4,0.9-0.7c0.4-0.4,0.7-0.8,0.9-1.3c0.3-0.6,0.6-1.7,0.3-2.6C177.8,7.1,177,6.5,176.3,6.8
			C176.3,6.8,176.3,6.8,176.3,6.8L176.3,6.8z"/>
		<path class="st0" d="M176.3,6.8L176.3,6.8L176.3,6.8L176.3,6.8C176.3,6.8,176.3,6.8,176.3,6.8L176.3,6.8L176.3,6.8
			C176.3,6.8,176.3,6.8,176.3,6.8L176.3,6.8z"/>
		<path class="st0" d="M175.9,12.6c0.4-0.6,0.5-1.3,0.5-1.9c0-0.8-0.2-1.5-0.3-2.1C176,8.3,175.9,8,176,7.7c0-0.3,0.1-0.6,0.3-0.8h0
			c0,0,0,0,0,0c-0.2,0.3-0.3,0.6-0.3,0.9c0,0.3,0,0.6,0.1,0.9c0.1,0.6,0.3,1.3,0.3,2.1C176.3,11.3,176.2,12,175.9,12.6L175.9,12.6
			L175.9,12.6z"/>
		<path class="st0" d="M176.3,6.8L176.3,6.8C176.3,6.8,176.3,6.8,176.3,6.8L176.3,6.8z"/>
	</g>
	<g>
		<path class="st0" d="M144.4,15.1C144.4,15.1,144.4,15.1,144.4,15.1C144.4,15.1,144.4,15.1,144.4,15.1z"/>
		<path class="st0" d="M144.4,15.2l-0.2-0.1L144.4,15.2L144.4,15.2L144.4,15.2L144.4,15.2L144.4,15.2
			C144.4,15.1,144.4,15.2,144.4,15.2C144.4,15.2,144.4,15.2,144.4,15.2C144.4,15.2,144.4,15.2,144.4,15.2L144.4,15.2L144.4,15.2z"/>
		<path class="st0" d="M144.4,15.1L144.4,15.1L144.4,15.1C144.4,15.1,144.4,15.1,144.4,15.1z"/>
		<path class="st0" d="M144.4,15.2L144.4,15.2C144.4,15.2,144.4,15.2,144.4,15.2L144.4,15.2z"/>
		<path class="st0" d="M144.2,15.1c-1.2-0.2-2.4-0.4-3.5-0.9c-1.4-0.6-2.9-1.5-3.9-2.8c-0.4-0.5-0.8-1.2-0.9-1.8
			c-0.1-0.6,0-1.1,0.2-1.5c0.4,0,0.9,0.1,1.3,0.5c0.4,0.3,0.8,0.8,1.2,1.2c0.9,1,1.7,2.1,2.7,3.1C142.2,13.7,143.1,14.5,144.2,15.1z
			"/>
		<path class="st0" d="M136.2,8.1c-0.3,0.4-0.4,0.9-0.2,1.5c0.1,0.6,0.5,1.2,0.9,1.8c1,1.3,2.4,2.2,3.9,2.8c1.1,0.5,2.3,0.7,3.5,0.9
			l0.2,0.1h0c-0.6-0.1-1.3-0.2-1.9-0.4c-0.8-0.2-1.6-0.5-2.4-0.9c-1-0.5-2.4-1.4-3.3-2.6C135.8,10.2,135.5,8.9,136.2,8.1
			C136.1,8.1,136.1,8.1,136.2,8.1L136.2,8.1z"/>
		<path class="st0" d="M136.1,8.1L136.1,8.1L136.1,8.1L136.1,8.1C136.2,8.1,136.2,8.1,136.1,8.1L136.1,8.1L136.1,8.1
			C136.1,8.1,136.1,8.1,136.1,8.1C136.1,8.1,136.1,8.1,136.1,8.1z"/>
		<path class="st0" d="M144.2,15.1c-1.1-0.6-2-1.3-2.8-2.1c-1-1-1.9-2.1-2.7-3.1c-0.4-0.4-0.8-0.9-1.2-1.2c-0.4-0.3-0.9-0.5-1.3-0.5
			l0,0c0,0,0-0.1,0-0.1c0.5,0,0.9,0.2,1.4,0.5c0.5,0.4,0.9,0.8,1.3,1.3c0.9,1,1.7,2.1,2.7,3.1c0.8,0.8,1.8,1.6,2.9,2.2l0,0
			L144.2,15.1z"/>
		<path class="st0" d="M136.1,8.1C136.1,8.1,136.1,8.1,136.1,8.1C136.1,8.1,136.1,8.1,136.1,8.1L136.1,8.1z"/>
	</g>
	<g>
		<path class="st0" d="M179.1,10.1C179.1,10.1,179.1,10.1,179.1,10.1C179.1,10.1,179.1,10.1,179.1,10.1z"/>
		<path class="st0" d="M179.1,10.1l0.1,0L179.1,10.1L179.1,10.1L179.1,10.1L179.1,10.1L179.1,10.1C179.1,10.2,179.1,10.1,179.1,10.1
			C179.1,10.1,179.1,10.1,179.1,10.1L179.1,10.1L179.1,10.1L179.1,10.1z"/>
		<path class="st0" d="M179.1,10.1L179.1,10.1L179.1,10.1C179.1,10.1,179.1,10.1,179.1,10.1z"/>
		<path class="st0" d="M179.1,10.1L179.1,10.1C179.1,10.1,179.1,10.1,179.1,10.1L179.1,10.1z"/>
		<path class="st0" d="M179.2,10.1c0.9-0.4,1.7-1.1,2.4-1.7c0.9-0.8,1.7-1.7,2.4-2.6c0.3-0.4,0.7-0.8,1.1-1c0.4-0.3,0.8-0.4,1.1-0.4
			c0.2,0.3,0.3,0.7,0.1,1.2c-0.1,0.5-0.4,1-0.8,1.4c-0.9,1.1-2.1,1.8-3.3,2.3C181.3,9.7,180.3,9.9,179.2,10.1z"/>
		<path class="st0" d="M186.2,4.3c-0.4,0-0.7,0.1-1.1,0.4c-0.4,0.3-0.7,0.7-1.1,1c-0.8,0.9-1.6,1.8-2.4,2.6
			c-0.7,0.6-1.5,1.2-2.4,1.7l-0.1,0l0,0c0.5-0.2,0.9-0.5,1.3-0.8c0.6-0.4,1.1-0.8,1.5-1.3c0.6-0.6,1.4-1.5,2.1-2.3
			C184.8,4.9,185.4,4.3,186.2,4.3C186.3,4.3,186.2,4.3,186.2,4.3L186.2,4.3z"/>
		<path class="st0" d="M186.3,4.3L186.3,4.3L186.3,4.3L186.3,4.3C186.3,4.3,186.3,4.4,186.3,4.3L186.3,4.3L186.3,4.3
			C186.2,4.3,186.3,4.3,186.3,4.3C186.3,4.3,186.3,4.3,186.3,4.3z"/>
		<path class="st0" d="M179.2,10.1c1-0.2,2.1-0.4,3-0.8c1.2-0.5,2.4-1.2,3.3-2.3c0.4-0.4,0.7-0.9,0.8-1.4c0.1-0.5,0.1-0.9-0.1-1.2h0
			c0,0,0,0,0-0.1c0.2,0.3,0.3,0.7,0.1,1.3c-0.2,0.6-0.5,1.1-0.9,1.6c-0.9,1-2.1,1.8-3.3,2.2c-1,0.4-2.1,0.6-3.1,0.8l0,0L179.2,10.1z
			"/>
		<path class="st0" d="M186.3,4.3L186.3,4.3C186.3,4.3,186.3,4.3,186.3,4.3L186.3,4.3z"/>
	</g>
	<g>
		<path class="st0" d="M183.2,10C183.2,10,183.2,10,183.2,10C183.2,10,183.2,10,183.2,10z"/>
		<path class="st0" d="M183.3,9.9l0.2,0L183.3,9.9L183.3,9.9L183.3,9.9L183.3,9.9L183.3,9.9C183.2,10,183.2,10,183.3,9.9
			C183.2,9.9,183.2,9.9,183.3,9.9L183.3,9.9L183.3,9.9C183.3,9.9,183.3,9.9,183.3,9.9z"/>
		<path class="st0" d="M183.2,10L183.2,10L183.2,10C183.3,10,183.2,10,183.2,10z"/>
		<path class="st0" d="M183.2,9.9L183.2,9.9C183.2,9.9,183.2,9.9,183.2,9.9L183.2,9.9z"/>
		<path class="st0" d="M183.5,9.9c1.3-0.5,2.7-0.9,4.2-1.1c1.8-0.2,3.8,0,5.5,0.8c0.8,0.3,1.5,0.8,2,1.3c0.5,0.5,0.7,1,0.7,1.4
			c-0.4,0.1-0.9,0.1-1.5-0.1c-0.6-0.2-1.3-0.5-1.9-0.7c-1.6-0.6-3.2-1.2-4.8-1.4C186.3,9.7,184.9,9.7,183.5,9.9z"/>
		<path class="st0" d="M195.9,12.3c0-0.4-0.2-0.9-0.7-1.4c-0.5-0.5-1.2-0.9-2-1.3c-1.8-0.8-3.8-0.9-5.5-0.8
			c-1.5,0.1-2.8,0.5-4.2,1.1l-0.2,0h0c0.7-0.3,1.4-0.6,2.1-0.7c1-0.2,2-0.4,3-0.4c1.3-0.1,3.2,0.1,4.9,0.8
			C194.9,10.3,196,11.4,195.9,12.3C196,12.3,195.9,12.3,195.9,12.3L195.9,12.3z"/>
		<path class="st0" d="M196,12.3L196,12.3L196,12.3L196,12.3C196,12.3,195.9,12.3,196,12.3L196,12.3L196,12.3
			C195.9,12.3,196,12.3,196,12.3L196,12.3z"/>
		<path class="st0" d="M183.5,9.9c1.4-0.2,2.9-0.2,4.2,0.1c1.6,0.3,3.3,0.8,4.8,1.4c0.6,0.3,1.3,0.5,1.9,0.7
			c0.6,0.2,1.1,0.2,1.5,0.1v0c0,0,0.1,0.1,0.1,0.1c-0.4,0.1-0.9,0.1-1.6-0.1c-0.7-0.2-1.4-0.5-2.1-0.8c-1.5-0.6-3.1-1.1-4.8-1.4
			c-1.4-0.2-2.8-0.3-4.3,0l0,0L183.5,9.9z"/>
		<path class="st0" d="M196,12.3L196,12.3L196,12.3L196,12.3z"/>
	</g>
	<g>
		<path class="st0" d="M159.4,20.9C159.4,21,159.5,20.9,159.4,20.9C159.5,20.9,159.4,20.9,159.4,20.9z"/>
		<path class="st0" d="M159.4,20.8l-0.4-0.3L159.4,20.8L159.4,20.8L159.4,20.8l0,0.1c0,0,0,0,0,0c0,0,0,0,0,0S159.4,20.9,159.4,20.8
			C159.4,20.9,159.4,20.9,159.4,20.8L159.4,20.8C159.4,20.8,159.4,20.8,159.4,20.8z"/>
		<path class="st0" d="M159.4,20.9L159.4,20.9L159.4,20.9C159.4,20.9,159.4,20.9,159.4,20.9z"/>
		<path class="st0" d="M159.4,20.9C159.4,20.9,159.4,20.9,159.4,20.9C159.4,20.9,159.4,20.9,159.4,20.9L159.4,20.9z"/>
		<path class="st0" d="M159,20.5c-2.3-2.4-3.2-5.6-2.9-8.7c0.2-1.9,0.9-3.7,2.1-5.2c1.1-1.5,2.7-2.7,4.4-3.5
			c1.4-0.7,3.1-1.1,4.5-1.2c1.4-0.1,2.4,0,3,0c-0.2-0.6-1.2-1.5-2.9-1.8c-1.7-0.3-3.7,0-5.5,0.7c-2.1,0.9-3.9,2.5-5.2,4.4
			c-1.2,1.9-1.9,4.2-1.8,6.3C154.8,15.1,156.4,18.4,159,20.5z"/>
		<path class="st0" d="M170,2c-0.7,0-1.7-0.1-3,0c-1.4,0.1-3,0.5-4.5,1.2c-1.7,0.8-3.2,2-4.4,3.5c-1.1,1.5-1.9,3.3-2.1,5.2
			c-0.3,3,0.6,6.3,2.9,8.7l0.4,0.3c0,0,0,0,0,0c-1.2-1.2-2.1-2.7-2.7-4.2c-0.7-2.1-0.8-4.3-0.3-6.3c0.3-1.3,1-2.8,2.1-4
			s2.6-2.4,4.1-3.1c1.5-0.7,3.1-1,4.4-1.1c1.3-0.1,2.4,0.1,3.1,0C170.2,2.1,170.1,2.1,170,2L170,2z"/>
		<path class="st0" d="M170.2,2.2C170.2,2.2,170.2,2.1,170.2,2.2C170.2,2.1,170.2,2.1,170.2,2.2L170.2,2.2c0-0.1-0.1-0.1-0.2-0.1h0
			l0,0C170.1,2.1,170.2,2.1,170.2,2.2L170.2,2.2z"/>
		<path class="st0" d="M159,20.5c-2.6-2.1-4.2-5.4-4.3-8.9c-0.1-2.1,0.6-4.4,1.8-6.3c1.2-1.9,3.1-3.5,5.2-4.4
			c1.8-0.8,3.8-1.1,5.5-0.7c1.7,0.3,2.6,1.2,2.9,1.8h0c0,0,0.2,0.1,0.2,0.1c-0.2-0.6-1.2-1.6-3-2c-1.9-0.4-4.1,0-6,0.9
			c-2.1,1-3.8,2.6-5,4.6c-1.2,1.9-1.7,4.2-1.6,6.3c0.2,3.6,2,6.9,4.7,8.9l0,0L159,20.5z"/>
		<path class="st0" d="M170.2,2.2L170.2,2.2C170.2,2.2,170.2,2.2,170.2,2.2C170.2,2.1,170.2,2.2,170.2,2.2z"/>
	</g>
	<g>
		<path class="st0" d="M155.4,59.5C155.4,59.5,155.4,59.5,155.4,59.5C155.4,59.5,155.4,59.5,155.4,59.5z"/>
		<path class="st0" d="M155.5,59.5c0.1,0,0.2,0,0.4,0C155.7,59.5,155.6,59.5,155.5,59.5L155.5,59.5L155.5,59.5L155.5,59.5
			L155.5,59.5c-0.1-0.1-0.1,0-0.1,0S155.4,59.5,155.5,59.5L155.5,59.5L155.5,59.5C155.5,59.5,155.5,59.5,155.5,59.5z"/>
		<path class="st0" d="M155.4,59.5L155.4,59.5L155.4,59.5C155.4,59.5,155.4,59.5,155.4,59.5z"/>
		<path class="st0" d="M155.4,59.5L155.4,59.5C155.4,59.5,155.4,59.5,155.4,59.5L155.4,59.5z"/>
		<path class="st0" d="M155.8,59.5c1.2,0,2.4-0.4,3.4-1.2c1-0.8,1.7-2,1.9-3.3c0.3-1.6-0.1-3.5-1.3-4.9c-0.6-0.7-1.5-1.3-2.5-1.5
			c-1-0.2-2.1,0-3,0.5c-0.8,0.4-1.4,1.2-1.7,2.1c-0.3,1,0,1.9,0.4,2.5c0.4,0.6,1,1,1.4,1.1c0.5,0.1,0.9,0,1.1-0.2
			c-0.3-0.4-0.7-1-0.8-1.7c-0.1-0.8,0.1-1.3,0.8-1.7c0.8-0.5,1.9-0.5,2.8,0.3c0.9,0.7,1.5,1.9,1.5,3.2c0,1-0.3,2.2-0.9,3
			C158.1,58.6,157.1,59.3,155.8,59.5z"/>
		<path class="st0" d="M155.6,54.6c-0.2,0.2-0.6,0.3-1.1,0.2c-0.5-0.1-1-0.5-1.4-1.1c-0.4-0.6-0.6-1.5-0.4-2.5
			c0.3-0.9,0.9-1.7,1.7-2.1c0.9-0.5,2-0.7,3-0.5c1,0.2,1.9,0.8,2.5,1.5c1.2,1.4,1.6,3.3,1.3,4.9c-0.2,1.3-0.9,2.5-1.9,3.3
			c-1,0.8-2.2,1.2-3.4,1.2c-0.1,0-0.2,0-0.4,0c0,0,0,0,0,0c1.3,0.1,2.6-0.3,3.7-1.1c1.4-1.1,2.3-2.9,2.2-4.8c0-1.2-0.5-2.8-1.8-4
			c-0.6-0.6-1.5-1-2.5-1.2c-1-0.1-1.9,0.1-2.8,0.6c-0.8,0.5-1.5,1.3-1.7,2.3c-0.2,1,0.1,1.8,0.5,2.4c0.4,0.6,1,1,1.5,1.1
			s1,0,1.2-0.2C155.7,54.7,155.6,54.7,155.6,54.6L155.6,54.6z"/>
		<path class="st0" d="M155.7,54.7L155.7,54.7L155.7,54.7L155.7,54.7c0,0-0.1,0-0.2,0l0,0l0,0C155.6,54.7,155.7,54.7,155.7,54.7
			L155.7,54.7z"/>
		<path class="st0" d="M155.8,59.5c1.2-0.2,2.3-0.9,3-1.7c0.7-0.9,1-2,0.9-3c0-1.3-0.6-2.5-1.5-3.2c-0.9-0.7-1.9-0.8-2.8-0.3
			c-0.6,0.4-0.9,0.9-0.8,1.7c0.1,0.7,0.5,1.2,0.8,1.7l0,0c0,0,0.1,0,0.1,0c-0.4-0.4-0.8-0.9-0.9-1.7c-0.1-0.4,0-0.8,0.1-1
			c0.1-0.3,0.4-0.5,0.8-0.7c0.4-0.2,0.9-0.3,1.3-0.2c0.5,0.1,0.9,0.3,1.4,0.7c0.8,0.7,1.4,1.9,1.3,3.2c0,1.1-0.4,2.2-1.1,3
			c-0.8,0.9-1.9,1.5-3.1,1.6h0C155.6,59.5,155.7,59.5,155.8,59.5z"/>
		<path class="st0" d="M155.7,54.7L155.7,54.7C155.7,54.7,155.7,54.7,155.7,54.7L155.7,54.7z"/>
	</g>
	<g>
		<path class="st0" d="M136,15.3C136,15.3,136.1,15.3,136,15.3C136.1,15.3,136.1,15.3,136,15.3z"/>
		<path class="st0" d="M136,15.2l-0.2,0L136,15.2L136,15.2L136,15.2L136,15.2L136,15.2C136,15.3,136.1,15.3,136,15.2
			C136.1,15.3,136.1,15.3,136,15.2L136,15.2L136,15.2L136,15.2z"/>
		<path class="st0" d="M136,15.3L136,15.3L136,15.3C136,15.3,136,15.3,136,15.3z"/>
		<path class="st0" d="M136,15.2L136,15.2C136,15.2,136,15.2,136,15.2L136,15.2z"/>
		<path class="st0" d="M135.8,15.2c-1.1-0.6-2-1.4-2.8-2.2c-1-1-1.9-2.1-2.8-3.2c-0.4-0.5-0.8-0.9-1.2-1.3c-0.4-0.3-0.9-0.5-1.4-0.5
			c-0.2,0.4-0.4,0.9-0.2,1.5c0.1,0.6,0.5,1.2,0.9,1.8c1,1.3,2.5,2.3,3.9,2.9C133.4,14.7,134.6,15,135.8,15.2z"/>
		<path class="st0" d="M127.6,8c0.4,0,0.9,0.2,1.4,0.5c0.5,0.4,0.9,0.8,1.2,1.3c0.9,1.1,1.8,2.2,2.8,3.2c0.8,0.8,1.7,1.6,2.8,2.2
			l0.2,0h0c-0.6-0.3-1.1-0.6-1.6-1c-0.6-0.5-1.2-1.1-1.8-1.6c-0.7-0.7-1.6-1.9-2.4-2.8C129.4,8.8,128.7,7.9,127.6,8
			C127.6,7.9,127.7,8,127.6,8L127.6,8z"/>
		<path class="st0" d="M127.6,7.9L127.6,7.9L127.6,7.9L127.6,7.9C127.6,8,127.6,8,127.6,7.9L127.6,7.9L127.6,7.9
			C127.7,8,127.6,8,127.6,7.9C127.6,7.9,127.6,7.9,127.6,7.9z"/>
		<path class="st0" d="M135.8,15.2c-1.2-0.2-2.5-0.5-3.6-1c-1.4-0.6-2.9-1.6-3.9-2.9c-0.4-0.5-0.8-1.2-0.9-1.8
			c-0.1-0.6,0-1.1,0.2-1.5h0c0,0-0.1-0.1,0-0.1c-0.3,0.4-0.4,0.9-0.2,1.5c0.2,0.7,0.6,1.4,1,1.9c1,1.3,2.5,2.2,3.9,2.8
			c1.2,0.5,2.5,0.8,3.7,1l0,0L135.8,15.2z"/>
		<path class="st0" d="M127.6,7.9L127.6,7.9C127.6,7.9,127.6,7.9,127.6,7.9L127.6,7.9z"/>
	</g>
	<g>
		<path class="st0" d="M163.8,54.4C163.8,54.4,163.8,54.4,163.8,54.4C163.8,54.4,163.8,54.4,163.8,54.4z"/>
		<path class="st0" d="M163.9,54.4l0.1-0.1L163.9,54.4L163.9,54.4L163.9,54.4C163.8,54.3,163.8,54.3,163.9,54.4L163.9,54.4
			C163.8,54.4,163.8,54.4,163.9,54.4C163.8,54.4,163.8,54.4,163.9,54.4C163.9,54.4,163.9,54.4,163.9,54.4L163.9,54.4L163.9,54.4z"/>
		<path class="st0" d="M163.8,54.3L163.8,54.3L163.8,54.3C163.8,54.3,163.8,54.3,163.8,54.3z"/>
		<path class="st0" d="M163.9,54.4C163.9,54.4,163.9,54.4,163.9,54.4C163.9,54.4,163.9,54.4,163.9,54.4L163.9,54.4z"/>
		<path class="st0" d="M164,54.2c0.9-0.6,2-1,3-1.1c1.3-0.2,2.5-0.2,3.8-0.2c0.5,0,1.1,0,1.6,0c0.5-0.1,0.9-0.3,1.2-0.6
			c0-0.4-0.3-0.9-0.8-1.2c-0.5-0.3-1.2-0.5-1.9-0.6c-1.6-0.1-3.2,0.4-4.4,1.2C165.5,52.4,164.7,53.3,164,54.2z"/>
		<path class="st0" d="M173.6,52.3c-0.3,0.3-0.8,0.5-1.2,0.6c-0.5,0.1-1.1,0.1-1.6,0c-1.2,0-2.5-0.1-3.8,0.2c-1,0.2-2.1,0.5-3,1.1
			l-0.1,0.1l0,0c0.5-0.3,1-0.6,1.5-0.8c0.7-0.2,1.4-0.4,2.1-0.5c0.9-0.1,2.2-0.1,3.2-0.1C171.9,53,172.9,53.1,173.6,52.3
			C173.6,52.4,173.6,52.4,173.6,52.3L173.6,52.3z"/>
		<path class="st0" d="M173.6,52.3L173.6,52.3L173.6,52.3L173.6,52.3C173.6,52.3,173.6,52.3,173.6,52.3L173.6,52.3L173.6,52.3
			C173.6,52.4,173.6,52.4,173.6,52.3C173.6,52.4,173.6,52.3,173.6,52.3z"/>
		<path class="st0" d="M164,54.2c0.7-0.9,1.5-1.8,2.5-2.5c1.2-0.8,2.8-1.4,4.4-1.2c0.7,0,1.4,0.2,1.9,0.6c0.5,0.3,0.7,0.8,0.8,1.2
			l0,0c0,0,0.1,0,0.1,0c0-0.4-0.3-0.9-0.8-1.3c-0.6-0.4-1.3-0.6-2-0.6c-1.6-0.1-3.2,0.5-4.4,1.3c-1.1,0.7-1.9,1.6-2.6,2.6l0,0
			L164,54.2z"/>
		<path class="st0" d="M173.6,52.3C173.6,52.3,173.6,52.4,173.6,52.3C173.6,52.4,173.6,52.4,173.6,52.3L173.6,52.3z"/>
	</g>
	<g id="XMLID_2775_">
		<path id="XMLID_2780_" class="st0" d="M307.1,23.4c0,0,0.1-0.1,0.3-0.2c0.2-0.1,0.5-0.3,0.9-0.5c0.8-0.4,2-1,3.6-1.3
			c1.6-0.4,3.7-0.5,6-0.3c2.4,0.2,4.9,0.9,7.7,1.7c2.7,0.8,5.6,1.9,8.7,2.6c3.1,0.7,6.5,1.2,10,1.3c3.5,0.2,7.1,0.1,10.9,0
			c3.7-0.1,7.5-0.2,11.3-0.2c3.8,0,7.6,0,11.3,0.1c3.7,0,7.4,0.1,11,0.1c7.1,0.1,13.7,0.2,19.4,0.3c5.7,0.1,10.4,0.2,13.7,0.3
			c3.3,0.1,5.2,0.2,5.2,0.2s-1.9,0.1-5.2,0.2c-3.3,0.1-8,0.2-13.7,0.3c-5.7,0.1-12.3,0.2-19.4,0.3c-3.5,0-7.2,0.1-11,0.1
			c-3.7,0-7.5,0-11.3,0.1c-7.5,0-15.1,0.6-22.3,0.2c-3.6-0.2-7.1-0.7-10.3-1.6c-3.2-0.8-6.1-2-8.7-3c-2.6-1-5.1-1.7-7.4-2.1
			c-2.2-0.4-4.2-0.4-5.9-0.1c-1.6,0.2-2.9,0.7-3.7,1c-0.4,0.2-0.7,0.3-0.9,0.4C307.2,23.4,307.1,23.4,307.1,23.4z"/>
		<path id="XMLID_2776_" class="st0" d="M318.1,26c3.3,0.9,3.4,2.7,3.4,2.7s-1,1.6-4.3,0.7s-5.5-3.3-5.5-3.3S314.9,25.1,318.1,26z"
			/>
	</g>
	<g id="XMLID_1_">
		<path id="XMLID_3_" class="st0" d="M120,23.4c0,0-0.1-0.1-0.3-0.2c-0.2-0.1-0.5-0.3-0.9-0.5c-0.8-0.4-2-1-3.6-1.3
			c-1.6-0.4-3.7-0.5-6.1-0.3c-2.3,0.2-4.9,0.9-7.7,1.7c-2.7,0.8-5.6,1.9-8.7,2.6c-3.1,0.7-6.5,1.2-10,1.3c-3.5,0.2-7.2,0.1-10.9,0
			c-3.7-0.1-7.5-0.2-11.3-0.2c-3.8,0-7.6,0-11.3,0.1c-3.7,0-7.4,0.1-11,0.1c-7.1,0.1-13.7,0.2-19.4,0.3C13.3,27,8.5,27.1,5.2,27.2
			C1.9,27.3,0,27.4,0,27.4s1.9,0.1,5.2,0.2c3.3,0.1,8.1,0.2,13.7,0.3c5.7,0.1,12.3,0.2,19.4,0.3c3.5,0,7.2,0.1,11,0.1
			c3.7,0,7.5,0,11.3,0.1c7.5,0,15.1,0.6,22.3,0.2c3.6-0.2,7.1-0.7,10.3-1.6c3.2-0.8,6.1-2,8.7-3c2.7-1,5.1-1.7,7.3-2.1
			c2.2-0.4,4.2-0.4,5.9-0.1c1.6,0.2,2.8,0.7,3.7,1c0.4,0.2,0.7,0.3,0.9,0.4C119.9,23.4,120,23.4,120,23.4z"/>
		<path id="XMLID_2_" class="st0" d="M109,26c-3.3,0.9-3.3,2.7-3.3,2.7s1,1.6,4.3,0.7s5.5-3.3,5.5-3.3S112.3,25.1,109,26z"/>
	</g>
</g>
</svg>
