<?xml version="1.0" encoding="utf-8"?>
<!-- Generator: Adobe Illustrator 27.0.0, SVG Export Plug-In . SVG Version: 6.00 Build 0)  -->
<svg version="1.1" id="图层_1" xmlns="http://www.w3.org/2000/svg" xmlns:xlink="http://www.w3.org/1999/xlink" x="0px" y="0px"
	 viewBox="0 0 427.16 64.42" style="enable-background:new 0 0 427.16 64.42;" xml:space="preserve">
<style type="text/css">
	.st0{fill:#946134;}
</style>
<g>
	<path class="st0" d="M283.23,12c1.42-4.38-4.03-6.42-5.62-2.73c-0.54,1.27,1.83,0.74,2.62,2.17c1,1.8-1.08,6.28-7.01,7.27
		C276.73,18.93,281.86,16.21,283.23,12z"/>
	<g>
		<path class="st0" d="M259.46,33.1c1.2,0.8,1.47,1.92,1.14,2.88c-0.45,0.91-1.44,1.5-2.85,1.2c0.5,1.35,0.06,2.42-0.77,3
			c-0.9,0.47-2.05,0.37-3.01-0.71c-0.39,1.39-1.37,2-2.38,1.97c-1-0.14-1.87-0.9-2.02-2.34c-1.13,0.9-2.28,0.81-3.09,0.19
			c-0.73-0.71-0.98-1.83-0.26-3.08c-1.44,0.06-2.32-0.69-2.61-1.66c-0.17-1,0.28-2.06,1.6-2.65c-1.2-0.8-1.47-1.92-1.14-2.88
			c0.45-0.91,1.44-1.5,2.85-1.2c-0.5-1.35-0.06-2.42,0.77-3c0.9-0.47,2.05-0.37,3.01,0.7c0.39-1.39,1.37-1.99,2.38-1.97
			c1,0.15,1.87,0.91,2.02,2.34c1.13-0.9,2.28-0.81,3.09-0.19c0.73,0.71,0.98,1.83,0.26,3.08c1.44-0.06,2.32,0.69,2.61,1.66
			C261.23,31.46,260.78,32.51,259.46,33.1z M259.75,30.76c-0.13-0.54-0.64-1.31-2.02-1.02l0,0c-0.59,0.12-1.22,0.35-1.84,0.61
			c0.52-0.43,1.01-0.88,1.39-1.35l0,0c0.89-1.09,0.45-1.9,0.03-2.26c-0.42-0.37-1.29-0.68-2.23,0.36l0,0
			c-0.41,0.45-0.78,0.99-1.13,1.58c0.17-0.66,0.3-1.3,0.33-1.91l0,0c0.08-1.41-0.75-1.8-1.31-1.85s-1.44,0.21-1.6,1.6l0,0
			c-0.07,0.6-0.05,1.26,0.01,1.94c-0.25-0.63-0.53-1.23-0.85-1.74l0,0c-0.76-1.19-1.67-1.02-2.14-0.73
			c-0.48,0.29-1.04,1.01-0.35,2.24l0,0c0.3,0.53,0.7,1.05,1.15,1.57c-0.57-0.36-1.15-0.69-1.71-0.91l0,0
			c-1.31-0.51-1.95,0.16-2.16,0.67c-0.22,0.52-0.25,1.43,1.03,2.01l0,0c0.55,0.25,1.19,0.44,1.85,0.59
			c-0.68,0.04-1.33,0.12-1.92,0.27l0,0c-1.37,0.36-1.48,1.27-1.35,1.81c0.13,0.55,0.64,1.31,2.02,1.02l0,0
			c0.6-0.12,1.22-0.34,1.84-0.61c-0.52,0.43-1.01,0.88-1.39,1.35l0,0c-0.89,1.09-0.45,1.9-0.03,2.26c0.42,0.37,1.29,0.68,2.23-0.36
			l0,0c0.41-0.45,0.78-1,1.13-1.58c-0.17,0.66-0.3,1.31-0.33,1.91l0,0c-0.08,1.41,0.75,1.8,1.31,1.85s1.44-0.21,1.6-1.6l0,0
			c0.07-0.6,0.05-1.26-0.01-1.94c0.25,0.63,0.53,1.23,0.85,1.74l0,0c0.76,1.19,1.66,1.02,2.14,0.73s1.04-1.01,0.35-2.23l0,0
			c-0.3-0.53-0.7-1.05-1.15-1.56c0.57,0.36,1.15,0.69,1.71,0.91l0,0c1.31,0.51,1.95-0.15,2.16-0.67c0.22-0.51,0.25-1.43-1.03-2.01
			l0,0c-0.55-0.25-1.19-0.44-1.85-0.59c0.68-0.04,1.33-0.12,1.92-0.27l0,0C259.76,32.22,259.88,31.31,259.75,30.76z"/>
		<path class="st0" d="M253.44,32.6c0.05-0.61-0.4-1.15-1.02-1.2c-0.61-0.05-1.15,0.4-1.2,1.02c-0.05,0.61,0.4,1.15,1.02,1.2
			C252.85,33.66,253.39,33.21,253.44,32.6z"/>
	</g>
	<g>
		<path class="st0" d="M220.71,56.08c1.2,0.8,1.47,1.92,1.14,2.88c-0.45,0.91-1.44,1.5-2.85,1.2c0.5,1.35,0.06,2.42-0.77,3
			c-0.9,0.47-2.05,0.37-3.01-0.71c-0.39,1.39-1.37,2-2.38,1.97c-1-0.14-1.87-0.9-2.02-2.34c-1.13,0.9-2.28,0.81-3.09,0.19
			c-0.73-0.71-0.98-1.83-0.26-3.08c-1.44,0.06-2.32-0.69-2.61-1.66c-0.17-1,0.28-2.06,1.6-2.65c-1.2-0.8-1.47-1.92-1.14-2.88
			c0.45-0.91,1.44-1.5,2.85-1.2c-0.5-1.35-0.06-2.42,0.77-3c0.9-0.47,2.05-0.37,3.01,0.7c0.39-1.39,1.37-1.99,2.38-1.97
			c1,0.15,1.87,0.91,2.02,2.34c1.13-0.9,2.28-0.81,3.09-0.19c0.73,0.71,0.98,1.83,0.26,3.08c1.44-0.06,2.32,0.69,2.61,1.66
			C222.48,54.44,222.03,55.5,220.71,56.08z M221,53.74c-0.13-0.54-0.64-1.31-2.02-1.02l0,0c-0.59,0.12-1.22,0.35-1.84,0.61
			c0.52-0.43,1.01-0.88,1.39-1.35l0,0c0.89-1.09,0.45-1.9,0.03-2.26c-0.42-0.37-1.29-0.68-2.23,0.36l0,0
			c-0.41,0.45-0.78,0.99-1.13,1.58c0.17-0.66,0.3-1.3,0.33-1.91l0,0c0.08-1.41-0.75-1.8-1.31-1.85s-1.44,0.21-1.6,1.6l0,0
			c-0.07,0.6-0.05,1.26,0.01,1.94c-0.25-0.63-0.53-1.23-0.85-1.74l0,0c-0.76-1.19-1.67-1.02-2.14-0.73
			c-0.48,0.29-1.04,1.01-0.35,2.24l0,0c0.3,0.53,0.7,1.05,1.15,1.57c-0.57-0.36-1.15-0.69-1.71-0.91l0,0
			c-1.31-0.51-1.95,0.16-2.16,0.67c-0.22,0.52-0.25,1.43,1.03,2.01l0,0c0.55,0.25,1.19,0.44,1.85,0.59
			c-0.68,0.04-1.33,0.12-1.92,0.27l0,0c-1.37,0.36-1.48,1.27-1.35,1.81c0.13,0.55,0.64,1.31,2.02,1.02l0,0
			c0.6-0.12,1.22-0.34,1.84-0.61c-0.52,0.43-1.01,0.88-1.39,1.35l0,0c-0.89,1.09-0.45,1.9-0.03,2.26c0.42,0.37,1.29,0.68,2.23-0.36
			l0,0c0.41-0.45,0.78-1,1.13-1.58c-0.17,0.66-0.3,1.31-0.33,1.91l0,0c-0.08,1.41,0.75,1.8,1.31,1.85c0.56,0.05,1.44-0.21,1.6-1.6
			l0,0c0.07-0.6,0.05-1.26-0.01-1.94c0.25,0.63,0.53,1.23,0.85,1.74l0,0c0.76,1.19,1.66,1.02,2.14,0.73
			c0.48-0.29,1.04-1.01,0.35-2.23l0,0c-0.3-0.53-0.7-1.05-1.15-1.56c0.57,0.37,1.15,0.69,1.71,0.91l0,0
			c1.31,0.51,1.95-0.15,2.16-0.67c0.22-0.51,0.25-1.43-1.03-2.01l0,0c-0.55-0.25-1.19-0.44-1.85-0.59c0.68-0.04,1.33-0.12,1.92-0.27
			l0,0C221.01,55.2,221.13,54.29,221,53.74z"/>
		<path class="st0" d="M214.69,55.58c0.05-0.61-0.4-1.15-1.02-1.2c-0.61-0.05-1.15,0.4-1.2,1.02c-0.05,0.61,0.4,1.15,1.02,1.2
			C214.1,56.64,214.64,56.19,214.69,55.58z"/>
	</g>
	<g>
		<path class="st0" d="M301.89,26.63c0.03,0.11,0.05,0.13,0.04,0.09C301.93,26.76,301.92,26.72,301.89,26.63z"/>
		<path class="st0" d="M301.82,26.28c-0.05-0.26-0.21-0.49-0.31-0.73c-0.13-0.23-0.29-0.45-0.45-0.66c0.15,0.21,0.3,0.43,0.43,0.66
			c0.1,0.25,0.24,0.47,0.29,0.74c0,0.01,0,0.01,0.01,0.03c0.02,0.06,0.03,0.11,0.05,0.17l0.03,0.11c0,0.01,0.01,0.02,0.01,0.04
			c0.03,0.09,0.05,0.12,0.04,0.09c0-0.02-0.01-0.08-0.03-0.13c-0.01-0.04-0.02-0.07-0.03-0.13c-0.01-0.05-0.02-0.09-0.03-0.14
			C301.83,26.32,301.83,26.31,301.82,26.28z"/>
		<path class="st0" d="M301.88,26.6l-0.03-0.11c-0.02-0.06-0.03-0.11-0.05-0.17C301.83,26.42,301.85,26.52,301.88,26.6z"/>
		<path class="st0" d="M301.87,26.47c0.01,0.05,0.02,0.09,0.03,0.13c-0.02-0.07-0.04-0.16-0.07-0.26
			C301.85,26.38,301.86,26.42,301.87,26.47z"/>
		<path class="st0" d="M301.07,24.89c-0.42-0.53-0.96-0.94-1.53-1.27c-0.59-0.32-1.23-0.52-1.88-0.65c-0.66-0.1-1.33-0.12-2-0.02
			c-0.66,0.12-1.31,0.33-1.88,0.69c-1.15,0.73-1.95,1.92-2.3,3.21c-0.18,0.65-0.27,1.32-0.25,1.99c-0.01,0.34,0.05,0.67,0.08,1
			c0.07,0.33,0.11,0.66,0.22,0.98c0.36,1.29,1.1,2.5,2.12,3.4c0.52,0.44,1.09,0.81,1.7,1.12c0.62,0.28,1.26,0.51,1.92,0.65
			c2.65,0.56,5.51,0,7.79-1.53c1.4-0.94,2.59-2.23,3.4-3.77c0.8-1.52,1.18-3.34,0.92-5.1c-0.12-0.88-0.41-1.73-0.78-2.54
			c-0.41-0.79-0.89-1.53-1.47-2.2c-1.16-1.32-2.59-2.39-4.15-3.17c-0.78-0.41-1.6-0.71-2.44-0.98c-0.85-0.27-1.7-0.38-2.56-0.56
			c-1.72-0.21-3.47-0.33-5.2-0.15l-0.65,0.04l-0.64,0.09l-1.29,0.18c-0.84,0.18-1.7,0.3-2.53,0.53c-1.68,0.38-3.31,0.92-4.93,1.44
			c-2.74,0.93-5.44,1.99-8.07,2.95c-0.66,0.24-1.31,0.48-1.96,0.7c-0.65,0.23-1.29,0.44-1.93,0.64c-1.28,0.43-2.51,0.74-3.73,0.96
			c-2.36,0.42-4.41,0.41-5.99,0.04c-1.6-0.33-2.69-1-3.4-1.49c0.55,0.68,1.57,1.59,3.2,2.14c1.61,0.59,3.77,0.78,6.24,0.5
			c1.25-0.15,2.55-0.42,3.83-0.78c1.29-0.35,2.6-0.76,3.91-1.21c2.63-0.89,5.28-1.9,7.89-2.79c3.16-1.09,6.37-1.99,9.62-2.38
			c0.81-0.05,1.63-0.16,2.44-0.13c0.41,0,0.81-0.01,1.22,0.01l1.21,0.1c0.41,0.02,0.8,0.1,1.2,0.17c0.4,0.08,0.8,0.13,1.19,0.22
			c0.77,0.18,1.53,0.44,2.26,0.75c1.45,0.64,2.83,1.5,3.93,2.61c1.12,1.09,1.97,2.45,2.35,3.92c0.08,0.37,0.17,0.74,0.18,1.12
			c0.05,0.38,0.04,0.76,0.01,1.14c-0.06,0.76-0.24,1.51-0.53,2.22c-0.57,1.42-1.54,2.69-2.72,3.66c-1.97,1.63-4.64,2.4-7.19,2.08
			c-1.27-0.16-2.51-0.61-3.55-1.36c-1.05-0.74-1.83-1.82-2.29-3.04c-0.22-0.61-0.36-1.25-0.43-1.9c-0.04-0.65-0.02-1.31,0.1-1.95
			c0.14-0.64,0.37-1.26,0.7-1.83c0.35-0.55,0.78-1.06,1.32-1.45c0.54-0.37,1.16-0.65,1.81-0.79c0.65-0.12,1.33-0.17,2-0.07
			C298.87,23.23,300.18,23.83,301.07,24.89z"/>
		<path class="st0" d="M257.64,22.08c0.71,0.48,1.8,1.16,3.4,1.49c1.58,0.37,3.63,0.38,5.99-0.04c1.22-0.22,2.46-0.54,3.73-0.96
			c0.64-0.2,1.28-0.41,1.93-0.64c0.65-0.22,1.3-0.46,1.96-0.7c2.64-0.96,5.34-2.02,8.07-2.95c1.62-0.53,3.25-1.06,4.93-1.44
			c0.83-0.23,1.69-0.35,2.53-0.53l1.29-0.18l0.64-0.09l0.65-0.04c1.73-0.17,3.48-0.06,5.2,0.15c0.85,0.18,1.71,0.29,2.56,0.56
			c0.84,0.26,1.66,0.57,2.44,0.98c1.57,0.78,2.99,1.85,4.15,3.17c0.58,0.67,1.07,1.41,1.47,2.2c0.37,0.81,0.66,1.66,0.78,2.54
			c0.26,1.77-0.12,3.58-0.92,5.1c-0.8,1.53-1.99,2.82-3.4,3.77c-2.28,1.53-5.14,2.09-7.79,1.53c-0.66-0.14-1.3-0.37-1.92-0.65
			c-0.61-0.31-1.18-0.67-1.7-1.12c-1.03-0.9-1.76-2.11-2.12-3.4c-0.11-0.32-0.15-0.65-0.22-0.98c-0.03-0.33-0.09-0.67-0.08-1
			c-0.02-0.67,0.07-1.35,0.25-1.99c0.35-1.3,1.15-2.49,2.3-3.21c0.57-0.36,1.23-0.57,1.88-0.69c0.66-0.1,1.34-0.08,2,0.02
			c0.65,0.13,1.3,0.33,1.88,0.65c0.58,0.33,1.12,0.74,1.53,1.27c0.16,0.21,0.31,0.43,0.45,0.66c0.1,0.25,0.26,0.47,0.31,0.73
			c0.01,0.03,0.01,0.04,0.01,0.05c-0.2-0.68-0.55-1.33-1.06-1.83c-0.5-0.5-1.11-0.9-1.76-1.18c-0.66-0.27-1.35-0.43-2.06-0.48
			c-0.71-0.04-1.42,0.05-2.11,0.26c-0.68,0.21-1.31,0.6-1.84,1.08c-0.53,0.48-0.93,1.1-1.24,1.74c-0.6,1.3-0.72,2.79-0.46,4.18
			c0.33,1.84,1.37,3.6,2.97,4.67c1.57,1.09,3.5,1.55,5.39,1.48s3.77-0.64,5.37-1.71c1.58-1.06,2.91-2.54,3.71-4.32
			c0.5-1.13,0.83-2.45,0.75-3.85c-0.06-1.39-0.51-2.81-1.27-4.08c-1.57-2.53-4.2-4.43-7.2-5.45c-3.03-0.95-6.31-1.18-9.49-0.74
			c-3.18,0.4-6.25,1.28-9.14,2.28c-2.9,1-5.65,2.08-8.25,3.02c-1.3,0.47-2.57,0.9-3.8,1.28c-1.22,0.39-2.39,0.67-3.53,0.86
			c-2.27,0.38-4.34,0.35-6-0.08s-2.87-1.22-3.63-1.89c0.11,0.1,0.39,0.4,0.46,0.49L257.64,22.08z"/>
		<path class="st0" d="M257.11,21.53c-0.01-0.01-0.01-0.01-0.01-0.01S257.1,21.53,257.11,21.53l0.02,0.03
			c0.08,0.1,0.4,0.43,0.48,0.49l0.03,0.02l-0.02-0.03c-0.07-0.09-0.35-0.38-0.46-0.49C257.14,21.56,257.12,21.54,257.11,21.53z"/>
		<path class="st0" d="M301.07,24.89c-0.89-1.05-2.2-1.66-3.52-1.84c-0.67-0.1-1.34-0.05-2,0.07c-0.65,0.14-1.27,0.42-1.81,0.79
			c-0.54,0.39-0.97,0.9-1.32,1.45c-0.34,0.57-0.56,1.19-0.7,1.83c-0.13,0.64-0.15,1.3-0.1,1.95c0.07,0.65,0.21,1.29,0.43,1.9
			c0.46,1.21,1.24,2.3,2.29,3.04c1.04,0.75,2.28,1.2,3.55,1.36c2.55,0.32,5.22-0.45,7.19-2.08c1.19-0.97,2.15-2.24,2.72-3.66
			c0.28-0.71,0.47-1.46,0.53-2.22c0.03-0.38,0.03-0.76-0.01-1.14c-0.02-0.38-0.1-0.75-0.18-1.12c-0.38-1.48-1.23-2.83-2.35-3.92
			c-1.1-1.11-2.48-1.97-3.93-2.61c-0.73-0.31-1.49-0.57-2.26-0.75c-0.39-0.09-0.79-0.15-1.19-0.22s-0.79-0.15-1.2-0.17l-1.21-0.1
			c-0.4-0.02-0.81,0-1.22-0.01c-0.81-0.03-1.63,0.09-2.44,0.13c-3.25,0.39-6.46,1.29-9.62,2.38c-2.61,0.89-5.26,1.9-7.89,2.79
			c-1.31,0.45-2.62,0.86-3.91,1.21c-1.28,0.37-2.58,0.64-3.83,0.78c-2.46,0.29-4.62,0.1-6.24-0.5c-1.63-0.55-2.65-1.46-3.2-2.14
			l-0.03-0.02c-0.08-0.06-0.4-0.39-0.48-0.49c0.13,0.18,0.29,0.39,0.47,0.62c0.2,0.21,0.42,0.43,0.67,0.67
			c0.53,0.43,1.21,0.89,2.06,1.24c1.7,0.7,4.02,0.99,6.64,0.67c1.38-0.16,2.82-0.47,4.22-0.88c1.42-0.39,2.84-0.86,4.27-1.35
			c2.87-0.99,5.75-2.1,8.62-3.03c1.57-0.52,3.15-0.96,4.74-1.33c0.8-0.15,1.59-0.35,2.4-0.44c0.4-0.05,0.8-0.13,1.2-0.16l1.2-0.09
			c0.4-0.04,0.8-0.03,1.2-0.03c0.4,0.01,0.8-0.02,1.2,0.02c0.79,0.08,1.6,0.1,2.37,0.27c0.79,0.13,1.56,0.28,2.3,0.55
			c0.75,0.24,1.47,0.56,2.16,0.93c0.7,0.36,1.34,0.81,1.96,1.28c0.59,0.5,1.17,1.02,1.65,1.62c0.48,0.6,0.91,1.24,1.2,1.93
			c0.18,0.34,0.26,0.7,0.39,1.06c0.07,0.37,0.18,0.73,0.2,1.1c0.18,1.49-0.19,3.02-0.91,4.35c-0.73,1.34-1.8,2.49-3.06,3.33
			c-2.15,1.43-4.94,1.95-7.46,1.3c-0.63-0.17-1.23-0.41-1.8-0.72c-0.56-0.32-1.08-0.72-1.54-1.18c-0.44-0.48-0.81-1.02-1.11-1.6
			c-0.28-0.59-0.5-1.22-0.62-1.86c-0.11-0.65-0.16-1.31-0.09-1.97s0.23-1.31,0.5-1.91c0.28-0.6,0.67-1.15,1.14-1.62
			c0.49-0.45,1.08-0.79,1.71-1.02c0.64-0.2,1.32-0.28,2-0.27c0.68,0.04,1.35,0.18,1.99,0.43c0.63,0.26,1.22,0.63,1.72,1.1
			c0.51,0.47,0.87,1.09,1.08,1.75c0-0.01,0-0.01-0.01-0.03c-0.04-0.26-0.19-0.49-0.29-0.74C301.37,25.32,301.22,25.1,301.07,24.89z"
			/>
		<path class="st0" d="M257.11,21.53c0.01,0.01,0.03,0.02,0.04,0.03c-0.04-0.03-0.07-0.06-0.05-0.04
			C257.1,21.53,257.1,21.53,257.11,21.53z"/>
	</g>
	<g>
		<path class="st0" d="M260.53,26.02c0,0,0.12,0.07,0.33,0.18s0.5,0.3,0.82,0.53c0.65,0.48,1.39,1.25,1.93,2.12
			c0.55,0.87,0.87,1.85,1,2.59c0.13,0.75,0.12,1.28,0.13,1.39c0.04,0.23,0.24,0.42,0.53,0.58c0.29,0.15,0.69,0.26,1.13,0.25
			c0.43-0.01,0.82-0.14,1.09-0.38c0.28-0.24,0.42-0.59,0.36-0.95c-0.02-0.18-0.26-0.95-0.77-1.86c-0.51-0.91-1.34-1.93-2.31-2.68
			c-0.97-0.76-2.05-1.27-2.87-1.5c-0.41-0.11-0.75-0.19-1-0.22C260.66,26.04,260.53,26.02,260.53,26.02z"/>
	</g>
	<g>
		<path class="st0" d="M264.73,26.89c0,0,0.18,0.01,0.5,0.03c0.32,0.01,0.77,0.08,1.29,0.17c1.06,0.21,2.41,0.71,3.59,1.47
			c1.19,0.75,2.17,1.76,2.79,2.62c0.17,0.2,0.29,0.42,0.41,0.6c0.13,0.18,0.22,0.36,0.3,0.51c0.17,0.29,0.27,0.5,0.31,0.57
			c0.09,0.15,0.21,0.26,0.36,0.35c0.14,0.09,0.3,0.16,0.48,0.2c0.36,0.08,0.79,0.06,1.18-0.11c0.4-0.17,0.68-0.48,0.81-0.87
			c0.06-0.19,0.09-0.41,0.06-0.62s-0.11-0.42-0.23-0.62c-0.06-0.1-0.24-0.35-0.55-0.68c-0.15-0.17-0.32-0.36-0.53-0.56
			s-0.43-0.42-0.7-0.62c-1.04-0.86-2.5-1.72-4.03-2.19c-1.53-0.49-3.09-0.62-4.21-0.54c-0.56,0.05-1.02,0.1-1.34,0.18
			C264.91,26.86,264.73,26.89,264.73,26.89z"/>
	</g>
	<g>
		<path class="st0" d="M270.94,26.81c0,0,0.23-0.03,0.63-0.09c0.41-0.03,0.98-0.08,1.68-0.03c1.39,0.07,3.18,0.51,4.95,1.17
			c0.89,0.32,1.78,0.68,2.63,1.02c0.84,0.34,1.57,0.68,2.12,1.03c1.11,0.7,1.46,1.4,1.56,1.53c0.2,0.27,0.46,0.44,0.81,0.58
			c0.34,0.13,0.75,0.26,1.18,0.21c0.42-0.05,0.8-0.34,0.94-0.86c0.15-0.5,0.03-1.21-0.39-1.77c-0.1-0.14-0.4-0.5-0.9-0.91
			c-0.49-0.41-1.22-0.85-2.05-1.17c-0.83-0.33-1.76-0.54-2.68-0.71c-0.92-0.17-1.88-0.34-2.86-0.48c-1.94-0.3-3.92-0.36-5.35-0.14
			c-0.72,0.1-1.29,0.27-1.68,0.39C271.16,26.73,270.94,26.81,270.94,26.81z"/>
	</g>
	<g>
		<path class="st0" d="M306.76,20.24c-0.03-0.01-0.04,0-0.03,0.01C306.72,20.25,306.74,20.24,306.76,20.24z"/>
		<path class="st0" d="M306.82,20.31c0.12,0.04,0.24,0.09,0.37,0.12c-0.12-0.05-0.23-0.11-0.35-0.16h-0.01l-0.04-0.01l-0.03-0.01
			h-0.01c-0.02,0-0.04,0-0.03,0.01c0,0.01,0.01,0.01,0.02,0.02c0.01,0,0.02,0.01,0.03,0.01l0.03,0.01
			C306.81,20.31,306.82,20.31,306.82,20.31z"/>
		<path class="st0" d="M306.77,20.24l0.03,0.01l0.04,0.01C306.81,20.25,306.79,20.25,306.77,20.24z"/>
		<path class="st0" d="M306.78,20.29c-0.01-0.01-0.02-0.01-0.03-0.01c0.02,0.01,0.03,0.02,0.06,0.03L306.78,20.29z"/>
		<path class="st0" d="M307.19,20.43c1.19,0.49,2.54,0.62,3.83,0.31c1.28-0.3,2.55-1.12,3.23-2.43c0.42-0.79,0.61-1.7,0.57-2.63
			c-0.05-0.92-0.34-1.89-0.98-2.69c-1.3-1.64-3.75-2.11-5.62-1.02c-0.77,0.47-1.41,1.18-1.69,2.07c-0.14,0.44-0.19,0.92-0.12,1.37
			c0.07,0.48,0.28,0.91,0.54,1.22c0.51,0.63,1.17,0.86,1.67,0.88c0.52,0.01,0.87-0.21,1.01-0.41c-0.24-0.1-0.5-0.23-0.75-0.44
			c-0.24-0.21-0.49-0.5-0.62-0.85c-0.07-0.18-0.1-0.36-0.09-0.51c0.01-0.18,0.05-0.37,0.13-0.55c0.16-0.37,0.48-0.75,0.86-0.99
			c0.9-0.59,2.4-0.5,3.23,0.31c0.88,0.8,1.21,2.33,0.82,3.62c-0.3,1.07-1.19,1.98-2.31,2.47C309.8,20.66,308.46,20.77,307.19,20.43z
			"/>
		<path class="st0" d="M309.62,17.1c-0.14,0.21-0.49,0.43-1.01,0.41c-0.5-0.02-1.16-0.25-1.67-0.88c-0.26-0.32-0.47-0.74-0.54-1.22
			c-0.07-0.45-0.02-0.93,0.12-1.37c0.29-0.89,0.92-1.61,1.69-2.07c1.87-1.09,4.32-0.62,5.62,1.02c0.64,0.8,0.93,1.77,0.98,2.69
			c0.04,0.93-0.15,1.84-0.57,2.63c-0.68,1.31-1.95,2.13-3.23,2.43c-1.3,0.31-2.64,0.18-3.83-0.31c-0.12-0.03-0.24-0.08-0.37-0.12
			c-0.01,0-0.01,0-0.01,0c1.23,0.6,2.66,0.81,4.04,0.52c0.91-0.18,1.81-0.61,2.53-1.29c0.74-0.68,1.22-1.64,1.4-2.64
			c0.12-0.64,0.13-1.38-0.05-2.16c-0.19-0.77-0.6-1.6-1.29-2.25c-1.4-1.3-3.68-1.57-5.36-0.51c-0.82,0.52-1.42,1.31-1.67,2.22
			c-0.12,0.46-0.13,0.93-0.04,1.38c0.1,0.47,0.32,0.85,0.57,1.15c0.51,0.59,1.18,0.86,1.73,0.86c0.56,0,0.97-0.25,1.1-0.53
			c-0.03,0.02-0.12,0.06-0.15,0.04L309.62,17.1z"/>
		<path class="st0" d="M309.79,17.05C309.79,17.05,309.79,17.04,309.79,17.05L309.79,17.05l-0.01-0.01c-0.03,0-0.13,0.03-0.15,0.06
			l-0.01,0.01h0.01c0.03,0.01,0.12-0.02,0.15-0.04L309.79,17.05z"/>
		<path class="st0" d="M307.19,20.43c1.27,0.34,2.61,0.23,3.73-0.26c1.12-0.5,2-1.4,2.31-2.47c0.39-1.28,0.05-2.81-0.82-3.62
			c-0.83-0.81-2.33-0.9-3.23-0.31c-0.39,0.24-0.71,0.61-0.86,0.99c-0.08,0.18-0.13,0.37-0.13,0.55c-0.01,0.15,0.02,0.33,0.09,0.51
			c0.13,0.36,0.38,0.64,0.62,0.85c0.24,0.21,0.5,0.34,0.75,0.44l0.01-0.01c0.02-0.03,0.12-0.06,0.15-0.06
			c-0.52-0.13-1.15-0.49-1.47-1.24c-0.08-0.19-0.11-0.37-0.09-0.53c0.02-0.19,0.07-0.39,0.17-0.58c0.19-0.39,0.58-0.77,1.01-0.99
			c0.96-0.49,2.39-0.29,3.12,0.57c0.8,0.86,1.05,2.38,0.6,3.61c-0.36,1.05-1.32,1.93-2.48,2.36c-1.16,0.44-2.53,0.48-3.8,0.04h0.01
			C306.95,20.32,307.07,20.38,307.19,20.43z"/>
		<path class="st0" d="M309.79,17.05l-0.01,0.01C309.79,17.05,309.8,17.05,309.79,17.05C309.79,17.04,309.79,17.05,309.79,17.05z"/>
	</g>
	<path class="st0" d="M237.02,26.12c2.01,3.01,6.07,2.21,6.94-0.31c0.75-2.2-0.64-4.21-2.38-4.15c-1.22,0.04-1.72,1.2-1,1.78
		c0.34,0.27,1.26,0,1.4,0.54c0.36,1.36-1.79,2.17-3.07,0.61c-1.98-2.43-1.45-9.78,6.1-8.76C237.93,14.11,233.78,21.26,237.02,26.12z
		"/>
	<path class="st0" d="M218.97,20.25c-4.05-2.26-4-7.52-0.87-9.99c2.55-2.01,5.72-1.7,7.82,0.61c1.73,1.9,1.78,4.43,0.02,6.06
		c-1.55,1.43-4.98,1.4-5.53-1.34c-0.4-2.02,2.06-3.36,2.83-2.04c0.77,1.31-2.09,0.9-1.3,2.03c1.17,1.68,4.88-0.64,3.36-3.75
		c-1.28-2.61-4.87-3.21-6.93-1.21c-2.45,2.37-2.17,6.48,1.54,8.7c8.73,5.21,19.57-14.31,33.85,0.18
		C239.98,0.58,229.49,26.11,218.97,20.25z"/>
	<path class="st0" d="M220.14,25.83c1.51-1.17,5.79,1.35,10.07-4.76C225.63,31.04,217.93,27.53,220.14,25.83z"/>
	<g>
		<path class="st0" d="M264.37,19.53c0.03,0,0.04,0.01,0.03,0.02C264.41,19.54,264.39,19.53,264.37,19.53z"/>
		<path class="st0" d="M264.28,19.6c-0.15,0.03-0.3,0.07-0.45,0.09c0.15-0.04,0.29-0.1,0.43-0.14h0.01l0.05-0.01l0.03-0.01h0.01
			c0.03,0,0.04,0.01,0.03,0.02c-0.01,0.01-0.02,0.02-0.03,0.02s-0.02,0.01-0.03,0.01L264.28,19.6
			C264.3,19.6,264.29,19.6,264.28,19.6z"/>
		<path class="st0" d="M264.35,19.53l-0.03,0.01l-0.05,0.01C264.3,19.54,264.33,19.53,264.35,19.53z"/>
		<path class="st0" d="M264.33,19.59c0.01-0.01,0.02-0.01,0.03-0.01c-0.02,0.01-0.04,0.02-0.07,0.03L264.33,19.59z"/>
		<path class="st0" d="M263.83,19.69c-1.48,0.42-3.1,0.4-4.6-0.13c-1.49-0.53-2.89-1.66-3.52-3.31c-0.4-0.99-0.5-2.11-0.33-3.2
			c0.18-1.09,0.66-2.2,1.52-3.07c1.76-1.78,4.74-2.02,6.82-0.48c0.86,0.66,1.51,1.59,1.74,2.69c0.11,0.54,0.1,1.12-0.04,1.65
			c-0.14,0.57-0.45,1.04-0.8,1.38c-0.69,0.68-1.5,0.87-2.1,0.83c-0.62-0.05-1.01-0.36-1.15-0.63c0.3-0.09,0.63-0.21,0.95-0.42
			c0.31-0.22,0.64-0.53,0.85-0.93c0.1-0.2,0.16-0.41,0.17-0.59c0.02-0.21-0.01-0.44-0.09-0.67c-0.14-0.46-0.47-0.95-0.9-1.28
			c-0.99-0.82-2.79-0.91-3.88-0.05c-1.15,0.84-1.75,2.62-1.45,4.19c0.22,1.31,1.15,2.5,2.42,3.24
			C260.7,19.63,262.27,19.94,263.83,19.69z"/>
		<path class="st0" d="M261.37,15.42c0.14,0.27,0.53,0.58,1.15,0.63c0.6,0.04,1.41-0.15,2.1-0.83c0.35-0.34,0.66-0.82,0.8-1.38
			c0.14-0.53,0.15-1.11,0.04-1.65c-0.22-1.1-0.88-2.03-1.74-2.69c-2.08-1.54-5.06-1.3-6.82,0.48c-0.86,0.87-1.34,1.98-1.52,3.07
			c-0.17,1.1-0.07,2.21,0.33,3.2c0.63,1.65,2.04,2.79,3.52,3.31c1.5,0.53,3.12,0.56,4.6,0.13c0.15-0.02,0.3-0.06,0.45-0.09
			c0.01,0,0.01,0,0.01,0c-1.54,0.55-3.27,0.62-4.87,0.09c-1.06-0.34-2.07-0.96-2.83-1.86c-0.79-0.91-1.24-2.11-1.32-3.32
			c-0.06-0.78,0.02-1.66,0.34-2.57c0.33-0.9,0.92-1.82,1.83-2.51c1.84-1.36,4.58-1.39,6.44,0.1c0.9,0.73,1.52,1.75,1.69,2.86
			c0.08,0.56,0.04,1.12-0.13,1.64c-0.18,0.54-0.49,0.97-0.83,1.29c-0.69,0.64-1.51,0.86-2.17,0.8c-0.67-0.07-1.12-0.43-1.24-0.78
			c0.03,0.03,0.14,0.08,0.17,0.07L261.37,15.42z"/>
		<path class="st0" d="M261.18,15.34C261.18,15.33,261.18,15.33,261.18,15.34l0.01-0.01h0.01c0.04,0,0.15,0.05,0.17,0.09l0.01,0.01
			h-0.01c-0.04,0.01-0.14-0.04-0.17-0.07L261.18,15.34z"/>
		<path class="st0" d="M263.83,19.69c-1.56,0.24-3.14-0.06-4.4-0.8c-1.26-0.74-2.2-1.93-2.42-3.24c-0.29-1.57,0.3-3.35,1.45-4.19
			c1.09-0.85,2.89-0.77,3.88,0.05c0.43,0.34,0.76,0.82,0.9,1.28c0.07,0.23,0.1,0.46,0.09,0.67c-0.01,0.18-0.06,0.39-0.17,0.59
			c-0.21,0.41-0.54,0.72-0.85,0.93c-0.32,0.22-0.64,0.33-0.95,0.42l-0.01-0.01c-0.02-0.04-0.13-0.09-0.17-0.09
			c0.63-0.09,1.43-0.44,1.91-1.28c0.11-0.22,0.18-0.43,0.17-0.62c0-0.23-0.03-0.47-0.12-0.72c-0.18-0.49-0.58-1-1.07-1.31
			c-1.07-0.7-2.8-0.66-3.79,0.27c-1.06,0.91-1.56,2.69-1.18,4.21c0.29,1.3,1.31,2.47,2.64,3.13c1.32,0.68,2.95,0.9,4.51,0.54h-0.01
			C264.12,19.6,263.98,19.65,263.83,19.69z"/>
		<path class="st0" d="M261.18,15.34l0.01,0.02C261.18,15.34,261.17,15.33,261.18,15.34C261.18,15.33,261.18,15.33,261.18,15.34z"/>
	</g>
	<g>
		<path class="st0" d="M251.35,12.62c0,0.01,0,0.02-0.01,0.02C251.35,12.64,251.35,12.63,251.35,12.62z"/>
		<path class="st0" d="M251.31,12.64l-0.06-0.09l0.08,0.06l0,0l0.01,0.01c0,0,0,0,0,0.01l0,0c0,0.01,0,0.02-0.01,0.02h-0.01
			C251.33,12.65,251.32,12.65,251.31,12.64L251.31,12.64L251.31,12.64z"/>
		<path class="st0" d="M251.35,12.62C251.35,12.62,251.35,12.61,251.35,12.62l-0.01-0.02C251.35,12.61,251.35,12.61,251.35,12.62z"
			/>
		<path class="st0" d="M251.32,12.64C251.32,12.65,251.33,12.65,251.32,12.64C251.32,12.65,251.32,12.64,251.32,12.64L251.32,12.64z
			"/>
		<path class="st0" d="M251.26,12.55c-0.58-0.37-1.15-0.87-1.54-1.53c-0.49-0.8-0.76-1.87-0.49-2.89c0.11-0.43,0.33-0.84,0.66-1.1
			c0.31-0.26,0.69-0.29,0.99-0.19c0.19,0.28,0.28,0.56,0.31,0.85c0.02,0.29-0.03,0.57-0.08,0.84c-0.14,0.64-0.34,1.34-0.33,2.1
			C250.76,11.25,250.87,11.94,251.26,12.55z"/>
		<path class="st0" d="M250.87,6.83c-0.31-0.1-0.68-0.07-0.99,0.19c-0.33,0.26-0.55,0.67-0.66,1.1c-0.27,1.02,0.01,2.09,0.49,2.89
			c0.39,0.66,0.96,1.16,1.54,1.53l0.06,0.09l0,0c-0.31-0.2-0.63-0.41-0.91-0.69c-0.37-0.35-0.69-0.79-0.93-1.28
			c-0.31-0.61-0.57-1.67-0.3-2.59c0.23-0.93,0.98-1.56,1.71-1.3C250.87,6.79,250.86,6.81,250.87,6.83L250.87,6.83z"/>
		<path class="st0" d="M250.89,6.79L250.89,6.79L250.89,6.79l0.01,0.01c0.01,0.02-0.01,0.04-0.03,0.03h-0.01V6.82
			C250.86,6.81,250.87,6.79,250.89,6.79L250.89,6.79z"/>
		<path class="st0" d="M251.26,12.55c-0.39-0.61-0.5-1.3-0.49-1.92c-0.01-0.76,0.19-1.46,0.33-2.1c0.06-0.27,0.11-0.54,0.08-0.84
			c-0.03-0.29-0.12-0.58-0.31-0.85h0.01c0.02,0.01,0.03-0.02,0.03-0.03c0.19,0.29,0.29,0.6,0.32,0.9c0.02,0.32-0.04,0.61-0.1,0.9
			c-0.15,0.63-0.32,1.32-0.31,2.06c0,0.63,0.13,1.32,0.54,1.94l0,0L251.26,12.55z"/>
		<path class="st0" d="M250.89,6.79L250.89,6.79C250.89,6.79,250.9,6.79,250.89,6.79L250.89,6.79z"/>
	</g>
	<g>
		<path class="st0" d="M282.72,15.12c-0.01,0.01-0.01,0.02,0,0.03C282.72,15.15,282.72,15.13,282.72,15.12z"/>
		<path class="st0" d="M282.78,15.16l0.16-0.08l-0.17,0.03l0,0l-0.02,0.01l-0.01,0.01l0,0c-0.01,0.01-0.01,0.02,0,0.03
			c0,0,0.01,0.01,0.02,0.01c0.01,0,0.01,0,0.01,0L282.78,15.16L282.78,15.16z"/>
		<path class="st0" d="M282.73,15.12l0.01-0.01l0.02-0.01C282.74,15.1,282.73,15.11,282.73,15.12z"/>
		<path class="st0" d="M282.75,15.16h-0.01c0.01,0,0.02,0,0.03,0H282.75z"/>
		<path class="st0" d="M282.93,15.07c1.18-0.19,2.37-0.43,3.52-0.91c1.42-0.58,2.85-1.48,3.86-2.77c0.43-0.54,0.79-1.17,0.93-1.79
			c0.14-0.61,0.01-1.12-0.25-1.47c-0.44-0.01-0.88,0.15-1.31,0.47c-0.44,0.32-0.82,0.76-1.19,1.19c-0.88,1.03-1.73,2.15-2.73,3.13
			C284.94,13.73,284.03,14.5,282.93,15.07z"/>
		<path class="st0" d="M290.99,8.14c0.26,0.35,0.39,0.86,0.25,1.47c-0.14,0.62-0.49,1.25-0.93,1.79c-1.02,1.29-2.45,2.19-3.86,2.77
			c-1.15,0.48-2.34,0.72-3.52,0.91l-0.16,0.08h-0.01c0.62-0.11,1.26-0.19,1.88-0.35c0.82-0.2,1.64-0.48,2.43-0.86
			c1-0.47,2.42-1.37,3.32-2.55c0.93-1.16,1.28-2.52,0.65-3.33C291.05,8.1,291.03,8.14,290.99,8.14L290.99,8.14z"/>
		<path class="st0" d="M291.04,8.06L291.04,8.06l-0.01-0.01h-0.01c-0.02,0-0.05,0.05-0.03,0.07L291,8.13h0.01
			C291.03,8.14,291.05,8.1,291.04,8.06C291.04,8.07,291.04,8.06,291.04,8.06z"/>
		<path class="st0" d="M282.93,15.07c1.09-0.57,2.01-1.34,2.83-2.15c1-0.97,1.85-2.09,2.73-3.13c0.37-0.43,0.75-0.87,1.19-1.19
			c0.44-0.31,0.87-0.48,1.31-0.47l-0.01-0.01c-0.02-0.02,0.01-0.07,0.03-0.07c-0.46-0.01-0.93,0.17-1.38,0.5
			c-0.47,0.36-0.89,0.84-1.29,1.31c-0.86,1.04-1.71,2.11-2.7,3.08c-0.83,0.82-1.78,1.59-2.9,2.16l0,0L282.93,15.07z"/>
		<path class="st0" d="M291.04,8.06C291.04,8.06,291.04,8.07,291.04,8.06C291.04,8.07,291.04,8.06,291.04,8.06L291.04,8.06z"/>
	</g>
	<g>
		<path class="st0" d="M248.08,10.15c0.01,0,0.02-0.01,0.01-0.02C248.1,10.14,248.09,10.15,248.08,10.15z"/>
		<path class="st0" d="M248.06,10.11l-0.15-0.02l0.13,0.07l0,0h0.02h0.01l0,0c0.01,0,0.02-0.01,0.01-0.02c0,0,0-0.01-0.01-0.01
			L248.06,10.11L248.06,10.11L248.06,10.11z"/>
		<path class="st0" d="M248.08,10.15h-0.01h-0.02C248.06,10.15,248.07,10.15,248.08,10.15z"/>
		<path class="st0" d="M248.08,10.11l0.01,0.01C248.08,10.11,248.08,10.11,248.08,10.11L248.08,10.11z"/>
		<path class="st0" d="M247.91,10.08c-0.9-0.45-1.68-1.05-2.38-1.7c-0.88-0.8-1.66-1.71-2.44-2.59c-0.34-0.37-0.69-0.75-1.07-1.04
			c-0.38-0.28-0.75-0.42-1.11-0.41c-0.19,0.29-0.26,0.7-0.12,1.2c0.13,0.5,0.45,1.01,0.81,1.45c0.88,1.07,2.09,1.82,3.28,2.3
			C245.87,9.71,246.9,9.92,247.91,10.08z"/>
		<path class="st0" d="M240.91,4.34c0.36-0.01,0.73,0.14,1.11,0.41c0.38,0.29,0.73,0.67,1.07,1.04c0.78,0.88,1.56,1.79,2.44,2.59
			c0.71,0.65,1.48,1.25,2.38,1.7l0.15,0.02l0,0c-0.48-0.23-0.93-0.5-1.34-0.81c-0.55-0.4-1.05-0.83-1.53-1.29
			c-0.62-0.58-1.39-1.49-2.09-2.28c-0.72-0.78-1.38-1.46-2.22-1.46C240.9,4.29,240.92,4.32,240.91,4.34L240.91,4.34z"/>
		<path class="st0" d="M240.87,4.28L240.87,4.28L240.87,4.28l-0.01,0.01c-0.01,0.02,0.01,0.06,0.04,0.05h0.01V4.33
			c0.01-0.02-0.01-0.05-0.03-0.06C240.88,4.28,240.87,4.28,240.87,4.28z"/>
		<path class="st0" d="M247.91,10.08c-1.02-0.16-2.05-0.37-3.04-0.79c-1.19-0.48-2.4-1.24-3.28-2.3c-0.36-0.44-0.68-0.95-0.81-1.45
			c-0.14-0.49-0.06-0.91,0.12-1.2h-0.01c-0.02,0-0.04-0.04-0.04-0.05c-0.19,0.3-0.27,0.74-0.12,1.27c0.16,0.55,0.5,1.11,0.92,1.58
			c0.9,1.04,2.1,1.76,3.29,2.24c1.01,0.41,2.07,0.61,3.11,0.78l0,0L247.91,10.08z"/>
		<path class="st0" d="M240.87,4.28L240.87,4.28C240.88,4.28,240.87,4.28,240.87,4.28L240.87,4.28z"/>
	</g>
	<g>
		<path class="st0" d="M243.92,9.98c0.02,0,0.02-0.01,0.02-0.02C243.94,9.97,243.94,9.98,243.92,9.98z"/>
		<path class="st0" d="M243.89,9.93l-0.21-0.03l0.2,0.07l0,0h0.02h0.02h0.01c0.01,0,0.02-0.01,0.02-0.02s-0.01-0.01-0.01-0.01
			l-0.02-0.01L243.89,9.93C243.9,9.93,243.89,9.93,243.89,9.93z"/>
		<path class="st0" d="M243.92,9.98h-0.02h-0.02C243.89,9.98,243.91,9.98,243.92,9.98z"/>
		<path class="st0" d="M243.91,9.94l0.02,0.01C243.92,9.94,243.91,9.94,243.91,9.94L243.91,9.94z"/>
		<path class="st0" d="M243.68,9.9c-1.32-0.51-2.7-0.92-4.16-1.05c-1.79-0.17-3.77,0.01-5.54,0.77c-0.75,0.31-1.48,0.75-2,1.27
			c-0.51,0.49-0.72,1-0.72,1.38c0.38,0.11,0.86,0.05,1.46-0.12c0.61-0.19,1.27-0.47,1.91-0.73c1.55-0.62,3.17-1.19,4.82-1.45
			C240.82,9.73,242.23,9.66,243.68,9.9z"/>
		<path class="st0" d="M231.26,12.27c0-0.38,0.21-0.89,0.72-1.38c0.52-0.52,1.25-0.95,2-1.27c1.78-0.76,3.75-0.94,5.54-0.77
			c1.46,0.13,2.84,0.53,4.16,1.05l0.21,0.03h0.01c-0.7-0.27-1.41-0.55-2.14-0.73c-0.96-0.25-1.97-0.41-2.99-0.45
			c-1.3-0.06-3.25,0.13-4.85,0.84c-1.61,0.67-2.76,1.82-2.74,2.72C231.18,12.29,231.22,12.26,231.26,12.27L231.26,12.27z"/>
		<path class="st0" d="M231.17,12.33L231.17,12.33L231.17,12.33l0.01,0.01c0.02,0,0.07-0.03,0.07-0.06v-0.01h-0.01
			c-0.02-0.01-0.07,0.03-0.08,0.05L231.17,12.33z"/>
		<path class="st0" d="M243.68,9.9c-1.44-0.24-2.86-0.16-4.23,0.07c-1.65,0.27-3.27,0.83-4.82,1.45c-0.64,0.26-1.3,0.54-1.91,0.73
			c-0.61,0.18-1.09,0.24-1.46,0.12v0.01c0,0.02-0.05,0.06-0.07,0.06c0.4,0.12,0.91,0.05,1.55-0.14c0.67-0.21,1.38-0.52,2.08-0.8
			c1.53-0.62,3.13-1.14,4.77-1.4c1.39-0.23,2.83-0.28,4.3-0.02l0,0L243.68,9.9z"/>
		<path class="st0" d="M231.17,12.33v-0.01V12.33L231.17,12.33z"/>
	</g>
	<g>
		<path class="st0" d="M267.74,20.93c-0.03,0.02-0.04,0.01-0.04,0C267.7,20.94,267.71,20.94,267.74,20.93z"/>
		<path class="st0" d="M267.79,20.82l0.38-0.3l-0.34,0.34l-0.01,0.01l-0.04,0.03l-0.03,0.02c0,0-0.01,0-0.01,0.01
			c-0.03,0.01-0.04,0.01-0.04,0s0.01-0.02,0.02-0.04c0.01-0.01,0.02-0.02,0.03-0.03l0.03-0.03
			C267.78,20.83,267.78,20.82,267.79,20.82z"/>
		<path class="st0" d="M267.75,20.92l0.03-0.02l0.04-0.03C267.8,20.89,267.77,20.91,267.75,20.92z"/>
		<path class="st0" d="M267.75,20.86c-0.01,0.01-0.02,0.02-0.03,0.03c0.01-0.02,0.03-0.04,0.06-0.06L267.75,20.86z"/>
		<path class="st0" d="M268.17,20.52c2.26-2.37,3.18-5.65,2.88-8.66c-0.18-1.87-0.9-3.66-2.05-5.15s-2.67-2.7-4.37-3.5
			c-1.44-0.68-3.05-1.06-4.47-1.16c-1.38-0.1-2.37,0.02-3.04-0.03c0.24-0.61,1.18-1.48,2.85-1.81c1.68-0.35,3.74-0.05,5.49,0.72
			c2.13,0.92,3.95,2.49,5.18,4.4c1.25,1.9,1.86,4.16,1.81,6.27C272.38,15.12,270.74,18.39,268.17,20.52z"/>
		<path class="st0" d="M257.12,2.01c0.67,0.05,1.66-0.07,3.04,0.03c1.42,0.1,3.03,0.48,4.47,1.16c1.7,0.8,3.23,2,4.37,3.5
			c1.15,1.49,1.86,3.28,2.05,5.15c0.31,3.01-0.62,6.29-2.88,8.66l-0.38,0.3c-0.01,0-0.01,0.01-0.01,0.01
			c1.25-1.19,2.14-2.66,2.66-4.22c0.7-2.05,0.8-4.26,0.28-6.27c-0.31-1.29-1.03-2.76-2.13-4.04c-1.1-1.28-2.55-2.39-4.08-3.07
			c-1.52-0.7-3.1-1.03-4.41-1.12c-1.31-0.1-2.36,0.06-3.15,0.04C257,2.13,257.1,2.06,257.12,2.01L257.12,2.01z"/>
		<path class="st0" d="M256.92,2.15C256.92,2.15,256.91,2.14,256.92,2.15C256.91,2.14,256.91,2.14,256.92,2.15V2.13
			c0.02-0.04,0.14-0.12,0.18-0.11h0.02l-0.01,0.01c-0.02,0.04-0.12,0.11-0.17,0.12H256.92z"/>
		<path class="st0" d="M268.17,20.52c2.57-2.13,4.21-5.39,4.29-8.93c0.05-2.12-0.57-4.37-1.81-6.27c-1.23-1.91-3.05-3.48-5.18-4.4
			c-1.75-0.77-3.81-1.07-5.49-0.72c-1.67,0.33-2.62,1.2-2.85,1.81h-0.02c-0.04,0-0.16,0.08-0.18,0.11c0.21-0.64,1.22-1.63,3.01-1.98
			c1.87-0.37,4.13-0.01,6.01,0.94c2.07,1.02,3.81,2.63,4.97,4.56c1.18,1.92,1.71,4.18,1.59,6.28c-0.18,3.59-1.96,6.89-4.68,8.95
			l0.01-0.01L268.17,20.52z"/>
		<path class="st0" d="M256.92,2.15h0.02C256.92,2.15,256.91,2.15,256.92,2.15C256.91,2.14,256.92,2.15,256.92,2.15z"/>
	</g>
	<g>
		<path class="st0" d="M271.77,59.48c0.03,0.01,0.03,0.02,0.02,0.03C271.8,59.49,271.79,59.48,271.77,59.48z"/>
		<path class="st0" d="M271.69,59.52c-0.12-0.01-0.24-0.02-0.36-0.04c0.12,0,0.24-0.01,0.36-0.02h0.01h0.04h0.03h0.01
			c0.02,0.01,0.03,0.02,0.02,0.03s-0.02,0.01-0.03,0.01h-0.03h-0.03C271.7,59.52,271.7,59.52,271.69,59.52z"/>
		<path class="st0" d="M271.76,59.47h-0.03h-0.04C271.72,59.46,271.74,59.47,271.76,59.47z"/>
		<path class="st0" d="M271.74,59.52h0.03c-0.02,0-0.04,0.01-0.06,0.01L271.74,59.52z"/>
		<path class="st0" d="M271.33,59.49c-1.21,0.01-2.43-0.41-3.41-1.2c-0.99-0.79-1.68-1.99-1.93-3.29c-0.31-1.6,0.05-3.5,1.31-4.89
			c0.62-0.69,1.47-1.26,2.5-1.48c1.03-0.21,2.09-0.02,2.99,0.5c0.77,0.43,1.43,1.19,1.69,2.11c0.28,0.96,0.02,1.86-0.38,2.5
			c-0.41,0.62-0.96,0.98-1.44,1.08c-0.48,0.12-0.86,0-1.06-0.18c0.34-0.42,0.68-0.95,0.81-1.67c0.12-0.77-0.11-1.26-0.76-1.69
			c-0.82-0.49-1.85-0.46-2.75,0.26c-0.9,0.7-1.48,1.91-1.51,3.17c-0.04,1.05,0.26,2.15,0.95,3.04
			C269.04,58.63,270.11,59.31,271.33,59.49z"/>
		<path class="st0" d="M271.61,54.63c0.2,0.18,0.58,0.3,1.06,0.18c0.48-0.11,1.03-0.46,1.44-1.08c0.4-0.64,0.65-1.54,0.38-2.5
			c-0.26-0.91-0.92-1.67-1.69-2.11c-0.9-0.52-1.96-0.7-2.99-0.5c-1.03,0.22-1.88,0.78-2.5,1.48c-1.25,1.39-1.62,3.29-1.31,4.89
			c0.24,1.31,0.94,2.5,1.93,3.29c0.98,0.79,2.2,1.21,3.41,1.2c0.12,0.02,0.24,0.03,0.36,0.04c0.01,0,0.01,0,0.01,0
			c-1.28,0.11-2.61-0.27-3.68-1.08c-1.43-1.07-2.27-2.94-2.18-4.84c0.04-1.21,0.53-2.79,1.83-3.96c0.65-0.58,1.49-1.04,2.5-1.15
			c0.97-0.1,1.94,0.12,2.76,0.62c0.81,0.5,1.47,1.32,1.67,2.28c0.2,0.97-0.07,1.82-0.47,2.41c-0.41,0.6-0.97,0.97-1.49,1.09
			c-0.52,0.12-0.96-0.02-1.18-0.24C271.49,54.67,271.58,54.66,271.61,54.63L271.61,54.63z"/>
		<path class="st0" d="M271.45,54.65L271.45,54.65v-0.01l0.01-0.01c0.03-0.02,0.12-0.03,0.15-0.01l0.01,0.01l-0.01,0.01
			c-0.02,0.03-0.11,0.03-0.15,0.02L271.45,54.65z"/>
		<path class="st0" d="M271.33,59.49c-1.23-0.18-2.29-0.86-2.98-1.74c-0.7-0.89-0.99-1.99-0.95-3.04c0.03-1.26,0.61-2.47,1.51-3.17
			c0.89-0.72,1.92-0.76,2.75-0.26c0.65,0.43,0.88,0.92,0.76,1.69c-0.13,0.72-0.46,1.25-0.81,1.67l-0.01-0.01
			c-0.03-0.02-0.12-0.01-0.15,0.01c0.39-0.42,0.77-0.94,0.9-1.68c0.07-0.39,0.02-0.77-0.11-1c-0.15-0.28-0.42-0.55-0.79-0.73
			c-0.4-0.2-0.9-0.28-1.32-0.21c-0.46,0.08-0.93,0.32-1.35,0.69c-0.84,0.74-1.35,1.94-1.34,3.19c0,1.06,0.35,2.16,1.11,3.01
			c0.75,0.86,1.88,1.48,3.13,1.56h-0.01C271.57,59.48,271.45,59.49,271.33,59.49z"/>
		<path class="st0" d="M271.45,54.65l0.01,0.01C271.45,54.66,271.44,54.65,271.45,54.65L271.45,54.65z"/>
	</g>
	<g>
		<path class="st0" d="M291.12,15.29c-0.01,0-0.02-0.01-0.02-0.02C291.1,15.27,291.11,15.28,291.12,15.29z"/>
		<path class="st0" d="M291.14,15.23l0.18-0.03l-0.16,0.09l0,0h-0.02h-0.01l0,0c-0.01,0-0.02-0.01-0.02-0.02s0-0.01,0.01-0.02
			L291.14,15.23L291.14,15.23L291.14,15.23z"/>
		<path class="st0" d="M291.12,15.29h0.01h0.02C291.15,15.29,291.13,15.29,291.12,15.29z"/>
		<path class="st0" d="M291.12,15.24l-0.01,0.01c0.01-0.01,0.01-0.01,0.03-0.02L291.12,15.24z"/>
		<path class="st0" d="M291.32,15.2c1.07-0.58,1.97-1.35,2.78-2.16c1.02-1,1.9-2.13,2.8-3.22c0.39-0.46,0.8-0.92,1.25-1.28
			c0.45-0.34,0.91-0.52,1.36-0.52c0.25,0.35,0.37,0.85,0.24,1.46c-0.13,0.62-0.49,1.25-0.9,1.8c-1.02,1.33-2.46,2.28-3.89,2.9
			C293.78,14.69,292.54,14.97,291.32,15.2z"/>
		<path class="st0" d="M299.52,8.02c-0.45,0-0.91,0.18-1.36,0.52c-0.46,0.36-0.86,0.82-1.25,1.28c-0.9,1.09-1.79,2.22-2.8,3.22
			c-0.81,0.81-1.72,1.58-2.78,2.16l-0.18,0.03h-0.01c0.57-0.3,1.09-0.65,1.57-1.04c0.64-0.5,1.23-1.05,1.78-1.62
			c0.71-0.73,1.59-1.85,2.39-2.83c0.83-0.96,1.61-1.8,2.67-1.81C299.52,7.95,299.5,7.99,299.52,8.02L299.52,8.02z"/>
		<path class="st0" d="M299.56,7.94L299.56,7.94l0.01,0.01v0.01c0.01,0.02-0.01,0.07-0.04,0.07h-0.01l-0.01-0.01
			c-0.02-0.02,0.01-0.06,0.03-0.07C299.55,7.94,299.56,7.94,299.56,7.94z"/>
		<path class="st0" d="M291.32,15.2c1.22-0.22,2.46-0.5,3.65-1.03c1.43-0.61,2.87-1.57,3.89-2.9c0.42-0.54,0.78-1.18,0.9-1.8
			c0.13-0.61,0.02-1.11-0.24-1.46h0.01c0.03,0,0.05-0.05,0.04-0.07c0.27,0.36,0.4,0.9,0.24,1.54c-0.16,0.68-0.55,1.37-1.03,1.95
			c-1.04,1.29-2.47,2.21-3.9,2.82c-1.22,0.53-2.49,0.79-3.73,1.02l0,0L291.32,15.2z"/>
		<path class="st0" d="M299.56,7.94h-0.01C299.55,7.93,299.56,7.93,299.56,7.94L299.56,7.94z"/>
	</g>
	<g>
		<path class="st0" d="M263.34,54.36c0,0.01,0,0.02-0.01,0.03C263.33,54.38,263.34,54.37,263.34,54.36z"/>
		<path class="st0" d="M263.28,54.37l-0.1-0.13l0.14,0.09l0,0l0.01,0.01c0,0,0,0.01,0.01,0.01l0,0c0,0.01,0,0.02-0.01,0.03
			c-0.01,0-0.01,0-0.02,0c-0.01,0-0.01,0-0.01-0.01H263.28L263.28,54.37z"/>
		<path class="st0" d="M263.34,54.35l-0.01-0.01l-0.01-0.01C263.33,54.33,263.34,54.34,263.34,54.35z"/>
		<path class="st0" d="M263.29,54.38c0,0,0.01,0,0.01,0.01C263.29,54.39,263.28,54.38,263.29,54.38L263.29,54.38z"/>
		<path class="st0" d="M263.18,54.23c-0.93-0.62-1.97-0.95-2.98-1.13c-1.26-0.22-2.54-0.2-3.76-0.15c-0.53,0.01-1.06,0.03-1.57-0.05
			c-0.5-0.09-0.93-0.27-1.25-0.58c0.03-0.42,0.26-0.87,0.76-1.21c0.5-0.35,1.19-0.53,1.85-0.58c1.61-0.13,3.21,0.42,4.44,1.23
			C261.69,52.42,262.5,53.32,263.18,54.23z"/>
		<path class="st0" d="M253.61,52.32c0.32,0.31,0.75,0.49,1.25,0.58c0.51,0.08,1.05,0.07,1.57,0.05c1.23-0.05,2.5-0.07,3.76,0.15
			c1.02,0.17,2.06,0.5,2.98,1.13l0.1,0.13l0,0c-0.48-0.33-1-0.6-1.53-0.78c-0.69-0.25-1.4-0.41-2.1-0.51
			c-0.9-0.12-2.16-0.11-3.25-0.06c-1.1,0.01-2.09,0.05-2.86-0.66C253.57,52.37,253.61,52.36,253.61,52.32L253.61,52.32z"/>
		<path class="st0" d="M253.54,52.35L253.54,52.35v-0.01v-0.01c0.01-0.02,0.05-0.04,0.07-0.02l0.01,0.01v0.01
			C253.61,52.36,253.57,52.37,253.54,52.35C253.54,52.36,253.54,52.35,253.54,52.35z"/>
		<path class="st0" d="M263.18,54.23c-0.67-0.92-1.49-1.81-2.53-2.47c-1.23-0.81-2.83-1.36-4.44-1.23
			c-0.66,0.05-1.35,0.23-1.85,0.58c-0.5,0.33-0.73,0.79-0.76,1.21l-0.01-0.01c-0.02-0.02-0.06,0-0.07,0.02
			c0.02-0.43,0.27-0.93,0.81-1.27c0.56-0.37,1.31-0.57,2.04-0.59c1.61-0.08,3.17,0.49,4.39,1.3c1.05,0.69,1.86,1.62,2.55,2.56l0,0
			L263.18,54.23z"/>
		<path class="st0" d="M253.54,52.35C253.54,52.35,253.54,52.36,253.54,52.35C253.54,52.36,253.53,52.36,253.54,52.35L253.54,52.35z
			"/>
	</g>
	<path class="st0" d="M143.93,12c-1.42-4.38,4.03-6.42,5.62-2.73c0.54,1.27-1.83,0.74-2.62,2.17c-1,1.8,1.08,6.28,7.01,7.27
		C150.43,18.93,145.3,16.21,143.93,12z"/>
	<g>
		<path class="st0" d="M166.1,30.46c0.29-0.97,1.17-1.72,2.61-1.66c-0.72-1.25-0.47-2.37,0.26-3.08c0.81-0.62,1.96-0.71,3.09,0.19
			c0.15-1.43,1.02-2.2,2.02-2.34c1.01-0.02,2,0.58,2.38,1.97c0.97-1.07,2.11-1.18,3.01-0.7c0.83,0.58,1.27,1.64,0.77,3
			c1.41-0.3,2.4,0.29,2.85,1.2c0.34,0.96,0.07,2.08-1.14,2.88c1.32,0.59,1.77,1.65,1.6,2.65c-0.29,0.97-1.17,1.72-2.61,1.66
			c0.72,1.25,0.47,2.37-0.26,3.08c-0.81,0.62-1.96,0.71-3.09-0.19c-0.15,1.44-1.02,2.2-2.02,2.34c-1.01,0.03-2-0.58-2.38-1.97
			c-0.97,1.07-2.11,1.18-3.01,0.71c-0.84-0.58-1.28-1.64-0.77-3c-1.41,0.3-2.4-0.29-2.85-1.2c-0.34-0.96-0.07-2.08,1.14-2.88
			C166.38,32.51,165.93,31.46,166.1,30.46z M168.77,32.58L168.77,32.58c0.59,0.15,1.24,0.23,1.92,0.27
			c-0.66,0.15-1.29,0.34-1.85,0.59l0,0c-1.28,0.58-1.25,1.5-1.03,2.01c0.22,0.52,0.85,1.19,2.16,0.67l0,0
			c0.57-0.22,1.14-0.54,1.71-0.91c-0.44,0.51-0.85,1.04-1.15,1.56l0,0c-0.69,1.22-0.13,1.95,0.35,2.23
			c0.48,0.29,1.38,0.46,2.14-0.73l0,0c0.33-0.51,0.61-1.11,0.85-1.74c-0.06,0.68-0.08,1.34-0.01,1.94l0,0
			c0.16,1.4,1.04,1.65,1.6,1.6c0.56-0.05,1.39-0.44,1.31-1.85l0,0c-0.04-0.61-0.16-1.25-0.33-1.91c0.35,0.58,0.73,1.13,1.13,1.58
			l0,0c0.95,1.04,1.81,0.73,2.23,0.36c0.42-0.36,0.86-1.17-0.03-2.26l0,0c-0.39-0.47-0.87-0.92-1.39-1.35
			c0.63,0.27,1.25,0.49,1.84,0.61l0,0c1.38,0.28,1.89-0.48,2.02-1.02s0.01-1.46-1.35-1.81l0,0c-0.59-0.15-1.24-0.23-1.92-0.27
			c0.66-0.15,1.3-0.34,1.85-0.59l0,0c1.28-0.58,1.25-1.5,1.03-2.01s-0.85-1.18-2.16-0.67l0,0c-0.57,0.22-1.14,0.54-1.71,0.91
			c0.44-0.51,0.85-1.04,1.15-1.57l0,0c0.69-1.22,0.13-1.95-0.35-2.24c-0.48-0.29-1.38-0.46-2.14,0.73l0,0
			c-0.33,0.51-0.61,1.11-0.85,1.74c0.06-0.68,0.07-1.34,0.01-1.94l0,0c-0.16-1.39-1.04-1.65-1.6-1.6c-0.56,0.05-1.39,0.44-1.31,1.85
			l0,0c0.04,0.61,0.16,1.25,0.33,1.91c-0.35-0.58-0.72-1.13-1.13-1.58l0,0c-0.95-1.04-1.81-0.72-2.23-0.36s-0.86,1.17,0.03,2.26l0,0
			c0.38,0.47,0.87,0.92,1.39,1.35c-0.63-0.26-1.25-0.49-1.84-0.61l0,0c-1.37-0.28-1.89,0.48-2.02,1.02
			C167.28,31.31,167.4,32.22,168.77,32.58z"/>
		<path class="st0" d="M173.72,32.6c-0.05-0.61,0.4-1.15,1.02-1.2c0.61-0.05,1.15,0.4,1.2,1.02c0.05,0.61-0.4,1.15-1.02,1.2
			C174.31,33.66,173.77,33.21,173.72,32.6z"/>
	</g>
	<g>
		<path class="st0" d="M125.27,26.63c-0.03,0.11-0.05,0.13-0.04,0.09C125.23,26.76,125.24,26.72,125.27,26.63z"/>
		<path class="st0" d="M125.34,26.28c0.05-0.26,0.21-0.49,0.31-0.73c0.13-0.23,0.29-0.45,0.45-0.66c-0.15,0.21-0.3,0.43-0.43,0.66
			c-0.1,0.25-0.24,0.47-0.29,0.74c0,0.01,0,0.01-0.01,0.03c-0.02,0.06-0.03,0.11-0.05,0.17l-0.03,0.11c0,0.01-0.01,0.02-0.01,0.04
			c-0.03,0.09-0.05,0.12-0.04,0.09c0-0.02,0.01-0.08,0.03-0.13c0.01-0.04,0.02-0.07,0.03-0.13c0.01-0.05,0.02-0.09,0.03-0.14
			C125.33,26.32,125.33,26.31,125.34,26.28z"/>
		<path class="st0" d="M125.28,26.6l0.03-0.11c0.02-0.06,0.03-0.11,0.05-0.17C125.33,26.42,125.31,26.52,125.28,26.6z"/>
		<path class="st0" d="M125.29,26.47c-0.01,0.05-0.02,0.09-0.03,0.13c0.02-0.07,0.04-0.16,0.07-0.26
			C125.31,26.38,125.3,26.42,125.29,26.47z"/>
		<path class="st0" d="M126.09,24.89c0.42-0.53,0.96-0.94,1.53-1.27c0.59-0.32,1.23-0.52,1.88-0.65c0.66-0.1,1.33-0.12,2-0.02
			c0.66,0.12,1.31,0.33,1.88,0.69c1.15,0.73,1.95,1.92,2.3,3.21c0.18,0.65,0.27,1.32,0.25,1.99c0.01,0.34-0.05,0.67-0.08,1
			c-0.07,0.33-0.11,0.66-0.22,0.98c-0.36,1.29-1.1,2.5-2.12,3.4c-0.51,0.44-1.09,0.81-1.7,1.12c-0.62,0.28-1.26,0.51-1.92,0.65
			c-2.65,0.56-5.51,0-7.79-1.53c-1.4-0.94-2.59-2.23-3.4-3.77c-0.8-1.52-1.18-3.34-0.92-5.1c0.12-0.88,0.41-1.73,0.78-2.54
			c0.41-0.79,0.89-1.53,1.47-2.2c1.16-1.32,2.59-2.39,4.15-3.17c0.78-0.41,1.6-0.71,2.44-0.98c0.85-0.27,1.7-0.38,2.56-0.56
			c1.72-0.21,3.47-0.33,5.2-0.15l0.65,0.04l0.64,0.09l1.29,0.18c0.84,0.18,1.7,0.3,2.53,0.53c1.68,0.38,3.31,0.92,4.93,1.44
			c2.74,0.93,5.44,1.99,8.07,2.95c0.66,0.24,1.31,0.48,1.96,0.7c0.65,0.23,1.29,0.44,1.93,0.64c1.28,0.43,2.51,0.74,3.73,0.96
			c2.36,0.42,4.41,0.41,5.99,0.04c1.6-0.33,2.69-1,3.4-1.49c-0.55,0.68-1.57,1.59-3.2,2.14c-1.61,0.59-3.77,0.78-6.24,0.5
			c-1.25-0.15-2.55-0.42-3.83-0.78c-1.29-0.35-2.6-0.76-3.91-1.21c-2.63-0.89-5.28-1.9-7.89-2.79c-3.16-1.09-6.37-1.99-9.62-2.38
			c-0.81-0.05-1.63-0.16-2.44-0.13c-0.41,0-0.81-0.01-1.22,0.01l-1.21,0.1c-0.41,0.02-0.8,0.1-1.2,0.17
			c-0.4,0.08-0.8,0.13-1.19,0.22c-0.77,0.18-1.53,0.44-2.26,0.75c-1.45,0.64-2.83,1.5-3.93,2.61c-1.12,1.09-1.97,2.45-2.35,3.92
			c-0.08,0.37-0.17,0.74-0.18,1.12c-0.05,0.38-0.04,0.76-0.01,1.14c0.06,0.76,0.24,1.51,0.53,2.22c0.57,1.42,1.54,2.69,2.72,3.66
			c1.97,1.63,4.64,2.4,7.19,2.08c1.27-0.16,2.51-0.61,3.56-1.36c1.05-0.74,1.83-1.82,2.29-3.04c0.22-0.61,0.36-1.25,0.43-1.9
			c0.04-0.65,0.02-1.31-0.1-1.95c-0.14-0.64-0.37-1.26-0.7-1.83c-0.35-0.55-0.78-1.06-1.32-1.45c-0.54-0.37-1.16-0.65-1.81-0.79
			c-0.65-0.12-1.33-0.17-2-0.07C128.29,23.23,126.98,23.83,126.09,24.89z"/>
		<path class="st0" d="M169.52,22.08c-0.71,0.48-1.8,1.16-3.4,1.49c-1.58,0.37-3.63,0.38-5.99-0.04c-1.22-0.22-2.46-0.54-3.73-0.96
			c-0.64-0.2-1.28-0.41-1.93-0.64c-0.65-0.22-1.3-0.46-1.96-0.7c-2.64-0.96-5.34-2.02-8.07-2.95c-1.62-0.53-3.25-1.06-4.93-1.44
			c-0.83-0.23-1.69-0.35-2.53-0.53l-1.29-0.18l-0.64-0.09L134.4,16c-1.73-0.17-3.48-0.06-5.2,0.15c-0.85,0.18-1.71,0.29-2.56,0.56
			c-0.84,0.26-1.66,0.57-2.44,0.98c-1.57,0.78-2.99,1.85-4.15,3.17c-0.58,0.67-1.07,1.41-1.47,2.2c-0.37,0.81-0.66,1.66-0.78,2.54
			c-0.26,1.77,0.12,3.58,0.92,5.1c0.8,1.53,1.99,2.82,3.4,3.77c2.28,1.53,5.14,2.09,7.79,1.53c0.66-0.14,1.3-0.37,1.92-0.65
			c0.61-0.31,1.18-0.67,1.7-1.12c1.03-0.9,1.76-2.11,2.12-3.4c0.11-0.32,0.15-0.65,0.22-0.98c0.03-0.33,0.09-0.67,0.08-1
			c0.02-0.67-0.07-1.35-0.25-1.99c-0.35-1.3-1.15-2.49-2.3-3.21c-0.57-0.36-1.23-0.57-1.88-0.69c-0.66-0.1-1.34-0.08-2,0.02
			c-0.65,0.13-1.3,0.33-1.88,0.65c-0.58,0.33-1.12,0.74-1.53,1.27c-0.16,0.21-0.31,0.43-0.45,0.66c-0.1,0.25-0.26,0.47-0.31,0.73
			c-0.01,0.03-0.01,0.04-0.01,0.05c0.2-0.68,0.55-1.33,1.06-1.83c0.5-0.5,1.11-0.9,1.76-1.18c0.66-0.27,1.35-0.43,2.06-0.48
			c0.71-0.04,1.42,0.05,2.11,0.26c0.68,0.21,1.31,0.6,1.84,1.08c0.53,0.48,0.93,1.1,1.24,1.74c0.6,1.3,0.72,2.79,0.46,4.18
			c-0.33,1.84-1.37,3.6-2.97,4.67c-1.57,1.09-3.5,1.55-5.39,1.48s-3.77-0.64-5.37-1.71c-1.58-1.06-2.91-2.54-3.71-4.32
			c-0.5-1.13-0.83-2.45-0.75-3.85c0.06-1.39,0.51-2.81,1.27-4.08c1.57-2.53,4.2-4.43,7.2-5.45c3.03-0.95,6.31-1.18,9.49-0.74
			c3.18,0.4,6.25,1.28,9.14,2.28c2.9,1,5.65,2.08,8.25,3.02c1.3,0.47,2.57,0.9,3.8,1.28c1.22,0.39,2.39,0.67,3.53,0.86
			c2.27,0.38,4.34,0.35,6-0.08s2.87-1.22,3.63-1.89c-0.11,0.1-0.39,0.4-0.46,0.49L169.52,22.08z"/>
		<path class="st0" d="M170.05,21.53C170.06,21.52,170.06,21.52,170.05,21.53C170.06,21.52,170.06,21.53,170.05,21.53l-0.02,0.03
			c-0.08,0.1-0.4,0.43-0.48,0.49l-0.03,0.02l0.02-0.03c0.07-0.09,0.35-0.38,0.46-0.49C170.02,21.56,170.04,21.54,170.05,21.53z"/>
		<path class="st0" d="M126.09,24.89c0.89-1.05,2.2-1.66,3.52-1.84c0.67-0.1,1.34-0.05,2,0.07c0.65,0.14,1.27,0.42,1.81,0.79
			c0.54,0.39,0.97,0.9,1.32,1.45c0.34,0.57,0.56,1.19,0.7,1.83c0.13,0.64,0.15,1.3,0.1,1.95c-0.07,0.65-0.21,1.29-0.43,1.9
			c-0.46,1.21-1.24,2.3-2.29,3.04c-1.04,0.75-2.28,1.2-3.56,1.36c-2.55,0.32-5.22-0.45-7.19-2.08c-1.19-0.97-2.15-2.24-2.72-3.66
			c-0.28-0.71-0.47-1.46-0.53-2.22c-0.03-0.38-0.03-0.76,0.01-1.14c0.02-0.38,0.1-0.75,0.18-1.12c0.38-1.48,1.23-2.83,2.35-3.92
			c1.1-1.11,2.48-1.97,3.93-2.61c0.73-0.31,1.49-0.57,2.26-0.75c0.39-0.09,0.79-0.15,1.19-0.22c0.4-0.07,0.79-0.15,1.2-0.17
			l1.21-0.1c0.4-0.02,0.81,0,1.22-0.01c0.81-0.03,1.63,0.09,2.44,0.13c3.25,0.39,6.46,1.29,9.62,2.38c2.61,0.89,5.26,1.9,7.89,2.79
			c1.31,0.45,2.62,0.86,3.91,1.21c1.28,0.37,2.58,0.64,3.83,0.78c2.46,0.29,4.62,0.1,6.24-0.5c1.63-0.55,2.65-1.46,3.2-2.14
			l0.03-0.02c0.08-0.06,0.4-0.39,0.48-0.49c-0.13,0.18-0.29,0.39-0.47,0.62c-0.2,0.21-0.42,0.43-0.67,0.67
			c-0.53,0.43-1.21,0.89-2.06,1.24c-1.7,0.7-4.02,0.99-6.64,0.67c-1.38-0.16-2.82-0.47-4.22-0.88c-1.42-0.39-2.84-0.86-4.27-1.35
			c-2.87-0.99-5.75-2.1-8.62-3.03c-1.57-0.52-3.15-0.96-4.74-1.33c-0.8-0.15-1.59-0.35-2.4-0.44c-0.4-0.05-0.8-0.13-1.2-0.16
			l-1.2-0.09c-0.4-0.04-0.8-0.03-1.2-0.03c-0.4,0.01-0.8-0.02-1.2,0.02c-0.79,0.08-1.6,0.1-2.37,0.27c-0.79,0.13-1.56,0.28-2.3,0.55
			c-0.75,0.24-1.47,0.56-2.16,0.93c-0.7,0.36-1.34,0.81-1.96,1.28c-0.59,0.5-1.17,1.02-1.65,1.62s-0.91,1.24-1.2,1.93
			c-0.18,0.34-0.26,0.7-0.39,1.06c-0.07,0.37-0.18,0.73-0.2,1.1c-0.18,1.49,0.19,3.02,0.91,4.35c0.73,1.34,1.8,2.49,3.06,3.33
			c2.15,1.43,4.94,1.95,7.46,1.3c0.63-0.17,1.23-0.41,1.8-0.72c0.56-0.32,1.08-0.72,1.54-1.18c0.44-0.48,0.81-1.02,1.11-1.6
			c0.28-0.59,0.5-1.22,0.62-1.86c0.11-0.65,0.16-1.31,0.09-1.97s-0.23-1.31-0.5-1.91c-0.28-0.6-0.67-1.15-1.14-1.62
			c-0.49-0.45-1.08-0.79-1.71-1.02c-0.64-0.2-1.32-0.28-2-0.27c-0.68,0.04-1.35,0.18-1.99,0.43c-0.63,0.26-1.22,0.63-1.72,1.1
			c-0.51,0.47-0.87,1.09-1.08,1.75c0-0.01,0-0.01,0.01-0.03c0.04-0.26,0.19-0.49,0.29-0.74C125.79,25.32,125.94,25.1,126.09,24.89z"
			/>
		<path class="st0" d="M170.05,21.53c-0.01,0.01-0.03,0.02-0.04,0.03c0.04-0.03,0.07-0.06,0.05-0.04
			C170.06,21.53,170.06,21.53,170.05,21.53z"/>
	</g>
	<g>
		<path class="st0" d="M166.63,26.02c0,0-0.12,0.07-0.33,0.18s-0.5,0.3-0.82,0.53c-0.65,0.48-1.39,1.25-1.93,2.12
			c-0.55,0.87-0.87,1.85-1,2.59c-0.13,0.75-0.12,1.28-0.13,1.39c-0.04,0.23-0.24,0.42-0.53,0.58c-0.29,0.15-0.69,0.26-1.13,0.25
			c-0.43-0.01-0.82-0.14-1.09-0.38c-0.28-0.24-0.42-0.59-0.36-0.95c0.02-0.18,0.26-0.95,0.77-1.86c0.51-0.91,1.34-1.93,2.31-2.68
			c0.97-0.76,2.05-1.27,2.87-1.5c0.41-0.11,0.75-0.19,1-0.22C166.5,26.04,166.63,26.02,166.63,26.02z"/>
	</g>
	<g>
		<path class="st0" d="M162.43,26.89c0,0-0.18,0.01-0.5,0.03c-0.32,0.01-0.77,0.08-1.29,0.17c-1.06,0.21-2.41,0.71-3.59,1.47
			c-1.19,0.75-2.17,1.76-2.79,2.62c-0.17,0.2-0.29,0.42-0.41,0.6c-0.13,0.18-0.22,0.36-0.3,0.51c-0.17,0.29-0.27,0.5-0.31,0.57
			c-0.09,0.15-0.21,0.26-0.36,0.35c-0.14,0.09-0.3,0.16-0.48,0.2c-0.36,0.08-0.79,0.06-1.18-0.11c-0.4-0.17-0.68-0.48-0.81-0.87
			c-0.06-0.19-0.09-0.41-0.06-0.62s0.11-0.42,0.23-0.62c0.06-0.1,0.24-0.35,0.55-0.68c0.15-0.17,0.32-0.36,0.53-0.56
			c0.21-0.2,0.43-0.42,0.7-0.62c1.04-0.86,2.5-1.72,4.03-2.19c1.53-0.49,3.09-0.62,4.21-0.54c0.56,0.05,1.02,0.1,1.34,0.18
			C162.25,26.86,162.43,26.89,162.43,26.89z"/>
	</g>
	<g>
		<path class="st0" d="M156.22,26.81c0,0-0.23-0.03-0.63-0.09c-0.41-0.03-0.98-0.08-1.68-0.03c-1.39,0.07-3.18,0.51-4.95,1.17
			c-0.89,0.32-1.78,0.68-2.63,1.02c-0.84,0.34-1.57,0.68-2.12,1.03c-1.11,0.7-1.46,1.4-1.56,1.53c-0.2,0.27-0.46,0.44-0.81,0.58
			c-0.34,0.13-0.75,0.26-1.18,0.21c-0.42-0.05-0.8-0.34-0.94-0.86c-0.15-0.5-0.03-1.21,0.39-1.77c0.1-0.14,0.4-0.5,0.9-0.91
			c0.49-0.41,1.22-0.85,2.05-1.17c0.83-0.33,1.76-0.54,2.68-0.71s1.88-0.34,2.86-0.48c1.94-0.3,3.92-0.36,5.35-0.14
			c0.72,0.1,1.29,0.27,1.68,0.39C156,26.73,156.22,26.81,156.22,26.81z"/>
	</g>
	<g>
		<path class="st0" d="M120.4,20.24c0.03-0.01,0.04,0,0.03,0.01C120.44,20.25,120.42,20.24,120.4,20.24z"/>
		<path class="st0" d="M120.34,20.31c-0.12,0.04-0.24,0.09-0.37,0.12c0.12-0.05,0.23-0.11,0.35-0.16h0.01l0.04-0.01l0.03-0.01h0.01
			c0.02,0,0.04,0,0.03,0.01c0,0.01-0.01,0.01-0.02,0.02c-0.01,0-0.02,0.01-0.03,0.01l-0.03,0.01
			C120.35,20.31,120.34,20.31,120.34,20.31z"/>
		<path class="st0" d="M120.39,20.24l-0.03,0.01l-0.04,0.01C120.35,20.25,120.37,20.25,120.39,20.24z"/>
		<path class="st0" d="M120.38,20.29c0.01-0.01,0.02-0.01,0.03-0.01c-0.02,0.01-0.03,0.02-0.06,0.03L120.38,20.29z"/>
		<path class="st0" d="M119.97,20.43c-1.19,0.49-2.54,0.62-3.83,0.31c-1.28-0.3-2.55-1.12-3.23-2.43c-0.42-0.79-0.61-1.7-0.57-2.63
			c0.05-0.92,0.34-1.89,0.98-2.69c1.3-1.64,3.75-2.11,5.62-1.02c0.77,0.47,1.41,1.18,1.69,2.07c0.14,0.44,0.19,0.92,0.12,1.37
			c-0.07,0.48-0.28,0.91-0.54,1.22c-0.51,0.63-1.17,0.86-1.67,0.88c-0.52,0.01-0.87-0.21-1.01-0.41c0.24-0.1,0.5-0.23,0.75-0.44
			c0.24-0.21,0.49-0.5,0.62-0.85c0.07-0.18,0.1-0.36,0.09-0.51c-0.01-0.18-0.05-0.37-0.13-0.55c-0.16-0.37-0.48-0.75-0.86-0.99
			c-0.9-0.59-2.4-0.5-3.23,0.31c-0.88,0.8-1.21,2.33-0.82,3.62c0.3,1.07,1.19,1.98,2.31,2.47C117.36,20.66,118.7,20.77,119.97,20.43
			z"/>
		<path class="st0" d="M117.54,17.1c0.14,0.21,0.49,0.43,1.01,0.41c0.5-0.02,1.16-0.25,1.67-0.88c0.26-0.32,0.47-0.74,0.54-1.22
			c0.07-0.45,0.02-0.93-0.12-1.37c-0.29-0.89-0.92-1.61-1.69-2.07c-1.87-1.09-4.32-0.62-5.62,1.02c-0.64,0.8-0.93,1.77-0.98,2.69
			c-0.04,0.93,0.15,1.84,0.57,2.63c0.68,1.31,1.95,2.13,3.23,2.43c1.3,0.31,2.64,0.18,3.83-0.31c0.12-0.03,0.24-0.08,0.37-0.12
			c0.01,0,0.01,0,0.01,0c-1.23,0.6-2.66,0.81-4.04,0.52c-0.91-0.18-1.81-0.61-2.53-1.29c-0.74-0.68-1.22-1.64-1.4-2.64
			c-0.12-0.64-0.13-1.38,0.05-2.16c0.19-0.77,0.6-1.6,1.29-2.25c1.4-1.3,3.68-1.57,5.36-0.51c0.82,0.52,1.42,1.31,1.67,2.22
			c0.12,0.46,0.13,0.93,0.04,1.38c-0.1,0.47-0.32,0.85-0.57,1.15c-0.51,0.59-1.18,0.86-1.73,0.86c-0.56,0-0.97-0.25-1.1-0.53
			C117.41,17.09,117.5,17.12,117.54,17.1L117.54,17.1z"/>
		<path class="st0" d="M117.37,17.05C117.37,17.05,117.37,17.04,117.37,17.05L117.37,17.05l0.01-0.01c0.03,0,0.13,0.03,0.15,0.06
			l0.01,0.01h-0.01c-0.03,0.01-0.12-0.02-0.15-0.04L117.37,17.05z"/>
		<path class="st0" d="M119.97,20.43c-1.27,0.34-2.61,0.23-3.73-0.26c-1.12-0.5-2-1.4-2.31-2.47c-0.39-1.28-0.05-2.81,0.82-3.62
			c0.83-0.81,2.33-0.9,3.23-0.31c0.39,0.24,0.71,0.61,0.86,0.99c0.08,0.18,0.13,0.37,0.13,0.55c0.01,0.15-0.02,0.33-0.09,0.51
			c-0.13,0.36-0.38,0.64-0.62,0.85c-0.24,0.21-0.5,0.34-0.75,0.44l-0.01-0.01c-0.02-0.03-0.12-0.06-0.15-0.06
			c0.52-0.13,1.15-0.49,1.47-1.24c0.07-0.19,0.11-0.37,0.09-0.53c-0.02-0.19-0.07-0.39-0.17-0.58c-0.19-0.39-0.58-0.77-1.01-0.99
			c-0.96-0.49-2.39-0.29-3.12,0.57c-0.8,0.86-1.05,2.38-0.6,3.61c0.36,1.05,1.32,1.93,2.48,2.36c1.16,0.44,2.53,0.48,3.8,0.04h-0.01
			C120.21,20.32,120.09,20.38,119.97,20.43z"/>
		<path class="st0" d="M117.37,17.05l0.01,0.01C117.37,17.05,117.36,17.05,117.37,17.05C117.37,17.04,117.37,17.05,117.37,17.05z"/>
	</g>
	<path class="st0" d="M190.14,26.12c-2.01,3.01-6.07,2.21-6.94-0.31c-0.75-2.2,0.64-4.21,2.38-4.15c1.22,0.04,1.72,1.2,1,1.78
		c-0.34,0.27-1.26,0-1.4,0.54c-0.36,1.36,1.79,2.17,3.07,0.61c1.98-2.43,1.45-9.78-6.1-8.76C189.23,14.11,193.38,21.26,190.14,26.12
		z"/>
	<path class="st0" d="M208.19,20.25c4.05-2.26,4-7.52,0.87-9.99c-2.55-2.01-5.72-1.7-7.82,0.61c-1.73,1.9-1.78,4.43-0.02,6.06
		c1.55,1.43,4.98,1.4,5.53-1.34c0.4-2.02-2.06-3.36-2.83-2.04c-0.77,1.31,2.09,0.9,1.3,2.03c-1.17,1.68-4.88-0.64-3.36-3.75
		c1.28-2.61,4.87-3.21,6.93-1.21c2.45,2.37,2.17,6.48-1.54,8.7c-8.73,5.21-19.57-14.31-33.85,0.18
		C187.18,0.58,197.67,26.11,208.19,20.25z"/>
	<path class="st0" d="M207.02,25.83c-1.51-1.17-5.79,1.35-10.07-4.76C201.53,31.04,209.23,27.53,207.02,25.83z"/>
	<g>
		<path class="st0" d="M162.79,19.53c-0.03,0-0.04,0.01-0.03,0.02C162.75,19.54,162.77,19.53,162.79,19.53z"/>
		<path class="st0" d="M162.88,19.6c0.15,0.03,0.3,0.07,0.45,0.09c-0.15-0.04-0.29-0.1-0.43-0.14h-0.01l-0.05-0.01l-0.03-0.01h-0.01
			c-0.03,0-0.04,0.01-0.03,0.02c0.01,0.01,0.02,0.02,0.03,0.02s0.02,0.01,0.03,0.01L162.88,19.6
			C162.86,19.6,162.87,19.6,162.88,19.6z"/>
		<path class="st0" d="M162.81,19.53l0.03,0.01l0.05,0.01C162.86,19.54,162.83,19.53,162.81,19.53z"/>
		<path class="st0" d="M162.83,19.59c-0.01-0.01-0.02-0.01-0.03-0.01c0.02,0.01,0.04,0.02,0.07,0.03L162.83,19.59z"/>
		<path class="st0" d="M163.33,19.69c1.48,0.42,3.1,0.4,4.6-0.13c1.49-0.53,2.89-1.66,3.52-3.31c0.4-0.99,0.5-2.11,0.33-3.2
			c-0.18-1.09-0.66-2.2-1.52-3.07c-1.76-1.78-4.74-2.02-6.82-0.48c-0.86,0.66-1.51,1.59-1.74,2.69c-0.11,0.54-0.1,1.12,0.04,1.65
			c0.14,0.57,0.45,1.04,0.8,1.38c0.69,0.68,1.5,0.87,2.1,0.83c0.62-0.05,1.01-0.36,1.15-0.63c-0.3-0.09-0.63-0.21-0.95-0.42
			c-0.31-0.22-0.64-0.53-0.85-0.93c-0.1-0.2-0.16-0.41-0.17-0.59c-0.02-0.21,0.01-0.44,0.09-0.67c0.14-0.46,0.47-0.95,0.9-1.28
			c0.99-0.82,2.79-0.91,3.88-0.05c1.15,0.84,1.75,2.62,1.45,4.19c-0.22,1.31-1.15,2.5-2.42,3.24
			C166.46,19.63,164.89,19.94,163.33,19.69z"/>
		<path class="st0" d="M165.79,15.42c-0.14,0.27-0.53,0.58-1.15,0.63c-0.6,0.04-1.41-0.15-2.1-0.83c-0.35-0.34-0.66-0.82-0.8-1.38
			c-0.14-0.53-0.15-1.11-0.04-1.65c0.22-1.1,0.88-2.03,1.74-2.69c2.08-1.54,5.06-1.3,6.82,0.48c0.86,0.87,1.34,1.98,1.52,3.07
			c0.17,1.1,0.07,2.21-0.33,3.2c-0.63,1.65-2.04,2.79-3.52,3.31c-1.5,0.53-3.12,0.56-4.6,0.13c-0.15-0.02-0.3-0.06-0.45-0.09
			c-0.01,0-0.01,0-0.01,0c1.54,0.55,3.27,0.62,4.87,0.09c1.06-0.34,2.07-0.96,2.83-1.86c0.79-0.91,1.24-2.11,1.32-3.32
			c0.06-0.78-0.02-1.66-0.34-2.57c-0.33-0.9-0.92-1.82-1.83-2.51c-1.84-1.36-4.58-1.39-6.44,0.1c-0.9,0.73-1.52,1.75-1.69,2.86
			c-0.08,0.56-0.04,1.12,0.13,1.64c0.18,0.54,0.49,0.97,0.83,1.29c0.69,0.64,1.51,0.86,2.17,0.8c0.67-0.07,1.12-0.43,1.24-0.78
			c-0.03,0.03-0.14,0.08-0.17,0.07L165.79,15.42z"/>
		<path class="st0" d="M165.98,15.34C165.98,15.33,165.98,15.33,165.98,15.34l-0.01-0.01h-0.01c-0.04,0-0.15,0.05-0.17,0.09
			l-0.01,0.01h0.01c0.04,0.01,0.14-0.04,0.17-0.07L165.98,15.34z"/>
		<path class="st0" d="M163.33,19.69c1.56,0.24,3.14-0.06,4.4-0.8c1.26-0.74,2.2-1.93,2.42-3.24c0.29-1.57-0.3-3.35-1.45-4.19
			c-1.09-0.85-2.89-0.77-3.88,0.05c-0.43,0.34-0.76,0.82-0.9,1.28c-0.07,0.23-0.1,0.46-0.09,0.67c0.01,0.18,0.06,0.39,0.17,0.59
			c0.21,0.41,0.54,0.72,0.85,0.93c0.32,0.22,0.64,0.33,0.95,0.42l0.01-0.01c0.02-0.04,0.13-0.09,0.17-0.09
			c-0.63-0.09-1.43-0.44-1.91-1.28c-0.11-0.22-0.18-0.43-0.17-0.62c0-0.23,0.03-0.47,0.12-0.72c0.18-0.49,0.58-1,1.07-1.31
			c1.07-0.7,2.8-0.66,3.79,0.27c1.06,0.91,1.56,2.69,1.18,4.21c-0.29,1.3-1.31,2.47-2.64,3.13c-1.32,0.68-2.95,0.9-4.51,0.54h0.01
			C163.04,19.6,163.18,19.65,163.33,19.69z"/>
		<path class="st0" d="M165.98,15.34l-0.01,0.02C165.98,15.34,165.99,15.33,165.98,15.34C165.98,15.33,165.98,15.33,165.98,15.34z"
			/>
	</g>
	<g>
		<path class="st0" d="M175.81,12.62c0,0.01,0,0.02,0.01,0.02C175.81,12.64,175.81,12.63,175.81,12.62z"/>
		<path class="st0" d="M175.85,12.64l0.06-0.09l-0.08,0.06l0,0l-0.01,0.01c0,0,0,0,0,0.01l0,0c0,0.01,0,0.02,0.01,0.02h0.01
			C175.83,12.65,175.84,12.65,175.85,12.64L175.85,12.64L175.85,12.64z"/>
		<path class="st0" d="M175.81,12.62C175.81,12.62,175.81,12.61,175.81,12.62l0.01-0.02C175.81,12.61,175.81,12.61,175.81,12.62z"/>
		<path class="st0" d="M175.84,12.64C175.84,12.65,175.83,12.65,175.84,12.64C175.84,12.65,175.84,12.64,175.84,12.64L175.84,12.64z
			"/>
		<path class="st0" d="M175.9,12.55c0.58-0.37,1.15-0.87,1.54-1.53c0.49-0.8,0.76-1.87,0.49-2.89c-0.1-0.43-0.33-0.84-0.66-1.1
			c-0.31-0.26-0.69-0.29-0.99-0.19c-0.19,0.28-0.28,0.56-0.31,0.85c-0.02,0.29,0.03,0.57,0.08,0.84c0.14,0.64,0.34,1.34,0.33,2.1
			C176.4,11.25,176.29,11.94,175.9,12.55z"/>
		<path class="st0" d="M176.29,6.83c0.31-0.1,0.68-0.07,0.99,0.19c0.33,0.26,0.55,0.67,0.66,1.1c0.27,1.02,0,2.09-0.49,2.89
			c-0.39,0.66-0.96,1.16-1.54,1.53l-0.06,0.09l0,0c0.31-0.2,0.63-0.41,0.91-0.69c0.37-0.35,0.69-0.79,0.93-1.28
			c0.31-0.61,0.57-1.67,0.3-2.59c-0.23-0.93-0.98-1.56-1.71-1.3C176.29,6.79,176.3,6.81,176.29,6.83L176.29,6.83z"/>
		<path class="st0" d="M176.27,6.79L176.27,6.79L176.27,6.79l-0.01,0.01c-0.01,0.02,0.01,0.04,0.03,0.03h0.01V6.82
			C176.3,6.81,176.29,6.79,176.27,6.79L176.27,6.79z"/>
		<path class="st0" d="M175.9,12.55c0.39-0.61,0.5-1.3,0.49-1.92c0.01-0.76-0.19-1.46-0.33-2.1c-0.06-0.27-0.11-0.54-0.08-0.84
			c0.03-0.29,0.12-0.58,0.31-0.85h-0.01c-0.02,0.01-0.03-0.02-0.03-0.03c-0.19,0.29-0.29,0.6-0.32,0.9c-0.02,0.32,0.04,0.61,0.1,0.9
			c0.15,0.63,0.32,1.32,0.31,2.06c0,0.63-0.13,1.32-0.54,1.94l0,0L175.9,12.55z"/>
		<path class="st0" d="M176.27,6.79L176.27,6.79C176.27,6.79,176.26,6.79,176.27,6.79L176.27,6.79z"/>
	</g>
	<g>
		<path class="st0" d="M144.44,15.12c0.01,0.01,0.01,0.02,0,0.03C144.44,15.15,144.44,15.13,144.44,15.12z"/>
		<path class="st0" d="M144.38,15.16l-0.16-0.08l0.17,0.03l0,0l0.02,0.01l0.01,0.01l0,0c0.01,0.01,0.01,0.02,0,0.03
			c0,0-0.01,0.01-0.02,0.01c-0.01,0-0.01,0-0.01,0L144.38,15.16L144.38,15.16z"/>
		<path class="st0" d="M144.43,15.12l-0.01-0.01l-0.02-0.01C144.42,15.1,144.43,15.11,144.43,15.12z"/>
		<path class="st0" d="M144.41,15.16L144.41,15.16c0,0-0.01,0-0.02,0H144.41z"/>
		<path class="st0" d="M144.23,15.07c-1.18-0.19-2.37-0.43-3.52-0.91c-1.42-0.58-2.85-1.48-3.86-2.77
			c-0.43-0.54-0.79-1.17-0.93-1.79c-0.14-0.61-0.01-1.12,0.25-1.47c0.44-0.01,0.88,0.15,1.31,0.47c0.44,0.32,0.82,0.76,1.19,1.19
			c0.88,1.03,1.73,2.15,2.73,3.13C142.22,13.73,143.13,14.5,144.23,15.07z"/>
		<path class="st0" d="M136.17,8.14c-0.26,0.35-0.39,0.86-0.25,1.47c0.14,0.62,0.49,1.25,0.93,1.79c1.02,1.29,2.45,2.19,3.86,2.77
			c1.15,0.48,2.34,0.72,3.52,0.91l0.16,0.08h0.01c-0.62-0.11-1.26-0.19-1.88-0.35c-0.82-0.2-1.64-0.48-2.43-0.86
			c-1-0.47-2.42-1.37-3.32-2.55c-0.93-1.16-1.28-2.52-0.65-3.33C136.11,8.1,136.13,8.14,136.17,8.14L136.17,8.14z"/>
		<path class="st0" d="M136.12,8.06L136.12,8.06l0.01-0.01h0.01c0.02,0,0.05,0.05,0.03,0.07l-0.01,0.01h-0.01
			C136.13,8.14,136.11,8.1,136.12,8.06C136.12,8.07,136.12,8.06,136.12,8.06z"/>
		<path class="st0" d="M144.23,15.07c-1.09-0.57-2.01-1.34-2.83-2.15c-1-0.97-1.85-2.09-2.73-3.13c-0.37-0.43-0.75-0.87-1.19-1.19
			c-0.44-0.31-0.87-0.48-1.31-0.47l0.01-0.01c0.02-0.02-0.01-0.07-0.03-0.07c0.46-0.01,0.93,0.17,1.38,0.5
			c0.47,0.36,0.89,0.84,1.29,1.31c0.86,1.04,1.71,2.11,2.7,3.08c0.83,0.82,1.78,1.59,2.9,2.16l0,0L144.23,15.07z"/>
		<path class="st0" d="M136.12,8.06C136.12,8.06,136.12,8.07,136.12,8.06C136.12,8.07,136.12,8.06,136.12,8.06L136.12,8.06z"/>
	</g>
	<g>
		<path class="st0" d="M179.08,10.15c-0.01,0-0.02-0.01-0.01-0.02C179.06,10.14,179.07,10.15,179.08,10.15z"/>
		<path class="st0" d="M179.1,10.11l0.15-0.02l-0.13,0.07l0,0h-0.02h-0.01l0,0c-0.01,0-0.02-0.01-0.01-0.02c0,0,0-0.01,0.01-0.01
			L179.1,10.11L179.1,10.11L179.1,10.11z"/>
		<path class="st0" d="M179.08,10.15L179.08,10.15h0.03C179.1,10.15,179.09,10.15,179.08,10.15z"/>
		<path class="st0" d="M179.08,10.11l-0.01,0.01c0.01-0.01,0.01-0.01,0.02-0.01H179.08z"/>
		<path class="st0" d="M179.25,10.08c0.9-0.45,1.68-1.05,2.38-1.7c0.88-0.8,1.66-1.71,2.44-2.59c0.34-0.37,0.69-0.75,1.07-1.04
			c0.38-0.28,0.75-0.42,1.11-0.41c0.19,0.29,0.26,0.7,0.12,1.2c-0.13,0.5-0.45,1.01-0.81,1.45c-0.88,1.07-2.09,1.82-3.28,2.3
			C181.29,9.71,180.26,9.92,179.25,10.08z"/>
		<path class="st0" d="M186.25,4.34c-0.36-0.01-0.73,0.14-1.11,0.41c-0.38,0.29-0.73,0.67-1.07,1.04c-0.78,0.88-1.56,1.79-2.44,2.59
			c-0.71,0.65-1.48,1.25-2.38,1.7l-0.15,0.02l0,0c0.48-0.23,0.93-0.5,1.34-0.81c0.55-0.4,1.05-0.83,1.53-1.29
			c0.62-0.58,1.39-1.49,2.09-2.28c0.72-0.78,1.38-1.46,2.22-1.46C186.26,4.29,186.24,4.32,186.25,4.34L186.25,4.34z"/>
		<path class="st0" d="M186.29,4.28L186.29,4.28L186.29,4.28l0.01,0.01c0.01,0.02-0.01,0.06-0.04,0.05h-0.01V4.33
			c-0.01-0.02,0.01-0.05,0.03-0.06C186.28,4.28,186.29,4.28,186.29,4.28z"/>
		<path class="st0" d="M179.25,10.08c1.02-0.16,2.05-0.37,3.04-0.79c1.19-0.48,2.4-1.24,3.28-2.3c0.36-0.44,0.68-0.95,0.81-1.45
			c0.14-0.49,0.06-0.91-0.12-1.2h0.01c0.02,0,0.04-0.04,0.04-0.05c0.19,0.3,0.27,0.74,0.12,1.27c-0.16,0.55-0.5,1.11-0.92,1.58
			c-0.9,1.04-2.1,1.76-3.29,2.24c-1.01,0.41-2.07,0.61-3.11,0.78l0,0L179.25,10.08z"/>
		<path class="st0" d="M186.29,4.28L186.29,4.28C186.28,4.28,186.29,4.28,186.29,4.28L186.29,4.28z"/>
	</g>
	<g>
		<path class="st0" d="M183.24,9.98c-0.02,0-0.02-0.01-0.02-0.02C183.22,9.97,183.22,9.98,183.24,9.98z"/>
		<path class="st0" d="M183.27,9.93l0.21-0.03l-0.2,0.07l0,0h-0.02h-0.02h-0.01c-0.01,0-0.02-0.01-0.02-0.02s0.01-0.01,0.01-0.01
			l0.02-0.01L183.27,9.93C183.26,9.93,183.27,9.93,183.27,9.93z"/>
		<path class="st0" d="M183.24,9.98h0.02h0.02C183.27,9.98,183.25,9.98,183.24,9.98z"/>
		<path class="st0" d="M183.25,9.94l-0.02,0.01C183.24,9.94,183.25,9.94,183.25,9.94L183.25,9.94z"/>
		<path class="st0" d="M183.48,9.9c1.32-0.51,2.7-0.92,4.16-1.05c1.79-0.17,3.77,0.01,5.54,0.77c0.75,0.31,1.48,0.75,2,1.27
			c0.51,0.49,0.72,1,0.72,1.38c-0.38,0.11-0.86,0.05-1.46-0.12c-0.61-0.19-1.27-0.47-1.91-0.73c-1.55-0.62-3.17-1.19-4.82-1.45
			C186.34,9.73,184.93,9.66,183.48,9.9z"/>
		<path class="st0" d="M195.9,12.27c0-0.38-0.21-0.89-0.72-1.38c-0.52-0.52-1.25-0.95-2-1.27c-1.78-0.76-3.75-0.94-5.54-0.77
			c-1.46,0.13-2.84,0.53-4.16,1.05l-0.21,0.03h-0.01c0.7-0.27,1.41-0.55,2.14-0.73c0.96-0.25,1.97-0.41,2.99-0.45
			c1.3-0.06,3.25,0.13,4.85,0.84c1.61,0.67,2.76,1.82,2.74,2.72C195.98,12.29,195.94,12.26,195.9,12.27L195.9,12.27z"/>
		<path class="st0" d="M195.99,12.33L195.99,12.33L195.99,12.33l-0.01,0.01c-0.02,0-0.07-0.03-0.07-0.06v-0.01h0.01
			c0.02-0.01,0.07,0.03,0.08,0.05L195.99,12.33z"/>
		<path class="st0" d="M183.48,9.9c1.44-0.24,2.86-0.16,4.23,0.07c1.65,0.27,3.27,0.83,4.82,1.45c0.64,0.26,1.3,0.54,1.91,0.73
			c0.61,0.18,1.09,0.24,1.46,0.12v0.01c0,0.02,0.05,0.06,0.07,0.06c-0.4,0.12-0.91,0.05-1.55-0.14c-0.67-0.21-1.38-0.52-2.08-0.8
			c-1.53-0.62-3.13-1.14-4.77-1.4c-1.39-0.23-2.83-0.28-4.3-0.02l0,0L183.48,9.9z"/>
		<path class="st0" d="M195.99,12.33v-0.01V12.33L195.99,12.33z"/>
	</g>
	<g>
		<path class="st0" d="M159.42,20.93c0.03,0.02,0.04,0.01,0.04,0C159.46,20.94,159.45,20.94,159.42,20.93z"/>
		<path class="st0" d="M159.37,20.82l-0.38-0.3l0.34,0.34l0.01,0.01l0.04,0.03l0.03,0.02c0,0,0.01,0,0.01,0.01
			c0.03,0.01,0.04,0.01,0.04,0s-0.01-0.02-0.02-0.04c-0.01-0.01-0.02-0.02-0.03-0.03L159.37,20.82
			C159.38,20.83,159.38,20.82,159.37,20.82z"/>
		<path class="st0" d="M159.41,20.92l-0.03-0.02l-0.04-0.03C159.36,20.89,159.39,20.91,159.41,20.92z"/>
		<path class="st0" d="M159.41,20.86c0.01,0.01,0.02,0.02,0.03,0.03c-0.01-0.02-0.03-0.04-0.06-0.06L159.41,20.86z"/>
		<path class="st0" d="M158.99,20.52c-2.26-2.37-3.18-5.65-2.88-8.66c0.18-1.87,0.9-3.66,2.05-5.15c1.15-1.49,2.67-2.7,4.37-3.5
			c1.44-0.68,3.05-1.06,4.47-1.16c1.38-0.1,2.37,0.02,3.04-0.03c-0.24-0.61-1.18-1.48-2.85-1.81c-1.68-0.35-3.74-0.05-5.49,0.72
			c-2.13,0.92-3.95,2.49-5.18,4.4c-1.25,1.9-1.86,4.16-1.81,6.27C154.78,15.12,156.42,18.39,158.99,20.52z"/>
		<path class="st0" d="M170.04,2.01c-0.67,0.05-1.66-0.07-3.04,0.03c-1.42,0.1-3.03,0.48-4.47,1.16c-1.7,0.8-3.23,2-4.37,3.5
			c-1.15,1.49-1.86,3.28-2.05,5.15c-0.31,3.01,0.62,6.29,2.88,8.66l0.38,0.3c0.01,0,0.01,0.01,0.01,0.01
			c-1.25-1.19-2.14-2.66-2.66-4.22c-0.7-2.05-0.8-4.26-0.28-6.27c0.31-1.29,1.03-2.76,2.13-4.04c1.1-1.28,2.55-2.39,4.08-3.07
			c1.52-0.7,3.1-1.03,4.41-1.12c1.31-0.1,2.36,0.06,3.15,0.04C170.16,2.13,170.06,2.06,170.04,2.01L170.04,2.01z"/>
		<path class="st0" d="M170.24,2.15C170.24,2.15,170.25,2.14,170.24,2.15C170.25,2.14,170.25,2.14,170.24,2.15V2.13
			c-0.02-0.04-0.14-0.12-0.18-0.11h-0.02l0.01,0.01c0.02,0.04,0.12,0.11,0.17,0.12H170.24z"/>
		<path class="st0" d="M158.99,20.52c-2.57-2.13-4.21-5.39-4.29-8.93c-0.05-2.12,0.57-4.37,1.81-6.27c1.23-1.91,3.05-3.48,5.18-4.4
			c1.75-0.77,3.81-1.07,5.49-0.72c1.67,0.33,2.62,1.2,2.85,1.81h0.02c0.04,0,0.16,0.08,0.18,0.11c-0.21-0.64-1.22-1.63-3.01-1.98
			c-1.87-0.37-4.13-0.01-6.01,0.94c-2.07,1.02-3.81,2.63-4.97,4.56c-1.18,1.92-1.71,4.18-1.59,6.28c0.18,3.59,1.96,6.89,4.68,8.95
			l-0.01-0.01L158.99,20.52z"/>
		<path class="st0" d="M170.24,2.15h-0.02C170.24,2.15,170.25,2.15,170.24,2.15C170.25,2.14,170.24,2.15,170.24,2.15z"/>
	</g>
	<g>
		<path class="st0" d="M155.39,59.48c-0.03,0.01-0.03,0.02-0.02,0.03C155.36,59.49,155.37,59.48,155.39,59.48z"/>
		<path class="st0" d="M155.47,59.52c0.12-0.01,0.24-0.02,0.36-0.04c-0.12,0-0.24-0.01-0.36-0.02h-0.01h-0.04h-0.03h-0.01
			c-0.02,0.01-0.03,0.02-0.02,0.03s0.02,0.01,0.03,0.01h0.03h0.03C155.46,59.52,155.46,59.52,155.47,59.52z"/>
		<path class="st0" d="M155.4,59.47h0.03h0.04C155.44,59.46,155.42,59.47,155.4,59.47z"/>
		<path class="st0" d="M155.42,59.52h-0.03c0.02,0,0.04,0.01,0.06,0.01L155.42,59.52z"/>
		<path class="st0" d="M155.83,59.49c1.21,0.01,2.43-0.41,3.41-1.2c0.99-0.79,1.68-1.99,1.93-3.29c0.31-1.6-0.05-3.5-1.31-4.89
			c-0.62-0.69-1.47-1.26-2.5-1.48c-1.03-0.21-2.09-0.02-2.99,0.5c-0.77,0.43-1.43,1.19-1.69,2.11c-0.28,0.96-0.02,1.86,0.38,2.5
			c0.41,0.62,0.96,0.98,1.44,1.08c0.48,0.12,0.86,0,1.06-0.18c-0.34-0.42-0.68-0.95-0.81-1.67c-0.12-0.77,0.11-1.26,0.76-1.69
			c0.82-0.49,1.85-0.46,2.75,0.26c0.9,0.7,1.48,1.91,1.51,3.17c0.04,1.05-0.26,2.15-0.95,3.04
			C158.12,58.63,157.05,59.31,155.83,59.49z"/>
		<path class="st0" d="M155.55,54.63c-0.2,0.18-0.58,0.3-1.06,0.18c-0.48-0.11-1.03-0.46-1.44-1.08c-0.4-0.64-0.65-1.54-0.38-2.5
			c0.26-0.91,0.92-1.67,1.69-2.11c0.9-0.52,1.96-0.7,2.99-0.5c1.03,0.22,1.88,0.78,2.5,1.48c1.25,1.39,1.62,3.29,1.31,4.89
			c-0.24,1.31-0.94,2.5-1.93,3.29c-0.98,0.79-2.2,1.21-3.41,1.2c-0.12,0.02-0.24,0.03-0.36,0.04c-0.01,0-0.01,0-0.01,0
			c1.28,0.11,2.61-0.27,3.68-1.08c1.43-1.07,2.27-2.94,2.18-4.84c-0.04-1.21-0.53-2.79-1.83-3.96c-0.65-0.58-1.49-1.04-2.5-1.15
			c-0.97-0.1-1.94,0.12-2.76,0.62c-0.81,0.5-1.47,1.32-1.67,2.28c-0.2,0.97,0.07,1.82,0.47,2.41c0.41,0.6,0.97,0.97,1.49,1.09
			c0.52,0.12,0.96-0.02,1.18-0.24C155.67,54.67,155.58,54.66,155.55,54.63L155.55,54.63z"/>
		<path class="st0" d="M155.71,54.65L155.71,54.65v-0.01l-0.01-0.01c-0.03-0.02-0.12-0.03-0.15-0.01l-0.01,0.01l0.01,0.01
			C155.57,54.67,155.66,54.67,155.71,54.65L155.71,54.65z"/>
		<path class="st0" d="M155.83,59.49c1.23-0.18,2.29-0.86,2.98-1.74c0.7-0.89,0.99-1.99,0.95-3.04c-0.03-1.26-0.61-2.47-1.51-3.17
			c-0.89-0.72-1.92-0.76-2.75-0.26c-0.65,0.43-0.88,0.92-0.76,1.69c0.13,0.72,0.46,1.25,0.81,1.67l0.01-0.01
			c0.03-0.02,0.12-0.01,0.15,0.01c-0.39-0.42-0.77-0.94-0.9-1.68c-0.07-0.39-0.02-0.77,0.11-1c0.15-0.28,0.42-0.55,0.79-0.73
			c0.4-0.2,0.9-0.28,1.32-0.21c0.46,0.08,0.93,0.32,1.35,0.69c0.84,0.74,1.35,1.94,1.34,3.19c0,1.06-0.35,2.16-1.11,3.01
			c-0.75,0.86-1.88,1.48-3.13,1.56h0.01C155.59,59.48,155.71,59.49,155.83,59.49z"/>
		<path class="st0" d="M155.71,54.65l-0.01,0.01C155.71,54.66,155.72,54.65,155.71,54.65L155.71,54.65z"/>
	</g>
	<g>
		<path class="st0" d="M136.04,15.29c0.01,0,0.02-0.01,0.02-0.02C136.06,15.27,136.05,15.28,136.04,15.29z"/>
		<path class="st0" d="M136.02,15.23l-0.18-0.03l0.16,0.09l0,0h0.02h0.01l0,0c0.01,0,0.02-0.01,0.02-0.02s0-0.01-0.01-0.02
			l-0.01-0.01L136.02,15.23L136.02,15.23z"/>
		<path class="st0" d="M136.04,15.29L136.04,15.29h-0.03C136.01,15.29,136.03,15.29,136.04,15.29z"/>
		<path class="st0" d="M136.04,15.24l0.01,0.01c-0.01-0.01-0.01-0.01-0.03-0.02L136.04,15.24z"/>
		<path class="st0" d="M135.84,15.2c-1.07-0.58-1.97-1.35-2.78-2.16c-1.02-1-1.9-2.13-2.8-3.22c-0.39-0.46-0.8-0.92-1.25-1.28
			c-0.45-0.34-0.91-0.52-1.36-0.52c-0.25,0.35-0.37,0.85-0.24,1.46c0.13,0.62,0.49,1.25,0.9,1.8c1.02,1.33,2.46,2.28,3.89,2.9
			C133.38,14.69,134.62,14.97,135.84,15.2z"/>
		<path class="st0" d="M127.64,8.02c0.45,0,0.91,0.18,1.36,0.52c0.46,0.36,0.86,0.82,1.25,1.28c0.9,1.09,1.79,2.22,2.8,3.22
			c0.81,0.81,1.72,1.58,2.78,2.16l0.18,0.03h0.01c-0.57-0.3-1.09-0.65-1.57-1.04c-0.64-0.5-1.23-1.05-1.78-1.62
			c-0.71-0.73-1.59-1.85-2.39-2.83c-0.83-0.96-1.61-1.8-2.67-1.81C127.64,7.95,127.66,7.99,127.64,8.02L127.64,8.02z"/>
		<path class="st0" d="M127.6,7.94L127.6,7.94l-0.01,0.01v0.01c-0.01,0.02,0.01,0.07,0.04,0.07h0.01l0.01-0.01
			c0.02-0.02-0.01-0.06-0.03-0.07C127.61,7.94,127.6,7.94,127.6,7.94z"/>
		<path class="st0" d="M135.84,15.2c-1.22-0.22-2.46-0.5-3.65-1.03c-1.43-0.61-2.87-1.57-3.89-2.9c-0.42-0.54-0.78-1.18-0.9-1.8
			c-0.13-0.61-0.02-1.11,0.24-1.46h-0.01c-0.03,0-0.05-0.05-0.04-0.07c-0.27,0.36-0.4,0.9-0.24,1.54c0.16,0.68,0.55,1.37,1.03,1.95
			c1.04,1.29,2.47,2.21,3.9,2.82c1.22,0.53,2.49,0.79,3.73,1.02l0,0L135.84,15.2z"/>
		<path class="st0" d="M127.6,7.94L127.6,7.94C127.61,7.93,127.6,7.93,127.6,7.94L127.6,7.94z"/>
	</g>
	<g>
		<path class="st0" d="M163.82,54.36c0,0.01,0,0.02,0.01,0.03C163.83,54.38,163.82,54.37,163.82,54.36z"/>
		<path class="st0" d="M163.88,54.37l0.1-0.13l-0.14,0.09l0,0l-0.01,0.01c0,0,0,0.01-0.01,0.01l0,0c0,0.01,0,0.02,0.01,0.03
			c0.01,0,0.01,0,0.02,0c0.01,0,0.01,0,0.01-0.01H163.88L163.88,54.37z"/>
		<path class="st0" d="M163.82,54.35l0.01-0.01l0.01-0.01C163.83,54.33,163.82,54.34,163.82,54.35z"/>
		<path class="st0" d="M163.87,54.38c0,0-0.01,0-0.01,0.01c0.01,0,0.02-0.01,0.02-0.01H163.87z"/>
		<path class="st0" d="M163.98,54.23c0.93-0.62,1.97-0.95,2.98-1.13c1.26-0.22,2.54-0.2,3.76-0.15c0.53,0.01,1.06,0.03,1.57-0.05
			c0.5-0.09,0.93-0.27,1.25-0.58c-0.03-0.42-0.26-0.87-0.76-1.21c-0.5-0.35-1.19-0.53-1.85-0.58c-1.61-0.13-3.21,0.42-4.44,1.23
			C165.47,52.42,164.66,53.32,163.98,54.23z"/>
		<path class="st0" d="M173.55,52.32c-0.32,0.31-0.75,0.49-1.25,0.58c-0.51,0.08-1.05,0.07-1.57,0.05c-1.23-0.05-2.5-0.07-3.76,0.15
			c-1.02,0.17-2.06,0.5-2.98,1.13l-0.1,0.13l0,0c0.48-0.33,1-0.6,1.53-0.78c0.69-0.25,1.4-0.41,2.1-0.51
			c0.9-0.12,2.16-0.11,3.25-0.06c1.1,0.01,2.09,0.05,2.86-0.66C173.59,52.37,173.55,52.36,173.55,52.32L173.55,52.32z"/>
		<path class="st0" d="M173.62,52.35L173.62,52.35v-0.01v-0.01c-0.01-0.02-0.05-0.04-0.07-0.02l-0.01,0.01v0.01
			C173.55,52.36,173.59,52.37,173.62,52.35C173.62,52.36,173.62,52.35,173.62,52.35z"/>
		<path class="st0" d="M163.98,54.23c0.67-0.92,1.49-1.81,2.53-2.47c1.23-0.81,2.83-1.36,4.44-1.23c0.66,0.05,1.35,0.23,1.85,0.58
			c0.5,0.33,0.73,0.79,0.76,1.21l0.01-0.01c0.02-0.02,0.06,0,0.07,0.02c-0.02-0.43-0.27-0.93-0.81-1.27
			c-0.56-0.37-1.31-0.57-2.04-0.59c-1.61-0.08-3.17,0.49-4.39,1.3c-1.05,0.69-1.86,1.62-2.55,2.56l0,0L163.98,54.23z"/>
		<path class="st0" d="M173.62,52.35C173.62,52.35,173.62,52.36,173.62,52.35C173.62,52.36,173.63,52.36,173.62,52.35L173.62,52.35z
			"/>
	</g>
	<g id="XMLID_2775_">
		<path id="XMLID_2780_" class="st0" d="M307.14,23.43c0,0,0.1-0.07,0.29-0.19c0.19-0.13,0.47-0.32,0.87-0.53
			c0.78-0.43,1.99-0.99,3.64-1.34c1.64-0.36,3.71-0.51,6.05-0.3c2.35,0.2,4.93,0.86,7.66,1.69c2.74,0.83,5.61,1.89,8.74,2.58
			c3.1,0.74,6.46,1.17,9.96,1.29c3.5,0.17,7.15,0.07,10.87-0.05c3.73-0.09,7.53-0.19,11.33-0.16c3.79,0.03,7.58,0.05,11.31,0.07
			c3.73,0.04,7.4,0.07,10.95,0.1c7.1,0.08,13.73,0.19,19.41,0.3c5.68,0.14,10.41,0.25,13.73,0.33c3.32,0.1,5.21,0.16,5.21,0.16
			s-1.89,0.06-5.21,0.16c-3.32,0.08-8.05,0.19-13.73,0.32c-5.68,0.11-12.31,0.22-19.41,0.3c-3.55,0.04-7.22,0.07-10.95,0.11
			c-3.73,0.02-7.52,0.05-11.31,0.07c-7.54-0.03-15.09,0.58-22.29,0.19c-3.59-0.21-7.06-0.73-10.28-1.58
			c-3.2-0.84-6.08-2.01-8.74-2.96c-2.65-0.97-5.12-1.7-7.35-2.07c-2.24-0.36-4.24-0.37-5.86-0.13c-1.62,0.23-2.85,0.66-3.66,1.01
			c-0.41,0.17-0.71,0.33-0.91,0.44C307.25,23.37,307.14,23.43,307.14,23.43z"/>
		<path id="XMLID_2776_" class="st0" d="M318.13,26.02c3.29,0.88,3.35,2.74,3.35,2.74s-0.99,1.58-4.27,0.7s-5.48-3.31-5.48-3.31
			S314.85,25.14,318.13,26.02z"/>
	</g>
	<g id="XMLID_1_">
		<path id="XMLID_3_" class="st0" d="M120.02,23.43c0,0-0.1-0.07-0.29-0.19c-0.19-0.13-0.47-0.32-0.87-0.53
			c-0.78-0.43-1.99-0.99-3.64-1.34c-1.64-0.36-3.71-0.51-6.05-0.3c-2.35,0.2-4.93,0.86-7.66,1.69c-2.74,0.83-5.61,1.89-8.74,2.58
			c-3.1,0.74-6.46,1.17-9.96,1.29c-3.5,0.17-7.15,0.07-10.87-0.05c-3.73-0.09-7.53-0.19-11.33-0.16c-3.79,0.03-7.58,0.05-11.31,0.07
			c-3.73,0.04-7.4,0.07-10.95,0.1c-7.1,0.08-13.73,0.19-19.41,0.3c-5.68,0.14-10.41,0.25-13.73,0.33C1.89,27.32,0,27.38,0,27.38
			s1.89,0.06,5.21,0.16c3.32,0.08,8.05,0.19,13.73,0.32c5.68,0.11,12.31,0.22,19.41,0.3c3.55,0.04,7.22,0.07,10.95,0.11
			c3.73,0.02,7.52,0.05,11.31,0.07c7.54-0.03,15.09,0.58,22.29,0.19c3.59-0.21,7.06-0.73,10.28-1.58c3.2-0.84,6.08-2.01,8.74-2.96
			c2.65-0.97,5.12-1.7,7.35-2.07c2.24-0.36,4.24-0.37,5.86-0.13c1.62,0.23,2.85,0.66,3.66,1.01c0.41,0.17,0.71,0.33,0.91,0.44
			C119.91,23.37,120.02,23.43,120.02,23.43z"/>
		<path id="XMLID_2_" class="st0" d="M109.03,26.02c-3.29,0.88-3.35,2.74-3.35,2.74s0.99,1.58,4.27,0.7s5.48-3.31,5.48-3.31
			S112.31,25.14,109.03,26.02z"/>
	</g>
</g>
</svg>
