<?xml version="1.0" encoding="UTF-8"?>
<svg id="_图层_1" data-name="图层 1" xmlns="http://www.w3.org/2000/svg" viewBox="0 0 780.6 142.76">
  <defs>
    <style>
      .cls-1 {
        stroke-width: 2.36px;
      }

      .cls-1, .cls-2, .cls-3 {
        fill: #fff;
        stroke: #fff;
        stroke-miterlimit: 10;
      }

      .cls-3 {
        stroke-width: 1.59px;
      }
    </style>
  </defs>
  <g>
    <path class="cls-2" d="M761.5,70.08c-3-1.6-8-4.4-10.8-11.4-2.1-5.4-4.1-9.3-11-13.5-2.7-15.8-14.3-31.5-34.4-31.5H74.7c-20,0-31.7,15.7-34.4,31.5-6.9,4.2-8.8,8.1-11,13.5-2.8,7-7.8,9.8-10.8,11.4l-2.9,1.6,2.9,1.6c3,1.6,8,4.4,10.8,11.4,2.1,5.4,4.1,9.3,11,13.5,2.7,15.8,14.3,31.5,34.4,31.5H705.3c20,0,31.7-15.7,34.4-31.5,6.9-4.2,8.8-8.1,11-13.5,2.8-7,7.8-9.8,10.8-11.4l2.9-1.6-2.9-1.6Zm-13.5,13.4c-2,5.1-3.8,8.5-10.3,12.4l-.6,.3-.1,.7c-2.2,13.7-11.7,29.7-31.6,29.7H74.7c-19.9,0-29.5-16-31.6-29.7l-.1-.6-.6-.3c-6.6-3.9-8.3-7.3-10.3-12.4-2.7-6.7-7.1-10-10.4-11.9,3.3-1.9,7.7-5.2,10.4-11.9,2-5.1,3.8-8.5,10.3-12.4l.6-.3,.1-.7c2.1-13.8,11.7-29.8,31.6-29.8H705.3c19.9,0,29.5,16,31.6,29.7l.1,.7,.6,.3c6.6,3.9,8.3,7.3,10.3,12.4,2.7,6.7,7.1,10,10.4,11.9-3.3,2-7.7,5.2-10.3,11.9Z"/>
    <path class="cls-2" d="M742.3,61.98c-1.9-4.7-2.9-6.5-7.8-9.4l-3.1-1.8-.6-3.5c-1.8-11.3-9.5-24.5-25.5-24.5H74.7c-16,0-23.8,13.2-25.5,24.5l-.5,3.5-3.1,1.8c-4.8,2.9-5.9,4.8-7.8,9.4-1.4,3.5-3.3,6.6-5.7,9.2l-.4,.5,.4,.5c2.4,2.6,4.3,5.7,5.7,9.2,1.9,4.7,2.9,6.6,7.8,9.4l3.1,1.8,.5,3.5c1.8,11.3,9.5,24.5,25.5,24.5H705.3c16,0,23.8-13.2,25.5-24.5l.6-3.5,3.1-1.8c4.8-2.9,5.9-4.8,7.8-9.4,1.4-3.5,3.3-6.6,5.7-9.2l.4-.5-.4-.5c-2.4-2.6-4.4-5.7-5.7-9.2Zm-1.3,18.8c-1.7,4.4-2.6,6-7.2,8.8l-3.6,2.2-.7,4.2c-1.7,10.8-9,23.3-24.2,23.3H74.7c-15.2,0-22.5-12.6-24.2-23.3l-.7-4.3-3.6-2.2c-4.6-2.7-5.5-4.4-7.2-8.8-1.4-3.4-3.2-6.4-5.6-9.1,2.3-2.6,4.2-5.7,5.6-9.1,1.7-4.4,2.6-6,7.2-8.8l3.6-2.2,.7-4.2c1.7-10.8,9-23.4,24.2-23.4H705.3c15.1,0,22.5,12.6,24.2,23.4l.7,4.2,3.6,2.2c4.6,2.8,5.5,4.4,7.2,8.8,1.4,3.4,3.2,6.5,5.5,9.1-2.3,2.7-4.1,5.7-5.5,9.2Z"/>
  </g>
  <g>
    <polygon class="cls-1" points="389.8 1.28 358.4 14.38 389.8 27.48 421.2 14.38 389.8 1.28"/>
    <polygon class="cls-2" points="389.8 8.38 375.4 14.38 389.8 20.38 404.2 14.38 389.8 8.38"/>
  </g>
  <g>
    <polygon class="cls-3" points="337.1 5.58 315.9 14.38 337.1 23.28 358.2 14.38 337.1 5.58"/>
    <polygon class="cls-2" points="337.1 10.38 327.4 14.38 337.1 18.48 346.8 14.38 337.1 10.38"/>
  </g>
  <g>
    <polygon class="cls-3" points="442.1 5.58 420.9 14.38 442.1 23.28 463.2 14.38 442.1 5.58"/>
    <polygon class="cls-2" points="442.1 10.38 432.4 14.38 442.1 18.48 451.8 14.38 442.1 10.38"/>
  </g>
  <g>
    <polygon class="cls-1" points="389.8 115.28 358.4 128.38 389.8 141.48 421.2 128.38 389.8 115.28"/>
    <polygon class="cls-2" points="389.8 122.38 375.4 128.38 389.8 134.38 404.2 128.38 389.8 122.38"/>
  </g>
  <g>
    <polygon class="cls-3" points="337.1 119.58 315.9 128.38 337.1 137.28 358.2 128.38 337.1 119.58"/>
    <polygon class="cls-2" points="337.1 124.38 327.4 128.38 337.1 132.48 346.8 128.38 337.1 124.38"/>
  </g>
  <g>
    <polygon class="cls-3" points="442.1 119.58 420.9 128.38 442.1 137.28 463.2 128.38 442.1 119.58"/>
    <polygon class="cls-2" points="442.1 124.38 432.4 128.38 442.1 132.48 451.8 128.38 442.1 124.38"/>
  </g>
  <ellipse class="cls-2" cx="8.3" cy="72.14" rx="7.8" ry="7.24"/>
  <circle class="cls-2" cx="8.3" cy="71.58" r="4"/>
  <circle class="cls-2" cx="772.3" cy="71.58" r="7.8"/>
  <circle class="cls-2" cx="772.3" cy="71.58" r="4"/>
</svg>