<?xml version="1.0" encoding="utf-8"?>
<!-- Generator: Adobe Illustrator 27.0.0, SVG Export Plug-In . SVG Version: 6.00 Build 0)  -->
<svg version="1.1" id="图层_1" xmlns="http://www.w3.org/2000/svg" xmlns:xlink="http://www.w3.org/1999/xlink" x="0px" y="0px"
	 viewBox="0 0 784.39 144.1" style="enable-background:new 0 0 784.39 144.1;" xml:space="preserve">
<style type="text/css">
	.st0{fill:#A68050;}
	.st1{fill:#FFFFFF;stroke:#A68050;stroke-width:2.3625;stroke-miterlimit:10;}
	.st2{fill:#FFFFFF;stroke:#A68050;stroke-width:1.5897;stroke-miterlimit:10;}
	.st3{fill:none;stroke:#A68050;stroke-miterlimit:10;}
</style>
<g>
	<g>
		<path class="st0" d="M764.68,70.75c-2.99-1.64-8-4.39-10.78-11.39c-2.14-5.39-4.09-9.28-10.98-13.51
			c-2.73-15.79-14.33-31.49-34.38-31.49H187.39h-1.12H77.86c-20.05,0-31.65,15.71-34.38,31.49c-6.89,4.23-8.84,8.12-10.98,13.51
			c-2.79,7.01-7.8,9.75-10.79,11.39l-2.86,1.59l2.86,1.59c2.99,1.64,8,4.38,10.79,11.39c2.14,5.39,4.09,9.28,10.98,13.51
			c2.73,15.79,14.33,31.49,34.38,31.49h108.42h1.12h521.14c20.05,0,31.65-15.7,34.38-31.49c6.89-4.23,8.84-8.12,10.98-13.51
			c2.79-7.01,7.8-9.75,10.78-11.39l2.86-1.59L764.68,70.75z M751.18,84.24c-2.04,5.13-3.76,8.52-10.34,12.43l-0.59,0.35l-0.11,0.68
			c-2.15,13.7-11.71,29.7-31.6,29.7H187.39h-1.12H77.86c-19.89,0-29.45-16-31.6-29.7l-0.11-0.68l-0.59-0.35
			c-6.59-3.91-8.3-7.3-10.34-12.43c-2.67-6.72-7.06-9.96-10.37-11.9c3.31-1.95,7.69-5.18,10.37-11.9
			c2.04-5.13,3.75-8.53,10.34-12.43l0.59-0.35l0.11-0.68c2.15-13.7,11.72-29.7,31.6-29.7h108.42h1.12h521.14
			c19.89,0,29.45,16,31.6,29.7l0.11,0.68l0.59,0.35c6.59,3.91,8.3,7.3,10.34,12.43c2.67,6.72,7.06,9.96,10.37,11.9
			C758.23,74.29,753.85,77.52,751.18,84.24z"/>
		<path class="st0" d="M745.47,62.71c-1.86-4.66-2.94-6.55-7.77-9.42l-3.08-1.82l-0.56-3.54c-1.77-11.31-9.52-24.51-25.53-24.51
			H187.39h-1.12H77.86c-16.01,0-23.76,13.2-25.53,24.51l-0.55,3.54l-3.08,1.82c-4.83,2.87-5.91,4.75-7.77,9.42
			c-1.38,3.47-3.3,6.56-5.71,9.17l-0.43,0.46l0.43,0.46c2.41,2.61,4.33,5.7,5.71,9.17c1.86,4.66,2.94,6.55,7.77,9.42l3.08,1.83
			l0.55,3.54c1.77,11.31,9.53,24.51,25.53,24.51h108.42h1.12h521.14c16.01,0,23.76-13.2,25.53-24.51l0.56-3.54l3.08-1.83
			c4.83-2.87,5.91-4.75,7.77-9.42c1.38-3.47,3.3-6.56,5.71-9.17l0.43-0.46l-0.43-0.46C748.77,69.27,746.85,66.18,745.47,62.71z
			 M744.2,81.47c-1.73,4.36-2.57,6-7.2,8.75l-3.63,2.15l-0.65,4.17c-1.69,10.77-9.04,23.35-24.18,23.35H187.39h-1.12H77.86
			c-15.15,0-22.49-12.58-24.18-23.35l-0.65-4.17l-3.63-2.15c-4.63-2.74-5.46-4.39-7.2-8.75c-1.36-3.43-3.23-6.5-5.56-9.13
			c2.32-2.63,4.19-5.7,5.56-9.13c1.73-4.36,2.57-6,7.2-8.75l3.63-2.15l0.65-4.17c1.69-10.77,9.04-23.36,24.18-23.36h108.42h1.12
			h521.14c15.14,0,22.49,12.58,24.18,23.36l0.65,4.17l3.63,2.15c4.63,2.75,5.46,4.39,7.2,8.75c1.36,3.43,3.23,6.49,5.55,9.13
			C747.43,74.98,745.56,78.04,744.2,81.47z"/>
	</g>
</g>
<g>
	<g>
		<polygon class="st1" points="393,2 361.57,15.13 393,28.25 424.43,15.13 		"/>
	</g>
	<g>
		<polygon class="st0" points="393,9.11 378.58,15.13 393,21.15 407.42,15.13 		"/>
	</g>
</g>
<g>
	<g>
		<polygon class="st2" points="340.28,6.29 319.13,15.13 340.28,23.96 361.44,15.13 		"/>
	</g>
	<g>
		<polygon class="st0" points="340.28,11.08 330.58,15.13 340.28,19.18 349.99,15.13 		"/>
	</g>
</g>
<g>
	<g>
		<polygon class="st2" points="445.28,6.29 424.13,15.13 445.28,23.96 466.44,15.13 		"/>
	</g>
	<g>
		<polygon class="st0" points="445.28,11.08 435.58,15.13 445.28,19.18 454.99,15.13 		"/>
	</g>
</g>
<g>
	<g>
		<polygon class="st1" points="393,116 361.57,129.13 393,142.25 424.43,129.13 		"/>
	</g>
	<g>
		<polygon class="st0" points="393,123.11 378.58,129.13 393,135.15 407.42,129.13 		"/>
	</g>
</g>
<g>
	<g>
		<polygon class="st2" points="340.28,120.29 319.13,129.13 340.28,137.96 361.44,129.13 		"/>
	</g>
	<g>
		<polygon class="st0" points="340.28,125.08 330.58,129.13 340.28,133.18 349.99,129.13 		"/>
	</g>
</g>
<g>
	<g>
		<polygon class="st2" points="445.28,120.29 424.13,129.13 445.28,137.96 466.44,129.13 		"/>
	</g>
	<g>
		<polygon class="st0" points="445.28,125.08 435.58,129.13 445.28,133.18 454.99,129.13 		"/>
	</g>
</g>
<circle class="st3" cx="11.5" cy="72.34" r="7.82"/>
<circle class="st0" cx="11.5" cy="72.34" r="3.99"/>
<circle class="st3" cx="775.5" cy="72.34" r="7.82"/>
<circle class="st0" cx="775.5" cy="72.34" r="3.99"/>
</svg>
