<?xml version="1.0" encoding="utf-8"?>
<!-- Generator: Adobe Illustrator 27.0.0, SVG Export Plug-In . SVG Version: 6.00 Build 0)  -->
<svg version="1.1" id="图层_1" xmlns="http://www.w3.org/2000/svg" xmlns:xlink="http://www.w3.org/1999/xlink" x="0px" y="0px"
	 viewBox="0 0 267.53 433.28" style="enable-background:new 0 0 267.53 433.28;" xml:space="preserve">
<style type="text/css">
	.st0{fill:url(#SVGID_1_);}
	.st1{fill:url(#SVGID_00000031889446573271221040000015358824746825216920_);}
	.st2{fill:url(#SVGID_00000139278563789487453340000002443783106800735677_);}
	.st3{fill:url(#SVGID_00000128484246835307028050000013082490740959895721_);}
	.st4{fill:url(#SVGID_00000103946194383731457400000010070548707709498527_);}
	.st5{fill:url(#SVGID_00000117638656073336442470000017228233942479697567_);}
	.st6{fill:url(#SVGID_00000153673476614340804640000015594113380218521268_);}
	.st7{fill:url(#SVGID_00000132771068233714627490000013800402250351547776_);}
	.st8{fill-rule:evenodd;clip-rule:evenodd;fill:url(#SVGID_00000041267626704946972270000003140269937931534494_);}
	.st9{fill-rule:evenodd;clip-rule:evenodd;fill:url(#SVGID_00000178184459608682517960000006056694675944563842_);}
	.st10{fill-rule:evenodd;clip-rule:evenodd;fill:url(#SVGID_00000118383816758162161950000002498221549155974567_);}
	.st11{fill-rule:evenodd;clip-rule:evenodd;fill:url(#SVGID_00000160187371798771780810000004554020053224083380_);}
</style>
<g>
	<g>
		<linearGradient id="SVGID_1_" gradientUnits="userSpaceOnUse" x1="15.8364" y1="5.5598" x2="251.6958" y2="5.5598">
			<stop  offset="1.209643e-03" style="stop-color:#996427"/>
			<stop  offset="1" style="stop-color:#B2824A"/>
		</linearGradient>
		<path class="st0" d="M240.58,0H26.96C20.2,0,15.84,4.36,15.84,11.12h1C16.84,4.97,20.81,1,26.96,1h213.62
			c6.15,0,10.12,3.97,10.12,10.12h1C251.7,4.36,247.33,0,240.58,0z"/>
		
			<linearGradient id="SVGID_00000150808907612197709960000013116235247266107801_" gradientUnits="userSpaceOnUse" x1="20.3081" y1="8.2615" x2="247.2246" y2="8.2615">
			<stop  offset="1.209643e-03" style="stop-color:#996427"/>
			<stop  offset="1" style="stop-color:#B2824A"/>
		</linearGradient>
		<path style="fill:url(#SVGID_00000150808907612197709960000013116235247266107801_);" d="M27.14,6.03h213.25
			c1.37,0,5.83,0.39,5.83,5.46h1c0-4.76-3.53-6.46-6.83-6.46H27.14c-3.3,0-6.83,1.7-6.83,6.46h1C21.31,6.42,25.77,6.03,27.14,6.03z"
			/>
		
			<linearGradient id="SVGID_00000126296354994743461120000012596334382993758084_" gradientUnits="userSpaceOnUse" x1="0" y1="216.6416" x2="11.1201" y2="216.6416">
			<stop  offset="1.209643e-03" style="stop-color:#996427"/>
			<stop  offset="1" style="stop-color:#B2824A"/>
		</linearGradient>
		<path style="fill:url(#SVGID_00000126296354994743461120000012596334382993758084_);" d="M1,406.33V26.96
			c0-6.15,3.97-10.12,10.12-10.12v-1C4.36,15.84,0,20.2,0,26.96v379.37c0,6.76,4.36,11.12,11.12,11.12v-1
			C4.97,416.45,1,412.47,1,406.33z"/>
		
			<linearGradient id="SVGID_00000065059284983280437210000004927055127802506157_" gradientUnits="userSpaceOnUse" x1="5.0303" y1="216.6416" x2="11.4922" y2="216.6416">
			<stop  offset="1.209643e-03" style="stop-color:#996427"/>
			<stop  offset="1" style="stop-color:#B2824A"/>
		</linearGradient>
		<path style="fill:url(#SVGID_00000065059284983280437210000004927055127802506157_);" d="M5.03,27.14v379
			c0,3.3,1.7,6.83,6.46,6.83v-1c-5.07,0-5.46-4.47-5.46-5.83v-379c0-1.37,0.39-5.83,5.46-5.83v-1C6.73,20.31,5.03,23.84,5.03,27.14z
			"/>
		
			<linearGradient id="SVGID_00000111164722484076818610000014485864138486214319_" gradientUnits="userSpaceOnUse" x1="256.4131" y1="216.6416" x2="267.5322" y2="216.6416">
			<stop  offset="1.209643e-03" style="stop-color:#996427"/>
			<stop  offset="1" style="stop-color:#B2824A"/>
		</linearGradient>
		<path style="fill:url(#SVGID_00000111164722484076818610000014485864138486214319_);" d="M256.41,15.84v1
			c6.15,0,10.12,3.97,10.12,10.12v379.37c0,6.15-3.97,10.12-10.12,10.12v1c6.75,0,11.12-4.36,11.12-11.12V26.96
			C267.53,20.2,263.17,15.84,256.41,15.84z"/>
		
			<linearGradient id="SVGID_00000020395319959942204030000015163482158377381507_" gradientUnits="userSpaceOnUse" x1="256.04" y1="216.6416" x2="262.5024" y2="216.6416">
			<stop  offset="1.209643e-03" style="stop-color:#996427"/>
			<stop  offset="1" style="stop-color:#B2824A"/>
		</linearGradient>
		<path style="fill:url(#SVGID_00000020395319959942204030000015163482158377381507_);" d="M262.5,406.14v-379
			c0-3.3-1.7-6.83-6.46-6.83v1c5.07,0,5.46,4.47,5.46,5.83v379c0,1.37-0.39,5.83-5.46,5.83v1
			C260.8,412.98,262.5,409.44,262.5,406.14z"/>
		
			<linearGradient id="SVGID_00000150820098242639740050000006177466684809350579_" gradientUnits="userSpaceOnUse" x1="15.8364" y1="427.7234" x2="251.6958" y2="427.7234">
			<stop  offset="1.209643e-03" style="stop-color:#996427"/>
			<stop  offset="1" style="stop-color:#B2824A"/>
		</linearGradient>
		<path style="fill:url(#SVGID_00000150820098242639740050000006177466684809350579_);" d="M240.58,432.28H26.96
			c-6.15,0-10.12-3.97-10.12-10.12h-1c0,6.75,4.36,11.12,11.12,11.12h213.62c6.75,0,11.12-4.36,11.12-11.12h-1
			C250.7,428.31,246.72,432.28,240.58,432.28z"/>
		
			<linearGradient id="SVGID_00000071553088998086577000000017543646690587545987_" gradientUnits="userSpaceOnUse" x1="20.3081" y1="425.0215" x2="247.2246" y2="425.0215">
			<stop  offset="1.209643e-03" style="stop-color:#996427"/>
			<stop  offset="1" style="stop-color:#B2824A"/>
		</linearGradient>
		<path style="fill:url(#SVGID_00000071553088998086577000000017543646690587545987_);" d="M27.14,428.25h213.25
			c3.3,0,6.83-1.7,6.83-6.46h-1c0,5.07-4.47,5.46-5.83,5.46H27.14c-1.37,0-5.83-0.39-5.83-5.46h-1
			C20.31,426.55,23.84,428.25,27.14,428.25z"/>
	</g>
	<g>
		<g>
			
				<linearGradient id="SVGID_00000084530556872899306860000014022985204127562164_" gradientUnits="userSpaceOnUse" x1="15.4979" y1="19.3174" x2="23.1367" y2="19.3174">
				<stop  offset="1.209643e-03" style="stop-color:#996427"/>
				<stop  offset="1" style="stop-color:#B2824A"/>
			</linearGradient>
			
				<polygon style="fill-rule:evenodd;clip-rule:evenodd;fill:url(#SVGID_00000084530556872899306860000014022985204127562164_);" points="
				23.14,23.14 23.14,15.5 15.5,15.5 15.5,23.14 23.14,23.14 			"/>
		</g>
		<g>
			
				<linearGradient id="SVGID_00000127729570123945626020000017547263374884410045_" gradientUnits="userSpaceOnUse" x1="244.3955" y1="19.3174" x2="252.0343" y2="19.3174">
				<stop  offset="1.209643e-03" style="stop-color:#996427"/>
				<stop  offset="1" style="stop-color:#B2824A"/>
			</linearGradient>
			
				<polygon style="fill-rule:evenodd;clip-rule:evenodd;fill:url(#SVGID_00000127729570123945626020000017547263374884410045_);" points="
				244.4,23.14 244.4,15.5 252.03,15.5 252.03,23.14 244.4,23.14 			"/>
		</g>
		<g>
			
				<linearGradient id="SVGID_00000082359560234529564320000002421810926473230986_" gradientUnits="userSpaceOnUse" x1="15.4979" y1="413.9659" x2="23.1367" y2="413.9659">
				<stop  offset="1.209643e-03" style="stop-color:#996427"/>
				<stop  offset="1" style="stop-color:#B2824A"/>
			</linearGradient>
			
				<polygon style="fill-rule:evenodd;clip-rule:evenodd;fill:url(#SVGID_00000082359560234529564320000002421810926473230986_);" points="
				23.14,410.15 23.14,417.79 15.5,417.79 15.5,410.15 23.14,410.15 			"/>
		</g>
		<g>
			
				<linearGradient id="SVGID_00000144331400827603009780000016549404832746519450_" gradientUnits="userSpaceOnUse" x1="244.3955" y1="413.9659" x2="252.0343" y2="413.9659">
				<stop  offset="1.209643e-03" style="stop-color:#996427"/>
				<stop  offset="1" style="stop-color:#B2824A"/>
			</linearGradient>
			
				<polygon style="fill-rule:evenodd;clip-rule:evenodd;fill:url(#SVGID_00000144331400827603009780000016549404832746519450_);" points="
				244.4,410.15 244.4,417.79 252.03,417.79 252.03,410.15 244.4,410.15 			"/>
		</g>
	</g>
</g>
</svg>
